<svg width="630" height="630" viewBox="0 0 630 630" fill="none" xmlns="http://www.w3.org/2000/svg">
<g filter="url(#filter0_d_62_178)">
<mask id="path-1-outside-1_62_178" maskUnits="userSpaceOnUse" x="20" y="20" width="590" height="590" fill="black">
<rect fill="white" x="20" y="20" width="590" height="590"/>
<path fill-rule="evenodd" clip-rule="evenodd" d="M250.295 228.4C253.672 171.306 271.826 116.072 302.975 68.1153V68.045C304.115 65.6381 305.914 63.6044 308.163 62.1802C310.412 60.756 313.02 60 315.681 60C318.343 60 320.951 60.756 323.2 62.1802C325.449 63.6044 327.248 65.6381 328.388 68.045L568.453 548.368C569.472 550.447 570.001 552.733 570 555.049C570.004 557.013 569.621 558.959 568.872 560.774C568.123 562.589 567.023 564.239 565.635 565.627C564.247 567.016 562.598 568.117 560.784 568.866C558.969 569.616 557.025 569.999 555.062 569.994H381.005C378.232 569.993 375.513 569.22 373.154 567.76C370.795 566.301 368.889 564.213 367.649 561.731L283.714 393.781C258.434 342.484 246.918 285.493 250.295 228.4ZM201.523 290.13C205.337 290.644 208.792 292.649 211.132 295.706C277.176 366.037 299.952 484.086 262.379 561.731C261.197 564.259 259.304 566.387 256.932 567.855C254.559 569.323 251.811 570.067 249.022 569.995H74.9312C72.6115 570.003 70.323 569.46 68.253 568.413C64.7116 566.64 62.0189 563.532 60.7666 559.774C59.5143 556.015 59.805 551.913 61.5748 548.369L186.528 298.273C187.523 296.202 188.978 294.386 190.781 292.963C193.846 290.635 197.708 289.616 201.523 290.13Z"/>
</mask>
<path fill-rule="evenodd" clip-rule="evenodd" d="M250.295 228.4C253.672 171.306 271.826 116.072 302.975 68.1153V68.045C304.115 65.6381 305.914 63.6044 308.163 62.1802C310.412 60.756 313.02 60 315.681 60C318.343 60 320.951 60.756 323.2 62.1802C325.449 63.6044 327.248 65.6381 328.388 68.045L568.453 548.368C569.472 550.447 570.001 552.733 570 555.049C570.004 557.013 569.621 558.959 568.872 560.774C568.123 562.589 567.023 564.239 565.635 565.627C564.247 567.016 562.598 568.117 560.784 568.866C558.969 569.616 557.025 569.999 555.062 569.994H381.005C378.232 569.993 375.513 569.22 373.154 567.76C370.795 566.301 368.889 564.213 367.649 561.731L283.714 393.781C258.434 342.484 246.918 285.493 250.295 228.4ZM201.523 290.13C205.337 290.644 208.792 292.649 211.132 295.706C277.176 366.037 299.952 484.086 262.379 561.731C261.197 564.259 259.304 566.387 256.932 567.855C254.559 569.323 251.811 570.067 249.022 569.995H74.9312C72.6115 570.003 70.323 569.46 68.253 568.413C64.7116 566.64 62.0189 563.532 60.7666 559.774C59.5143 556.015 59.805 551.913 61.5748 548.369L186.528 298.273C187.523 296.202 188.978 294.386 190.781 292.963C193.846 290.635 197.708 289.616 201.523 290.13Z" fill="#2684FF"/>
<path d="M302.975 68.1153L336.52 89.9039L342.975 79.9658V68.1153H302.975ZM250.295 228.4L210.365 226.038L210.365 226.038L250.295 228.4ZM302.975 68.045L266.822 50.9293L262.975 59.0548V68.045H302.975ZM308.163 62.1802L329.561 95.9758L329.561 95.9757L308.163 62.1802ZM323.2 62.1802L301.802 95.9758L301.802 95.9758L323.2 62.1802ZM328.388 68.045L292.234 85.1605L292.417 85.5461L292.608 85.9278L328.388 68.045ZM568.453 548.368L604.373 530.767L604.304 530.626L604.233 530.485L568.453 548.368ZM570 555.049L530 555.023L530 555.083L530 555.144L570 555.049ZM568.872 560.774L531.896 545.516L531.896 545.517L568.872 560.774ZM565.635 565.627L537.344 537.35L537.344 537.35L565.635 565.627ZM555.062 569.994L555.156 529.995L555.109 529.994H555.062V569.994ZM381.005 569.994L380.99 609.994L380.998 609.994H381.005V569.994ZM373.154 567.76L394.2 533.745L394.2 533.744L373.154 567.76ZM367.649 561.731L403.432 543.855L403.429 543.849L367.649 561.731ZM283.714 393.781L247.834 411.463L247.883 411.563L247.933 411.663L283.714 393.781ZM211.132 295.706L179.371 320.021L180.595 321.62L181.973 323.088L211.132 295.706ZM201.523 290.13L206.865 250.489L206.865 250.489L201.523 290.13ZM262.379 561.731L226.373 544.308L226.257 544.548L226.143 544.79L262.379 561.731ZM249.022 569.995L250.045 530.008L249.534 529.995H249.022V569.995ZM74.9312 569.995V529.995H74.8676L74.8039 529.995L74.9312 569.995ZM68.253 568.413L86.3144 532.723L86.2376 532.684L86.1606 532.645L68.253 568.413ZM60.7666 559.774L22.8174 572.417L22.8175 572.418L60.7666 559.774ZM61.5748 548.369L25.7923 530.491L25.7881 530.499L61.5748 548.369ZM186.528 298.273L222.31 316.151L222.449 315.874L222.583 315.595L186.528 298.273ZM190.781 292.963L166.587 261.11L166.294 261.332L166.005 261.56L190.781 292.963ZM269.43 46.3267C234.504 100.097 214.151 162.026 210.365 226.038L290.225 230.761C293.193 180.587 309.147 132.047 336.52 89.9039L269.43 46.3267ZM262.975 68.045V68.1153H342.975V68.045H262.975ZM286.765 28.3846C278.116 33.8608 271.201 41.6794 266.822 50.9293L339.128 85.1607C337.028 89.5969 333.711 93.3479 329.561 95.9758L286.765 28.3846ZM315.681 20C305.442 20 295.415 22.9082 286.765 28.3847L329.561 95.9757C325.41 98.6039 320.597 100 315.681 100V20ZM344.598 28.3846C335.948 22.9083 325.921 20 315.681 20V100C310.766 100 305.953 98.6038 301.802 95.9758L344.598 28.3846ZM364.541 50.9295C360.162 41.6795 353.247 33.8609 344.598 28.3846L301.802 95.9758C297.652 93.3479 294.335 89.5967 292.234 85.1605L364.541 50.9295ZM604.233 530.485L364.168 50.1621L292.608 85.9278L532.673 566.251L604.233 530.485ZM610 555.076C610.005 546.65 608.081 538.334 604.373 530.767L532.533 565.968C530.864 562.561 529.997 558.816 530 555.023L610 555.076ZM605.848 576.032C608.606 569.348 610.017 562.185 610 554.955L530 555.144C529.992 551.841 530.636 548.57 531.896 545.516L605.848 576.032ZM593.926 593.905C599.038 588.79 603.09 582.716 605.848 576.031L531.896 545.517C533.156 542.463 535.007 539.687 537.344 537.35L593.926 593.905ZM576.053 605.837C582.739 603.076 588.813 599.02 593.926 593.905L537.344 537.35C539.681 535.012 542.457 533.158 545.514 531.895L576.053 605.837ZM554.967 609.994C562.202 610.011 569.368 608.598 576.053 605.837L545.514 531.895C548.571 530.633 551.847 529.987 555.156 529.995L554.967 609.994ZM381.005 609.994H555.062V529.994H381.005V609.994ZM352.108 601.776C360.785 607.144 370.785 609.991 380.99 609.994L381.021 529.994C385.678 529.996 390.242 531.295 394.2 533.745L352.108 601.776ZM331.865 579.606C336.423 588.731 343.432 596.408 352.108 601.776L394.2 533.744C398.158 536.193 401.354 539.695 403.432 543.855L331.865 579.606ZM247.933 411.663L331.868 579.612L403.429 543.849L319.494 375.899L247.933 411.663ZM210.365 226.038C206.579 290.05 219.49 353.948 247.834 411.463L319.594 376.1C297.379 331.02 287.258 280.936 290.225 230.761L210.365 226.038ZM242.893 271.39C234.123 259.935 221.169 252.417 206.865 250.489L196.18 329.772C189.504 328.872 183.461 325.364 179.371 320.021L242.893 271.39ZM298.384 579.155C321.819 530.728 325.338 472.621 314.889 418.406C304.395 363.957 279.139 309.694 240.291 268.324L181.973 323.088C209.169 352.048 228.323 391.976 236.335 433.546C244.392 475.35 240.512 515.09 226.373 544.308L298.384 579.155ZM277.977 601.871C286.968 596.309 294.138 588.246 298.614 578.673L226.143 544.79C228.255 540.273 231.64 536.466 235.886 533.839L277.977 601.871ZM247.999 609.982C258.569 610.253 268.987 607.433 277.977 601.871L235.886 533.839C240.131 531.213 245.052 529.881 250.045 530.008L247.999 609.982ZM74.9312 609.995H249.022V529.995H74.9312V609.995ZM50.1916 604.103C57.8985 608.003 66.42 610.023 75.0586 609.995L74.8039 529.995C78.8029 529.983 82.7475 530.918 86.3144 532.723L50.1916 604.103ZM22.8175 572.418C27.42 586.232 37.3189 597.658 50.3454 604.18L86.1606 532.645C92.1043 535.621 96.6177 540.833 98.7157 547.13L22.8175 572.418ZM25.7881 530.499C19.283 543.527 18.215 558.604 22.8174 572.417L98.7157 547.13C100.814 553.427 100.327 560.299 97.3614 566.238L25.7881 530.499ZM150.745 280.395L25.7923 530.491L97.3573 566.246L222.31 316.151L150.745 280.395ZM166.005 261.56C159.417 266.758 154.106 273.39 150.473 280.951L222.583 315.595C220.94 319.014 218.538 322.014 215.557 324.366L166.005 261.56ZM206.865 250.489C192.561 248.561 178.078 252.381 166.587 261.11L214.975 324.817C209.614 328.888 202.856 330.672 196.18 329.772L206.865 250.489Z" fill="white" mask="url(#path-1-outside-1_62_178)"/>
</g>
<path d="M211.132 295.706C208.792 292.649 205.337 290.644 201.523 290.13C197.709 289.616 193.846 290.635 190.781 292.963C188.978 294.386 187.523 296.202 186.528 298.273L61.5748 548.369C59.805 551.913 59.5143 556.015 60.7666 559.774C62.0189 563.532 64.7116 566.64 68.253 568.413C70.323 569.46 72.6115 570.003 74.9312 569.995H249.022C251.811 570.067 254.559 569.323 256.932 567.855C259.304 566.387 261.197 564.259 262.379 561.731C299.952 484.086 277.176 366.037 211.132 295.706Z" fill="url(#paint0_linear_62_178)"/>
<path d="M302.975 68.1153C271.826 116.072 253.672 171.306 250.295 228.4C246.918 285.493 258.434 342.484 283.714 393.781L367.649 561.731C368.889 564.213 370.795 566.301 373.154 567.76C375.513 569.22 378.232 569.993 381.005 569.994H555.062C557.025 569.999 558.969 569.616 560.784 568.866C562.598 568.117 564.247 567.016 565.635 565.627C567.023 564.239 568.123 562.589 568.872 560.774C569.621 558.959 570.004 557.013 570 555.049C570.001 552.733 569.472 550.447 568.453 548.368L328.388 68.045C327.248 65.6381 325.449 63.6044 323.2 62.1802C320.951 60.756 318.343 60 315.681 60C313.02 60 310.412 60.756 308.163 62.1802C305.914 63.6044 304.115 65.6381 302.975 68.045V68.1153Z" fill="#2684FF"/>
<defs>
<filter id="filter0_d_62_178" x="0" y="0" width="630" height="630" filterUnits="userSpaceOnUse" color-interpolation-filters="sRGB">
<feFlood flood-opacity="0" result="BackgroundImageFix"/>
<feColorMatrix in="SourceAlpha" type="matrix" values="0 0 0 0 0 0 0 0 0 0 0 0 0 0 0 0 0 0 127 0" result="hardAlpha"/>
<feOffset/>
<feGaussianBlur stdDeviation="10"/>
<feComposite in2="hardAlpha" operator="out"/>
<feColorMatrix type="matrix" values="0 0 0 0 0 0 0 0 0 0 0 0 0 0 0 0 0 0 0.1 0"/>
<feBlend mode="normal" in2="BackgroundImageFix" result="effect1_dropShadow_62_178"/>
<feBlend mode="normal" in="SourceGraphic" in2="effect1_dropShadow_62_178" result="shape"/>
</filter>
<linearGradient id="paint0_linear_62_178" x1="279.918" y1="333.931" x2="147.876" y2="562.521" gradientUnits="userSpaceOnUse">
<stop stop-color="#0052CC"/>
<stop offset="0.92" stop-color="#2684FF"/>
</linearGradient>
</defs>
</svg>
