<svg width="623" height="512" viewBox="0 0 623 512" fill="none" xmlns="http://www.w3.org/2000/svg">
<g filter="url(#filter0_d_59_682)">
<mask id="path-1-outside-1_59_682" maskUnits="userSpaceOnUse" x="42.1699" y="68" width="540" height="231" fill="black">
<rect fill="white" x="42.1699" y="68" width="540" height="231"/>
<path d="M200.287 214.197C200.287 220.497 200.968 225.606 202.16 229.352C203.522 233.098 205.225 237.185 207.609 241.613C208.46 242.975 208.801 244.337 208.801 245.529C208.801 247.232 207.779 248.935 205.565 250.638L194.837 257.79C193.305 258.812 191.772 259.322 190.41 259.322C188.707 259.322 187.004 258.471 185.301 256.938C182.917 254.384 180.874 251.66 179.171 248.935C177.468 246.04 175.765 242.805 173.892 238.888C160.61 254.554 143.922 262.388 123.828 262.388C109.524 262.388 98.1151 258.301 89.7711 250.127C81.4271 241.953 77.1699 231.055 77.1699 217.432C77.1699 202.958 82.2785 191.208 92.6659 182.353C103.053 173.498 116.847 169.071 134.386 169.071C140.176 169.071 146.136 169.582 152.436 170.433C158.737 171.285 165.208 172.647 172.019 174.179V161.749C172.019 148.807 169.295 139.782 164.016 134.503C158.567 129.224 149.371 126.67 136.259 126.67C130.299 126.67 124.169 127.351 117.868 128.883C111.568 130.416 105.437 132.289 99.4774 134.673C96.7528 135.865 94.7094 136.546 93.5174 136.887C92.3254 137.227 91.4739 137.398 90.7928 137.398C88.4088 137.398 87.2168 135.695 87.2168 132.119V123.775C87.2168 121.05 87.5574 119.007 88.4088 117.815C89.2602 116.623 90.7928 115.431 93.1768 114.239C99.1368 111.174 106.289 108.619 114.633 106.576C122.977 104.362 131.832 103.341 141.197 103.341C161.461 103.341 176.276 107.938 185.812 117.134C195.178 126.329 199.946 140.293 199.946 159.024V214.197H200.287ZM131.151 240.08C136.77 240.08 142.56 239.058 148.69 237.015C154.82 234.972 160.269 231.225 164.867 226.117C167.592 222.881 169.635 219.305 170.657 215.218C171.679 211.132 172.36 206.193 172.36 200.403V193.251C167.421 192.059 162.143 191.038 156.693 190.357C151.244 189.675 145.965 189.335 140.687 189.335C129.277 189.335 120.933 191.549 115.314 196.146C109.695 200.744 106.97 207.215 106.97 215.729C106.97 223.733 109.013 229.693 113.271 233.78C117.357 238.037 123.317 240.08 131.151 240.08ZM267.89 258.471C264.825 258.471 262.781 257.96 261.419 256.768C260.057 255.746 258.865 253.362 257.843 250.127L217.826 118.496C216.804 115.09 216.293 112.877 216.293 111.685C216.293 108.96 217.656 107.427 220.38 107.427H237.068C240.304 107.427 242.517 107.938 243.709 109.13C245.072 110.152 246.093 112.536 247.115 115.771L275.723 228.501L302.288 115.771C303.139 112.366 304.161 110.152 305.523 109.13C306.885 108.109 309.27 107.427 312.335 107.427H325.957C329.193 107.427 331.407 107.938 332.769 109.13C334.131 110.152 335.323 112.536 336.004 115.771L362.91 229.863L392.369 115.771C393.391 112.366 394.583 110.152 395.775 109.13C397.137 108.109 399.351 107.427 402.416 107.427H418.252C420.977 107.427 422.51 108.79 422.51 111.685C422.51 112.536 422.339 113.387 422.169 114.409C421.999 115.431 421.658 116.793 420.977 118.666L379.938 250.297C378.916 253.703 377.724 255.917 376.362 256.938C375 257.96 372.786 258.641 369.891 258.641H355.247C352.011 258.641 349.798 258.13 348.435 256.938C347.073 255.746 345.881 253.533 345.2 250.127L318.806 140.293L292.581 249.957C291.73 253.362 290.708 255.576 289.346 256.768C287.984 257.96 285.6 258.471 282.535 258.471H267.89ZM486.707 263.069C477.852 263.069 468.998 262.047 460.483 260.004C451.969 257.96 445.328 255.746 440.9 253.192C438.176 251.66 436.303 249.957 435.622 248.424C434.94 246.892 434.6 245.189 434.6 243.656V234.972C434.6 231.396 435.962 229.693 438.516 229.693C439.538 229.693 440.56 229.863 441.582 230.204C442.603 230.544 444.136 231.225 445.839 231.906C451.628 234.461 457.929 236.504 464.57 237.866C471.382 239.229 478.023 239.91 484.834 239.91C495.562 239.91 503.906 238.037 509.696 234.29C515.486 230.544 518.551 225.095 518.551 218.113C518.551 213.345 517.018 209.429 513.953 206.193C510.888 202.958 505.098 200.063 496.754 197.338L472.063 189.675C459.632 185.759 450.436 179.969 444.817 172.306C439.198 164.814 436.303 156.47 436.303 147.615C436.303 140.463 437.835 134.162 440.9 128.713C443.966 123.264 448.052 118.496 453.161 114.75C458.27 110.833 464.059 107.938 470.871 105.895C477.682 103.851 484.834 103 492.327 103C496.073 103 499.99 103.17 503.736 103.681C507.652 104.192 511.228 104.873 514.804 105.554C518.21 106.406 521.446 107.257 524.511 108.279C527.576 109.301 529.96 110.322 531.663 111.344C534.047 112.706 535.75 114.069 536.771 115.601C537.793 116.963 538.304 118.837 538.304 121.221V129.224C538.304 132.8 536.942 134.673 534.387 134.673C533.025 134.673 530.811 133.992 527.917 132.63C518.21 128.202 507.312 125.989 495.222 125.989C485.515 125.989 477.852 127.521 472.574 130.757C467.295 133.992 464.57 138.93 464.57 145.912C464.57 150.68 466.273 154.767 469.679 158.002C473.084 161.238 479.385 164.473 488.41 167.368L512.591 175.031C524.851 178.947 533.706 184.397 538.985 191.378C544.264 198.36 546.818 206.364 546.818 215.218C546.818 222.541 545.286 229.182 542.391 234.972C539.326 240.761 535.239 245.87 529.96 249.957C524.681 254.214 518.381 257.279 511.058 259.493C503.395 261.877 495.392 263.069 486.707 263.069Z"/>
</mask>
<path d="M200.287 214.197C200.287 220.497 200.968 225.606 202.16 229.352C203.522 233.098 205.225 237.185 207.609 241.613C208.46 242.975 208.801 244.337 208.801 245.529C208.801 247.232 207.779 248.935 205.565 250.638L194.837 257.79C193.305 258.812 191.772 259.322 190.41 259.322C188.707 259.322 187.004 258.471 185.301 256.938C182.917 254.384 180.874 251.66 179.171 248.935C177.468 246.04 175.765 242.805 173.892 238.888C160.61 254.554 143.922 262.388 123.828 262.388C109.524 262.388 98.1151 258.301 89.7711 250.127C81.4271 241.953 77.1699 231.055 77.1699 217.432C77.1699 202.958 82.2785 191.208 92.6659 182.353C103.053 173.498 116.847 169.071 134.386 169.071C140.176 169.071 146.136 169.582 152.436 170.433C158.737 171.285 165.208 172.647 172.019 174.179V161.749C172.019 148.807 169.295 139.782 164.016 134.503C158.567 129.224 149.371 126.67 136.259 126.67C130.299 126.67 124.169 127.351 117.868 128.883C111.568 130.416 105.437 132.289 99.4774 134.673C96.7528 135.865 94.7094 136.546 93.5174 136.887C92.3254 137.227 91.4739 137.398 90.7928 137.398C88.4088 137.398 87.2168 135.695 87.2168 132.119V123.775C87.2168 121.05 87.5574 119.007 88.4088 117.815C89.2602 116.623 90.7928 115.431 93.1768 114.239C99.1368 111.174 106.289 108.619 114.633 106.576C122.977 104.362 131.832 103.341 141.197 103.341C161.461 103.341 176.276 107.938 185.812 117.134C195.178 126.329 199.946 140.293 199.946 159.024V214.197H200.287ZM131.151 240.08C136.77 240.08 142.56 239.058 148.69 237.015C154.82 234.972 160.269 231.225 164.867 226.117C167.592 222.881 169.635 219.305 170.657 215.218C171.679 211.132 172.36 206.193 172.36 200.403V193.251C167.421 192.059 162.143 191.038 156.693 190.357C151.244 189.675 145.965 189.335 140.687 189.335C129.277 189.335 120.933 191.549 115.314 196.146C109.695 200.744 106.97 207.215 106.97 215.729C106.97 223.733 109.013 229.693 113.271 233.78C117.357 238.037 123.317 240.08 131.151 240.08ZM267.89 258.471C264.825 258.471 262.781 257.96 261.419 256.768C260.057 255.746 258.865 253.362 257.843 250.127L217.826 118.496C216.804 115.09 216.293 112.877 216.293 111.685C216.293 108.96 217.656 107.427 220.38 107.427H237.068C240.304 107.427 242.517 107.938 243.709 109.13C245.072 110.152 246.093 112.536 247.115 115.771L275.723 228.501L302.288 115.771C303.139 112.366 304.161 110.152 305.523 109.13C306.885 108.109 309.27 107.427 312.335 107.427H325.957C329.193 107.427 331.407 107.938 332.769 109.13C334.131 110.152 335.323 112.536 336.004 115.771L362.91 229.863L392.369 115.771C393.391 112.366 394.583 110.152 395.775 109.13C397.137 108.109 399.351 107.427 402.416 107.427H418.252C420.977 107.427 422.51 108.79 422.51 111.685C422.51 112.536 422.339 113.387 422.169 114.409C421.999 115.431 421.658 116.793 420.977 118.666L379.938 250.297C378.916 253.703 377.724 255.917 376.362 256.938C375 257.96 372.786 258.641 369.891 258.641H355.247C352.011 258.641 349.798 258.13 348.435 256.938C347.073 255.746 345.881 253.533 345.2 250.127L318.806 140.293L292.581 249.957C291.73 253.362 290.708 255.576 289.346 256.768C287.984 257.96 285.6 258.471 282.535 258.471H267.89ZM486.707 263.069C477.852 263.069 468.998 262.047 460.483 260.004C451.969 257.96 445.328 255.746 440.9 253.192C438.176 251.66 436.303 249.957 435.622 248.424C434.94 246.892 434.6 245.189 434.6 243.656V234.972C434.6 231.396 435.962 229.693 438.516 229.693C439.538 229.693 440.56 229.863 441.582 230.204C442.603 230.544 444.136 231.225 445.839 231.906C451.628 234.461 457.929 236.504 464.57 237.866C471.382 239.229 478.023 239.91 484.834 239.91C495.562 239.91 503.906 238.037 509.696 234.29C515.486 230.544 518.551 225.095 518.551 218.113C518.551 213.345 517.018 209.429 513.953 206.193C510.888 202.958 505.098 200.063 496.754 197.338L472.063 189.675C459.632 185.759 450.436 179.969 444.817 172.306C439.198 164.814 436.303 156.47 436.303 147.615C436.303 140.463 437.835 134.162 440.9 128.713C443.966 123.264 448.052 118.496 453.161 114.75C458.27 110.833 464.059 107.938 470.871 105.895C477.682 103.851 484.834 103 492.327 103C496.073 103 499.99 103.17 503.736 103.681C507.652 104.192 511.228 104.873 514.804 105.554C518.21 106.406 521.446 107.257 524.511 108.279C527.576 109.301 529.96 110.322 531.663 111.344C534.047 112.706 535.75 114.069 536.771 115.601C537.793 116.963 538.304 118.837 538.304 121.221V129.224C538.304 132.8 536.942 134.673 534.387 134.673C533.025 134.673 530.811 133.992 527.917 132.63C518.21 128.202 507.312 125.989 495.222 125.989C485.515 125.989 477.852 127.521 472.574 130.757C467.295 133.992 464.57 138.93 464.57 145.912C464.57 150.68 466.273 154.767 469.679 158.002C473.084 161.238 479.385 164.473 488.41 167.368L512.591 175.031C524.851 178.947 533.706 184.397 538.985 191.378C544.264 198.36 546.818 206.364 546.818 215.218C546.818 222.541 545.286 229.182 542.391 234.972C539.326 240.761 535.239 245.87 529.96 249.957C524.681 254.214 518.381 257.279 511.058 259.493C503.395 261.877 495.392 263.069 486.707 263.069Z" fill="#252F3E"/>
<path d="M200.287 214.197C200.287 220.497 200.968 225.606 202.16 229.352C203.522 233.098 205.225 237.185 207.609 241.613C208.46 242.975 208.801 244.337 208.801 245.529C208.801 247.232 207.779 248.935 205.565 250.638L194.837 257.79C193.305 258.812 191.772 259.322 190.41 259.322C188.707 259.322 187.004 258.471 185.301 256.938C182.917 254.384 180.874 251.66 179.171 248.935C177.468 246.04 175.765 242.805 173.892 238.888C160.61 254.554 143.922 262.388 123.828 262.388C109.524 262.388 98.1151 258.301 89.7711 250.127C81.4271 241.953 77.1699 231.055 77.1699 217.432C77.1699 202.958 82.2785 191.208 92.6659 182.353C103.053 173.498 116.847 169.071 134.386 169.071C140.176 169.071 146.136 169.582 152.436 170.433C158.737 171.285 165.208 172.647 172.019 174.179V161.749C172.019 148.807 169.295 139.782 164.016 134.503C158.567 129.224 149.371 126.67 136.259 126.67C130.299 126.67 124.169 127.351 117.868 128.883C111.568 130.416 105.437 132.289 99.4774 134.673C96.7528 135.865 94.7094 136.546 93.5174 136.887C92.3254 137.227 91.4739 137.398 90.7928 137.398C88.4088 137.398 87.2168 135.695 87.2168 132.119V123.775C87.2168 121.05 87.5574 119.007 88.4088 117.815C89.2602 116.623 90.7928 115.431 93.1768 114.239C99.1368 111.174 106.289 108.619 114.633 106.576C122.977 104.362 131.832 103.341 141.197 103.341C161.461 103.341 176.276 107.938 185.812 117.134C195.178 126.329 199.946 140.293 199.946 159.024V214.197H200.287ZM131.151 240.08C136.77 240.08 142.56 239.058 148.69 237.015C154.82 234.972 160.269 231.225 164.867 226.117C167.592 222.881 169.635 219.305 170.657 215.218C171.679 211.132 172.36 206.193 172.36 200.403V193.251C167.421 192.059 162.143 191.038 156.693 190.357C151.244 189.675 145.965 189.335 140.687 189.335C129.277 189.335 120.933 191.549 115.314 196.146C109.695 200.744 106.97 207.215 106.97 215.729C106.97 223.733 109.013 229.693 113.271 233.78C117.357 238.037 123.317 240.08 131.151 240.08ZM267.89 258.471C264.825 258.471 262.781 257.96 261.419 256.768C260.057 255.746 258.865 253.362 257.843 250.127L217.826 118.496C216.804 115.09 216.293 112.877 216.293 111.685C216.293 108.96 217.656 107.427 220.38 107.427H237.068C240.304 107.427 242.517 107.938 243.709 109.13C245.072 110.152 246.093 112.536 247.115 115.771L275.723 228.501L302.288 115.771C303.139 112.366 304.161 110.152 305.523 109.13C306.885 108.109 309.27 107.427 312.335 107.427H325.957C329.193 107.427 331.407 107.938 332.769 109.13C334.131 110.152 335.323 112.536 336.004 115.771L362.91 229.863L392.369 115.771C393.391 112.366 394.583 110.152 395.775 109.13C397.137 108.109 399.351 107.427 402.416 107.427H418.252C420.977 107.427 422.51 108.79 422.51 111.685C422.51 112.536 422.339 113.387 422.169 114.409C421.999 115.431 421.658 116.793 420.977 118.666L379.938 250.297C378.916 253.703 377.724 255.917 376.362 256.938C375 257.96 372.786 258.641 369.891 258.641H355.247C352.011 258.641 349.798 258.13 348.435 256.938C347.073 255.746 345.881 253.533 345.2 250.127L318.806 140.293L292.581 249.957C291.73 253.362 290.708 255.576 289.346 256.768C287.984 257.96 285.6 258.471 282.535 258.471H267.89ZM486.707 263.069C477.852 263.069 468.998 262.047 460.483 260.004C451.969 257.96 445.328 255.746 440.9 253.192C438.176 251.66 436.303 249.957 435.622 248.424C434.94 246.892 434.6 245.189 434.6 243.656V234.972C434.6 231.396 435.962 229.693 438.516 229.693C439.538 229.693 440.56 229.863 441.582 230.204C442.603 230.544 444.136 231.225 445.839 231.906C451.628 234.461 457.929 236.504 464.57 237.866C471.382 239.229 478.023 239.91 484.834 239.91C495.562 239.91 503.906 238.037 509.696 234.29C515.486 230.544 518.551 225.095 518.551 218.113C518.551 213.345 517.018 209.429 513.953 206.193C510.888 202.958 505.098 200.063 496.754 197.338L472.063 189.675C459.632 185.759 450.436 179.969 444.817 172.306C439.198 164.814 436.303 156.47 436.303 147.615C436.303 140.463 437.835 134.162 440.9 128.713C443.966 123.264 448.052 118.496 453.161 114.75C458.27 110.833 464.059 107.938 470.871 105.895C477.682 103.851 484.834 103 492.327 103C496.073 103 499.99 103.17 503.736 103.681C507.652 104.192 511.228 104.873 514.804 105.554C518.21 106.406 521.446 107.257 524.511 108.279C527.576 109.301 529.96 110.322 531.663 111.344C534.047 112.706 535.75 114.069 536.771 115.601C537.793 116.963 538.304 118.837 538.304 121.221V129.224C538.304 132.8 536.942 134.673 534.387 134.673C533.025 134.673 530.811 133.992 527.917 132.63C518.21 128.202 507.312 125.989 495.222 125.989C485.515 125.989 477.852 127.521 472.574 130.757C467.295 133.992 464.57 138.93 464.57 145.912C464.57 150.68 466.273 154.767 469.679 158.002C473.084 161.238 479.385 164.473 488.41 167.368L512.591 175.031C524.851 178.947 533.706 184.397 538.985 191.378C544.264 198.36 546.818 206.364 546.818 215.218C546.818 222.541 545.286 229.182 542.391 234.972C539.326 240.761 535.239 245.87 529.96 249.957C524.681 254.214 518.381 257.279 511.058 259.493C503.395 261.877 495.392 263.069 486.707 263.069Z" stroke="white" stroke-width="70" mask="url(#path-1-outside-1_59_682)"/>
<path d="M454.855 317.882C455.897 323.73 459.386 328.562 464.17 331.484C415.188 347.195 364.436 354.892 317.443 354.892C228.459 354.892 142.446 330.364 72.8951 290.024C64.058 284.831 50.8075 284.619 42.8618 295.128C34.8596 305.712 38.7641 318.587 46.5382 325.609L46.5394 325.61C116.441 388.735 208.976 426.674 311.483 426.674C378.215 426.674 455.256 407.641 513.539 370.679C512.697 372.803 511.9 374.782 511.18 376.564L511.169 376.593L511.157 376.621C509.766 380.099 508.689 384.962 509.952 390.337C511.329 396.193 515.251 401.318 521.058 404.005C531.546 408.858 541.147 403.564 545.684 399.722C564.343 384.014 575.145 360.873 580.587 341.85C583.362 332.148 584.967 322.755 585.388 314.847C585.596 310.923 585.537 306.944 585.017 303.263C584.594 300.269 583.529 294.694 579.726 289.94L579.666 289.865L579.605 289.79C575.961 285.338 571.046 283.07 568.312 281.957C564.953 280.589 561.183 279.543 557.357 278.747C549.654 277.145 540.21 276.249 530.136 276.392C510.39 276.674 485.252 281.015 465.242 295.064L465.138 295.138L465.034 295.212C460.306 298.637 452.843 306.583 454.855 317.882Z" fill="#FF9900" stroke="white" stroke-width="35"/>
</g>
<path d="M200.287 214.197C200.287 220.497 200.968 225.606 202.16 229.352C203.522 233.098 205.225 237.185 207.609 241.613C208.46 242.975 208.801 244.337 208.801 245.529C208.801 247.232 207.779 248.935 205.565 250.638L194.837 257.79C193.305 258.812 191.772 259.322 190.41 259.322C188.707 259.322 187.004 258.471 185.301 256.938C182.917 254.384 180.874 251.66 179.171 248.935C177.468 246.04 175.765 242.805 173.892 238.888C160.61 254.554 143.922 262.388 123.828 262.388C109.524 262.388 98.1151 258.301 89.7711 250.127C81.4271 241.953 77.1699 231.055 77.1699 217.432C77.1699 202.958 82.2785 191.208 92.6659 182.353C103.053 173.498 116.847 169.071 134.386 169.071C140.176 169.071 146.136 169.582 152.436 170.433C158.737 171.285 165.208 172.647 172.019 174.179V161.749C172.019 148.807 169.295 139.782 164.016 134.503C158.567 129.224 149.371 126.67 136.259 126.67C130.299 126.67 124.169 127.351 117.868 128.883C111.568 130.416 105.437 132.289 99.4774 134.673C96.7528 135.865 94.7094 136.546 93.5174 136.887C92.3254 137.227 91.4739 137.398 90.7928 137.398C88.4088 137.398 87.2168 135.695 87.2168 132.119V123.775C87.2168 121.05 87.5574 119.007 88.4088 117.815C89.2602 116.623 90.7928 115.431 93.1768 114.239C99.1368 111.174 106.289 108.619 114.633 106.576C122.977 104.362 131.832 103.341 141.197 103.341C161.461 103.341 176.276 107.938 185.812 117.134C195.178 126.329 199.946 140.293 199.946 159.024V214.197H200.287ZM131.151 240.08C136.77 240.08 142.56 239.058 148.69 237.015C154.82 234.971 160.269 231.225 164.867 226.117C167.592 222.881 169.635 219.305 170.657 215.218C171.679 211.132 172.36 206.193 172.36 200.403V193.251C167.421 192.059 162.143 191.038 156.693 190.357C151.244 189.675 145.965 189.335 140.687 189.335C129.277 189.335 120.933 191.549 115.314 196.146C109.695 200.744 106.97 207.215 106.97 215.729C106.97 223.733 109.013 229.693 113.271 233.779C117.357 238.037 123.317 240.08 131.151 240.08ZM267.89 258.471C264.825 258.471 262.781 257.96 261.419 256.768C260.057 255.746 258.865 253.362 257.843 250.127L217.826 118.496C216.804 115.09 216.293 112.877 216.293 111.685C216.293 108.96 217.656 107.427 220.38 107.427H237.068C240.304 107.427 242.517 107.938 243.709 109.13C245.072 110.152 246.093 112.536 247.115 115.771L275.723 228.501L302.288 115.771C303.139 112.366 304.161 110.152 305.523 109.13C306.885 108.109 309.27 107.427 312.335 107.427H325.957C329.193 107.427 331.407 107.938 332.769 109.13C334.131 110.152 335.323 112.536 336.004 115.771L362.91 229.863L392.369 115.771C393.391 112.366 394.583 110.152 395.775 109.13C397.137 108.109 399.351 107.427 402.416 107.427H418.252C420.977 107.427 422.51 108.79 422.51 111.685C422.51 112.536 422.339 113.387 422.169 114.409C421.999 115.431 421.658 116.793 420.977 118.666L379.938 250.297C378.916 253.703 377.724 255.917 376.362 256.938C375 257.96 372.786 258.641 369.891 258.641H355.247C352.011 258.641 349.798 258.13 348.435 256.938C347.073 255.746 345.881 253.533 345.2 250.127L318.806 140.293L292.581 249.957C291.73 253.362 290.708 255.576 289.346 256.768C287.984 257.96 285.6 258.471 282.535 258.471H267.89ZM486.707 263.069C477.852 263.069 468.998 262.047 460.483 260.004C451.969 257.96 445.328 255.746 440.9 253.192C438.176 251.66 436.303 249.957 435.622 248.424C434.94 246.892 434.6 245.189 434.6 243.656V234.972C434.6 231.396 435.962 229.693 438.516 229.693C439.538 229.693 440.56 229.863 441.582 230.204C442.603 230.544 444.136 231.225 445.839 231.906C451.628 234.461 457.929 236.504 464.57 237.866C471.382 239.229 478.023 239.91 484.834 239.91C495.562 239.91 503.906 238.037 509.696 234.29C515.486 230.544 518.551 225.095 518.551 218.113C518.551 213.345 517.018 209.429 513.953 206.193C510.888 202.958 505.098 200.063 496.754 197.338L472.063 189.675C459.632 185.759 450.436 179.969 444.817 172.306C439.198 164.814 436.303 156.47 436.303 147.615C436.303 140.463 437.835 134.162 440.9 128.713C443.966 123.264 448.052 118.496 453.161 114.75C458.27 110.833 464.059 107.938 470.871 105.895C477.682 103.851 484.834 103 492.327 103C496.073 103 499.99 103.17 503.736 103.681C507.652 104.192 511.228 104.873 514.805 105.554C518.21 106.406 521.446 107.257 524.511 108.279C527.576 109.301 529.96 110.322 531.663 111.344C534.047 112.706 535.75 114.069 536.771 115.601C537.793 116.963 538.304 118.837 538.304 121.221V129.224C538.304 132.8 536.942 134.673 534.387 134.673C533.025 134.673 530.811 133.992 527.917 132.63C518.21 128.202 507.312 125.989 495.222 125.989C485.515 125.989 477.852 127.521 472.574 130.757C467.295 133.992 464.57 138.93 464.57 145.912C464.57 150.68 466.273 154.767 469.679 158.002C473.084 161.238 479.385 164.473 488.41 167.368L512.591 175.031C524.851 178.947 533.706 184.397 538.985 191.378C544.264 198.36 546.818 206.364 546.818 215.218C546.818 222.541 545.286 229.182 542.391 234.972C539.326 240.761 535.239 245.87 529.96 249.957C524.681 254.214 518.38 257.279 511.058 259.493C503.395 261.877 495.392 263.069 486.707 263.069Z" fill="#252F3E"/>
<path d="M518.891 345.828C462.867 387.207 381.471 409.174 311.483 409.174C213.399 409.174 125.02 372.903 58.2682 312.622C52.9894 307.854 57.7574 301.383 64.058 305.129C136.259 347.02 225.319 372.392 317.443 372.392C379.598 372.392 447.882 359.45 510.718 332.886C520.083 328.629 528.087 339.016 518.891 345.828ZM542.221 319.263C535.069 310.068 494.881 314.836 476.66 317.049C471.211 317.73 470.36 312.962 475.298 309.386C507.312 286.909 559.93 293.38 566.061 300.872C572.191 308.535 564.358 361.153 534.387 386.356C529.79 390.272 525.362 388.229 527.406 383.12C534.217 366.262 549.373 328.288 542.221 319.263Z" fill="#FF9900"/>
<path d="M200.287 214.197C200.287 220.497 200.968 225.606 202.16 229.352C203.522 233.098 205.225 237.185 207.609 241.613C208.46 242.975 208.801 244.337 208.801 245.529C208.801 247.232 207.779 248.935 205.565 250.638L194.837 257.79C193.305 258.812 191.772 259.322 190.41 259.322C188.707 259.322 187.004 258.471 185.301 256.938C182.917 254.384 180.874 251.66 179.171 248.935C177.468 246.04 175.765 242.805 173.892 238.888C160.61 254.554 143.922 262.388 123.828 262.388C109.524 262.388 98.1151 258.301 89.7711 250.127C81.4271 241.953 77.1699 231.055 77.1699 217.432C77.1699 202.958 82.2785 191.208 92.6659 182.353C103.053 173.498 116.847 169.071 134.386 169.071C140.176 169.071 146.136 169.582 152.436 170.433C158.737 171.285 165.208 172.647 172.019 174.179V161.749C172.019 148.807 169.295 139.782 164.016 134.503C158.567 129.224 149.371 126.67 136.259 126.67C130.299 126.67 124.169 127.351 117.868 128.883C111.568 130.416 105.437 132.289 99.4774 134.673C96.7528 135.865 94.7094 136.546 93.5174 136.887C92.3254 137.227 91.4739 137.398 90.7928 137.398C88.4088 137.398 87.2168 135.695 87.2168 132.119V123.775C87.2168 121.05 87.5574 119.007 88.4088 117.815C89.2602 116.623 90.7928 115.431 93.1768 114.239C99.1368 111.174 106.289 108.619 114.633 106.576C122.977 104.362 131.832 103.341 141.197 103.341C161.461 103.341 176.276 107.938 185.812 117.134C195.178 126.329 199.946 140.293 199.946 159.024V214.197H200.287ZM131.151 240.08C136.77 240.08 142.56 239.058 148.69 237.015C154.82 234.971 160.269 231.225 164.867 226.117C167.592 222.881 169.635 219.305 170.657 215.218C171.679 211.132 172.36 206.193 172.36 200.403V193.251C167.421 192.059 162.143 191.038 156.693 190.357C151.244 189.675 145.965 189.335 140.687 189.335C129.277 189.335 120.933 191.549 115.314 196.146C109.695 200.744 106.97 207.215 106.97 215.729C106.97 223.733 109.013 229.693 113.271 233.779C117.357 238.037 123.317 240.08 131.151 240.08ZM267.89 258.471C264.825 258.471 262.781 257.96 261.419 256.768C260.057 255.746 258.865 253.362 257.843 250.127L217.826 118.496C216.804 115.09 216.293 112.877 216.293 111.685C216.293 108.96 217.656 107.427 220.38 107.427H237.068C240.304 107.427 242.517 107.938 243.709 109.13C245.072 110.152 246.093 112.536 247.115 115.771L275.723 228.501L302.288 115.771C303.139 112.366 304.161 110.152 305.523 109.13C306.885 108.109 309.27 107.427 312.335 107.427H325.957C329.193 107.427 331.407 107.938 332.769 109.13C334.131 110.152 335.323 112.536 336.004 115.771L362.91 229.863L392.369 115.771C393.391 112.366 394.583 110.152 395.775 109.13C397.137 108.109 399.351 107.427 402.416 107.427H418.252C420.977 107.427 422.51 108.79 422.51 111.685C422.51 112.536 422.339 113.387 422.169 114.409C421.999 115.431 421.658 116.793 420.977 118.666L379.938 250.297C378.916 253.703 377.724 255.917 376.362 256.938C375 257.96 372.786 258.641 369.891 258.641H355.247C352.011 258.641 349.798 258.13 348.435 256.938C347.073 255.746 345.881 253.533 345.2 250.127L318.806 140.293L292.581 249.957C291.73 253.362 290.708 255.576 289.346 256.768C287.984 257.96 285.6 258.471 282.535 258.471H267.89ZM486.707 263.069C477.852 263.069 468.998 262.047 460.483 260.004C451.969 257.96 445.328 255.746 440.9 253.192C438.176 251.66 436.303 249.957 435.622 248.424C434.94 246.892 434.6 245.189 434.6 243.656V234.972C434.6 231.396 435.962 229.693 438.516 229.693C439.538 229.693 440.56 229.863 441.582 230.204C442.603 230.544 444.136 231.225 445.839 231.906C451.628 234.461 457.929 236.504 464.57 237.866C471.382 239.229 478.023 239.91 484.834 239.91C495.562 239.91 503.906 238.037 509.696 234.29C515.486 230.544 518.551 225.095 518.551 218.113C518.551 213.345 517.018 209.429 513.953 206.193C510.888 202.958 505.098 200.063 496.754 197.338L472.063 189.675C459.632 185.759 450.436 179.969 444.817 172.306C439.198 164.814 436.303 156.47 436.303 147.615C436.303 140.463 437.835 134.162 440.9 128.713C443.966 123.264 448.052 118.496 453.161 114.75C458.27 110.833 464.059 107.938 470.871 105.895C477.682 103.851 484.834 103 492.327 103C496.073 103 499.99 103.17 503.736 103.681C507.652 104.192 511.228 104.873 514.805 105.554C518.21 106.406 521.446 107.257 524.511 108.279C527.576 109.301 529.96 110.322 531.663 111.344C534.047 112.706 535.75 114.069 536.771 115.601C537.793 116.963 538.304 118.837 538.304 121.221V129.224C538.304 132.8 536.942 134.673 534.387 134.673C533.025 134.673 530.811 133.992 527.917 132.63C518.21 128.202 507.312 125.989 495.222 125.989C485.515 125.989 477.852 127.521 472.574 130.757C467.295 133.992 464.57 138.93 464.57 145.912C464.57 150.68 466.273 154.767 469.679 158.002C473.084 161.238 479.385 164.473 488.41 167.368L512.591 175.031C524.851 178.947 533.706 184.397 538.985 191.378C544.264 198.36 546.818 206.364 546.818 215.218C546.818 222.541 545.286 229.182 542.391 234.972C539.326 240.761 535.239 245.87 529.96 249.957C524.681 254.214 518.38 257.279 511.058 259.493C503.395 261.877 495.392 263.069 486.707 263.069Z" fill="#252F3E"/>
<path d="M518.891 345.828C462.867 387.207 381.471 409.174 311.483 409.174C213.399 409.174 125.02 372.903 58.2682 312.622C52.9894 307.854 57.7574 301.383 64.058 305.129C136.259 347.02 225.319 372.392 317.443 372.392C379.598 372.392 447.882 359.45 510.718 332.886C520.083 328.629 528.087 339.016 518.891 345.828ZM542.221 319.263C535.069 310.068 494.881 314.836 476.66 317.049C471.211 317.73 470.36 312.962 475.298 309.386C507.312 286.909 559.93 293.38 566.061 300.872C572.191 308.535 564.358 361.153 534.387 386.356C529.79 390.272 525.362 388.229 527.406 383.12C534.217 366.262 549.373 328.288 542.221 319.263Z" fill="#FF9900"/>
<path d="M200.287 214.197C200.287 220.497 200.968 225.606 202.16 229.352C203.522 233.098 205.225 237.185 207.609 241.613C208.46 242.975 208.801 244.337 208.801 245.529C208.801 247.232 207.779 248.935 205.565 250.638L194.837 257.79C193.305 258.812 191.772 259.322 190.41 259.322C188.707 259.322 187.004 258.471 185.301 256.938C182.917 254.384 180.874 251.66 179.171 248.935C177.468 246.04 175.765 242.805 173.892 238.888C160.61 254.554 143.922 262.388 123.828 262.388C109.524 262.388 98.1151 258.301 89.7711 250.127C81.4271 241.953 77.1699 231.055 77.1699 217.432C77.1699 202.958 82.2785 191.208 92.6659 182.353C103.053 173.498 116.847 169.071 134.386 169.071C140.176 169.071 146.136 169.582 152.436 170.433C158.737 171.285 165.208 172.647 172.019 174.179V161.749C172.019 148.807 169.295 139.782 164.016 134.503C158.567 129.224 149.371 126.67 136.259 126.67C130.299 126.67 124.169 127.351 117.868 128.883C111.568 130.416 105.437 132.289 99.4774 134.673C96.7528 135.865 94.7094 136.546 93.5174 136.887C92.3254 137.227 91.4739 137.398 90.7928 137.398C88.4088 137.398 87.2168 135.695 87.2168 132.119V123.775C87.2168 121.05 87.5574 119.007 88.4088 117.815C89.2602 116.623 90.7928 115.431 93.1768 114.239C99.1368 111.174 106.289 108.619 114.633 106.576C122.977 104.362 131.832 103.341 141.197 103.341C161.461 103.341 176.276 107.938 185.812 117.134C195.178 126.329 199.946 140.293 199.946 159.024V214.197H200.287ZM131.151 240.08C136.77 240.08 142.56 239.058 148.69 237.015C154.82 234.972 160.269 231.225 164.867 226.117C167.592 222.881 169.635 219.305 170.657 215.218C171.679 211.132 172.36 206.193 172.36 200.403V193.251C167.421 192.059 162.143 191.038 156.693 190.357C151.244 189.675 145.965 189.335 140.687 189.335C129.277 189.335 120.933 191.549 115.314 196.146C109.695 200.744 106.97 207.215 106.97 215.729C106.97 223.733 109.013 229.693 113.271 233.78C117.357 238.037 123.317 240.08 131.151 240.08ZM267.89 258.471C264.825 258.471 262.781 257.96 261.419 256.768C260.057 255.746 258.865 253.362 257.843 250.127L217.826 118.496C216.804 115.09 216.293 112.877 216.293 111.685C216.293 108.96 217.656 107.427 220.38 107.427H237.068C240.304 107.427 242.517 107.938 243.709 109.13C245.072 110.152 246.093 112.536 247.115 115.771L275.723 228.501L302.288 115.771C303.139 112.366 304.161 110.152 305.523 109.13C306.885 108.109 309.27 107.427 312.335 107.427H325.957C329.193 107.427 331.407 107.938 332.769 109.13C334.131 110.152 335.323 112.536 336.004 115.771L362.91 229.863L392.369 115.771C393.391 112.366 394.583 110.152 395.775 109.13C397.137 108.109 399.351 107.427 402.416 107.427H418.252C420.977 107.427 422.51 108.79 422.51 111.685C422.51 112.536 422.339 113.387 422.169 114.409C421.999 115.431 421.658 116.793 420.977 118.666L379.938 250.297C378.916 253.703 377.724 255.917 376.362 256.938C375 257.96 372.786 258.641 369.891 258.641H355.247C352.011 258.641 349.798 258.13 348.435 256.938C347.073 255.746 345.881 253.533 345.2 250.127L318.806 140.293L292.581 249.957C291.73 253.362 290.708 255.576 289.346 256.768C287.984 257.96 285.6 258.471 282.535 258.471H267.89ZM486.707 263.069C477.852 263.069 468.998 262.047 460.483 260.004C451.969 257.96 445.328 255.746 440.9 253.192C438.176 251.66 436.303 249.957 435.622 248.424C434.94 246.892 434.6 245.189 434.6 243.656V234.972C434.6 231.396 435.962 229.693 438.516 229.693C439.538 229.693 440.56 229.863 441.582 230.204C442.603 230.544 444.136 231.225 445.839 231.906C451.628 234.461 457.929 236.504 464.57 237.866C471.382 239.229 478.023 239.91 484.834 239.91C495.562 239.91 503.906 238.037 509.696 234.29C515.486 230.544 518.551 225.095 518.551 218.113C518.551 213.345 517.018 209.429 513.953 206.193C510.888 202.958 505.098 200.063 496.754 197.338L472.063 189.675C459.632 185.759 450.436 179.969 444.817 172.306C439.198 164.814 436.303 156.47 436.303 147.615C436.303 140.463 437.835 134.162 440.9 128.713C443.966 123.264 448.052 118.496 453.161 114.75C458.27 110.833 464.059 107.938 470.871 105.895C477.682 103.851 484.834 103 492.327 103C496.073 103 499.99 103.17 503.736 103.681C507.652 104.192 511.228 104.873 514.804 105.554C518.21 106.406 521.446 107.257 524.511 108.279C527.576 109.301 529.96 110.322 531.663 111.344C534.047 112.706 535.75 114.069 536.771 115.601C537.793 116.963 538.304 118.837 538.304 121.221V129.224C538.304 132.8 536.942 134.673 534.387 134.673C533.025 134.673 530.811 133.992 527.917 132.63C518.21 128.202 507.312 125.989 495.222 125.989C485.515 125.989 477.852 127.521 472.574 130.757C467.295 133.992 464.57 138.93 464.57 145.912C464.57 150.68 466.273 154.767 469.679 158.002C473.084 161.238 479.385 164.473 488.41 167.368L512.591 175.031C524.851 178.947 533.706 184.397 538.985 191.378C544.264 198.36 546.818 206.364 546.818 215.218C546.818 222.541 545.286 229.182 542.391 234.972C539.326 240.761 535.239 245.87 529.96 249.957C524.681 254.214 518.381 257.279 511.058 259.493C503.395 261.877 495.392 263.069 486.707 263.069Z" fill="#252F3E"/>
<path d="M518.891 345.828C462.867 387.207 381.471 409.174 311.483 409.174C213.399 409.174 125.02 372.903 58.2682 312.622C52.9894 307.854 57.7574 301.383 64.058 305.129C136.259 347.02 225.319 372.392 317.443 372.392C379.598 372.392 447.882 359.45 510.718 332.886C520.083 328.629 528.087 339.016 518.891 345.828ZM542.221 319.263C535.069 310.068 494.881 314.836 476.66 317.049C471.211 317.73 470.36 312.962 475.298 309.386C507.312 286.909 559.93 293.38 566.061 300.872C572.191 308.535 564.358 361.153 534.387 386.356C529.79 390.272 525.362 388.229 527.406 383.12C534.217 366.262 549.373 328.288 542.221 319.263Z" fill="#FF9900"/>
<defs>
<filter id="filter0_d_59_682" x="0.909668" y="48" width="622.09" height="416.174" filterUnits="userSpaceOnUse" color-interpolation-filters="sRGB">
<feFlood flood-opacity="0" result="BackgroundImageFix"/>
<feColorMatrix in="SourceAlpha" type="matrix" values="0 0 0 0 0 0 0 0 0 0 0 0 0 0 0 0 0 0 127 0" result="hardAlpha"/>
<feOffset/>
<feGaussianBlur stdDeviation="10"/>
<feComposite in2="hardAlpha" operator="out"/>
<feColorMatrix type="matrix" values="0 0 0 0 0 0 0 0 0 0 0 0 0 0 0 0 0 0 0.1 0"/>
<feBlend mode="normal" in2="BackgroundImageFix" result="effect1_dropShadow_59_682"/>
<feBlend mode="normal" in="SourceGraphic" in2="effect1_dropShadow_59_682" result="shape"/>
</filter>
</defs>
</svg>
