<svg width="597" height="536" viewBox="0 0 597 536" fill="none" xmlns="http://www.w3.org/2000/svg">
<g filter="url(#filter0_d_60_95)">
<mask id="path-1-outside-1_60_95" maskUnits="userSpaceOnUse" x="20.5698" y="20.5596" width="557" height="496" fill="black">
<rect fill="white" x="20.5698" y="20.5596" width="557" height="496"/>
<path fill-rule="evenodd" clip-rule="evenodd" d="M278.545 435.483C398.929 435.483 496.52 358.743 496.52 264.079C496.52 205.388 459.152 153.544 401.732 122.798C378.347 110.143 359.984 98.7877 344.722 89.3498C315.923 71.5408 298.165 60.5596 278.545 60.5596C258.614 60.5596 236.157 74.4431 206.507 92.7734C191.501 102.05 174.653 112.466 155.358 122.798C97.9369 153.544 60.5698 205.388 60.5698 264.079C60.5698 358.743 158.16 435.483 278.545 435.483ZM481.51 167.858C482.569 168.854 483.627 169.912 484.624 170.97C518.067 203.708 537 245.345 537 289.285C537 392.103 432.248 476 303.456 476C229.593 476 163.64 448.304 120.793 405.297L117.679 402.185L114.565 399.074L111.451 395.962L108.337 392.85L105.223 389.738L102.109 386.626L98.9951 383.514C141.905 424.778 206.426 451.105 278.544 451.105C407.336 451.105 512.089 367.208 512.089 264.079C511.434 222.076 494.746 181.962 465.525 151.899C465.662 152.034 465.801 152.168 465.94 152.299C466.47 152.797 466.984 153.326 467.497 153.855C468.011 154.384 468.525 154.913 469.054 155.411C469.584 155.909 470.097 156.438 470.611 156.967C471.125 157.496 471.639 158.025 472.168 158.523C472.698 159.02 473.211 159.549 473.725 160.079C474.239 160.608 474.753 161.137 475.282 161.634C475.811 162.132 476.325 162.661 476.839 163.19C477.353 163.719 477.867 164.248 478.396 164.746C478.925 165.244 479.439 165.773 479.953 166.302C480.467 166.831 480.98 167.36 481.51 167.858ZM464.102 150.453C464.579 150.932 465.054 151.414 465.525 151.899C465.14 151.522 464.762 151.132 464.383 150.743C464.289 150.646 464.195 150.549 464.102 150.453ZM462.826 149.187C463.254 149.607 463.679 150.029 464.102 150.453C463.681 150.021 463.259 149.594 462.826 149.187Z"/>
</mask>
<path fill-rule="evenodd" clip-rule="evenodd" d="M278.545 435.483C398.929 435.483 496.52 358.743 496.52 264.079C496.52 205.388 459.152 153.544 401.732 122.798C378.347 110.143 359.984 98.7877 344.722 89.3498C315.923 71.5408 298.165 60.5596 278.545 60.5596C258.614 60.5596 236.157 74.4431 206.507 92.7734C191.501 102.05 174.653 112.466 155.358 122.798C97.9369 153.544 60.5698 205.388 60.5698 264.079C60.5698 358.743 158.16 435.483 278.545 435.483ZM481.51 167.858C482.569 168.854 483.627 169.912 484.624 170.97C518.067 203.708 537 245.345 537 289.285C537 392.103 432.248 476 303.456 476C229.593 476 163.64 448.304 120.793 405.297L117.679 402.185L114.565 399.074L111.451 395.962L108.337 392.85L105.223 389.738L102.109 386.626L98.9951 383.514C141.905 424.778 206.426 451.105 278.544 451.105C407.336 451.105 512.089 367.208 512.089 264.079C511.434 222.076 494.746 181.962 465.525 151.899C465.662 152.034 465.801 152.168 465.94 152.299C466.47 152.797 466.984 153.326 467.497 153.855C468.011 154.384 468.525 154.913 469.054 155.411C469.584 155.909 470.097 156.438 470.611 156.967C471.125 157.496 471.639 158.025 472.168 158.523C472.698 159.02 473.211 159.549 473.725 160.079C474.239 160.608 474.753 161.137 475.282 161.634C475.811 162.132 476.325 162.661 476.839 163.19C477.353 163.719 477.867 164.248 478.396 164.746C478.925 165.244 479.439 165.773 479.953 166.302C480.467 166.831 480.98 167.36 481.51 167.858ZM464.102 150.453C464.579 150.932 465.054 151.414 465.525 151.899C465.14 151.522 464.762 151.132 464.383 150.743C464.289 150.646 464.195 150.549 464.102 150.453ZM462.826 149.187C463.254 149.607 463.679 150.029 464.102 150.453C463.681 150.021 463.259 149.594 462.826 149.187Z" fill="#FBF0DF"/>
<path d="M401.732 122.798L382.694 157.977C382.746 158.005 382.798 158.033 382.85 158.061L401.732 122.798ZM344.722 89.3498L323.684 123.37L323.684 123.37L344.722 89.3498ZM206.507 92.7734L185.473 58.7503L185.473 58.7503L206.507 92.7734ZM155.358 122.798L174.239 158.061L174.239 158.061L155.358 122.798ZM484.624 170.97L455.505 198.394C455.876 198.789 456.256 199.176 456.643 199.555L484.624 170.97ZM481.51 167.858L508.915 138.722L508.915 138.721L481.51 167.858ZM120.793 405.297L149.129 377.066C149.109 377.045 149.088 377.025 149.068 377.004L120.793 405.297ZM117.679 402.185L145.954 373.892L145.954 373.892L117.679 402.185ZM114.565 399.074L142.84 370.78L142.84 370.78L114.565 399.074ZM111.451 395.962L83.1757 424.255L83.1757 424.255L111.451 395.962ZM105.223 389.738L133.498 361.444L133.498 361.444L105.223 389.738ZM102.109 386.626L73.8338 414.919L73.834 414.919L102.109 386.626ZM98.9951 383.514L126.721 354.682C110.906 339.474 85.7912 339.844 70.4312 355.512C55.0713 371.18 55.2001 396.297 70.7199 411.807L98.9951 383.514ZM512.089 264.079H552.089C552.089 263.871 552.087 263.663 552.084 263.456L512.089 264.079ZM465.94 152.299L493.345 123.162L493.343 123.16L465.94 152.299ZM467.497 153.855L438.803 181.723L438.804 181.724L467.497 153.855ZM469.054 155.411L441.649 184.547L441.649 184.548L469.054 155.411ZM470.611 156.967L441.917 184.835L441.917 184.835L470.611 156.967ZM472.168 158.523L444.763 187.66L444.763 187.66L472.168 158.523ZM473.725 160.079L502.42 132.21L502.419 132.21L473.725 160.079ZM475.282 161.634L502.687 132.498L502.687 132.497L475.282 161.634ZM476.839 163.19L505.534 135.322L505.533 135.322L476.839 163.19ZM478.396 164.746L505.801 135.609L505.801 135.609L478.396 164.746ZM479.953 166.302L508.647 138.434L508.647 138.434L479.953 166.302ZM464.383 150.743L435.689 178.611L435.689 178.611L464.383 150.743ZM462.826 149.187L490.232 120.05C474.263 105.03 449.179 105.663 433.987 121.468C418.796 137.274 419.157 162.364 434.798 177.725L462.826 149.187ZM456.52 264.079C456.52 328.228 386.329 395.483 278.545 395.483V475.483C411.53 475.483 536.52 389.258 536.52 264.079H456.52ZM382.85 158.061C430.75 183.709 456.52 223.706 456.52 264.079H536.52C536.52 187.07 487.555 123.378 420.613 87.5347L382.85 158.061ZM323.684 123.37C338.984 132.831 358.203 144.723 382.694 157.977L420.769 87.6187C398.492 75.5629 380.985 64.7439 365.76 55.3291L323.684 123.37ZM278.545 100.56C280.399 100.56 283.722 100.945 291.064 104.424C299.101 108.232 308.636 114.065 323.684 123.37L365.76 55.3291C352.009 46.8259 338.266 38.2633 325.319 32.1289C311.677 25.6648 296.311 20.5596 278.545 20.5596V100.56ZM227.541 126.797C242.896 117.303 254.07 110.444 263.708 105.743C273.423 101.004 277.533 100.56 278.545 100.56V20.5596C259.625 20.5596 242.541 27.0571 228.633 33.8422C214.646 40.6651 199.767 49.9133 185.473 58.7503L227.541 126.797ZM174.239 158.061C194.772 147.067 212.601 136.032 227.541 126.796L185.473 58.7503C170.401 68.0683 154.534 77.8656 136.476 87.5347L174.239 158.061ZM100.57 264.079C100.57 223.706 126.339 183.709 174.239 158.061L136.476 87.5347C69.5349 123.378 20.5698 187.07 20.5698 264.079H100.57ZM278.545 395.483C170.761 395.483 100.57 328.228 100.57 264.079H20.5698C20.5698 389.258 145.56 475.483 278.545 475.483V395.483ZM513.743 143.546C512.192 141.9 510.562 140.271 508.915 138.722L454.104 196.995C454.575 197.437 455.062 197.924 455.505 198.394L513.743 143.546ZM577 289.285C577 233.385 552.831 181.762 512.605 142.386L456.643 199.555C483.304 225.653 497 257.304 497 289.285H577ZM303.456 516C445.545 516 577 422.065 577 289.285H497C497 362.14 418.951 436 303.456 436V516ZM92.456 433.529C143.478 484.741 219.946 516 303.456 516V436C239.24 436 183.802 411.867 149.129 377.066L92.456 433.529ZM89.4034 430.479L92.5174 433.591L149.068 377.004L145.954 373.892L89.4034 430.479ZM86.2897 427.367L89.4036 430.479L145.954 373.892L142.84 370.78L86.2897 427.367ZM83.1757 424.255L86.2897 427.367L142.84 370.78L139.726 367.668L83.1757 424.255ZM80.0618 421.143L83.1757 424.255L139.726 367.668L136.612 364.556L80.0618 421.143ZM76.9479 418.031L80.0618 421.143L136.612 364.556L133.498 361.444L76.9479 418.031ZM73.834 414.919L76.9479 418.031L133.498 361.444L130.384 358.332L73.834 414.919ZM70.7199 411.807L73.8338 414.919L130.384 358.333L127.27 355.221L70.7199 411.807ZM278.544 411.105C215.85 411.105 161.546 388.171 126.721 354.682L71.2692 412.346C122.264 461.385 197.001 491.105 278.544 491.105V411.105ZM472.089 264.079C472.089 337.282 393.993 411.105 278.544 411.105V491.105C420.68 491.105 552.089 397.133 552.089 264.079H472.089ZM436.842 179.779C458.967 202.541 471.598 232.909 472.094 264.702L552.084 263.456C551.27 211.243 530.526 161.383 494.208 124.019L436.842 179.779ZM493.343 123.16C493.439 123.25 493.504 123.313 493.531 123.34L437.518 180.458C437.82 180.755 438.162 181.085 438.537 181.437L493.343 123.16ZM496.192 125.987C495.79 125.573 494.646 124.385 493.345 123.162L438.535 181.436C438.365 181.276 438.285 181.194 438.344 181.252C438.37 181.279 438.416 181.326 438.495 181.407C438.579 181.492 438.668 181.584 438.803 181.723L496.192 125.987ZM496.46 126.274C496.63 126.434 496.71 126.516 496.651 126.457C496.625 126.431 496.578 126.384 496.499 126.303C496.416 126.217 496.326 126.125 496.191 125.986L438.804 181.724C439.205 182.137 440.349 183.324 441.649 184.547L496.46 126.274ZM499.306 129.099C498.904 128.685 497.76 127.497 496.459 126.274L441.649 184.548C441.479 184.388 441.399 184.305 441.457 184.364C441.484 184.391 441.53 184.437 441.609 184.518C441.692 184.603 441.782 184.696 441.917 184.835L499.306 129.099ZM499.573 129.386C499.743 129.545 499.823 129.628 499.765 129.569C499.738 129.542 499.692 129.495 499.613 129.415C499.53 129.329 499.44 129.237 499.305 129.098L441.917 184.835C442.319 185.249 443.463 186.437 444.763 187.66L499.573 129.386ZM502.419 132.21C502.018 131.797 500.874 130.609 499.573 129.385L444.763 187.66C444.593 187.5 444.513 187.418 444.572 187.476C444.598 187.503 444.644 187.55 444.723 187.63C444.806 187.716 444.896 187.808 445.031 187.947L502.419 132.21ZM502.687 132.497C502.857 132.657 502.937 132.74 502.879 132.681C502.852 132.654 502.806 132.608 502.727 132.527C502.644 132.442 502.554 132.349 502.42 132.21L445.031 187.947C445.432 188.36 446.577 189.548 447.878 190.772L502.687 132.497ZM505.533 135.322C505.131 134.908 503.987 133.721 502.687 132.498L447.877 190.771C447.707 190.612 447.627 190.529 447.686 190.588C447.712 190.615 447.758 190.662 447.837 190.742C447.92 190.828 448.01 190.92 448.145 191.059L505.533 135.322ZM505.801 135.609C505.971 135.769 506.051 135.852 505.993 135.793C505.967 135.767 505.92 135.72 505.841 135.639C505.758 135.554 505.669 135.461 505.534 135.322L448.144 191.058C448.546 191.472 449.69 192.66 450.991 193.883L505.801 135.609ZM508.647 138.434C508.245 138.02 507.101 136.832 505.801 135.609L450.991 193.883C450.821 193.724 450.741 193.641 450.8 193.7C450.826 193.727 450.872 193.773 450.951 193.854C451.034 193.94 451.124 194.032 451.259 194.171L508.647 138.434ZM508.915 138.721C509.085 138.881 509.165 138.964 509.107 138.905C509.081 138.879 509.034 138.832 508.955 138.751C508.872 138.666 508.782 138.573 508.647 138.434L451.258 194.17C451.66 194.583 452.804 195.772 454.105 196.995L508.915 138.721ZM435.764 178.683C436.126 179.047 436.486 179.413 436.842 179.779L494.208 124.019C493.622 123.416 493.032 122.817 492.439 122.222L435.764 178.683ZM493.531 123.34C493.568 123.375 493.559 123.367 493.477 123.284C493.386 123.192 493.281 123.084 493.078 122.874L435.689 178.611C436.009 178.94 436.727 179.682 437.518 180.459L493.531 123.34ZM493.078 122.875C492.986 122.78 492.872 122.663 492.755 122.543L435.448 178.363C435.519 178.435 435.593 178.512 435.689 178.611L493.078 122.875ZM434.798 177.725C435.122 178.043 435.444 178.362 435.764 178.684L492.439 122.222C491.914 121.695 491.386 121.171 490.854 120.649L434.798 177.725ZM492.754 122.542C492.264 122.039 491.335 121.088 490.232 120.05L435.421 178.323C435.348 178.255 435.293 178.202 435.26 178.169C435.226 178.137 435.21 178.121 435.214 178.125C435.219 178.129 435.238 178.149 435.279 178.19C435.298 178.21 435.322 178.234 435.351 178.263C435.379 178.293 435.412 178.326 435.449 178.364L492.754 122.542Z" fill="white" mask="url(#path-1-outside-1_60_95)"/>
</g>
<path d="M484.624 170.97C483.627 169.912 482.569 168.854 481.51 167.858C480.451 166.862 479.455 165.742 478.396 164.746C477.337 163.751 476.341 162.63 475.282 161.634C474.223 160.639 473.227 159.518 472.168 158.523C471.109 157.527 470.113 156.406 469.054 155.411C467.995 154.415 466.999 153.295 465.94 152.299C464.882 151.303 463.885 150.183 462.826 149.187C493.718 179.526 511.414 220.8 512.089 264.079C512.089 367.208 407.336 451.105 278.544 451.105C206.426 451.105 141.905 424.778 98.9951 383.514L102.109 386.626L105.223 389.738L108.337 392.85L111.451 395.962L114.565 399.074L117.679 402.185L120.793 405.297C163.64 448.304 229.593 476 303.456 476C432.248 476 537 392.103 537 289.285C537 245.345 518.067 203.708 484.624 170.97Z" fill="black"/>
<path d="M496.52 264.079C496.52 358.743 398.929 435.483 278.545 435.483C158.16 435.483 60.5698 358.743 60.5698 264.079C60.5698 205.388 97.9369 153.544 155.358 122.798C212.779 92.0521 248.526 60.5596 278.545 60.5596C308.563 60.5596 334.222 86.264 401.732 122.798C459.152 153.544 496.52 205.388 496.52 264.079Z" fill="#FBF0DF"/>
<path d="M496.52 264.079C496.49 251.918 494.814 239.817 491.538 228.105C474.536 435.358 221.56 445.317 122.102 383.327C166.812 417.959 221.984 436.353 278.545 435.483C398.743 435.483 496.52 358.619 496.52 264.079Z" fill="#F6DECE"/>
<path d="M194.656 111.408C222.494 94.7284 259.487 63.4225 295.858 63.3603C290.263 61.5529 284.425 60.6085 278.545 60.5596C263.473 60.5596 247.405 68.3394 227.165 80.0402C220.127 84.1479 212.841 88.6913 205.118 93.4214C190.607 102.384 173.979 112.529 155.295 122.673C96.0063 154.726 60.5698 207.566 60.5698 264.079C60.5698 266.568 60.5698 269.058 60.5698 271.485C98.3106 138.233 166.879 128.088 194.656 111.408Z" fill="#FFFEFC"/>
<path fill-rule="evenodd" clip-rule="evenodd" d="M260.609 76.3058C260.696 91.0016 257.608 105.543 251.557 118.937C245.506 132.332 236.634 144.263 225.546 153.917C223.802 155.473 225.172 158.46 227.414 157.589C248.402 149.436 276.739 125.038 264.781 75.8079C264.283 73.0071 260.609 73.754 260.609 76.3058ZM274.746 76.3058C282.366 88.7312 287.208 102.656 288.938 117.127C290.669 131.597 289.248 146.271 284.773 160.141C284.025 162.319 286.703 164.186 288.198 162.381C301.837 144.955 313.732 110.35 278.109 73.0071C276.303 71.3889 273.5 73.8785 274.746 76.0568V76.3058ZM291.935 75.2477C303.868 83.6907 313.851 94.5928 321.21 107.219C328.57 119.845 333.134 133.901 334.596 148.44C334.532 148.964 334.674 149.492 334.99 149.915C335.306 150.337 335.772 150.622 336.293 150.71C336.814 150.798 337.348 150.683 337.786 150.387C338.224 150.092 338.531 149.64 338.644 149.125C344.373 127.403 341.135 90.3716 293.99 71.14C291.499 70.1442 289.88 73.505 291.935 74.9988V75.2477ZM176.969 139.976C191.164 135.737 204.306 128.559 215.541 118.908C226.775 109.257 235.85 97.3497 242.174 83.9611C243.295 81.7205 246.845 82.5918 246.285 85.0814C235.51 134.872 199.451 145.266 177.031 143.897C174.664 143.959 174.727 140.66 176.969 139.976Z" fill="#CCBEA7"/>
<path d="M278.545 451.105C149.752 451.105 45 367.208 45 264.079C45 201.84 83.4881 143.772 147.946 108.981C166.63 99.0228 182.636 89.0025 196.897 80.2269C204.744 75.3723 212.156 70.8289 219.318 66.5967C241.177 53.6511 259.861 45 278.545 45C297.228 45 313.545 52.4686 333.972 64.5428C340.2 68.0904 346.428 71.9492 353.092 76.1814C368.599 85.7661 386.1 96.5955 409.143 108.981C473.601 143.772 512.089 201.778 512.089 264.079C512.089 367.208 407.337 451.105 278.545 451.105ZM278.545 60.5596C263.473 60.5596 247.405 68.3394 227.165 80.0401C220.127 84.1479 212.841 88.6913 205.118 93.4214C190.607 102.384 173.979 112.529 155.295 122.673C96.0061 154.726 60.5696 207.566 60.5696 264.079C60.5696 358.619 158.347 435.545 278.545 435.545C398.742 435.545 496.519 358.619 496.519 264.079C496.519 207.566 461.083 154.726 401.731 122.798C378.19 110.35 359.818 98.6494 344.933 89.4381C338.145 85.2682 331.917 81.4094 326.25 77.9863C307.379 66.7834 293.616 60.5596 278.545 60.5596Z" fill="black"/>
<path d="M322.451 309.513C319.653 320.964 313.284 331.23 304.265 338.827C297.494 345.387 288.728 349.504 279.354 350.528C269.698 349.666 260.624 345.538 253.633 338.827C244.706 331.194 238.427 320.932 235.697 309.513C235.606 308.835 235.672 308.145 235.89 307.497C236.107 306.848 236.47 306.258 236.951 305.771C237.432 305.285 238.018 304.915 238.664 304.689C239.31 304.464 239.999 304.389 240.679 304.471H317.531C318.205 304.4 318.887 304.482 319.525 304.712C320.164 304.942 320.741 305.313 321.215 305.799C321.689 306.284 322.046 306.87 322.26 307.514C322.474 308.157 322.539 308.841 322.451 309.513Z" fill="#B71422"/>
<path d="M253.633 339.325C260.61 346.04 269.65 350.207 279.291 351.15C288.91 350.193 297.927 346.028 304.888 339.325C307.115 337.251 309.195 335.026 311.116 332.665C307.279 328.316 302.593 324.796 297.345 322.324C292.097 319.852 286.398 318.478 280.599 318.288C274.394 318.435 268.318 320.087 262.894 323.101C257.469 326.115 252.859 330.401 249.46 335.591C250.892 336.898 252.138 338.142 253.633 339.325Z" fill="#FF6164"/>
<path d="M254.629 334.408C257.717 330.42 261.669 327.182 266.189 324.94C270.708 322.698 275.678 321.509 280.724 321.462C290.05 321.737 298.937 325.489 305.635 331.981C307.067 330.425 308.438 328.807 309.745 327.188C301.822 319.648 291.352 315.36 280.412 315.176C274.566 315.227 268.803 316.57 263.538 319.109C258.272 321.649 253.635 325.322 249.958 329.865C251.431 331.463 252.99 332.98 254.629 334.408Z" fill="black"/>
<path d="M279.105 354.262C268.727 353.353 258.961 348.967 251.391 341.814C241.75 333.666 234.965 322.655 232.022 310.384C231.811 309.292 231.847 308.166 232.127 307.089C232.407 306.012 232.925 305.012 233.641 304.16C234.495 303.13 235.573 302.309 236.792 301.759C238.012 301.209 239.341 300.944 240.679 300.986H317.531C318.866 300.958 320.191 301.228 321.409 301.778C322.626 302.327 323.706 303.141 324.568 304.16C325.278 305.015 325.786 306.018 326.056 307.095C326.325 308.172 326.349 309.296 326.125 310.384C323.182 322.655 316.397 333.666 306.756 341.814C299.203 348.954 289.461 353.34 279.105 354.262ZM240.679 308.206C239.682 308.206 239.433 308.641 239.371 308.766C242.004 319.407 247.959 328.933 256.373 335.964C262.526 342.022 270.526 345.855 279.105 346.856C287.662 345.866 295.652 342.081 301.836 336.088C310.224 329.045 316.156 319.521 318.776 308.89C318.64 308.691 318.452 308.534 318.232 308.435C318.013 308.336 317.77 308.3 317.531 308.33L240.679 308.206Z" fill="black"/>
<path d="M373.332 313.371C393.454 313.371 409.765 303.786 409.765 291.961C409.765 280.137 393.454 270.551 373.332 270.551C353.211 270.551 336.899 280.137 336.899 291.961C336.899 303.786 353.211 313.371 373.332 313.371Z" fill="#FEBBD0"/>
<path d="M184.815 313.371C204.937 313.371 221.248 303.786 221.248 291.961C221.248 280.137 204.937 270.551 184.815 270.551C164.694 270.551 148.382 280.137 148.382 291.961C148.382 303.786 164.694 313.371 184.815 313.371Z" fill="#FEBBD0"/>
<path fill-rule="evenodd" clip-rule="evenodd" d="M201.942 283.373C208.731 283.385 215.372 281.384 221.023 277.623C226.675 273.863 231.083 268.511 233.689 262.246C236.296 255.981 236.985 249.084 235.668 242.427C234.351 235.771 231.087 229.655 226.291 224.852C221.494 220.05 215.38 216.778 208.722 215.45C202.063 214.121 195.16 214.797 188.886 217.39C182.612 219.984 177.249 224.38 173.476 230.02C169.703 235.661 167.688 242.294 167.688 249.079C167.688 258.164 171.295 266.877 177.717 273.306C184.139 279.736 192.851 283.356 201.942 283.373ZM356.206 283.373C363.003 283.422 369.662 281.453 375.338 277.714C381.014 273.976 385.451 268.638 388.086 262.376C390.722 256.114 391.437 249.211 390.141 242.543C388.845 235.874 385.597 229.741 380.808 224.92C376.019 220.099 369.905 216.808 363.241 215.464C356.578 214.121 349.666 214.785 343.381 217.373C337.096 219.961 331.722 224.357 327.94 230.001C324.158 235.646 322.139 242.286 322.139 249.079C322.123 258.136 325.699 266.831 332.084 273.259C338.469 279.686 347.143 283.323 356.206 283.373Z" fill="black"/>
<path fill-rule="evenodd" clip-rule="evenodd" d="M191.355 251.258C193.907 251.27 196.406 250.525 198.534 249.117C200.662 247.709 202.324 245.701 203.309 243.348C204.295 240.995 204.559 238.402 204.069 235.899C203.578 233.396 202.355 231.095 200.555 229.287C198.754 227.479 196.457 226.245 193.955 225.743C191.453 225.241 188.857 225.493 186.498 226.466C184.139 227.439 182.122 229.09 180.702 231.21C179.283 233.33 178.525 235.824 178.525 238.374C178.525 241.78 179.875 245.048 182.279 247.462C184.683 249.877 187.946 251.241 191.355 251.258ZM345.619 251.258C348.171 251.27 350.67 250.525 352.798 249.117C354.926 247.709 356.588 245.701 357.573 243.348C358.559 240.995 358.823 238.402 358.332 235.899C357.842 233.396 356.619 231.095 354.819 229.287C353.018 227.479 350.721 226.245 348.219 225.743C345.717 225.241 343.121 225.493 340.762 226.466C338.403 227.439 336.386 229.09 334.966 231.21C333.547 233.33 332.789 235.824 332.789 238.374C332.789 241.759 334.122 245.008 336.499 247.419C338.876 249.83 342.108 251.209 345.494 251.258H345.619Z" fill="white"/>
<defs>
<filter id="filter0_d_60_95" x="0.569824" y="0.55957" width="596.43" height="535.44" filterUnits="userSpaceOnUse" color-interpolation-filters="sRGB">
<feFlood flood-opacity="0" result="BackgroundImageFix"/>
<feColorMatrix in="SourceAlpha" type="matrix" values="0 0 0 0 0 0 0 0 0 0 0 0 0 0 0 0 0 0 127 0" result="hardAlpha"/>
<feOffset/>
<feGaussianBlur stdDeviation="10"/>
<feComposite in2="hardAlpha" operator="out"/>
<feColorMatrix type="matrix" values="0 0 0 0 0 0 0 0 0 0 0 0 0 0 0 0 0 0 0.1 0"/>
<feBlend mode="normal" in2="BackgroundImageFix" result="effect1_dropShadow_60_95"/>
<feBlend mode="normal" in="SourceGraphic" in2="effect1_dropShadow_60_95" result="shape"/>
</filter>
</defs>
</svg>
