<svg width="492" height="431" viewBox="0 0 492 431" fill="none" xmlns="http://www.w3.org/2000/svg">
<path d="M439.624 125.97C438.627 124.912 437.569 123.854 436.51 122.858C435.451 121.862 434.455 120.742 433.396 119.746C432.337 118.751 431.341 117.63 430.282 116.634C429.223 115.639 428.227 114.518 427.168 113.523C426.109 112.527 425.113 111.406 424.054 110.411C422.995 109.415 421.999 108.294 420.94 107.299C419.882 106.303 418.885 105.183 417.826 104.187C448.718 134.526 466.414 175.8 467.089 219.079C467.089 322.207 362.336 406.105 233.544 406.105C161.426 406.105 96.905 379.778 53.9951 338.514L57.109 341.626L60.223 344.738L63.3369 347.85L66.4508 350.962L69.5648 354.073L72.6787 357.185L75.7926 360.297C118.64 403.304 184.593 431 258.456 431C387.248 431 492 347.103 492 244.285C492 200.345 473.067 158.708 439.624 125.97Z" fill="black"/>
<path d="M451.519 219.079C451.519 313.743 353.929 390.483 233.544 390.483C113.16 390.483 15.5693 313.743 15.5693 219.079C15.5693 160.388 52.9365 108.544 110.357 77.7978C167.778 47.0521 203.526 15.5596 233.544 15.5596C263.562 15.5596 289.221 41.264 356.731 77.7978C414.152 108.544 451.519 160.388 451.519 219.079Z" fill="#FBF0DF"/>
<path d="M451.52 219.079C451.49 206.918 449.814 194.817 446.538 183.105C429.536 390.358 176.56 400.317 77.1016 338.327C121.812 372.959 176.984 391.353 233.545 390.483C353.743 390.483 451.52 313.619 451.52 219.079Z" fill="#F6DECE"/>
<path d="M149.655 66.4082C177.494 49.7284 214.487 18.4225 250.858 18.3603C245.262 16.5529 239.424 15.6085 233.544 15.5596C218.473 15.5596 202.405 23.3394 182.164 35.0402C175.127 39.1479 167.84 43.6913 160.118 48.4214C145.607 57.3837 128.979 67.5285 110.295 77.6734C51.0058 109.726 15.5693 162.566 15.5693 219.079C15.5693 221.568 15.5693 224.058 15.5693 226.485C53.3101 93.2329 121.879 83.0881 149.655 66.4082Z" fill="#FFFEFC"/>
<path fill-rule="evenodd" clip-rule="evenodd" d="M215.609 31.3058C215.696 46.0016 212.608 60.5431 206.557 73.9374C200.506 87.3316 191.634 99.263 180.546 108.917C178.802 110.473 180.172 113.46 182.414 112.589C203.402 104.436 231.739 80.0383 219.781 30.8079C219.283 28.0071 215.609 28.754 215.609 31.3058ZM229.746 31.3058C237.366 43.7312 242.208 57.6564 243.938 72.1268C245.669 86.5972 244.248 101.271 239.773 115.141C239.025 117.319 241.703 119.186 243.198 117.381C256.837 99.9546 268.732 65.3501 233.109 28.0071C231.303 26.3889 228.5 28.8785 229.746 31.0568V31.3058ZM246.935 30.2477C258.868 38.6907 268.851 49.5928 276.21 62.2189C283.57 74.8449 288.134 88.9013 289.596 103.44C289.532 103.964 289.674 104.492 289.99 104.915C290.306 105.337 290.772 105.622 291.293 105.71C291.814 105.798 292.348 105.683 292.786 105.387C293.224 105.092 293.531 104.64 293.644 104.125C299.373 82.4034 296.135 45.3716 248.99 26.14C246.499 25.1442 244.88 28.505 246.935 29.9988V30.2477ZM131.969 94.9755C146.164 90.7375 159.306 83.5593 170.541 73.9082C181.775 64.2572 190.85 52.3497 197.174 38.9611C198.295 36.7205 201.845 37.5918 201.285 40.0814C190.51 89.872 154.451 100.266 132.031 98.8965C129.664 98.9588 129.727 95.6601 131.969 94.9755Z" fill="#CCBEA7"/>
<path d="M233.545 406.105C104.752 406.105 0 322.208 0 219.079C0 156.84 38.4881 98.7721 102.946 63.9809C121.63 54.0228 137.636 44.0025 151.897 35.2269C159.744 30.3723 167.156 25.8289 174.318 21.5967C196.177 8.65112 214.861 0 233.545 0C252.228 0 268.545 7.46859 288.972 19.5428C295.2 23.0904 301.428 26.9492 308.092 31.1814C323.599 40.7661 341.1 51.5955 364.143 63.9809C428.601 98.7721 467.089 156.778 467.089 219.079C467.089 322.208 362.337 406.105 233.545 406.105ZM233.545 15.5596C218.473 15.5596 202.405 23.3394 182.165 35.0401C175.127 39.1479 167.841 43.6913 160.118 48.4214C145.607 57.3837 128.979 67.5285 110.295 77.6734C51.0061 109.726 15.5696 162.566 15.5696 219.079C15.5696 313.619 113.347 390.545 233.545 390.545C353.742 390.545 451.519 313.619 451.519 219.079C451.519 162.566 416.083 109.726 356.731 77.7978C333.19 65.3502 314.818 53.6494 299.933 44.4381C293.145 40.2682 286.917 36.4094 281.25 32.9863C262.379 21.7834 248.616 15.5596 233.545 15.5596Z" fill="black"/>
<path d="M277.451 264.513C274.653 275.964 268.284 286.23 259.265 293.827C252.494 300.387 243.728 304.504 234.354 305.528C224.698 304.666 215.624 300.538 208.633 293.827C199.706 286.194 193.427 275.932 190.697 264.513C190.606 263.835 190.672 263.145 190.89 262.497C191.107 261.848 191.47 261.258 191.951 260.771C192.432 260.285 193.018 259.915 193.664 259.689C194.31 259.464 194.999 259.389 195.679 259.471H272.531C273.205 259.4 273.887 259.482 274.525 259.712C275.164 259.942 275.741 260.313 276.215 260.799C276.689 261.284 277.046 261.87 277.26 262.514C277.474 263.157 277.539 263.841 277.451 264.513Z" fill="#B71422"/>
<path d="M208.633 294.325C215.61 301.04 224.65 305.207 234.291 306.15C243.91 305.193 252.927 301.028 259.888 294.325C262.115 292.251 264.195 290.026 266.116 287.665C262.279 283.316 257.593 279.796 252.345 277.324C247.097 274.852 241.398 273.478 235.599 273.288C229.394 273.435 223.318 275.087 217.894 278.101C212.469 281.115 207.859 285.401 204.46 290.591C205.892 291.898 207.138 293.142 208.633 294.325Z" fill="#FF6164"/>
<path d="M209.629 289.408C212.717 285.42 216.669 282.182 221.189 279.94C225.708 277.698 230.678 276.509 235.724 276.462C245.05 276.737 253.937 280.489 260.635 286.981C262.067 285.425 263.438 283.807 264.745 282.188C256.822 274.648 246.352 270.36 235.412 270.176C229.566 270.227 223.803 271.57 218.538 274.109C213.272 276.649 208.635 280.322 204.958 284.865C206.431 286.463 207.99 287.98 209.629 289.408Z" fill="black"/>
<path d="M234.105 309.262C223.727 308.353 213.961 303.967 206.391 296.814C196.75 288.666 189.965 277.655 187.022 265.384C186.811 264.292 186.847 263.166 187.127 262.089C187.407 261.012 187.925 260.012 188.641 259.16C189.495 258.13 190.573 257.309 191.792 256.759C193.012 256.209 194.341 255.944 195.679 255.986H272.531C273.866 255.958 275.191 256.228 276.409 256.778C277.626 257.327 278.706 258.141 279.568 259.16C280.278 260.015 280.786 261.018 281.056 262.095C281.325 263.172 281.349 264.296 281.125 265.384C278.182 277.655 271.397 288.666 261.756 296.814C254.203 303.954 244.461 308.34 234.105 309.262ZM195.679 263.206C194.682 263.206 194.433 263.641 194.371 263.766C197.004 274.407 202.959 283.933 211.373 290.964C217.526 297.022 225.526 300.855 234.105 301.856C242.662 300.866 250.652 297.081 256.836 291.088C265.224 284.045 271.156 274.521 273.776 263.89C273.64 263.691 273.452 263.534 273.232 263.435C273.013 263.336 272.77 263.3 272.531 263.33L195.679 263.206Z" fill="black"/>
<path d="M328.332 268.371C348.454 268.371 364.765 258.786 364.765 246.961C364.765 235.137 348.454 225.551 328.332 225.551C308.211 225.551 291.899 235.137 291.899 246.961C291.899 258.786 308.211 268.371 328.332 268.371Z" fill="#FEBBD0"/>
<path d="M139.816 268.371C159.937 268.371 176.249 258.786 176.249 246.961C176.249 235.137 159.937 225.551 139.816 225.551C119.694 225.551 103.383 235.137 103.383 246.961C103.383 258.786 119.694 268.371 139.816 268.371Z" fill="#FEBBD0"/>
<path fill-rule="evenodd" clip-rule="evenodd" d="M156.942 238.373C163.731 238.385 170.372 236.384 176.023 232.623C181.675 228.863 186.083 223.511 188.689 217.246C191.296 210.981 191.985 204.084 190.668 197.427C189.351 190.771 186.087 184.655 181.291 179.852C176.494 175.05 170.38 171.778 163.722 170.45C157.063 169.121 150.16 169.797 143.886 172.39C137.612 174.984 132.249 179.38 128.476 185.02C124.703 190.661 122.688 197.294 122.688 204.079C122.688 213.164 126.295 221.877 132.717 228.306C139.139 234.736 147.851 238.356 156.942 238.373ZM311.206 238.373C318.003 238.422 324.662 236.453 330.338 232.714C336.014 228.976 340.451 223.638 343.086 217.376C345.722 211.114 346.437 204.211 345.141 197.543C343.845 190.874 340.597 184.741 335.808 179.92C331.019 175.099 324.905 171.808 318.241 170.464C311.578 169.121 304.666 169.785 298.381 172.373C292.096 174.961 286.722 179.357 282.94 185.001C279.158 190.646 277.139 197.286 277.139 204.079C277.123 213.136 280.699 221.831 287.084 228.259C293.469 234.686 302.143 238.323 311.206 238.373Z" fill="black"/>
<path fill-rule="evenodd" clip-rule="evenodd" d="M146.355 206.258C148.907 206.27 151.406 205.525 153.534 204.117C155.662 202.709 157.324 200.701 158.309 198.348C159.295 195.995 159.559 193.403 159.069 190.899C158.578 188.396 157.355 186.095 155.555 184.287C153.754 182.479 151.457 181.246 148.955 180.743C146.453 180.241 143.857 180.493 141.498 181.466C139.139 182.439 137.122 184.09 135.702 186.21C134.283 188.33 133.525 190.824 133.525 193.374C133.525 196.78 134.875 200.048 137.279 202.462C139.683 204.877 142.946 206.241 146.355 206.258ZM300.619 206.258C303.171 206.27 305.67 205.525 307.798 204.117C309.926 202.709 311.588 200.701 312.573 198.348C313.559 195.995 313.823 193.403 313.332 190.899C312.842 188.396 311.619 186.095 309.819 184.287C308.018 182.479 305.721 181.246 303.219 180.743C300.717 180.241 298.121 180.493 295.762 181.466C293.403 182.439 291.386 184.09 289.966 186.21C288.547 188.33 287.789 190.824 287.789 193.374C287.789 196.759 289.122 200.008 291.499 202.419C293.876 204.83 297.108 206.209 300.494 206.258H300.619Z" fill="white"/>
</svg>
