<svg width="558" height="614" viewBox="0 0 558 614" fill="none" xmlns="http://www.w3.org/2000/svg">
<g filter="url(#filter0_d_59_675)">
<path d="M79.1457 512.148L80.0679 522.492L90.0741 525.27L274.452 576.453L278.461 577.567L282.472 576.455L467.352 525.195L477.361 522.42L478.284 512.075L519.415 51.3337L520.873 35H504.474H53H36.6031L38.0593 51.3321L79.1457 512.148Z" fill="#0071BC" stroke="white" stroke-width="30"/>
<path d="M264.116 522.795V542.479L283.095 537.258L432.302 496.211L442.342 493.449L443.264 483.076L478.223 89.7042L479.674 73.3764H463.282H279.116H264.116V88.3764V522.795Z" fill="#29ABE2" stroke="white" stroke-width="30"/>
<path d="M141.144 243.888L131.154 248.164L132.104 258.989L137.053 315.423L138.888 336.343L158.082 327.822L285.202 271.388L294.116 267.431V257.678V201.152V178.416L273.214 187.362L141.144 243.888Z" fill="#B3B3B3" stroke="white" stroke-width="30"/>
<path d="M434.851 142.1L436.995 117.171L413.997 127.027L273.207 187.365L264.116 191.262V201.152V257.678V280.762L285.209 271.385L421.145 210.955L429.238 207.357L429.997 198.534L434.851 142.1Z" fill="#E6E6E6" stroke="white" stroke-width="30"/>
<path d="M294.116 405.337V387.922L279.549 390.105L229.622 376.697L226.456 342.092L225.208 328.458H211.518H154.78H138.381L139.84 344.792L147.757 433.473L148.681 443.822L158.695 446.595L274.664 478.705L278.371 479.732L282.115 478.847L282.564 478.741L294.116 476.013V464.143V405.337Z" fill="#E6E6E6" stroke="white" stroke-width="30"/>
<path d="M279.116 242.678H264.116V257.678V314.112V329.112H279.116H331.808L327.801 376.244L275.089 390.937L264.116 393.995V405.386V464.187V483.922L283.131 478.64L398.715 446.53L408.739 443.745L409.644 433.381L424.864 258.982L426.287 242.678H409.921H279.116Z" fill="white" stroke="white" stroke-width="30"/>
<path d="M294.116 257.678V242.678H279.116H147.046H130.673L132.104 258.989L137.053 315.423L138.254 329.112H151.996H279.116H294.116V314.112V257.678Z" fill="#E6E6E6" stroke="white" stroke-width="30"/>
<path d="M279.116 212.248H294.116V197.248V140.814V125.814H279.116H278.543H137.013H120.623L122.071 142.14L127.079 198.574L128.293 212.248H142.021H279.116Z" fill="#E6E6E6" stroke="white" stroke-width="30"/>
<path d="M279.116 125.814H264.116V140.814V196.541V197.248V212.248H279.116H415.052H428.817L429.997 198.534L434.851 142.1L436.252 125.814H419.906H279.116Z" fill="white" stroke="white" stroke-width="30"/>
</g>
<path fill-rule="evenodd" clip-rule="evenodd" d="M94.0864 510.816L53 50H504.474L463.344 510.741L278.464 562L94.0864 510.816Z" fill="#0071BC"/>
<path fill-rule="evenodd" clip-rule="evenodd" d="M279.116 522.795L428.323 481.748L463.282 88.3764H279.116V522.795Z" fill="#29ABE2"/>
<path fill-rule="evenodd" clip-rule="evenodd" d="M147.046 257.678L151.996 314.112L279.116 257.678V201.152L147.046 257.678Z" fill="#B3B3B3"/>
<path fill-rule="evenodd" clip-rule="evenodd" d="M419.906 140.814L279.116 201.152V257.678L415.052 197.248L419.906 140.814Z" fill="#E6E6E6"/>
<path fill-rule="evenodd" clip-rule="evenodd" d="M279.116 405.337L278.679 405.403L215.637 388.472L211.518 343.458H154.78L162.698 432.139L278.667 464.249L279.116 464.143V405.337Z" fill="#E6E6E6"/>
<path fill-rule="evenodd" clip-rule="evenodd" d="M279.116 257.678V314.112H348.138L341.864 387.896L279.116 405.386V464.187L394.7 432.077L409.921 257.678H279.116Z" fill="white"/>
<path fill-rule="evenodd" clip-rule="evenodd" d="M279.116 257.678H147.046L151.996 314.112H279.116V257.678Z" fill="#E6E6E6"/>
<path fill-rule="evenodd" clip-rule="evenodd" d="M279.116 197.248V140.814H278.543H137.013L142.021 197.248H279.116Z" fill="#E6E6E6"/>
<path fill-rule="evenodd" clip-rule="evenodd" d="M279.116 140.814V196.541V197.248H415.052L419.906 140.814H279.116Z" fill="white"/>
<path fill-rule="evenodd" clip-rule="evenodd" d="M94.0864 510.816L53 50H504.474L463.344 510.741L278.464 562L94.0864 510.816Z" fill="#0071BC"/>
<path fill-rule="evenodd" clip-rule="evenodd" d="M279.116 522.795L428.323 481.748L463.282 88.3764H279.116V522.795Z" fill="#29ABE2"/>
<path fill-rule="evenodd" clip-rule="evenodd" d="M147.046 257.678L151.996 314.112L279.116 257.678V201.152L147.046 257.678Z" fill="#B3B3B3"/>
<path fill-rule="evenodd" clip-rule="evenodd" d="M419.906 140.814L279.116 201.152V257.678L415.052 197.248L419.906 140.814Z" fill="#E6E6E6"/>
<path fill-rule="evenodd" clip-rule="evenodd" d="M279.116 405.337L278.679 405.403L215.637 388.472L211.518 343.458H154.78L162.698 432.139L278.667 464.249L279.116 464.143V405.337Z" fill="#E6E6E6"/>
<path fill-rule="evenodd" clip-rule="evenodd" d="M279.116 257.678V314.112H348.138L341.864 387.896L279.116 405.386V464.187L394.7 432.077L409.921 257.678H279.116Z" fill="white"/>
<path fill-rule="evenodd" clip-rule="evenodd" d="M279.116 257.678H147.046L151.996 314.112H279.116V257.678Z" fill="#E6E6E6"/>
<path fill-rule="evenodd" clip-rule="evenodd" d="M279.116 197.248V140.814H278.543H137.013L142.021 197.248H279.116Z" fill="#E6E6E6"/>
<path fill-rule="evenodd" clip-rule="evenodd" d="M279.116 140.814V196.541V197.248H415.052L419.906 140.814H279.116Z" fill="white"/>
<path fill-rule="evenodd" clip-rule="evenodd" d="M94.0864 510.816L53 50H504.474L463.344 510.741L278.464 562L94.0864 510.816Z" fill="#0071BC"/>
<path fill-rule="evenodd" clip-rule="evenodd" d="M279.116 522.795L428.323 481.748L463.282 88.3764H279.116V522.795Z" fill="#29ABE2"/>
<path fill-rule="evenodd" clip-rule="evenodd" d="M147.046 257.678L151.996 314.112L279.116 257.678V201.152L147.046 257.678Z" fill="#B3B3B3"/>
<path fill-rule="evenodd" clip-rule="evenodd" d="M419.906 140.814L279.116 201.152V257.678L415.052 197.248L419.906 140.814Z" fill="#E6E6E6"/>
<path fill-rule="evenodd" clip-rule="evenodd" d="M279.116 405.337L278.679 405.403L215.637 388.472L211.518 343.458H154.78L162.698 432.139L278.667 464.249L279.116 464.143V405.337Z" fill="#E6E6E6"/>
<path fill-rule="evenodd" clip-rule="evenodd" d="M279.116 257.678V314.112H348.138L341.864 387.896L279.116 405.386V464.187L394.7 432.077L409.921 257.678H279.116Z" fill="white"/>
<path fill-rule="evenodd" clip-rule="evenodd" d="M279.116 257.678H147.046L151.996 314.112H279.116V257.678Z" fill="#E6E6E6"/>
<path fill-rule="evenodd" clip-rule="evenodd" d="M279.116 197.248V140.814H278.543H137.013L142.021 197.248H279.116Z" fill="#E6E6E6"/>
<path fill-rule="evenodd" clip-rule="evenodd" d="M279.116 140.814V196.541V197.248H415.052L419.906 140.814H279.116Z" fill="white"/>
<defs>
<filter id="filter0_d_59_675" x="0.206055" y="0" width="557.065" height="613.133" filterUnits="userSpaceOnUse" color-interpolation-filters="sRGB">
<feFlood flood-opacity="0" result="BackgroundImageFix"/>
<feColorMatrix in="SourceAlpha" type="matrix" values="0 0 0 0 0 0 0 0 0 0 0 0 0 0 0 0 0 0 127 0" result="hardAlpha"/>
<feOffset/>
<feGaussianBlur stdDeviation="10"/>
<feComposite in2="hardAlpha" operator="out"/>
<feColorMatrix type="matrix" values="0 0 0 0 0 0 0 0 0 0 0 0 0 0 0 0 0 0 0.1 0"/>
<feBlend mode="normal" in2="BackgroundImageFix" result="effect1_dropShadow_59_675"/>
<feBlend mode="normal" in="SourceGraphic" in2="effect1_dropShadow_59_675" result="shape"/>
</filter>
</defs>
</svg>
