<svg width="633" height="488" viewBox="0 0 633 488" fill="none" xmlns="http://www.w3.org/2000/svg">
<g filter="url(#filter0_d_60_83)">
<mask id="path-1-outside-1_60_83" maskUnits="userSpaceOnUse" x="20" y="20" width="594" height="448" fill="black">
<rect fill="white" x="20" y="20" width="594" height="448"/>
<path fill-rule="evenodd" clip-rule="evenodd" d="M295.735 108.25H341.018C343.206 108.25 344.982 106.483 344.994 104.297V63.9525C344.982 61.7656 343.206 60 341.018 60H295.735C293.551 60 291.782 61.7692 291.782 63.9525V104.297C291.782 106.48 293.552 108.25 295.735 108.25ZM215.065 166.281H169.783C167.591 166.269 165.819 164.497 165.807 162.306V121.985C165.819 119.798 167.596 118.032 169.783 118.032H215.065C217.249 118.032 219.019 119.801 219.019 121.985V162.306C219.019 164.493 217.252 166.269 215.065 166.281ZM526.17 188.01C553.561 188.01 566.549 197.814 567.941 198.918L573 202.915L570.901 209.054C567.555 217.521 562.398 225.156 555.792 231.423C545.852 241.249 527.827 252.975 498.515 252.975H493.788C481.927 282.962 465.978 316.704 439.205 347.001C423.192 365.117 404.357 380.529 383.43 392.644C358.032 407.023 330.408 417.054 301.7 422.323C281.048 426.164 260.082 428.064 239.077 427.998C192.579 427.998 151.559 419.165 126.311 403.708C103.78 389.951 86.462 367.471 74.8212 336.953C64.643 309.161 59.6274 279.743 60.0216 250.149C60.0697 241.326 67.2319 234.195 76.0583 234.183H413.979C418.109 234.029 438.52 232.284 451.243 225.196C440.707 208.546 437.724 189.07 442.629 168.334C445.225 157.48 449.647 147.147 455.705 137.773L460.543 130.794L467.898 135.034L467.899 135.035C469.265 135.841 499.288 153.551 504.588 189.864C511.72 188.661 518.937 188.041 526.17 188.01ZM152.663 224.291H107.38C105.196 224.291 103.427 222.521 103.427 220.338V180.016V179.994C103.427 177.811 105.196 176.041 107.38 176.041H152.663H152.686C154.869 176.053 156.629 177.833 156.617 180.016V220.338C156.617 222.521 154.847 224.291 152.663 224.291ZM169.783 224.291H215.066C217.25 224.291 219.019 222.521 219.019 220.338V180.016C219.032 177.833 217.271 176.053 215.087 176.041H215.065H169.782C167.586 176.041 165.806 177.82 165.806 180.016V220.338C165.819 222.525 167.595 224.291 169.783 224.291ZM278.417 224.291H233.134C230.951 224.291 229.18 222.521 229.18 220.338V180.016V179.994C229.18 177.811 230.949 176.041 233.133 176.041H278.416H278.439C280.622 176.053 282.383 177.833 282.371 180.016V220.338C282.371 222.521 280.601 224.291 278.417 224.291ZM295.735 224.291H341.018C343.206 224.291 344.982 222.525 344.994 220.338V180.016C344.994 177.82 343.214 176.041 341.018 176.041H295.735C293.551 176.041 291.782 177.811 291.782 179.994V180.016V220.338C291.782 222.521 293.552 224.291 295.735 224.291ZM233.134 166.281H278.417C280.604 166.269 282.37 164.493 282.37 162.306V121.985C282.37 119.801 280.6 118.032 278.417 118.032H233.134C230.95 118.032 229.18 119.802 229.18 121.985V162.306C229.18 164.493 230.947 166.269 233.134 166.281ZM341.018 166.281H295.735C293.549 166.269 291.782 164.493 291.782 162.306V121.985C291.782 119.802 293.551 118.032 295.735 118.032H341.018C343.206 118.032 344.982 119.798 344.994 121.985V162.306C344.982 164.497 343.209 166.269 341.018 166.281ZM404.171 224.291H358.888C356.705 224.291 354.935 222.521 354.935 220.338V180.016V179.994C354.935 177.811 356.705 176.041 358.888 176.041H404.171C406.367 176.041 408.147 177.82 408.147 180.016V220.338C408.135 222.525 406.359 224.291 404.171 224.291Z"/>
</mask>
<path fill-rule="evenodd" clip-rule="evenodd" d="M295.735 108.25H341.018C343.206 108.25 344.982 106.483 344.994 104.297V63.9525C344.982 61.7656 343.206 60 341.018 60H295.735C293.551 60 291.782 61.7692 291.782 63.9525V104.297C291.782 106.48 293.552 108.25 295.735 108.25ZM215.065 166.281H169.783C167.591 166.269 165.819 164.497 165.807 162.306V121.985C165.819 119.798 167.596 118.032 169.783 118.032H215.065C217.249 118.032 219.019 119.801 219.019 121.985V162.306C219.019 164.493 217.252 166.269 215.065 166.281ZM526.17 188.01C553.561 188.01 566.549 197.814 567.941 198.918L573 202.915L570.901 209.054C567.555 217.521 562.398 225.156 555.792 231.423C545.852 241.249 527.827 252.975 498.515 252.975H493.788C481.927 282.962 465.978 316.704 439.205 347.001C423.192 365.117 404.357 380.529 383.43 392.644C358.032 407.023 330.408 417.054 301.7 422.323C281.048 426.164 260.082 428.064 239.077 427.998C192.579 427.998 151.559 419.165 126.311 403.708C103.78 389.951 86.462 367.471 74.8212 336.953C64.643 309.161 59.6274 279.743 60.0216 250.149C60.0697 241.326 67.2319 234.195 76.0583 234.183H413.979C418.109 234.029 438.52 232.284 451.243 225.196C440.707 208.546 437.724 189.07 442.629 168.334C445.225 157.48 449.647 147.147 455.705 137.773L460.543 130.794L467.898 135.034L467.899 135.035C469.265 135.841 499.288 153.551 504.588 189.864C511.72 188.661 518.937 188.041 526.17 188.01ZM152.663 224.291H107.38C105.196 224.291 103.427 222.521 103.427 220.338V180.016V179.994C103.427 177.811 105.196 176.041 107.38 176.041H152.663H152.686C154.869 176.053 156.629 177.833 156.617 180.016V220.338C156.617 222.521 154.847 224.291 152.663 224.291ZM169.783 224.291H215.066C217.25 224.291 219.019 222.521 219.019 220.338V180.016C219.032 177.833 217.271 176.053 215.087 176.041H215.065H169.782C167.586 176.041 165.806 177.82 165.806 180.016V220.338C165.819 222.525 167.595 224.291 169.783 224.291ZM278.417 224.291H233.134C230.951 224.291 229.18 222.521 229.18 220.338V180.016V179.994C229.18 177.811 230.949 176.041 233.133 176.041H278.416H278.439C280.622 176.053 282.383 177.833 282.371 180.016V220.338C282.371 222.521 280.601 224.291 278.417 224.291ZM295.735 224.291H341.018C343.206 224.291 344.982 222.525 344.994 220.338V180.016C344.994 177.82 343.214 176.041 341.018 176.041H295.735C293.551 176.041 291.782 177.811 291.782 179.994V180.016V220.338C291.782 222.521 293.552 224.291 295.735 224.291ZM233.134 166.281H278.417C280.604 166.269 282.37 164.493 282.37 162.306V121.985C282.37 119.801 280.6 118.032 278.417 118.032H233.134C230.95 118.032 229.18 119.802 229.18 121.985V162.306C229.18 164.493 230.947 166.269 233.134 166.281ZM341.018 166.281H295.735C293.549 166.269 291.782 164.493 291.782 162.306V121.985C291.782 119.802 293.551 118.032 295.735 118.032H341.018C343.206 118.032 344.982 119.798 344.994 121.985V162.306C344.982 164.497 343.209 166.269 341.018 166.281ZM404.171 224.291H358.888C356.705 224.291 354.935 222.521 354.935 220.338V180.016V179.994C354.935 177.811 356.705 176.041 358.888 176.041H404.171C406.367 176.041 408.147 177.82 408.147 180.016V220.338C408.135 222.525 406.359 224.291 404.171 224.291Z" fill="#2496ED"/>
<path d="M344.994 104.297L384.994 104.521C384.994 104.446 384.994 104.372 384.994 104.297L344.994 104.297ZM344.994 63.9525H384.994C384.994 63.878 384.994 63.8036 384.994 63.7292L344.994 63.9525ZM169.783 166.281L169.56 206.281C169.634 206.281 169.708 206.281 169.783 206.281L169.783 166.281ZM215.065 166.281V206.281C215.14 206.281 215.214 206.281 215.289 206.281L215.065 166.281ZM165.807 162.306H125.807C125.807 162.381 125.807 162.455 125.807 162.529L165.807 162.306ZM165.807 121.985L125.807 121.761C125.807 121.836 125.807 121.91 125.807 121.985L165.807 121.985ZM567.941 198.918L543.07 230.247C543.095 230.266 543.12 230.286 543.144 230.305L567.941 198.918ZM526.17 188.01V148.01C526.112 148.01 526.054 148.01 525.995 148.01L526.17 188.01ZM573 202.915L610.849 215.855C616.336 199.806 611.105 182.042 597.796 171.528L573 202.915ZM570.901 209.054L608.102 223.755C608.332 223.173 608.548 222.586 608.751 221.993L570.901 209.054ZM555.792 231.423L528.262 202.404C528.063 202.593 527.866 202.784 527.671 202.976L555.792 231.423ZM493.788 252.975V212.975C477.376 212.975 462.629 223.001 456.592 238.262L493.788 252.975ZM439.205 347.001L469.176 373.492L469.18 373.487L439.205 347.001ZM383.43 392.644L403.136 427.453C403.248 427.39 403.359 427.326 403.47 427.262L383.43 392.644ZM301.7 422.323L294.478 382.981C294.448 382.986 294.417 382.992 294.387 382.998L301.7 422.323ZM239.077 427.998L239.202 387.998C239.16 387.998 239.119 387.998 239.077 387.998L239.077 427.998ZM126.311 403.708L147.197 369.594C147.183 369.585 147.17 369.577 147.156 369.569L126.311 403.708ZM74.8212 336.953L37.2608 350.709C37.322 350.876 37.3843 351.043 37.4478 351.209L74.8212 336.953ZM60.0216 250.149L100.018 250.681C100.019 250.576 100.02 250.472 100.021 250.367L60.0216 250.149ZM76.0583 234.183V194.183C76.0398 194.183 76.0214 194.183 76.0029 194.183L76.0583 234.183ZM413.979 234.183V274.183C414.477 274.183 414.975 274.174 415.472 274.155L413.979 234.183ZM451.243 225.196L470.71 260.139C480.317 254.787 487.296 245.717 490.008 235.06C492.72 224.402 490.924 213.099 485.044 203.806L451.243 225.196ZM442.629 168.334L403.726 159.029C403.718 159.062 403.71 159.095 403.703 159.128L442.629 168.334ZM455.705 137.773L422.832 114.984C422.585 115.339 422.345 115.698 422.11 116.062L455.705 137.773ZM460.543 130.794L480.52 96.1403C462.498 85.7507 439.521 90.9091 427.669 108.005L460.543 130.794ZM467.898 135.034L488.053 100.483C487.994 100.449 487.935 100.415 487.876 100.381L467.898 135.034ZM467.899 135.035L488.223 100.583C488.167 100.55 488.111 100.517 488.054 100.484L467.899 135.035ZM504.588 189.864L465.007 195.641C466.561 206.29 472.342 215.864 481.042 222.2C489.742 228.535 500.628 231.097 511.24 229.307L504.588 189.864ZM152.686 176.041L152.909 136.042C152.835 136.041 152.76 136.041 152.686 136.041L152.686 176.041ZM156.617 180.016L116.618 179.792C116.617 179.867 116.617 179.941 116.617 180.016L156.617 180.016ZM219.019 180.016L179.02 179.792C179.02 179.867 179.019 179.941 179.019 180.016L219.019 180.016ZM215.087 176.041L215.311 136.042C215.236 136.041 215.162 136.041 215.087 136.041L215.087 176.041ZM165.806 220.338H125.806C125.806 220.417 125.806 220.495 125.807 220.574L165.806 220.338ZM229.18 220.338L189.18 220.338L189.18 220.351L229.18 220.338ZM278.439 176.041L278.662 136.042C278.587 136.041 278.513 136.041 278.439 136.041L278.439 176.041ZM282.371 180.016L242.371 179.792C242.371 179.867 242.371 179.941 242.371 180.016L282.371 180.016ZM344.994 220.338L384.994 220.562C384.994 220.487 384.994 220.413 384.994 220.338L344.994 220.338ZM278.417 166.281V206.281C278.491 206.281 278.566 206.281 278.64 206.281L278.417 166.281ZM233.134 166.281L232.911 206.281C232.985 206.281 233.06 206.281 233.134 206.281L233.134 166.281ZM295.735 166.281L295.512 206.281C295.587 206.281 295.661 206.281 295.735 206.281L295.735 166.281ZM341.018 166.281V206.281C341.093 206.281 341.167 206.281 341.241 206.281L341.018 166.281ZM344.994 121.985H384.994C384.994 121.91 384.994 121.836 384.994 121.761L344.994 121.985ZM344.994 162.306L384.994 162.529C384.994 162.455 384.994 162.381 384.994 162.306L344.994 162.306ZM408.147 220.338L448.146 220.562C448.147 220.487 448.147 220.413 448.147 220.338L408.147 220.338ZM341.018 68.2498H295.735V148.25H341.018V68.2498ZM304.995 104.074C305.106 84.2471 321.211 68.2498 341.018 68.2498V148.25C365.201 148.25 384.859 128.72 384.994 104.521L304.995 104.074ZM304.994 63.9525V104.297H384.994V63.9525H304.994ZM341.018 100C321.216 100 305.106 84.0067 304.995 64.1757L384.994 63.7292C384.859 39.5245 365.196 20 341.018 20V100ZM295.735 100H341.018V20H295.735V100ZM331.782 63.9525C331.782 83.8725 315.631 100 295.735 100V20C271.472 20 251.782 39.6658 251.782 63.9525H331.782ZM331.782 104.297V63.9525H251.782V104.297H331.782ZM295.735 68.2498C315.636 68.2498 331.782 84.3813 331.782 104.297H251.782C251.782 128.579 271.468 148.25 295.735 148.25V68.2498ZM169.783 206.281H215.065V126.281H169.783V206.281ZM125.807 162.529C125.942 186.649 145.463 206.146 169.56 206.281L170.005 126.282C189.72 126.392 205.696 142.345 205.806 162.084L125.807 162.529ZM125.807 121.985V162.306H205.807V121.985H125.807ZM169.783 78.0321C145.61 78.0321 125.942 97.552 125.807 121.761L205.806 122.208C205.695 142.043 189.581 158.032 169.783 158.032V78.0321ZM215.065 78.0321H169.783V158.032H215.065V78.0321ZM259.019 121.985C259.019 97.6931 239.323 78.0321 215.065 78.0321V158.032C195.174 158.032 179.019 141.909 179.019 121.985H259.019ZM259.019 162.306V121.985H179.019V162.306H259.019ZM215.289 206.281C239.469 206.146 259.019 186.507 259.019 162.306H179.019C179.019 142.478 195.035 126.392 214.842 126.282L215.289 206.281ZM592.811 167.59C585.545 161.822 564.012 148.01 526.17 148.01V228.01C534.972 228.01 540.276 229.563 542.654 230.463C545.054 231.371 545.089 231.849 543.07 230.247L592.811 167.59ZM597.796 171.528L592.737 167.531L543.144 230.305L548.204 234.302L597.796 171.528ZM608.751 221.993L610.849 215.855L535.151 189.976L533.052 196.114L608.751 221.993ZM583.323 260.441C594.155 250.165 602.613 237.644 608.102 223.755L533.701 194.353C532.497 197.398 530.641 200.147 528.262 202.404L583.323 260.441ZM498.515 292.975C539.823 292.975 567.598 275.998 583.913 259.869L527.671 202.976C524.106 206.5 515.831 212.975 498.515 212.975V292.975ZM493.788 292.975H498.515V212.975H493.788V292.975ZM469.18 373.487C500.45 338.1 518.447 299.383 530.984 267.688L456.592 238.262C445.406 266.541 431.505 295.308 409.231 320.514L469.18 373.487ZM403.47 427.262C428.122 412.991 450.31 394.835 469.176 373.492L409.235 320.509C396.074 335.399 380.593 348.068 363.389 358.027L403.47 427.262ZM308.922 461.666C342.013 455.592 373.858 444.029 403.136 427.453L363.723 357.836C342.206 370.017 318.802 378.516 294.478 382.981L308.922 461.666ZM238.951 467.998C262.453 468.072 285.909 465.946 309.013 461.649L294.387 382.998C276.187 386.382 257.712 388.057 239.202 387.998L238.951 467.998ZM105.426 437.822C139.586 458.736 189.055 467.998 239.077 467.998V387.998C196.103 387.998 163.533 379.595 147.197 369.594L105.426 437.822ZM37.4478 351.209C51.4694 387.969 73.7086 418.456 105.467 437.847L147.156 369.569C133.852 361.445 121.455 346.974 112.195 322.698L37.4478 351.209ZM20.0251 249.616C19.5661 284.082 25.4072 318.342 37.2608 350.709L112.382 323.198C103.879 299.98 99.6887 275.404 100.018 250.681L20.0251 249.616ZM76.0029 194.183C45.2059 194.226 20.1902 219.109 20.0221 249.931L100.021 250.367C99.9491 263.542 89.2578 274.165 76.1136 274.183L76.0029 194.183ZM413.979 194.183H76.0583V274.183H413.979V194.183ZM431.776 190.252C431.838 190.218 431.628 190.339 431.073 190.564C430.529 190.786 429.788 191.054 428.837 191.348C426.893 191.948 424.575 192.499 422.071 192.965C419.602 193.424 417.265 193.743 415.384 193.95C413.397 194.168 412.334 194.217 412.486 194.211L415.472 274.155C419.429 274.007 427.513 273.325 436.706 271.615C445.338 270.008 458.672 266.846 470.71 260.139L431.776 190.252ZM403.703 159.128C396.528 189.464 400.689 220.111 417.443 246.585L485.044 203.806C480.724 196.98 478.921 188.675 481.555 177.541L403.703 159.128ZM422.11 116.062C413.595 129.237 407.377 143.766 403.726 159.029L481.531 177.639C483.073 171.195 485.699 165.056 489.3 159.483L422.11 116.062ZM427.669 108.005L422.832 114.984L488.579 160.561L493.416 153.583L427.669 108.005ZM487.876 100.381L480.52 96.1403L440.565 165.448L447.92 169.688L487.876 100.381ZM488.054 100.484L488.053 100.483L447.743 169.586L447.745 169.586L488.054 100.484ZM544.169 184.088C536.032 128.337 491.066 102.26 488.223 100.583L447.576 169.488C447.593 169.498 447.559 169.477 447.522 169.455C447.489 169.435 447.471 169.424 447.468 169.423C447.463 169.42 447.537 169.465 447.68 169.559C447.971 169.75 448.54 170.137 449.305 170.717C450.869 171.902 453.062 173.749 455.326 176.211C459.905 181.19 463.832 187.591 465.007 195.641L544.169 184.088ZM525.995 148.01C516.593 148.051 507.209 148.857 497.935 150.421L511.24 229.307C516.231 228.465 521.282 228.031 526.345 228.009L525.995 148.01ZM107.38 264.291H152.663V184.291H107.38V264.291ZM63.4268 220.338C63.4268 244.615 83.1077 264.291 107.38 264.291V184.291C127.285 184.291 143.427 200.427 143.427 220.338H63.4268ZM63.4268 180.016V220.338H143.427V180.016H63.4268ZM63.4268 179.994V180.016H143.427V179.994H63.4268ZM107.38 136.041C83.1125 136.041 63.4268 155.712 63.4268 179.994H143.427C143.427 199.91 127.28 216.041 107.38 216.041V136.041ZM152.663 136.041H107.38V216.041H152.663V136.041ZM152.686 136.041H152.663V216.041H152.686V136.041ZM196.616 180.239C196.752 155.952 177.171 136.177 152.909 136.042L152.462 216.041C132.567 215.929 116.506 199.713 116.618 179.792L196.616 180.239ZM196.617 220.338V180.016H116.617V220.338H196.617ZM152.663 264.291C176.931 264.291 196.617 244.62 196.617 220.338H116.617C116.617 200.422 132.763 184.291 152.663 184.291V264.291ZM215.066 184.291H169.783V264.291H215.066V184.291ZM179.019 220.338C179.019 200.422 195.166 184.291 215.066 184.291V264.291C239.334 264.291 259.019 244.62 259.019 220.338H179.019ZM179.019 180.016V220.338H259.019V180.016H179.019ZM214.864 216.041C194.974 215.929 178.909 199.717 179.02 179.792L259.019 180.239C259.155 155.948 239.569 136.177 215.311 136.042L214.864 216.041ZM215.065 216.041H215.087V136.041H215.065V216.041ZM169.782 216.041H215.065V136.041H169.782V216.041ZM205.806 180.016C205.806 199.924 189.665 216.041 169.782 216.041V136.041C145.507 136.041 125.806 155.717 125.806 180.016H205.806ZM205.806 220.338V180.016H125.806V220.338H205.806ZM169.783 184.291C189.598 184.291 205.688 200.293 205.805 220.101L125.807 220.574C125.95 244.757 145.593 264.291 169.783 264.291V184.291ZM233.134 264.291H278.417V184.291H233.134V264.291ZM189.18 220.351C189.188 244.62 208.864 264.291 233.134 264.291V184.291C253.038 184.291 269.173 200.422 269.18 220.325L189.18 220.351ZM189.18 180.016V220.338H269.18V180.016H189.18ZM189.18 179.994V180.016H269.18V179.994H189.18ZM233.133 136.041C208.865 136.041 189.18 155.712 189.18 179.994H269.18C269.18 199.91 253.033 216.041 233.133 216.041V136.041ZM278.416 136.041H233.133V216.041H278.416V136.041ZM278.439 136.041H278.416V216.041H278.439V136.041ZM322.37 180.239C322.506 155.948 302.92 136.177 278.662 136.042L278.215 216.041C258.325 215.929 242.26 199.717 242.371 179.792L322.37 180.239ZM322.371 220.338V180.016H242.371V220.338H322.371ZM278.417 264.291C302.685 264.291 322.371 244.62 322.371 220.338H242.371C242.371 200.422 258.517 184.291 278.417 184.291V264.291ZM341.018 184.291H295.735V264.291H341.018V184.291ZM304.995 220.115C305.106 200.284 321.216 184.291 341.018 184.291V264.291C365.196 264.291 384.859 244.766 384.994 220.562L304.995 220.115ZM304.994 180.016V220.338H384.994V180.016H304.994ZM341.018 216.041C321.135 216.041 304.994 199.924 304.994 180.016H384.994C384.994 155.717 365.294 136.041 341.018 136.041V216.041ZM295.735 216.041H341.018V136.041H295.735V216.041ZM331.782 179.994C331.782 199.91 315.636 216.041 295.735 216.041V136.041C271.467 136.041 251.782 155.712 251.782 179.994H331.782ZM331.782 180.016V179.994H251.782V180.016H331.782ZM331.782 220.338V180.016H251.782V220.338H331.782ZM295.735 184.291C315.636 184.291 331.782 200.422 331.782 220.338H251.782C251.782 244.62 271.468 264.291 295.735 264.291V184.291ZM278.417 126.281H233.134V206.281H278.417V126.281ZM242.37 162.306C242.37 142.478 258.386 126.392 278.194 126.282L278.64 206.281C302.821 206.146 322.37 186.507 322.37 162.306H242.37ZM242.37 121.985V162.306H322.37V121.985H242.37ZM278.417 158.032C258.525 158.032 242.37 141.909 242.37 121.985H322.37C322.37 97.6933 302.675 78.0321 278.417 78.0321V158.032ZM233.134 158.032H278.417V78.0321H233.134V158.032ZM269.18 121.985C269.18 141.901 253.034 158.032 233.134 158.032V78.0321C208.866 78.0321 189.18 97.7032 189.18 121.985H269.18ZM269.18 162.306V121.985H189.18V162.306H269.18ZM233.357 126.282C253.164 126.392 269.18 142.478 269.18 162.306H189.18C189.18 186.507 208.73 206.146 232.911 206.281L233.357 126.282ZM295.735 206.281H341.018V126.281H295.735V206.281ZM251.782 162.306C251.782 186.507 271.331 206.146 295.512 206.281L295.959 126.282C315.766 126.392 331.782 142.478 331.782 162.306H251.782ZM251.782 121.985V162.306H331.782V121.985H251.782ZM295.735 78.0321C271.467 78.0321 251.782 97.7033 251.782 121.985H331.782C331.782 141.901 315.636 158.032 295.735 158.032V78.0321ZM341.018 78.0321H295.735V158.032H341.018V78.0321ZM384.994 121.761C384.859 97.5565 365.196 78.0321 341.018 78.0321V158.032C321.216 158.032 305.106 142.039 304.995 122.208L384.994 121.761ZM384.994 162.306V121.985H304.994V162.306H384.994ZM341.241 206.281C365.337 206.146 384.859 186.649 384.994 162.529L304.995 162.084C305.105 142.345 321.081 126.392 340.796 126.282L341.241 206.281ZM358.888 264.291H404.171V184.291H358.888V264.291ZM314.935 220.338C314.935 244.62 334.621 264.291 358.888 264.291V184.291C378.789 184.291 394.935 200.422 394.935 220.338H314.935ZM314.935 180.016V220.338H394.935V180.016H314.935ZM314.935 179.994V180.016H394.935V179.994H314.935ZM358.888 136.041C334.626 136.041 314.935 155.707 314.935 179.994H394.935C394.935 199.915 378.784 216.041 358.888 216.041V136.041ZM404.171 136.041H358.888V216.041H404.171V136.041ZM448.147 180.016C448.147 155.717 428.447 136.041 404.171 136.041V216.041C384.288 216.041 368.147 199.923 368.147 180.016H448.147ZM448.147 220.338V180.016H368.147V220.338H448.147ZM404.171 264.291C428.349 264.291 448.011 244.766 448.146 220.562L368.148 220.115C368.258 200.284 384.368 184.291 404.171 184.291V264.291Z" fill="white" mask="url(#path-1-outside-1_60_83)"/>
</g>
<path d="M567.941 198.918C566.549 197.814 553.561 188.01 526.17 188.01C518.937 188.041 511.72 188.661 504.588 189.864C499.287 153.539 469.245 135.829 467.898 135.034L460.543 130.794L455.705 137.773C449.647 147.147 445.225 157.48 442.629 168.334C437.724 189.07 440.707 208.546 451.243 225.196C438.52 232.284 418.109 234.029 413.979 234.183H76.0583C67.2319 234.195 60.0697 241.326 60.0216 250.149C59.6274 279.743 64.643 309.161 74.8212 336.953C86.462 367.471 103.78 389.951 126.311 403.708C151.559 419.165 192.579 427.998 239.077 427.998C260.082 428.064 281.048 426.164 301.7 422.323C330.408 417.054 358.032 407.023 383.43 392.644C404.357 380.529 423.192 365.117 439.205 347.001C465.978 316.704 481.927 282.962 493.788 252.975H498.515C527.827 252.975 545.852 241.249 555.792 231.423C562.398 225.156 567.555 217.521 570.901 209.054L573 202.915L567.941 198.918Z" fill="#2496ED"/>
<path d="M107.38 224.291H152.663C154.847 224.291 156.617 222.521 156.617 220.338V180.016C156.629 177.833 154.869 176.053 152.686 176.041C152.678 176.041 152.67 176.041 152.663 176.041H107.38C105.196 176.041 103.427 177.811 103.427 179.994V180.016V220.338C103.427 222.521 105.196 224.291 107.38 224.291V224.291Z" fill="#2496ED"/>
<path d="M169.783 224.291H215.066C217.25 224.291 219.019 222.521 219.019 220.338V180.016C219.032 177.833 217.271 176.053 215.087 176.041C215.08 176.041 215.072 176.041 215.065 176.041H169.782C167.586 176.041 165.806 177.82 165.806 180.016V220.338C165.819 222.525 167.595 224.291 169.783 224.291" fill="#2496ED"/>
<path d="M233.134 224.291H278.417C280.601 224.291 282.371 222.521 282.371 220.338V180.016C282.383 177.833 280.622 176.053 278.439 176.041C278.431 176.041 278.423 176.041 278.416 176.041H233.133C230.949 176.041 229.18 177.811 229.18 179.994V180.016V220.338C229.18 222.521 230.951 224.291 233.134 224.291V224.291Z" fill="#2496ED"/>
<path d="M295.735 224.291H341.018C343.206 224.291 344.982 222.525 344.994 220.338V180.016C344.994 177.82 343.214 176.041 341.018 176.041H295.735C293.551 176.041 291.782 177.811 291.782 179.994V180.016V220.338C291.782 222.521 293.552 224.291 295.735 224.291V224.291Z" fill="#2496ED"/>
<path d="M169.783 166.281H215.065C217.252 166.269 219.019 164.493 219.019 162.306V121.985C219.019 119.801 217.249 118.032 215.065 118.032H169.783C167.596 118.032 165.819 119.798 165.807 121.985V162.306C165.819 164.497 167.591 166.269 169.783 166.281Z" fill="#2496ED"/>
<path d="M233.134 166.281H278.417C280.604 166.269 282.37 164.493 282.37 162.306V121.985C282.37 119.801 280.6 118.032 278.417 118.032H233.134C230.95 118.032 229.18 119.802 229.18 121.985V162.306C229.18 164.493 230.947 166.269 233.134 166.281Z" fill="#2496ED"/>
<path d="M295.735 166.281H341.018C343.209 166.269 344.982 164.497 344.994 162.306V121.985C344.982 119.798 343.206 118.032 341.018 118.032H295.735C293.551 118.032 291.782 119.802 291.782 121.985V162.306C291.782 164.493 293.549 166.269 295.735 166.281Z" fill="#2496ED"/>
<path d="M295.735 108.25H341.018C343.206 108.25 344.982 106.483 344.994 104.297V63.9525C344.982 61.7656 343.206 60 341.018 60H295.735C293.551 60 291.782 61.7692 291.782 63.9525V104.297C291.782 106.48 293.552 108.25 295.735 108.25Z" fill="#2496ED"/>
<path d="M358.888 224.291H404.171C406.359 224.291 408.135 222.525 408.147 220.338V180.016C408.147 177.82 406.367 176.041 404.171 176.041H358.888C356.705 176.041 354.935 177.811 354.935 179.994V180.016V220.338C354.935 222.521 356.705 224.291 358.888 224.291" fill="#2496ED"/>
<defs>
<filter id="filter0_d_60_83" x="0" y="0" width="633.002" height="488" filterUnits="userSpaceOnUse" color-interpolation-filters="sRGB">
<feFlood flood-opacity="0" result="BackgroundImageFix"/>
<feColorMatrix in="SourceAlpha" type="matrix" values="0 0 0 0 0 0 0 0 0 0 0 0 0 0 0 0 0 0 127 0" result="hardAlpha"/>
<feOffset/>
<feGaussianBlur stdDeviation="10"/>
<feComposite in2="hardAlpha" operator="out"/>
<feColorMatrix type="matrix" values="0 0 0 0 0 0 0 0 0 0 0 0 0 0 0 0 0 0 0.1 0"/>
<feBlend mode="normal" in2="BackgroundImageFix" result="effect1_dropShadow_60_83"/>
<feBlend mode="normal" in="SourceGraphic" in2="effect1_dropShadow_60_83" result="shape"/>
</filter>
</defs>
</svg>
