<svg width="512" height="610" viewBox="0 0 512 610" fill="none" xmlns="http://www.w3.org/2000/svg">
<g filter="url(#filter0_d_59_678)">
<mask id="path-1-outside-1_59_678" maskUnits="userSpaceOnUse" x="56" y="20" width="402" height="570" fill="black">
<rect fill="white" x="56" y="20" width="402" height="570"/>
<path fill-rule="evenodd" clip-rule="evenodd" d="M86 135.333C86 88.2293 124.229 50 171.333 50H256.666H256.667H341.999C389.103 50 427.333 88.2293 427.333 135.333C427.333 179.3 394.026 215.535 351.284 220.167C394.026 224.798 427.333 261.033 427.333 305C427.333 352.104 389.103 390.333 341.999 390.333C295.008 390.333 256.849 352.287 256.667 305.338V389.333V390.333V474.667C256.667 521.771 218.437 560 171.333 560C124.229 560 86 521.771 86 474.667C86 430.7 119.307 394.465 162.049 389.833C119.307 385.202 86 348.967 86 305C86 261.033 119.307 224.798 162.049 220.167C119.307 215.535 86 179.3 86 135.333ZM256.667 220.667H328.904C288.117 226.957 256.832 262.162 256.667 304.662V220.667Z"/>
</mask>
<path fill-rule="evenodd" clip-rule="evenodd" d="M86 135.333C86 88.2293 124.229 50 171.333 50H256.666H256.667H341.999C389.103 50 427.333 88.2293 427.333 135.333C427.333 179.3 394.026 215.535 351.284 220.167C394.026 224.798 427.333 261.033 427.333 305C427.333 352.104 389.103 390.333 341.999 390.333C295.008 390.333 256.849 352.287 256.667 305.338V389.333V390.333V474.667C256.667 521.771 218.437 560 171.333 560C124.229 560 86 521.771 86 474.667C86 430.7 119.307 394.465 162.049 389.833C119.307 385.202 86 348.967 86 305C86 261.033 119.307 224.798 162.049 220.167C119.307 215.535 86 179.3 86 135.333ZM256.667 220.667H328.904C288.117 226.957 256.832 262.162 256.667 304.662V220.667Z" fill="#0ACF83"/>
<path d="M351.284 220.167L348.052 190.341V249.992L351.284 220.167ZM256.667 305.338L286.666 305.221L226.667 305.338H256.667ZM162.049 389.833L165.281 419.659V360.008L162.049 389.833ZM162.049 220.167L165.281 249.992V190.341L162.049 220.167ZM328.904 220.667L333.476 250.316L328.904 190.667V220.667ZM256.667 220.667V190.667H226.667V220.667H256.667ZM256.667 304.662H226.667L286.666 304.779L256.667 304.662ZM171.333 20C107.661 20 56 71.6608 56 135.333H116C116 104.798 140.798 80 171.333 80V20ZM256.666 20H171.333V80H256.666V20ZM256.667 20H256.666V80H256.667V20ZM341.999 20H256.667V80H341.999V20ZM457.333 135.333C457.333 71.6608 405.672 20 341.999 20V80C372.535 80 397.333 104.798 397.333 135.333H457.333ZM354.516 249.992C412.316 243.729 457.333 194.789 457.333 135.333H397.333C397.333 163.812 375.736 187.341 348.052 190.341L354.516 249.992ZM457.333 305C457.333 245.545 412.316 196.604 354.516 190.341L348.052 249.992C375.736 252.992 397.333 276.521 397.333 305H457.333ZM341.999 420.333C405.672 420.333 457.333 368.672 457.333 305H397.333C397.333 335.535 372.535 360.333 341.999 360.333V420.333ZM226.667 305.454C226.913 368.919 278.478 420.333 341.999 420.333V360.333C311.538 360.333 286.785 335.654 286.666 305.221L226.667 305.454ZM286.667 389.333V305.338H226.667V389.333H286.667ZM286.667 390.333V389.333H226.667V390.333H286.667ZM286.667 474.667V390.333H226.667V474.667H286.667ZM171.333 590C235.006 590 286.667 538.339 286.667 474.667H226.667C226.667 505.202 201.869 530 171.333 530V590ZM56 474.667C56 538.339 107.661 590 171.333 590V530C140.798 530 116 505.202 116 474.667H56ZM158.818 360.008C101.017 366.271 56 415.211 56 474.667H116C116 446.188 137.597 422.658 165.281 419.659L158.818 360.008ZM56 305C56 364.455 101.017 413.396 158.818 419.659L165.281 360.008C137.597 357.008 116 333.479 116 305H56ZM158.817 190.341C101.017 196.604 56 245.545 56 305H116C116 276.521 137.597 252.992 165.281 249.992L158.817 190.341ZM56 135.333C56 194.789 101.017 243.729 158.817 249.992L165.281 190.341C137.597 187.341 116 163.812 116 135.333H56ZM328.904 190.667H256.667V250.667H328.904V190.667ZM286.666 304.779C286.773 277.262 307.053 254.391 333.476 250.316L324.331 191.017C269.182 199.522 226.89 247.061 226.667 304.546L286.666 304.779ZM226.667 220.667V304.662H286.667V220.667H226.667Z" fill="white" mask="url(#path-1-outside-1_59_678)"/>
</g>
<g clip-path="url(#clip0_59_678)">
<path d="M171.333 562C218.437 562 256.667 523.771 256.667 476.667V391.333H171.333C124.229 391.333 86 429.563 86 476.667C86 523.771 124.229 562 171.333 562Z" fill="#0ACF83"/>
<path d="M86 306C86 258.896 124.229 220.667 171.333 220.667H256.667V391.333H171.333C124.229 391.333 86 353.104 86 306Z" fill="#A259FF"/>
<path d="M86 135.333C86 88.2293 124.229 50 171.333 50H256.667V220.667H171.333C124.229 220.667 86 182.437 86 135.333Z" fill="#F24E1E"/>
<path d="M256.667 50H342C389.104 50 427.334 88.2293 427.334 135.333C427.334 182.437 389.104 220.667 342 220.667H256.667V50Z" fill="#FF7262"/>
<path d="M427.334 306C427.334 353.104 389.104 391.333 342 391.333C294.896 391.333 256.667 353.104 256.667 306C256.667 258.896 294.896 220.667 342 220.667C389.104 220.667 427.334 258.896 427.334 306Z" fill="#1ABCFE"/>
</g>
<defs>
<filter id="filter0_d_59_678" x="36" y="0" width="441.333" height="610" filterUnits="userSpaceOnUse" color-interpolation-filters="sRGB">
<feFlood flood-opacity="0" result="BackgroundImageFix"/>
<feColorMatrix in="SourceAlpha" type="matrix" values="0 0 0 0 0 0 0 0 0 0 0 0 0 0 0 0 0 0 127 0" result="hardAlpha"/>
<feOffset/>
<feGaussianBlur stdDeviation="10"/>
<feComposite in2="hardAlpha" operator="out"/>
<feColorMatrix type="matrix" values="0 0 0 0 0 0 0 0 0 0 0 0 0 0 0 0 0 0 0.1 0"/>
<feBlend mode="normal" in2="BackgroundImageFix" result="effect1_dropShadow_59_678"/>
<feBlend mode="normal" in="SourceGraphic" in2="effect1_dropShadow_59_678" result="shape"/>
</filter>
<clipPath id="clip0_59_678">
<rect width="512" height="512" fill="white" transform="translate(0 50)"/>
</clipPath>
</defs>
</svg>
