<svg width="512" height="612" viewBox="0 0 512 612" fill="none" xmlns="http://www.w3.org/2000/svg">
<g clip-path="url(#clip0_59_678)">
<path d="M171.333 562C218.437 562 256.667 523.771 256.667 476.667V391.333H171.333C124.229 391.333 86 429.563 86 476.667C86 523.771 124.229 562 171.333 562Z" fill="#0ACF83"/>
<path d="M86 306C86 258.896 124.229 220.667 171.333 220.667H256.667V391.333H171.333C124.229 391.333 86 353.104 86 306Z" fill="#A259FF"/>
<path d="M86 135.333C86 88.2293 124.229 50 171.333 50H256.667V220.667H171.333C124.229 220.667 86 182.437 86 135.333Z" fill="#F24E1E"/>
<path d="M256.667 50H342C389.104 50 427.334 88.2293 427.334 135.333C427.334 182.437 389.104 220.667 342 220.667H256.667V50Z" fill="#FF7262"/>
<path d="M427.334 306C427.334 353.104 389.104 391.333 342 391.333C294.896 391.333 256.667 353.104 256.667 306C256.667 258.896 294.896 220.667 342 220.667C389.104 220.667 427.334 258.896 427.334 306Z" fill="#1ABCFE"/>
</g>
<g filter="url(#filter0_d_59_678)">
<path d="M86 135.333C86 88.2293 124.229 50 171.333 50H256.667V220.667H171.333C124.229 220.667 86 182.437 86 135.333Z" fill="#F24E1E"/>
<path d="M271.667 50V35H256.667H171.333C115.945 35 71 79.9451 71 135.333C71 190.722 115.945 235.667 171.333 235.667H256.667H271.667V220.667V50Z" stroke="white" stroke-width="30"/>
</g>
<g filter="url(#filter1_d_59_678)">
<path d="M256.666 50H341.999C389.103 50 427.333 88.2293 427.333 135.333C427.333 182.437 389.103 220.667 341.999 220.667H256.666V50Z" fill="#FF7262"/>
<path d="M256.666 35H241.666V50V220.667V235.667H256.666H341.999C397.388 235.667 442.333 190.722 442.333 135.333C442.333 79.9451 397.388 35 341.999 35H256.666Z" stroke="white" stroke-width="30"/>
</g>
<path d="M171.333 562C218.437 562 256.667 523.771 256.667 476.667V391.333H171.333C124.229 391.333 86 429.563 86 476.667C86 523.771 124.229 562 171.333 562Z" fill="#0ACF83"/>
<path d="M86 306C86 258.896 124.229 220.667 171.333 220.667H256.667V391.333H171.333C124.229 391.333 86 353.104 86 306Z" fill="#A259FF"/>
<path d="M86 135.333C86 88.2293 124.229 50 171.333 50H256.667V220.667H171.333C124.229 220.667 86 182.437 86 135.333Z" fill="#F24E1E"/>
<path d="M256.666 50H341.999C389.103 50 427.333 88.2293 427.333 135.333C427.333 182.437 389.103 220.667 341.999 220.667H256.666V50Z" fill="#FF7262"/>
<path d="M427.333 306C427.333 353.104 389.103 391.333 341.999 391.333C294.895 391.333 256.666 353.104 256.666 306C256.666 258.896 294.895 220.667 341.999 220.667C389.103 220.667 427.333 258.896 427.333 306Z" fill="#1ABCFE"/>
<g filter="url(#filter2_d_59_678)">
<path d="M86 306C86 258.896 124.229 220.667 171.333 220.667H256.667V391.333H171.333C124.229 391.333 86 353.104 86 306Z" fill="#A259FF"/>
<path d="M271.667 220.667V205.667H256.667H171.333C115.945 205.667 71 250.612 71 306C71 361.388 115.945 406.333 171.333 406.333H256.667H271.667V391.333V220.667Z" stroke="white" stroke-width="30"/>
</g>
<g filter="url(#filter3_d_59_678)">
<path d="M427.333 306C427.333 353.104 389.103 391.333 341.999 391.333C294.895 391.333 256.666 353.104 256.666 306C256.666 258.896 294.895 220.667 341.999 220.667C389.103 220.667 427.333 258.896 427.333 306Z" fill="#1ABCFE"/>
<path d="M341.999 406.333C397.388 406.333 442.333 361.388 442.333 306C442.333 250.612 397.388 205.667 341.999 205.667C286.611 205.667 241.666 250.612 241.666 306C241.666 361.388 286.611 406.333 341.999 406.333Z" stroke="white" stroke-width="30"/>
</g>
<g filter="url(#filter4_d_59_678)">
<path d="M171.333 562C218.437 562 256.667 523.771 256.667 476.667V391.333H171.333C124.229 391.333 86 429.563 86 476.667C86 523.771 124.229 562 171.333 562Z" fill="#0ACF83"/>
<path d="M271.667 391.333V376.333H256.667H171.333C115.945 376.333 71 421.278 71 476.667C71 532.055 115.945 577 171.333 577C226.722 577 271.667 532.055 271.667 476.667V391.333Z" stroke="white" stroke-width="30"/>
</g>
<path d="M171.333 562C218.437 562 256.667 523.771 256.667 476.667V391.333H171.333C124.229 391.333 86 429.563 86 476.667C86 523.771 124.229 562 171.333 562Z" fill="#0ACF83"/>
<path d="M86 306C86 258.896 124.229 220.667 171.333 220.667H256.667V391.333H171.333C124.229 391.333 86 353.104 86 306Z" fill="#A259FF"/>
<path d="M86 135.333C86 88.2293 124.229 50 171.333 50H256.667V220.667H171.333C124.229 220.667 86 182.437 86 135.333Z" fill="#F24E1E"/>
<path d="M256.666 50H341.999C389.103 50 427.333 88.2293 427.333 135.333C427.333 182.437 389.103 220.667 341.999 220.667H256.666V50Z" fill="#FF7262"/>
<path d="M427.333 306C427.333 353.104 389.103 391.333 341.999 391.333C294.895 391.333 256.666 353.104 256.666 306C256.666 258.896 294.895 220.667 341.999 220.667C389.103 220.667 427.333 258.896 427.333 306Z" fill="#1ABCFE"/>
<defs>
<filter id="filter0_d_59_678" x="36" y="0" width="270.667" height="270.667" filterUnits="userSpaceOnUse" color-interpolation-filters="sRGB">
<feFlood flood-opacity="0" result="BackgroundImageFix"/>
<feColorMatrix in="SourceAlpha" type="matrix" values="0 0 0 0 0 0 0 0 0 0 0 0 0 0 0 0 0 0 127 0" result="hardAlpha"/>
<feOffset/>
<feGaussianBlur stdDeviation="10"/>
<feComposite in2="hardAlpha" operator="out"/>
<feColorMatrix type="matrix" values="0 0 0 0 0 0 0 0 0 0 0 0 0 0 0 0 0 0 0.1 0"/>
<feBlend mode="normal" in2="BackgroundImageFix" result="effect1_dropShadow_59_678"/>
<feBlend mode="normal" in="SourceGraphic" in2="effect1_dropShadow_59_678" result="shape"/>
</filter>
<filter id="filter1_d_59_678" x="206.666" y="0" width="270.667" height="270.667" filterUnits="userSpaceOnUse" color-interpolation-filters="sRGB">
<feFlood flood-opacity="0" result="BackgroundImageFix"/>
<feColorMatrix in="SourceAlpha" type="matrix" values="0 0 0 0 0 0 0 0 0 0 0 0 0 0 0 0 0 0 127 0" result="hardAlpha"/>
<feOffset/>
<feGaussianBlur stdDeviation="10"/>
<feComposite in2="hardAlpha" operator="out"/>
<feColorMatrix type="matrix" values="0 0 0 0 0 0 0 0 0 0 0 0 0 0 0 0 0 0 0.1 0"/>
<feBlend mode="normal" in2="BackgroundImageFix" result="effect1_dropShadow_59_678"/>
<feBlend mode="normal" in="SourceGraphic" in2="effect1_dropShadow_59_678" result="shape"/>
</filter>
<filter id="filter2_d_59_678" x="36" y="170.667" width="270.667" height="270.667" filterUnits="userSpaceOnUse" color-interpolation-filters="sRGB">
<feFlood flood-opacity="0" result="BackgroundImageFix"/>
<feColorMatrix in="SourceAlpha" type="matrix" values="0 0 0 0 0 0 0 0 0 0 0 0 0 0 0 0 0 0 127 0" result="hardAlpha"/>
<feOffset/>
<feGaussianBlur stdDeviation="10"/>
<feComposite in2="hardAlpha" operator="out"/>
<feColorMatrix type="matrix" values="0 0 0 0 0 0 0 0 0 0 0 0 0 0 0 0 0 0 0.1 0"/>
<feBlend mode="normal" in2="BackgroundImageFix" result="effect1_dropShadow_59_678"/>
<feBlend mode="normal" in="SourceGraphic" in2="effect1_dropShadow_59_678" result="shape"/>
</filter>
<filter id="filter3_d_59_678" x="206.666" y="170.667" width="270.667" height="270.667" filterUnits="userSpaceOnUse" color-interpolation-filters="sRGB">
<feFlood flood-opacity="0" result="BackgroundImageFix"/>
<feColorMatrix in="SourceAlpha" type="matrix" values="0 0 0 0 0 0 0 0 0 0 0 0 0 0 0 0 0 0 127 0" result="hardAlpha"/>
<feOffset/>
<feGaussianBlur stdDeviation="10"/>
<feComposite in2="hardAlpha" operator="out"/>
<feColorMatrix type="matrix" values="0 0 0 0 0 0 0 0 0 0 0 0 0 0 0 0 0 0 0.1 0"/>
<feBlend mode="normal" in2="BackgroundImageFix" result="effect1_dropShadow_59_678"/>
<feBlend mode="normal" in="SourceGraphic" in2="effect1_dropShadow_59_678" result="shape"/>
</filter>
<filter id="filter4_d_59_678" x="36" y="341.333" width="270.667" height="270.667" filterUnits="userSpaceOnUse" color-interpolation-filters="sRGB">
<feFlood flood-opacity="0" result="BackgroundImageFix"/>
<feColorMatrix in="SourceAlpha" type="matrix" values="0 0 0 0 0 0 0 0 0 0 0 0 0 0 0 0 0 0 127 0" result="hardAlpha"/>
<feOffset/>
<feGaussianBlur stdDeviation="10"/>
<feComposite in2="hardAlpha" operator="out"/>
<feColorMatrix type="matrix" values="0 0 0 0 0 0 0 0 0 0 0 0 0 0 0 0 0 0 0.1 0"/>
<feBlend mode="normal" in2="BackgroundImageFix" result="effect1_dropShadow_59_678"/>
<feBlend mode="normal" in="SourceGraphic" in2="effect1_dropShadow_59_678" result="shape"/>
</filter>
<clipPath id="clip0_59_678">
<rect width="512" height="512" fill="white" transform="translate(0 50)"/>
</clipPath>
</defs>
</svg>
