<svg width="627" height="528" viewBox="0 0 627 528" fill="none" xmlns="http://www.w3.org/2000/svg">
<g filter="url(#filter0_d_60_115)">
<mask id="path-1-outside-1_60_115" maskUnits="userSpaceOnUse" x="19.0103" y="19.0098" width="588" height="489" fill="black">
<rect fill="white" x="19.0103" y="19.0098" width="588" height="489"/>
<path fill-rule="evenodd" clip-rule="evenodd" d="M383.296 172.355H382.026C336.76 135.718 270.774 140.733 231.564 183.788C231.184 183.711 230.745 183.847 230.277 184.128C264.255 190.77 295.036 209.6 316.465 237.595L252.604 301.455C247.078 289.257 237.302 279.481 225.104 273.956C197.392 261.439 164.792 273.744 152.275 301.455C139.757 329.166 152.062 361.766 179.774 374.282L179.706 374.35C186.819 377.592 194.539 379.255 202.344 379.255H312.448V380.001L312.596 379.85H422.701C453.091 379.85 477.742 355.22 477.742 324.81C477.742 294.421 453.112 269.77 422.701 269.77V258.783C423.331 225.469 408.823 193.69 383.296 172.355ZM116.048 438.007L115.892 438.631C140.778 457.417 171.146 467.511 202.344 467.384H311.98L312.596 468H422.701C485.818 468.489 541.816 427.58 560.56 367.312C579.261 307.023 556.31 241.569 504.031 206.208C493.894 168.912 473.11 135.378 444.186 109.728L443.302 110.611L443.422 109.579C361.412 37.1975 236.219 44.9966 163.835 127.005C143.71 149.786 129.11 176.881 121.162 206.208C122.183 205.788 123.228 205.441 124.288 205.169C98.2703 222.353 77.9323 247.967 67.5019 278.95C47.9929 336.902 67.4382 400.868 115.913 438.142L116.048 438.007Z"/>
</mask>
<path fill-rule="evenodd" clip-rule="evenodd" d="M383.296 172.355H382.026C336.76 135.718 270.774 140.733 231.564 183.788C231.184 183.711 230.745 183.847 230.277 184.128C264.255 190.77 295.036 209.6 316.465 237.595L252.604 301.455C247.078 289.257 237.302 279.481 225.104 273.956C197.392 261.439 164.792 273.744 152.275 301.455C139.757 329.166 152.062 361.766 179.774 374.282L179.706 374.35C186.819 377.592 194.539 379.255 202.344 379.255H312.448V380.001L312.596 379.85H422.701C453.091 379.85 477.742 355.22 477.742 324.81C477.742 294.421 453.112 269.77 422.701 269.77V258.783C423.331 225.469 408.823 193.69 383.296 172.355ZM116.048 438.007L115.892 438.631C140.778 457.417 171.146 467.511 202.344 467.384H311.98L312.596 468H422.701C485.818 468.489 541.816 427.58 560.56 367.312C579.261 307.023 556.31 241.569 504.031 206.208C493.894 168.912 473.11 135.378 444.186 109.728L443.302 110.611L443.422 109.579C361.412 37.1975 236.219 44.9966 163.835 127.005C143.71 149.786 129.11 176.881 121.162 206.208C122.183 205.788 123.228 205.441 124.288 205.169C98.2703 222.353 77.9323 247.967 67.5019 278.95C47.9929 336.902 67.4382 400.868 115.913 438.142L116.048 438.007Z" fill="#FBBC05"/>
<path d="M382.026 172.355L356.861 203.447C363.982 209.21 372.865 212.355 382.026 212.355V172.355ZM383.296 172.355L408.947 141.663C401.752 135.649 392.673 132.355 383.296 132.355V172.355ZM231.564 183.788L223.651 222.997C237.436 225.779 251.67 221.118 261.139 210.72L231.564 183.788ZM230.277 184.128L209.692 149.831C195.497 158.351 188.017 174.736 190.879 191.043C193.741 207.35 206.354 220.208 222.602 223.385L230.277 184.128ZM316.465 237.595L344.749 265.88C358.93 251.699 360.418 229.208 348.228 213.283L316.465 237.595ZM252.604 301.455L216.167 317.96C221.584 329.918 232.525 338.458 245.441 340.808C258.357 343.159 271.604 339.023 280.888 329.74L252.604 301.455ZM225.104 273.956L241.608 237.52C241.595 237.514 241.582 237.508 241.569 237.502L225.104 273.956ZM152.275 301.455L188.728 317.921L188.728 317.921L152.275 301.455ZM179.774 374.282L208.06 402.565C217.348 393.276 221.483 380.019 219.124 367.098C216.764 354.176 208.211 343.236 196.24 337.828L179.774 374.282ZM179.706 374.35L151.421 346.068C142.15 355.339 138.012 368.566 140.345 381.468C142.678 394.37 151.185 405.309 163.116 410.747L179.706 374.35ZM312.448 379.255H352.448C352.448 357.164 334.54 339.255 312.448 339.255V379.255ZM312.448 380.001H272.448C272.448 396.228 282.252 410.847 297.265 417.007C312.278 423.166 329.524 419.646 340.921 408.095L312.448 380.001ZM312.596 379.85V339.85C301.895 339.85 291.64 344.139 284.123 351.756L312.596 379.85ZM422.701 269.77H382.701C382.701 291.861 400.61 309.77 422.701 309.77V269.77ZM422.701 258.783L382.708 258.027C382.703 258.279 382.701 258.531 382.701 258.783L422.701 258.783ZM116.048 438.007L154.854 447.709C159.214 430.266 151.402 412.058 135.756 403.199C120.111 394.341 100.477 397.01 87.7637 409.723L116.048 438.007ZM115.892 438.631L77.0864 428.929C73.1941 444.498 78.9837 460.887 91.7922 470.556L115.892 438.631ZM202.344 467.384V427.384C202.289 427.384 202.235 427.384 202.18 427.384L202.344 467.384ZM311.98 467.384L340.264 439.099C332.762 431.598 322.588 427.384 311.98 427.384V467.384ZM312.596 468L284.313 496.285C291.814 503.786 301.988 508 312.596 508V468ZM422.701 468L423.011 428.001C422.907 428 422.804 428 422.701 428L422.701 468ZM560.56 367.312L598.755 379.191C598.758 379.182 598.761 379.172 598.764 379.163L560.56 367.312ZM504.031 206.208L465.431 216.699C467.943 225.941 473.687 233.974 481.62 239.34L504.031 206.208ZM444.186 109.728L470.726 79.8005C454.894 65.7601 430.865 66.48 415.902 81.4431L444.186 109.728ZM443.302 110.611L403.568 106.006C401.608 122.915 410.565 139.212 425.889 146.623C441.214 154.033 459.55 150.932 471.586 138.896L443.302 110.611ZM443.422 109.579L483.156 114.184C484.664 101.176 479.709 88.254 469.891 79.5888L443.422 109.579ZM163.835 127.005L193.813 153.488C193.817 153.483 193.821 153.479 193.825 153.474L163.835 127.005ZM121.162 206.208L82.5549 195.744C78.5703 210.446 83.2819 226.136 94.7072 236.21C106.132 246.284 122.288 248.995 136.376 243.202L121.162 206.208ZM124.288 205.169L146.333 238.545C162.639 227.775 168.776 206.8 160.847 188.939C152.919 171.078 133.245 161.561 114.32 166.43L124.288 205.169ZM67.5019 278.95L105.411 291.712L105.411 291.712L67.5019 278.95ZM115.913 438.142L91.5305 469.851C107.455 482.097 129.993 480.631 144.197 466.426L115.913 438.142ZM382.026 212.355H383.296V132.355H382.026V212.355ZM261.139 210.72C286.083 183.33 328.064 180.139 356.861 203.447L407.191 141.262C345.456 91.2962 255.465 98.1361 201.99 156.855L261.139 210.72ZM250.861 218.425C248.966 219.562 245.817 221.218 241.585 222.385C237.269 223.575 230.982 224.477 223.651 222.997L239.478 144.578C224.512 141.558 213.289 147.672 209.692 149.831L250.861 218.425ZM348.228 213.283C320.806 177.457 281.421 153.369 237.951 144.871L222.602 223.385C247.089 228.172 269.266 241.742 284.702 261.908L348.228 213.283ZM280.888 329.74L344.749 265.88L288.181 209.311L224.32 273.17L280.888 329.74ZM208.6 310.393C211.956 311.913 214.647 314.604 216.167 317.96L289.04 284.95C279.509 263.91 262.649 247.05 241.608 237.52L208.6 310.393ZM188.728 317.921C192.147 310.353 201.049 306.982 208.639 310.41L241.569 237.502C193.735 215.896 137.437 237.135 115.821 284.989L188.728 317.921ZM196.24 337.828C188.67 334.409 185.301 325.509 188.728 317.921L115.821 284.989C94.2139 332.824 115.454 389.122 163.309 410.736L196.24 337.828ZM207.992 402.633L208.06 402.565L151.488 346L151.421 346.068L207.992 402.633ZM202.344 339.255C200.221 339.255 198.162 338.803 196.297 337.953L163.116 410.747C175.476 416.381 188.857 419.255 202.344 419.255V339.255ZM312.448 339.255H202.344V419.255H312.448V339.255ZM352.448 380.001V379.255H272.448V380.001H352.448ZM284.123 351.756L283.975 351.906L340.921 408.095L341.07 407.945L284.123 351.756ZM422.701 339.85H312.596V419.85H422.701V339.85ZM437.742 324.81C437.742 333.118 431.01 339.85 422.701 339.85V419.85C475.171 419.85 517.742 377.323 517.742 324.81H437.742ZM422.701 309.77C431.011 309.77 437.742 316.503 437.742 324.81H517.742C517.742 272.339 475.213 229.77 422.701 229.77V309.77ZM382.701 258.783V269.77H462.701V258.783H382.701ZM357.644 203.047C373.877 216.614 383.109 236.829 382.708 258.027L462.694 259.539C463.553 214.109 443.769 170.766 408.947 141.663L357.644 203.047ZM77.2424 428.305L77.0864 428.929L154.698 448.332L154.854 447.709L77.2424 428.305ZM91.7922 470.556C123.675 494.624 162.57 507.546 202.507 507.383L202.18 427.384C179.723 427.476 157.881 420.21 139.992 406.706L91.7922 470.556ZM202.344 507.384H311.98V427.384H202.344V507.384ZM283.696 495.668L284.313 496.285L340.88 439.715L340.264 439.099L283.696 495.668ZM312.596 508H422.701V428H312.596V508ZM422.391 507.999C503.143 508.624 574.777 456.289 598.755 379.191L522.365 355.433C508.855 398.872 468.493 428.353 423.011 428.001L422.391 507.999ZM598.764 379.163C622.683 302.053 593.335 218.323 526.442 173.075L481.62 239.34C519.284 264.816 535.839 311.993 522.356 355.462L598.764 379.163ZM542.63 195.716C530.454 150.919 505.486 110.626 470.726 79.8005L417.646 139.655C440.734 160.129 457.333 186.904 465.431 216.699L542.63 195.716ZM415.902 81.4431L415.018 82.327L471.586 138.896L472.47 138.012L415.902 81.4431ZM483.036 115.217L483.156 114.184L403.688 104.974L403.568 106.006L483.036 115.217ZM469.891 79.5888C371.32 -7.40882 220.849 1.96267 133.846 100.535L193.825 153.474C251.588 88.0306 351.504 81.8038 416.953 139.569L469.891 79.5888ZM133.858 100.522C109.666 127.906 92.1118 160.482 82.5549 195.744L159.769 216.671C166.109 193.281 177.754 171.666 193.813 153.488L133.858 100.522ZM136.376 243.202C135.681 243.487 134.972 243.722 134.255 243.907L114.32 166.43C111.484 167.16 108.686 168.088 105.949 169.214L136.376 243.202ZM102.242 171.792C68.9768 193.764 42.9378 226.545 29.5924 266.188L105.411 291.712C112.927 269.388 127.564 250.942 146.333 238.545L102.242 171.792ZM29.5924 266.188C4.63451 340.326 29.5076 422.16 91.5305 469.851L140.296 406.433C105.369 379.576 91.3513 333.478 105.411 291.712L29.5924 266.188ZM144.197 466.426L144.332 466.291L87.7637 409.723L87.6289 409.858L144.197 466.426Z" fill="white" mask="url(#path-1-outside-1_60_115)"/>
</g>
<path d="M381.707 172.355H397.178L441.254 128.28L443.422 109.579C361.412 37.1975 236.219 44.9966 163.835 127.005C143.71 149.786 129.11 176.881 121.162 206.208C126.071 204.189 131.512 203.87 136.633 205.273L224.764 190.737C224.764 190.737 229.248 183.32 231.564 183.788C270.774 140.733 336.76 135.718 382.026 172.355H381.707Z" fill="#EA4335"/>
<path d="M504.031 206.208C493.894 168.912 473.11 135.378 444.186 109.728L382.344 171.568C408.462 192.904 423.338 225.057 422.701 258.783V269.77C453.112 269.77 477.742 294.421 477.742 324.81C477.742 355.22 453.091 379.85 422.701 379.85H312.596L301.609 390.986V457.013L312.596 468H422.701C485.818 468.489 541.816 427.58 560.56 367.312C579.261 307.023 556.31 241.569 504.031 206.208Z" fill="#4285F4"/>
<path d="M202.344 467.384H312.448V379.255H202.344C194.502 379.255 186.745 377.576 179.604 374.304L164.133 379.085L119.76 423.16L115.892 438.631C140.778 457.417 171.146 467.511 202.344 467.384Z" fill="#34A853"/>
<path d="M202.344 181.471C141.181 181.833 87.0109 220.998 67.5019 278.95C47.9929 336.902 67.4381 400.868 115.913 438.142L179.774 374.282C152.062 361.766 139.757 329.166 152.275 301.455C164.792 273.744 197.392 261.439 225.104 273.956C237.302 279.481 247.078 289.257 252.604 301.455L316.465 237.595C289.284 202.085 247.057 181.323 202.344 181.471Z" fill="#FBBC05"/>
<defs>
<filter id="filter0_d_60_115" x="0.0078125" y="0.00927734" width="626.999" height="527.995" filterUnits="userSpaceOnUse" color-interpolation-filters="sRGB">
<feFlood flood-opacity="0" result="BackgroundImageFix"/>
<feColorMatrix in="SourceAlpha" type="matrix" values="0 0 0 0 0 0 0 0 0 0 0 0 0 0 0 0 0 0 127 0" result="hardAlpha"/>
<feOffset/>
<feGaussianBlur stdDeviation="10"/>
<feComposite in2="hardAlpha" operator="out"/>
<feColorMatrix type="matrix" values="0 0 0 0 0 0 0 0 0 0 0 0 0 0 0 0 0 0 0.1 0"/>
<feBlend mode="normal" in2="BackgroundImageFix" result="effect1_dropShadow_60_115"/>
<feBlend mode="normal" in="SourceGraphic" in2="effect1_dropShadow_60_115" result="shape"/>
</filter>
</defs>
</svg>
