<svg width="556" height="612" viewBox="0 0 556 612" fill="none" xmlns="http://www.w3.org/2000/svg">
<path fill-rule="evenodd" clip-rule="evenodd" d="M321.582 108.674L426.861 169.459C429.826 166.319 433.288 163.546 437.216 161.265C459.051 148.713 486.9 156.165 499.582 178C512.134 199.835 504.681 227.683 482.847 240.366C478.948 242.607 474.854 244.21 470.687 245.207V366.824C474.809 367.824 478.859 369.417 482.716 371.634C504.681 384.317 512.134 412.165 499.451 434C486.9 455.835 458.92 463.287 437.086 450.735C432.739 448.237 428.962 445.126 425.799 441.574L321.162 501.988C322.658 506.508 323.468 511.343 323.468 516.37C323.468 541.473 303.071 562 277.837 562C252.604 562 232.207 541.604 232.207 516.37C232.207 511.884 232.852 507.552 234.053 503.459L128.802 442.691C125.87 445.77 122.455 448.49 118.589 450.735C96.624 463.287 68.7752 455.835 56.2236 434C43.672 412.165 51.1245 384.317 72.959 371.634C76.8196 369.415 80.8681 367.821 84.9876 366.822V245.207C80.8205 244.21 76.7264 242.607 72.8283 240.366C50.9938 227.814 43.5413 199.835 56.0928 178C68.6444 156.165 96.624 148.713 118.459 161.265C122.365 163.534 125.812 166.289 128.765 169.408L234.073 108.607C232.859 104.495 232.207 100.14 232.207 95.6302C232.207 70.3963 252.604 50 277.837 50C303.071 50 323.468 70.3963 323.468 95.6302C323.468 100.165 322.809 104.543 321.582 108.674ZM310.613 127.402L416.143 188.332C412.881 199.788 414.078 212.492 420.481 223.63C426.905 234.805 437.37 242.213 448.984 245.099V366.868C448.392 367.014 447.803 367.171 447.217 367.339L309.388 128.619C309.804 128.221 310.213 127.816 310.613 127.402ZM246.316 128.647L108.489 367.363C107.893 367.19 107.294 367.029 106.691 366.88V245.099C118.305 242.213 128.77 234.805 135.194 223.63C141.61 212.47 142.799 199.738 139.513 188.264L245.012 127.351C245.438 127.792 245.873 128.224 246.316 128.647ZM290.587 139.461L428.383 378.123C425.299 381.063 422.581 384.49 420.35 388.37C418.133 392.227 416.54 396.276 415.54 400.398H140.137C139.138 396.279 137.544 392.23 135.325 388.37C133.085 384.514 130.373 381.107 127.305 378.18L265.126 139.472C269.16 140.637 273.425 141.26 277.837 141.26C282.264 141.26 286.542 140.633 290.587 139.461ZM311.582 485.629L416.427 425.095C416.112 424.107 415.831 423.109 415.584 422.102H140.079C139.933 422.694 139.775 423.282 139.606 423.868L244.964 484.698C253.26 476.089 264.914 470.74 277.837 470.74C291.22 470.74 303.242 476.476 311.582 485.629Z" fill="#E535AB"/>
<g filter="url(#filter0_d_59_681)">
<path d="M156.09 196.013L207.107 166.558L121.691 314.497V255.593C132.437 250.504 141.819 242.203 148.198 231.106C154.55 220.057 157.041 207.829 156.09 196.013ZM243.377 466.461L192.527 437.102H365.631L313.413 467.251C303.425 460.013 291.127 455.74 277.837 455.74C265.041 455.74 253.16 459.703 243.377 466.461ZM433.984 255.593V314.419L348.704 166.715L399.579 196.089C398.644 207.881 401.139 220.081 407.477 231.106C413.856 242.203 423.238 250.504 433.984 255.593ZM429.741 148.26L429.712 148.277L429.682 148.294C428.131 149.195 426.632 150.156 425.187 151.172L338.236 100.969C338.389 99.2077 338.468 97.4269 338.468 95.6302C338.468 62.112 311.356 35 277.837 35C244.319 35 217.207 62.1121 217.207 95.6302C217.207 97.4013 217.283 99.1568 217.433 100.893L130.426 151.128C129 150.129 127.522 149.182 125.992 148.294L125.963 148.277L125.934 148.26C96.9686 131.609 59.798 141.457 43.0884 170.524C26.4376 199.49 36.285 236.661 65.3527 253.37C66.8748 254.245 68.4212 255.048 69.9876 255.778V356.283C68.466 356.997 66.9633 357.779 65.4834 358.63L65.4542 358.647L65.4251 358.664C36.4625 375.486 26.5446 412.469 43.2191 441.476C59.9342 470.553 96.9603 480.371 126.031 463.759L126.077 463.733L126.123 463.706C127.61 462.843 129.048 461.924 130.437 460.955L217.426 511.18C217.281 512.893 217.207 514.624 217.207 516.37C217.207 549.888 244.319 577 277.837 577C311.384 577 338.468 549.729 338.468 516.37C338.468 514.063 338.339 511.783 338.087 509.537L423.88 460.003C425.7 461.342 427.611 462.591 429.61 463.74C458.567 480.386 495.723 470.549 512.44 441.503C529.287 412.46 519.322 375.449 490.216 358.644L490.204 358.637L490.191 358.63C488.712 357.779 487.209 356.997 485.687 356.283V255.778C487.254 255.048 488.8 254.245 490.322 253.37L490.351 253.353L490.381 253.336C519.343 236.514 529.261 199.531 512.587 170.524L512.57 170.495L512.553 170.466C495.73 141.504 458.747 131.586 429.741 148.26ZM148.329 380.894L148.312 380.865L148.295 380.836C147.438 379.359 146.527 377.931 145.565 376.552L272.87 156.06C274.51 156.193 276.167 156.26 277.837 156.26C279.523 156.26 281.194 156.192 282.848 156.056L410.126 376.502C409.145 377.915 408.217 379.379 407.346 380.894C406.495 382.374 405.713 383.877 404.999 385.398H150.676C149.962 383.877 149.18 382.374 148.329 380.894Z" fill="#E535AB" stroke="white" stroke-width="30"/>
</g>
<path fill-rule="evenodd" clip-rule="evenodd" d="M321.582 108.674L426.861 169.459C429.826 166.319 433.288 163.546 437.216 161.265C459.051 148.713 486.9 156.165 499.582 178C512.134 199.835 504.681 227.683 482.847 240.366C478.948 242.607 474.854 244.21 470.687 245.207V366.824C474.809 367.824 478.859 369.417 482.716 371.634C504.681 384.317 512.134 412.165 499.451 434C486.9 455.835 458.92 463.287 437.086 450.735C432.739 448.237 428.962 445.126 425.799 441.574L321.162 501.988C322.658 506.508 323.468 511.343 323.468 516.37C323.468 541.473 303.071 562 277.837 562C252.604 562 232.207 541.604 232.207 516.37C232.207 511.884 232.852 507.552 234.053 503.459L128.802 442.691C125.87 445.77 122.455 448.49 118.589 450.735C96.624 463.287 68.7752 455.835 56.2236 434C43.672 412.165 51.1245 384.317 72.959 371.634C76.8196 369.415 80.8681 367.821 84.9876 366.822V245.207C80.8205 244.21 76.7264 242.607 72.8283 240.366C50.9938 227.814 43.5413 199.835 56.0928 178C68.6444 156.165 96.624 148.713 118.459 161.265C122.365 163.534 125.812 166.289 128.765 169.408L234.073 108.607C232.859 104.495 232.207 100.14 232.207 95.6302C232.207 70.3963 252.604 50 277.837 50C303.071 50 323.468 70.3963 323.468 95.6302C323.468 100.165 322.809 104.543 321.582 108.674ZM310.613 127.402L416.143 188.332C412.881 199.788 414.078 212.492 420.481 223.63C426.905 234.805 437.37 242.213 448.984 245.099V366.868C448.392 367.014 447.803 367.171 447.217 367.339L309.388 128.619C309.804 128.221 310.213 127.816 310.613 127.402ZM246.316 128.647L108.489 367.363C107.893 367.19 107.294 367.029 106.691 366.88V245.099C118.305 242.213 128.77 234.805 135.194 223.63C141.61 212.47 142.799 199.738 139.513 188.264L245.012 127.351C245.438 127.792 245.873 128.224 246.316 128.647ZM290.587 139.461L428.383 378.123C425.299 381.063 422.581 384.49 420.35 388.37C418.133 392.227 416.54 396.276 415.54 400.398H140.137C139.138 396.279 137.544 392.23 135.325 388.37C133.085 384.514 130.373 381.107 127.305 378.18L265.126 139.472C269.16 140.637 273.425 141.26 277.837 141.26C282.264 141.26 286.542 140.633 290.587 139.461ZM311.582 485.629L416.427 425.095C416.112 424.107 415.831 423.109 415.584 422.102H140.079C139.933 422.694 139.775 423.282 139.606 423.868L244.964 484.698C253.26 476.089 264.914 470.74 277.837 470.74C291.22 470.74 303.242 476.476 311.582 485.629Z" fill="#E535AB"/>
<path fill-rule="evenodd" clip-rule="evenodd" d="M321.582 108.674L426.861 169.459C429.826 166.319 433.288 163.546 437.216 161.265C459.051 148.713 486.9 156.165 499.582 178C512.134 199.835 504.681 227.683 482.847 240.366C478.948 242.607 474.854 244.21 470.687 245.207V366.824C474.809 367.824 478.859 369.417 482.716 371.634C504.681 384.317 512.134 412.165 499.451 434C486.9 455.835 458.92 463.287 437.086 450.735C432.739 448.237 428.962 445.126 425.799 441.574L321.162 501.988C322.658 506.508 323.468 511.343 323.468 516.37C323.468 541.473 303.071 562 277.837 562C252.604 562 232.207 541.604 232.207 516.37C232.207 511.884 232.852 507.552 234.053 503.459L128.802 442.691C125.87 445.77 122.455 448.49 118.589 450.735C96.624 463.287 68.7752 455.835 56.2236 434C43.672 412.165 51.1245 384.317 72.959 371.634C76.8196 369.415 80.8681 367.821 84.9876 366.822V245.207C80.8205 244.21 76.7264 242.607 72.8283 240.366C50.9938 227.814 43.5413 199.835 56.0928 178C68.6444 156.165 96.624 148.713 118.459 161.265C122.365 163.534 125.812 166.289 128.765 169.408L234.073 108.607C232.859 104.495 232.207 100.14 232.207 95.6302C232.207 70.3963 252.604 50 277.837 50C303.071 50 323.468 70.3963 323.468 95.6302C323.468 100.165 322.809 104.543 321.582 108.674ZM310.613 127.402L416.143 188.332C412.881 199.788 414.078 212.492 420.481 223.63C426.905 234.805 437.37 242.213 448.984 245.099V366.868C448.392 367.014 447.803 367.171 447.217 367.339L309.388 128.619C309.804 128.221 310.213 127.816 310.613 127.402ZM246.316 128.647L108.489 367.363C107.893 367.19 107.294 367.029 106.691 366.88V245.099C118.305 242.213 128.77 234.805 135.194 223.63C141.61 212.47 142.799 199.738 139.513 188.264L245.012 127.351C245.438 127.792 245.873 128.224 246.316 128.647ZM290.587 139.461L428.383 378.123C425.299 381.063 422.581 384.49 420.35 388.37C418.133 392.227 416.54 396.276 415.54 400.398H140.137C139.138 396.279 137.544 392.23 135.325 388.37C133.085 384.514 130.373 381.107 127.305 378.18L265.126 139.472C269.16 140.637 273.425 141.26 277.837 141.26C282.264 141.26 286.542 140.633 290.587 139.461ZM311.582 485.629L416.427 425.095C416.112 424.107 415.831 423.109 415.584 422.102H140.079C139.933 422.694 139.775 423.282 139.606 423.868L244.964 484.698C253.26 476.089 264.914 470.74 277.837 470.74C291.22 470.74 303.242 476.476 311.582 485.629Z" fill="#E535AB"/>
<defs>
<filter id="filter0_d_59_681" x="-0.000976562" y="0" width="555.682" height="612" filterUnits="userSpaceOnUse" color-interpolation-filters="sRGB">
<feFlood flood-opacity="0" result="BackgroundImageFix"/>
<feColorMatrix in="SourceAlpha" type="matrix" values="0 0 0 0 0 0 0 0 0 0 0 0 0 0 0 0 0 0 127 0" result="hardAlpha"/>
<feOffset/>
<feGaussianBlur stdDeviation="10"/>
<feComposite in2="hardAlpha" operator="out"/>
<feColorMatrix type="matrix" values="0 0 0 0 0 0 0 0 0 0 0 0 0 0 0 0 0 0 0.1 0"/>
<feBlend mode="normal" in2="BackgroundImageFix" result="effect1_dropShadow_59_681"/>
<feBlend mode="normal" in="SourceGraphic" in2="effect1_dropShadow_59_681" result="shape"/>
</filter>
</defs>
</svg>
