<svg width="518" height="574" viewBox="0 0 518 574" fill="none" xmlns="http://www.w3.org/2000/svg">
<path d="M59.1445 492.151L60.0667 502.494L70.0728 505.272L254.439 556.453L258.449 557.567L262.459 556.455L447.334 505.201L457.344 502.426L458.267 492.08L499.396 31.3337L500.854 15H484.456H33H16.6031L18.0593 31.3321L59.1445 492.151Z" fill="#E44D26" stroke="white" stroke-width="30"/>
<path d="M253.728 502.824V509.399L260.063 507.642L409.452 466.226L412.788 465.301L413.096 461.852L448.243 68.1233L448.729 62.6788H443.263H258.728H253.728V67.6788V502.824Z" fill="#F16529" stroke="white" stroke-width="10"/>
<path d="M184.241 185.715H258.728H263.728V180.715V124.197V119.197H258.728H117.009H111.543L112.029 124.641L127.272 295.551L127.679 300.107H132.253H258.728H263.728V295.107V238.59V233.59H258.728H188.514L184.241 185.715ZM258.489 380.261L200.206 364.524L196.493 322.922L196.086 318.366H191.513H134.778H129.312L129.798 323.811L137.716 412.551L138.023 415.999L141.358 416.925L257.13 449.064L258.467 449.435L259.805 449.064L260.065 448.992L263.728 447.975V444.174V385.372V378.866L258.489 380.261Z" fill="#EBEBEB" stroke="white" stroke-width="10"/>
<path d="M258.532 119.197H253.532V124.197V180.715V185.715H258.532H395.049H399.621L400.029 181.161L405.09 124.643L405.577 119.197H400.109H258.532ZM253.532 295.107V300.107H258.532H322.66L316.898 364.487L257.229 380.592L253.532 381.59V385.419V444.219V450.793L259.868 449.037L375.732 416.925L379.069 416.001L379.376 412.551L393.507 254.219L393.508 254.211L394.886 239.042L395.381 233.59H389.906H258.532H253.532V238.59V295.107Z" fill="white" stroke="white" stroke-width="10"/>
<path fill-rule="evenodd" clip-rule="evenodd" d="M74.0852 490.819L33 30H484.456L443.327 490.746L258.451 542L74.0852 490.819Z" fill="#E44D26"/>
<path fill-rule="evenodd" clip-rule="evenodd" d="M258.728 502.824L408.116 461.408L443.264 67.6788H258.728V502.824Z" fill="#F16529"/>
<path d="M183.94 238.59H258.728V295.107H132.253L117.009 124.197H258.728V180.715H178.775L183.94 238.59Z" fill="#EBEBEB"/>
<path d="M258.48 385.438L258.728 385.372V444.174L258.468 444.246L142.696 412.107L134.778 323.366H191.513L195.536 368.442L258.48 385.438Z" fill="#EBEBEB"/>
<path d="M258.532 124.197H400.109L395.049 180.715H258.532V124.197Z" fill="white"/>
<path d="M258.532 295.107V238.59H389.906L388.527 253.766L374.396 412.107L258.532 444.219V385.419L321.567 368.406L328.127 295.107H258.532Z" fill="white"/>
<path fill-rule="evenodd" clip-rule="evenodd" d="M74.0852 490.819L33 30H484.456L443.327 490.747L258.451 542L74.0852 490.819Z" fill="#E44D26"/>
<path fill-rule="evenodd" clip-rule="evenodd" d="M258.728 502.824L408.116 461.408L443.264 67.6788H258.728V502.824Z" fill="#F16529"/>
<path d="M183.94 238.59H258.728V295.107H132.253L117.009 124.197H258.728V180.715H178.775L183.94 238.59Z" fill="#EBEBEB"/>
<path d="M258.48 385.438L258.728 385.372V444.174L258.468 444.246L142.696 412.107L134.778 323.366H191.513L195.536 368.442L258.48 385.438Z" fill="#EBEBEB"/>
<path d="M258.532 124.197H400.109L395.049 180.715H258.532V124.197Z" fill="white"/>
<path d="M258.532 295.107V238.59H389.906L388.527 253.766L374.396 412.107L258.532 444.219V385.419L321.567 368.406L328.127 295.107H258.532Z" fill="white"/>
<path fill-rule="evenodd" clip-rule="evenodd" d="M74.0852 490.819L33 30H484.456L443.327 490.746L258.451 542L74.0852 490.819Z" fill="#E44D26"/>
<path fill-rule="evenodd" clip-rule="evenodd" d="M258.728 502.824L408.116 461.408L443.264 67.6788H258.728V502.824Z" fill="#F16529"/>
<path d="M183.94 238.59H258.728V295.107H132.253L117.009 124.197H258.728V180.715H178.775L183.94 238.59Z" fill="#EBEBEB"/>
<path d="M258.48 385.438L258.728 385.372V444.174L258.468 444.246L142.696 412.107L134.778 323.366H191.513L195.536 368.442L258.48 385.438Z" fill="#EBEBEB"/>
<path d="M258.532 124.197H400.109L395.049 180.715H258.532V124.197Z" fill="white"/>
<path d="M258.532 295.107V238.59H389.906L388.527 253.766L374.396 412.107L258.532 444.219V385.419L321.567 368.406L328.127 295.107H258.532Z" fill="white"/>
</svg>
