<svg width="572" height="572" viewBox="0 0 572 572" fill="none" xmlns="http://www.w3.org/2000/svg">
<path fill-rule="evenodd" clip-rule="evenodd" d="M30 30H542V542H30V30Z" fill="#F7DF1E"/>
<path fill-rule="evenodd" clip-rule="evenodd" d="M164.624 457.865L203.806 434.153C211.365 447.555 218.241 458.894 234.735 458.894C250.545 458.894 260.513 452.71 260.513 428.654V265.058H308.628V429.334C308.628 479.169 279.416 501.852 236.797 501.852C198.307 501.852 175.964 481.917 164.623 457.861" fill="black"/>
<path fill-rule="evenodd" clip-rule="evenodd" d="M334.762 452.709L373.939 430.026C384.252 446.868 397.656 459.24 421.369 459.24C441.305 459.24 454.018 449.272 454.018 435.524C454.018 419.027 440.959 413.184 418.962 403.564L406.937 398.405C372.222 383.63 349.194 365.071 349.194 325.89C349.194 289.803 376.689 262.307 419.651 262.307C450.24 262.307 472.235 272.962 488.043 300.801L450.581 324.858C442.332 310.08 433.399 304.239 419.652 304.239C405.561 304.239 396.624 313.174 396.624 324.858C396.624 339.293 405.561 345.137 426.18 354.073L438.208 359.228C479.107 376.757 502.135 394.627 502.135 434.837C502.135 478.144 468.11 501.856 422.401 501.856C377.722 501.856 348.851 480.549 334.763 452.709" fill="black"/>
<g clip-path="url(#clip0_59_677)">
<path fill-rule="evenodd" clip-rule="evenodd" d="M30 30H542V542H30V30V30Z" fill="#F7DF1E"/>
<path fill-rule="evenodd" clip-rule="evenodd" d="M164.624 457.865L203.806 434.153C211.365 447.555 218.241 458.894 234.735 458.894C250.545 458.894 260.513 452.71 260.513 428.654V265.058H308.628V429.334C308.628 479.169 279.416 501.852 236.797 501.852C198.307 501.852 175.964 481.917 164.623 457.861" fill="black"/>
<path fill-rule="evenodd" clip-rule="evenodd" d="M334.762 452.709L373.939 430.026C384.252 446.868 397.656 459.24 421.369 459.24C441.305 459.24 454.018 449.272 454.018 435.524C454.018 419.027 440.959 413.184 418.962 403.564L406.937 398.405C372.222 383.63 349.194 365.071 349.194 325.89C349.194 289.803 376.689 262.307 419.651 262.307C450.24 262.307 472.235 272.962 488.043 300.801L450.581 324.858C442.332 310.08 433.399 304.239 419.652 304.239C405.561 304.239 396.624 313.174 396.624 324.858C396.624 339.293 405.561 345.137 426.18 354.073L438.208 359.228C479.107 376.757 502.135 394.627 502.135 434.837C502.135 478.144 468.11 501.856 422.401 501.856C377.722 501.856 348.851 480.549 334.763 452.709" fill="black"/>
</g>
<path d="M30 15H15V30V542V557H30H542H557V542V30V15H542H30Z" fill="#F7DF1E" stroke="white" stroke-width="30"/>
<mask id="path-8-outside-1_59_677" maskUnits="userSpaceOnUse" x="154.623" y="255.058" width="165" height="257" fill="black">
<rect fill="white" x="154.623" y="255.058" width="165" height="257"/>
<path fill-rule="evenodd" clip-rule="evenodd" d="M164.624 457.865L203.806 434.153C211.365 447.555 218.241 458.894 234.735 458.894C250.545 458.894 260.513 452.71 260.513 428.654V265.058H308.628V429.334C308.628 479.169 279.416 501.852 236.797 501.852C198.307 501.852 175.964 481.917 164.623 457.861"/>
</mask>
<path fill-rule="evenodd" clip-rule="evenodd" d="M164.624 457.865L203.806 434.153C211.365 447.555 218.241 458.894 234.735 458.894C250.545 458.894 260.513 452.71 260.513 428.654V265.058H308.628V429.334C308.628 479.169 279.416 501.852 236.797 501.852C198.307 501.852 175.964 481.917 164.623 457.861" fill="black"/>
<path d="M203.806 434.153L212.516 429.24L207.45 420.258L198.628 425.597L203.806 434.153ZM260.513 265.058V255.058H250.513V265.058H260.513ZM308.628 265.058H318.628V255.058H308.628V265.058ZM169.801 466.42L208.983 442.708L198.628 425.597L159.446 449.309L169.801 466.42ZM195.096 439.065C198.757 445.557 203.04 453.08 209.015 458.783C215.491 464.963 223.767 468.894 234.735 468.894V448.894C229.208 448.894 225.8 447.156 222.824 444.315C219.348 440.998 216.414 436.151 212.516 429.24L195.096 439.065ZM234.735 468.894C243.646 468.894 253.424 467.203 260.69 459.799C267.863 452.489 270.513 441.719 270.513 428.654H250.513C250.513 439.645 248.178 443.994 246.415 445.791C244.745 447.493 241.634 448.894 234.735 448.894V468.894ZM270.513 428.654V265.058H250.513V428.654H270.513ZM260.513 275.058H308.628V255.058H260.513V275.058ZM298.628 265.058V429.334H318.628V265.058H298.628ZM298.628 429.334C298.628 452.277 291.956 467.468 281.837 477.003C271.611 486.638 256.427 491.852 236.797 491.852V511.852C259.786 511.852 280.518 505.725 295.552 491.559C310.693 477.293 318.628 456.226 318.628 429.334H298.628ZM236.797 491.852C202.634 491.852 183.562 474.583 173.668 453.596L155.578 462.125C168.366 489.251 193.98 511.852 236.797 511.852V491.852Z" fill="white" mask="url(#path-8-outside-1_59_677)"/>
<mask id="path-10-outside-2_59_677" maskUnits="userSpaceOnUse" x="325.762" y="252.307" width="187" height="260" fill="black">
<rect fill="white" x="325.762" y="252.307" width="187" height="260"/>
<path fill-rule="evenodd" clip-rule="evenodd" d="M334.762 452.709L373.939 430.026C384.252 446.868 397.656 459.24 421.369 459.24C441.305 459.24 454.018 449.272 454.018 435.524C454.018 419.027 440.959 413.184 418.962 403.564L406.937 398.405C372.222 383.63 349.194 365.071 349.194 325.89C349.194 289.803 376.689 262.307 419.651 262.307C450.24 262.307 472.235 272.962 488.043 300.801L450.581 324.858C442.332 310.08 433.399 304.239 419.652 304.239C405.561 304.239 396.624 313.174 396.624 324.858C396.624 339.293 405.561 345.137 426.18 354.073L438.208 359.228C479.107 376.757 502.135 394.627 502.135 434.837C502.135 478.144 468.11 501.856 422.401 501.856C377.722 501.856 348.851 480.549 334.763 452.709"/>
</mask>
<path fill-rule="evenodd" clip-rule="evenodd" d="M334.762 452.709L373.939 430.026C384.252 446.868 397.656 459.24 421.369 459.24C441.305 459.24 454.018 449.272 454.018 435.524C454.018 419.027 440.959 413.184 418.962 403.564L406.937 398.405C372.222 383.63 349.194 365.071 349.194 325.89C349.194 289.803 376.689 262.307 419.651 262.307C450.24 262.307 472.235 272.962 488.043 300.801L450.581 324.858C442.332 310.08 433.399 304.239 419.652 304.239C405.561 304.239 396.624 313.174 396.624 324.858C396.624 339.293 405.561 345.137 426.18 354.073L438.208 359.228C479.107 376.757 502.135 394.627 502.135 434.837C502.135 478.144 468.11 501.856 422.401 501.856C377.722 501.856 348.851 480.549 334.763 452.709" fill="black"/>
<path d="M373.939 430.026L382.467 424.804L377.372 416.483L368.928 421.372L373.939 430.026ZM418.962 403.564L422.969 394.402L422.937 394.388L422.905 394.374L418.962 403.564ZM406.937 398.405L410.879 389.215L410.866 389.21L410.853 389.204L406.937 398.405ZM488.043 300.801L493.447 309.215L501.415 304.098L496.739 295.863L488.043 300.801ZM450.581 324.858L441.849 329.732L447.034 339.02L455.984 333.272L450.581 324.858ZM426.18 354.073L422.203 363.249L422.222 363.257L422.24 363.265L426.18 354.073ZM438.208 359.228L442.147 350.037L442.147 350.037L438.208 359.228ZM339.772 461.363L378.949 438.68L368.928 421.372L329.751 444.055L339.772 461.363ZM365.41 435.248C370.967 444.321 377.78 452.912 386.985 459.204C396.353 465.608 407.624 469.24 421.369 469.24V449.24C411.4 449.24 404.113 446.686 398.272 442.693C392.268 438.589 387.224 432.572 382.467 424.804L365.41 435.248ZM421.369 469.24C432.9 469.24 443.32 466.366 451.131 460.566C459.137 454.621 464.018 445.809 464.018 435.524H444.018C444.018 438.987 442.542 442.033 439.208 444.509C435.678 447.13 429.773 449.24 421.369 449.24V469.24ZM464.018 435.524C464.018 430.018 462.912 424.941 460.508 420.313C458.126 415.729 454.741 412.107 450.917 409.102C443.675 403.413 433.538 399.024 422.969 394.402L414.955 412.726C426.383 417.724 433.773 421.067 438.561 424.829C440.751 426.549 442.006 428.082 442.76 429.534C443.491 430.942 444.018 432.782 444.018 435.524H464.018ZM422.905 394.374L410.879 389.215L402.994 407.595L415.02 412.754L422.905 394.374ZM410.853 389.204C393.969 382.018 381.156 374.392 372.529 364.664C364.206 355.279 359.194 343.271 359.194 325.89H339.194C339.194 347.689 345.697 364.552 357.566 377.935C369.132 390.976 385.189 400.017 403.02 407.606L410.853 389.204ZM359.194 325.89C359.194 310.487 365.011 297.29 375.121 287.889C385.261 278.46 400.327 272.307 419.651 272.307V252.307C396.013 252.307 375.851 259.901 361.502 273.242C347.125 286.611 339.194 305.206 339.194 325.89H359.194ZM419.651 272.307C433.798 272.307 445.179 274.769 454.613 279.899C463.983 284.994 472.188 293.131 479.347 305.739L496.739 295.863C488.09 280.632 477.394 269.521 464.167 262.329C451.004 255.172 436.093 252.307 419.651 252.307V272.307ZM482.64 292.386L445.178 316.443L455.984 333.272L493.447 309.215L482.64 292.386ZM459.313 319.983C454.755 311.818 449.502 305.184 442.709 300.675C435.749 296.055 428.044 294.239 419.652 294.239V314.239C425.007 314.239 428.642 315.343 431.648 317.338C434.82 319.444 438.158 323.119 441.849 329.732L459.313 319.983ZM419.652 294.239C410.473 294.239 402.172 297.178 396.065 302.824C389.926 308.501 386.624 316.362 386.624 324.858H406.624C406.624 321.669 407.791 319.221 409.643 317.509C411.527 315.767 414.74 314.239 419.652 314.239V294.239ZM386.624 324.858C386.624 334.703 389.911 342.521 396.936 348.92C403.149 354.579 412.044 358.846 422.203 363.249L430.156 344.898C419.696 340.365 413.814 337.241 410.404 334.134C407.806 331.769 406.624 329.447 406.624 324.858H386.624ZM422.24 363.265L434.268 368.42L442.147 350.037L430.119 344.882L422.24 363.265ZM434.268 368.42C454.47 377.078 468.812 385.261 478.186 395.338C487.125 404.948 492.135 416.934 492.135 434.837H512.135C512.135 412.529 505.63 395.476 492.83 381.716C480.465 368.424 462.844 358.908 442.147 350.037L434.268 368.42ZM492.135 434.837C492.135 453.593 484.903 467.413 473.173 476.769C461.178 486.336 443.647 491.856 422.401 491.856V511.856C446.864 511.856 469.2 505.52 485.644 492.404C502.354 479.077 512.135 459.388 512.135 434.837H492.135ZM422.401 491.856C381.378 491.856 356.02 472.568 343.685 448.193L325.84 457.224C341.683 488.529 374.066 511.856 422.401 511.856V491.856Z" fill="white" mask="url(#path-10-outside-2_59_677)"/>
<path fill-rule="evenodd" clip-rule="evenodd" d="M30 30H542V542H30V30Z" fill="#F7DF1E"/>
<path fill-rule="evenodd" clip-rule="evenodd" d="M164.624 457.865L203.806 434.153C211.365 447.555 218.241 458.894 234.735 458.894C250.545 458.894 260.513 452.71 260.513 428.654V265.058H308.628V429.334C308.628 479.169 279.416 501.852 236.797 501.852C198.307 501.852 175.964 481.917 164.623 457.861" fill="black"/>
<path fill-rule="evenodd" clip-rule="evenodd" d="M334.762 452.709L373.939 430.026C384.252 446.868 397.656 459.24 421.369 459.24C441.305 459.24 454.018 449.272 454.018 435.524C454.018 419.027 440.959 413.184 418.962 403.564L406.937 398.405C372.222 383.63 349.194 365.071 349.194 325.89C349.194 289.803 376.689 262.307 419.651 262.307C450.24 262.307 472.235 272.962 488.043 300.801L450.581 324.858C442.332 310.08 433.399 304.239 419.652 304.239C405.561 304.239 396.624 313.174 396.624 324.858C396.624 339.293 405.561 345.137 426.18 354.073L438.208 359.228C479.107 376.757 502.135 394.627 502.135 434.837C502.135 478.144 468.11 501.856 422.401 501.856C377.722 501.856 348.851 480.549 334.763 452.709" fill="black"/>
<defs>
<clipPath id="clip0_59_677">
<rect width="512" height="512" fill="white" transform="translate(30 30)"/>
</clipPath>
</defs>
</svg>
