<svg width="655" height="655" viewBox="0 0 655 655" fill="none" xmlns="http://www.w3.org/2000/svg">
<g filter="url(#filter0_d_62_218)">
<mask id="path-1-outside-1_62_218" maskUnits="userSpaceOnUse" x="30" y="30" width="595" height="595" fill="black">
<rect fill="white" x="30" y="30" width="595" height="595"/>
<path fill-rule="evenodd" clip-rule="evenodd" d="M563.485 70H315.488C315.488 99.691 327.283 128.166 348.278 149.161C369.272 170.155 397.747 181.95 427.438 181.95H473.122V226.059C473.162 287.831 523.227 337.898 584.999 337.938V91.5138C584.999 79.6354 575.37 70 563.485 70ZM440.778 193.569H192.782C192.821 255.34 242.886 305.407 304.66 305.448H350.344V349.698C350.422 411.469 400.522 461.502 462.294 461.502V215.086C462.294 203.204 452.66 193.571 440.778 193.571V193.569ZM70 317.065H317.997C329.88 317.065 339.513 326.699 339.513 338.581V585C277.796 584.883 227.817 534.838 227.777 473.122V429.015H181.95C120.123 429.015 70 378.894 70 317.065Z"/>
</mask>
<path fill-rule="evenodd" clip-rule="evenodd" d="M563.485 70H315.488C315.488 99.691 327.283 128.166 348.278 149.161C369.272 170.155 397.747 181.95 427.438 181.95H473.122V226.059C473.162 287.831 523.227 337.898 584.999 337.938V91.5138C584.999 79.6354 575.37 70 563.485 70ZM440.778 193.569H192.782C192.821 255.34 242.886 305.407 304.66 305.448H350.344V349.698C350.422 411.469 400.522 461.502 462.294 461.502V215.086C462.294 203.204 452.66 193.571 440.778 193.571V193.569ZM70 317.065H317.997C329.88 317.065 339.513 326.699 339.513 338.581V585C277.796 584.883 227.817 534.838 227.777 473.122V429.015H181.95C120.123 429.015 70 378.894 70 317.065Z" fill="url(#paint0_linear_62_218)"/>
<path d="M315.488 70V30C293.397 30 275.488 47.9086 275.488 70L315.488 70ZM348.278 149.161L376.562 120.876L376.562 120.876L348.278 149.161ZM473.122 181.95H513.122C513.122 159.859 495.213 141.95 473.122 141.95V181.95ZM473.122 226.059H433.122C433.122 226.067 433.122 226.076 433.122 226.085L473.122 226.059ZM584.999 337.938L584.973 377.938C595.586 377.945 605.767 373.734 613.274 366.232C620.781 358.729 624.999 348.551 624.999 337.938H584.999ZM192.782 193.569V153.569C182.169 153.569 171.991 157.786 164.489 165.293C156.987 172.8 152.776 182.98 152.782 193.593L192.782 193.569ZM440.778 193.569H480.778C480.778 171.477 462.869 153.569 440.778 153.569V193.569ZM304.66 305.448L304.634 345.448C304.642 345.448 304.651 345.448 304.66 345.448L304.66 305.448ZM350.344 305.448H390.344C390.344 283.356 372.435 265.448 350.344 265.448V305.448ZM350.344 349.698H310.344C310.344 349.715 310.344 349.732 310.344 349.749L350.344 349.698ZM462.294 461.502V501.502C484.385 501.502 502.294 483.593 502.294 461.502H462.294ZM440.778 193.571H400.778C400.778 215.662 418.687 233.571 440.778 233.571V193.571ZM70 317.065V277.065C47.9086 277.065 30 294.974 30 317.065H70ZM339.513 585L339.437 625C350.059 625.02 360.253 620.814 367.771 613.311C375.288 605.807 379.513 595.621 379.513 585H339.513ZM227.777 473.122H187.777C187.777 473.131 187.777 473.14 187.777 473.148L227.777 473.122ZM227.777 429.015H267.777C267.777 406.924 249.868 389.015 227.777 389.015V429.015ZM315.488 110H563.485V30H315.488V110ZM376.562 120.876C363.069 107.383 355.488 89.0823 355.488 70H275.488C275.488 110.3 291.497 148.949 319.993 177.445L376.562 120.876ZM427.438 141.95C408.356 141.95 390.055 134.37 376.562 120.876L319.993 177.445C348.489 205.941 387.138 221.95 427.438 221.95V141.95ZM473.122 141.95H427.438V221.95H473.122V141.95ZM513.122 226.059V181.95H433.122V226.059H513.122ZM585.025 297.938C545.325 297.912 513.148 265.735 513.122 226.033L433.122 226.085C433.177 309.927 501.129 377.883 584.973 377.938L585.025 297.938ZM544.999 91.5138V337.938H624.999V91.5138H544.999ZM563.485 110C553.271 110 544.999 101.719 544.999 91.5138H624.999C624.999 57.5514 597.469 30 563.485 30V110ZM192.782 233.569H440.778V153.569H192.782V233.569ZM304.686 265.448C264.983 265.422 232.807 233.244 232.782 193.544L152.782 193.593C152.834 277.437 220.788 345.393 304.634 345.448L304.686 265.448ZM350.344 265.448H304.66V345.448H350.344V265.448ZM390.344 349.698V305.448H310.344V349.698H390.344ZM462.294 421.502C422.592 421.502 390.394 389.346 390.344 349.647L310.344 349.749C310.451 433.593 378.452 501.502 462.294 501.502V421.502ZM422.294 215.086V461.502H502.294V215.086H422.294ZM440.778 233.571C430.569 233.571 422.294 225.295 422.294 215.086H502.294C502.294 181.113 474.752 153.571 440.778 153.571V233.571ZM400.778 193.569V193.571H480.778V193.569H400.778ZM317.997 277.065H70V357.065H317.997V277.065ZM379.513 338.581C379.513 304.608 351.971 277.065 317.997 277.065V357.065C307.788 357.065 299.513 348.79 299.513 338.581H379.513ZM379.513 585V338.581H299.513V585H379.513ZM187.777 473.148C187.832 556.914 255.667 624.841 339.437 625L339.589 545C299.925 544.925 267.803 512.762 267.777 473.096L187.777 473.148ZM187.777 429.015V473.122H267.777V429.015H187.777ZM181.95 469.015H227.777V389.015H181.95V469.015ZM30 317.065C30 400.986 98.0325 469.015 181.95 469.015V389.015C142.214 389.015 110 356.802 110 317.065H30Z" fill="white" mask="url(#path-1-outside-1_62_218)"/>
</g>
<path d="M563.485 70H315.488C315.488 99.691 327.283 128.166 348.278 149.161C369.272 170.155 397.747 181.95 427.438 181.95H473.122V226.059C473.162 287.831 523.227 337.898 584.999 337.938V91.5138C584.999 79.6354 575.37 70 563.485 70Z" fill="#2684FF"/>
<path d="M440.778 193.569H192.782C192.821 255.34 242.886 305.407 304.66 305.448H350.344V349.698C350.422 411.469 400.522 461.502 462.294 461.502V215.086C462.294 203.204 452.66 193.571 440.778 193.571V193.569Z" fill="url(#paint1_linear_62_218)"/>
<path d="M317.997 317.065H70C70 378.894 120.123 429.015 181.95 429.015H227.777V473.122C227.817 534.838 277.796 584.883 339.513 585V338.581C339.513 326.699 329.88 317.065 317.997 317.065Z" fill="url(#paint2_linear_62_218)"/>
<defs>
<filter id="filter0_d_62_218" x="0" y="0" width="654.999" height="655" filterUnits="userSpaceOnUse" color-interpolation-filters="sRGB">
<feFlood flood-opacity="0" result="BackgroundImageFix"/>
<feColorMatrix in="SourceAlpha" type="matrix" values="0 0 0 0 0 0 0 0 0 0 0 0 0 0 0 0 0 0 127 0" result="hardAlpha"/>
<feOffset/>
<feGaussianBlur stdDeviation="15"/>
<feComposite in2="hardAlpha" operator="out"/>
<feColorMatrix type="matrix" values="0 0 0 0 0 0 0 0 0 0 0 0 0 0 0 0 0 0 0.1 0"/>
<feBlend mode="normal" in2="BackgroundImageFix" result="effect1_dropShadow_62_218"/>
<feBlend mode="normal" in="SourceGraphic" in2="effect1_dropShadow_62_218" result="shape"/>
</filter>
<linearGradient id="paint0_linear_62_218" x1="341.305" y1="318.285" x2="220.017" y2="437.617" gradientUnits="userSpaceOnUse">
<stop offset="0.18" stop-color="#0052CC"/>
<stop offset="1" stop-color="#2684FF"/>
</linearGradient>
<linearGradient id="paint1_linear_62_218" x1="456.987" y1="194" x2="352.134" y2="303.41" gradientUnits="userSpaceOnUse">
<stop offset="0.18" stop-color="#0052CC"/>
<stop offset="1" stop-color="#2684FF"/>
</linearGradient>
<linearGradient id="paint2_linear_62_218" x1="341.305" y1="318.285" x2="220.017" y2="437.617" gradientUnits="userSpaceOnUse">
<stop offset="0.18" stop-color="#0052CC"/>
<stop offset="1" stop-color="#2684FF"/>
</linearGradient>
</defs>
</svg>
