<svg width="612" height="612" viewBox="0 0 612 612" fill="none" xmlns="http://www.w3.org/2000/svg">
<g filter="url(#filter0_d_59_679)">
<path d="M289.234 50.1378C288.133 50.2379 284.629 50.5882 281.476 50.8384C208.755 57.3938 140.639 96.6264 97.4964 156.926C73.4729 190.454 58.1079 228.486 52.3022 268.769C50.2502 282.831 50 286.984 50 306.05C50 325.116 50.2502 329.269 52.3022 343.331C66.2158 439.461 134.633 520.228 227.423 550.153C244.039 555.507 261.557 559.16 281.476 561.362C289.234 562.213 322.766 562.213 330.524 561.362C364.908 557.559 394.036 549.052 422.764 534.39C427.168 532.138 428.019 531.537 427.419 531.037C427.018 530.737 408.25 505.566 385.728 475.14L344.788 419.845L293.488 343.932C265.26 302.197 242.038 268.069 241.837 268.069C241.637 268.019 241.437 301.747 241.337 342.931C241.187 415.041 241.137 417.943 240.236 419.644C238.935 422.096 237.934 423.097 235.831 424.198C234.23 424.999 232.829 425.149 225.271 425.149H216.613L214.31 423.698C212.809 422.747 211.708 421.496 210.957 420.045L209.906 417.793L210.006 317.46L210.156 217.076L211.708 215.125C212.509 214.074 214.21 212.723 215.412 212.072C217.464 211.071 218.264 210.971 226.923 210.971C237.133 210.971 238.834 211.372 241.487 214.274C242.238 215.075 270.015 256.909 303.247 307.301C336.48 357.693 381.924 426.5 404.246 460.278L444.786 521.679L446.838 520.328C465.005 508.518 484.224 491.704 499.439 474.19C531.821 437.009 552.691 391.671 559.698 343.331C561.75 329.269 562 325.116 562 306.05C562 286.984 561.75 282.831 559.698 268.769C545.784 172.639 477.367 91.8724 384.577 61.9476C368.211 56.6432 350.794 52.9901 331.275 50.7883C326.47 50.2879 293.388 49.7374 289.234 50.1378ZM394.036 204.966C396.438 206.167 398.39 208.469 399.091 210.871C399.491 212.172 399.591 239.995 399.491 302.697L399.341 392.672L383.476 368.352L367.56 344.032V278.627C367.56 236.342 367.76 212.573 368.061 211.422C368.861 208.619 370.613 206.417 373.015 205.116C375.067 204.066 375.818 203.965 383.676 203.965C391.083 203.965 392.384 204.066 394.036 204.966Z" fill="black"/>
<path d="M280.289 35.8854L280.209 35.8917L280.129 35.8989C202.995 42.8522 130.947 84.3985 85.3033 148.19C85.3026 148.191 85.302 148.192 85.3013 148.192C59.9001 183.644 43.6121 223.927 37.4576 266.616C35.2734 281.585 35 286.501 35 306.05C35 325.6 35.2734 330.515 37.4578 345.486C52.1981 447.31 124.613 532.757 222.819 564.429L222.823 564.43C240.514 570.13 259.032 573.972 279.828 576.271L279.841 576.273C284.698 576.805 295.903 577 306 577C316.097 577 327.302 576.805 332.159 576.273L332.173 576.271C368.223 572.284 399.121 563.297 429.583 547.75L429.593 547.745C431.469 546.786 433.917 545.533 435.717 544.241C436.27 543.844 437.137 543.183 438.045 542.263C438.391 541.912 438.869 541.4 439.386 540.724L440.522 542.446L453.035 534.207L455.013 532.904C455.025 532.896 455.038 532.888 455.05 532.88C474.439 520.271 494.687 502.531 510.757 484.033C545.01 444.701 567.118 396.701 574.542 345.487C576.727 330.516 577 325.601 577 306.05C577 286.503 576.727 281.586 574.543 266.621C559.805 164.797 487.394 79.3498 389.191 47.675C371.752 42.0237 353.339 38.1821 332.956 35.8829L332.892 35.8757L332.829 35.869C329.598 35.5325 319.282 35.2716 310.25 35.1272C301.49 34.9871 291.123 34.9045 287.876 35.1994C287.534 35.2304 287.065 35.2752 286.505 35.3286C284.901 35.4816 282.549 35.706 280.289 35.8854ZM226.069 407.474C226.055 408.468 226.04 409.356 226.024 410.148C225.782 410.149 225.532 410.149 225.271 410.149H224.914L225.006 317.482L225.006 317.475L225.143 225.973C225.685 225.972 226.277 225.971 226.923 225.971C228.817 225.971 230.25 225.986 231.369 226.02C232.154 227.182 233.14 228.65 234.317 230.407C237.529 235.205 242.098 242.065 247.69 250.488C249.093 252.602 250.561 254.813 252.087 257.115C251.801 256.846 251.229 256.333 250.451 255.787C249.992 255.478 248.821 254.793 248.099 254.438C247.552 254.213 246.551 253.921 245.438 253.662L245.475 253.516C238.11 251.675 232.867 255.705 230.894 257.808C229.079 259.743 228.25 261.677 228.005 262.26C227.416 263.661 227.179 264.847 227.124 265.124L227.12 265.144C226.968 265.904 226.907 266.527 226.892 266.683L226.891 266.694C226.847 267.138 226.827 267.534 226.818 267.713C226.796 268.155 226.78 268.683 226.767 269.209C226.74 270.3 226.714 271.849 226.69 273.762C226.641 277.608 226.594 283.144 226.55 289.94C226.462 303.542 226.387 322.291 226.337 342.894L226.337 342.9C226.262 379.014 226.212 397.641 226.069 407.474ZM225.791 416.119C225.791 416.119 225.792 416.105 225.796 416.079C225.793 416.106 225.791 416.119 225.791 416.119ZM417.817 542.561C417.744 542.5 417.665 542.433 417.582 542.361C417.656 542.425 417.734 542.492 417.817 542.561L417.817 542.561ZM383.676 218.965C383.914 218.965 384.144 218.966 384.365 218.966C384.415 222.553 384.452 227.469 384.479 233.822C384.541 248.73 384.541 271.323 384.491 302.672C384.491 302.673 384.491 302.673 384.491 302.673L384.425 342.409L382.56 339.56V278.627C382.56 257.501 382.61 241.031 382.697 229.715C382.731 225.323 382.77 221.735 382.814 218.966C383.088 218.966 383.375 218.965 383.676 218.965Z" stroke="white" stroke-width="30"/>
</g>
<path d="M289.234 50.1378C288.133 50.2379 284.629 50.5882 281.476 50.8384C208.755 57.3938 140.639 96.6264 97.4964 156.926C73.4729 190.454 58.1079 228.486 52.3022 268.769C50.2502 282.831 50 286.984 50 306.05C50 325.116 50.2502 329.269 52.3022 343.331C66.2158 439.461 134.633 520.228 227.423 550.153C244.039 555.507 261.557 559.16 281.476 561.362C289.234 562.213 322.766 562.213 330.524 561.362C364.908 557.559 394.036 549.052 422.764 534.39C427.168 532.138 428.019 531.537 427.419 531.037C427.018 530.737 408.25 505.566 385.728 475.14L344.788 419.845L293.488 343.932C265.26 302.197 242.038 268.069 241.837 268.069C241.637 268.019 241.437 301.747 241.337 342.931C241.187 415.041 241.137 417.943 240.236 419.644C238.935 422.096 237.934 423.097 235.831 424.198C234.23 424.999 232.829 425.149 225.271 425.149H216.613L214.31 423.698C212.809 422.747 211.708 421.496 210.957 420.045L209.906 417.793L210.006 317.46L210.156 217.076L211.708 215.125C212.509 214.074 214.21 212.723 215.412 212.072C217.464 211.071 218.264 210.971 226.923 210.971C237.133 210.971 238.834 211.372 241.487 214.274C242.238 215.075 270.015 256.909 303.247 307.301C336.48 357.693 381.924 426.5 404.246 460.278L444.786 521.679L446.838 520.328C465.005 508.518 484.224 491.704 499.439 474.19C531.821 437.009 552.691 391.671 559.698 343.331C561.75 329.269 562 325.116 562 306.05C562 286.984 561.75 282.831 559.698 268.769C545.784 172.639 477.367 91.8724 384.577 61.9476C368.211 56.6432 350.794 52.9901 331.275 50.7883C326.47 50.2879 293.388 49.7374 289.234 50.1378ZM394.036 204.966C396.438 206.167 398.39 208.469 399.091 210.871C399.491 212.172 399.591 239.995 399.491 302.697L399.341 392.672L383.476 368.352L367.56 344.032V278.627C367.56 236.342 367.76 212.573 368.061 211.422C368.861 208.619 370.613 206.417 373.015 205.116C375.067 204.066 375.818 203.965 383.676 203.965C391.083 203.965 392.384 204.066 394.036 204.966Z" fill="black"/>
<path d="M289.234 50.1378C288.133 50.2379 284.629 50.5882 281.476 50.8384C208.755 57.3938 140.639 96.6264 97.4964 156.926C73.4729 190.454 58.1079 228.486 52.3022 268.769C50.2502 282.831 50 286.984 50 306.05C50 325.116 50.2502 329.269 52.3022 343.331C66.2158 439.461 134.633 520.228 227.423 550.153C244.039 555.507 261.557 559.16 281.476 561.362C289.234 562.213 322.766 562.213 330.524 561.362C364.908 557.559 394.036 549.052 422.764 534.39C427.168 532.138 428.019 531.537 427.419 531.037C427.018 530.737 408.25 505.566 385.728 475.14L344.788 419.845L293.488 343.932C265.26 302.197 242.038 268.069 241.837 268.069C241.637 268.019 241.437 301.747 241.337 342.931C241.187 415.041 241.137 417.943 240.236 419.644C238.935 422.096 237.934 423.097 235.831 424.198C234.23 424.999 232.829 425.149 225.271 425.149H216.613L214.31 423.698C212.809 422.747 211.708 421.496 210.957 420.045L209.906 417.793L210.006 317.46L210.156 217.076L211.708 215.125C212.509 214.074 214.21 212.723 215.412 212.072C217.464 211.071 218.264 210.971 226.923 210.971C237.133 210.971 238.834 211.372 241.487 214.274C242.238 215.075 270.015 256.909 303.247 307.301C336.48 357.693 381.924 426.5 404.246 460.278L444.786 521.679L446.838 520.328C465.005 508.518 484.224 491.704 499.439 474.19C531.821 437.009 552.691 391.671 559.698 343.331C561.75 329.269 562 325.116 562 306.05C562 286.984 561.75 282.831 559.698 268.769C545.784 172.639 477.367 91.8724 384.577 61.9476C368.211 56.6432 350.794 52.9901 331.275 50.7883C326.47 50.2879 293.388 49.7374 289.234 50.1378ZM394.036 204.966C396.438 206.167 398.39 208.469 399.091 210.871C399.491 212.172 399.591 239.995 399.491 302.697L399.341 392.672L383.476 368.352L367.56 344.032V278.627C367.56 236.342 367.76 212.573 368.061 211.422C368.861 208.619 370.613 206.417 373.015 205.116C375.067 204.066 375.818 203.965 383.676 203.965C391.083 203.965 392.384 204.066 394.036 204.966Z" fill="black"/>
<path d="M289.234 50.1378C288.133 50.2379 284.629 50.5882 281.476 50.8384C208.755 57.3938 140.639 96.6264 97.4964 156.926C73.4729 190.454 58.1079 228.486 52.3022 268.769C50.2502 282.831 50 286.984 50 306.05C50 325.116 50.2502 329.269 52.3022 343.331C66.2158 439.461 134.633 520.228 227.423 550.153C244.039 555.507 261.557 559.16 281.476 561.362C289.234 562.213 322.766 562.213 330.524 561.362C364.908 557.559 394.036 549.052 422.764 534.39C427.168 532.138 428.019 531.537 427.419 531.037C427.018 530.737 408.25 505.566 385.728 475.14L344.788 419.845L293.488 343.932C265.26 302.197 242.038 268.069 241.837 268.069C241.637 268.019 241.437 301.747 241.337 342.931C241.187 415.041 241.137 417.943 240.236 419.644C238.935 422.096 237.934 423.097 235.831 424.198C234.23 424.999 232.829 425.149 225.271 425.149H216.613L214.31 423.698C212.809 422.747 211.708 421.496 210.957 420.045L209.906 417.793L210.006 317.46L210.156 217.076L211.708 215.125C212.509 214.074 214.21 212.723 215.412 212.072C217.464 211.071 218.264 210.971 226.923 210.971C237.133 210.971 238.834 211.372 241.487 214.274C242.238 215.075 270.015 256.909 303.247 307.301C336.48 357.693 381.924 426.5 404.246 460.278L444.786 521.679L446.838 520.328C465.005 508.518 484.224 491.704 499.439 474.19C531.821 437.009 552.691 391.671 559.698 343.331C561.75 329.269 562 325.116 562 306.05C562 286.984 561.75 282.831 559.698 268.769C545.784 172.639 477.367 91.8724 384.577 61.9476C368.211 56.6432 350.794 52.9901 331.275 50.7883C326.47 50.2879 293.388 49.7374 289.234 50.1378ZM394.036 204.966C396.438 206.167 398.39 208.469 399.091 210.871C399.491 212.172 399.591 239.995 399.491 302.697L399.341 392.672L383.476 368.352L367.56 344.032V278.627C367.56 236.342 367.76 212.573 368.061 211.422C368.861 208.619 370.613 206.417 373.015 205.116C375.067 204.066 375.818 203.965 383.676 203.965C391.083 203.965 392.384 204.066 394.036 204.966Z" fill="black"/>
<defs>
<filter id="filter0_d_59_679" x="0" y="0.00012207" width="612" height="612" filterUnits="userSpaceOnUse" color-interpolation-filters="sRGB">
<feFlood flood-opacity="0" result="BackgroundImageFix"/>
<feColorMatrix in="SourceAlpha" type="matrix" values="0 0 0 0 0 0 0 0 0 0 0 0 0 0 0 0 0 0 127 0" result="hardAlpha"/>
<feOffset/>
<feGaussianBlur stdDeviation="10"/>
<feComposite in2="hardAlpha" operator="out"/>
<feColorMatrix type="matrix" values="0 0 0 0 0 0 0 0 0 0 0 0 0 0 0 0 0 0 0.1 0"/>
<feBlend mode="normal" in2="BackgroundImageFix" result="effect1_dropShadow_59_679"/>
<feBlend mode="normal" in="SourceGraphic" in2="effect1_dropShadow_59_679" result="shape"/>
</filter>
</defs>
</svg>
