<svg width="592" height="512" viewBox="0 0 592 512" fill="none" xmlns="http://www.w3.org/2000/svg">
<g filter="url(#filter0_d_59_477)">
<path d="M280.701 424.142L280.972 424.304L281.25 424.453C284.664 426.292 288.708 427.519 293.222 427.519C296.831 427.519 300.735 426.774 304.369 425.097L304.998 424.806L305.598 424.459L351.756 397.736C351.758 397.735 351.761 397.733 351.764 397.731C359.461 393.287 364.121 385.067 364.121 376.295V322.942C364.121 314.172 359.463 305.954 351.77 301.509C351.765 301.506 351.76 301.504 351.756 301.501L305.598 274.778L305.505 274.724L305.412 274.672C297.965 270.502 288.479 270.502 281.032 274.672L280.939 274.724L280.846 274.778L234.688 301.501C234.684 301.503 234.68 301.505 234.676 301.508C226.981 305.953 222.323 314.171 222.323 322.942V376.295C222.323 385.07 226.986 393.293 234.688 397.736L234.715 397.752L234.742 397.767L246.894 404.711L247.307 404.947L247.734 405.156C251.235 406.872 254.392 408.128 257.55 408.846C258.061 408.962 258.556 409.06 259.032 409.142C259.64 410.106 260.254 410.867 260.739 411.399C262.458 413.284 264.346 414.462 265.484 415.104L280.701 424.142Z" fill="#539E43" stroke="white" stroke-width="30"/>
<path d="M25 203.876L25.1157 279.774C25.1157 279.78 25.1157 279.786 25.1157 279.791C25.1157 279.793 25.1157 279.795 25.1157 279.797C25.1236 285.669 28.155 292.055 34.3251 295.429C39.4528 298.327 46.4256 298.83 52.335 295.127L81.0889 278.696C87.5511 275.035 91.6872 268.134 91.6872 260.562V230.329L95.0308 228.391L98.3743 230.329V260.562C98.3743 268.134 102.51 275.034 108.972 278.696L137.957 295.259C143.484 298.536 150.327 298.585 155.894 295.406C162.044 292.022 165.062 285.64 165.062 279.774V279.763L165.061 279.751L164.946 203.854C164.946 203.848 164.946 203.842 164.946 203.836C164.946 203.834 164.946 203.832 164.946 203.831C164.937 196.279 160.815 189.397 154.374 185.735L105.348 157.522L105.328 157.51L105.308 157.499C102.153 155.696 99.085 155.081 97.0649 154.828L96.1382 154.713H95.2043H94.7414C90.2271 154.713 86.6787 156.333 84.6375 157.499L84.6177 157.51L84.5979 157.522L35.5716 185.735C29.1247 189.4 25 196.293 25 203.854V203.865L25 203.876Z" fill="#333333" stroke="white" stroke-width="30"/>
<mask id="path-3-outside-1_59_477" maskUnits="userSpaceOnUse" x="278.036" y="68" width="171" height="259" fill="black">
<rect fill="white" x="278.036" y="68" width="171" height="259"/>
<path fill-rule="evenodd" clip-rule="evenodd" d="M385.808 99.3472C384.882 98.8843 383.725 98.8843 382.915 99.3472C381.989 99.9259 381.41 100.852 381.41 101.893V177.119C381.41 177.814 381.063 178.508 380.368 178.971C379.674 179.318 378.98 179.318 378.285 178.971L366.018 171.911C364.166 170.87 361.967 170.87 360.115 171.911L311.045 200.266C309.193 201.307 308.036 203.275 308.036 205.358V261.951C308.036 264.034 309.193 266.002 311.045 267.043L360.115 295.398C361.967 296.439 364.166 296.439 366.018 295.398L415.088 267.043C416.94 266.002 418.097 264.034 418.097 261.951V120.873C418.097 118.675 416.94 116.707 415.088 115.665L385.808 99.3472ZM381.294 243.318C381.294 243.897 381.062 244.36 380.599 244.591L363.818 254.313C363.355 254.544 362.777 254.544 362.314 254.313L345.533 244.591C345.07 244.36 344.838 243.781 344.838 243.318V223.875C344.838 223.297 345.07 222.834 345.533 222.602L362.314 212.881C362.777 212.649 363.355 212.649 363.818 212.881L380.599 222.602C381.062 222.834 381.294 223.412 381.294 223.875V243.318Z"/>
</mask>
<path fill-rule="evenodd" clip-rule="evenodd" d="M385.808 99.3472C384.882 98.8843 383.725 98.8843 382.915 99.3472C381.989 99.9259 381.41 100.852 381.41 101.893V177.119C381.41 177.814 381.063 178.508 380.368 178.971C379.674 179.318 378.98 179.318 378.285 178.971L366.018 171.911C364.166 170.87 361.967 170.87 360.115 171.911L311.045 200.266C309.193 201.307 308.036 203.275 308.036 205.358V261.951C308.036 264.034 309.193 266.002 311.045 267.043L360.115 295.398C361.967 296.439 364.166 296.439 366.018 295.398L415.088 267.043C416.94 266.002 418.097 264.034 418.097 261.951V120.873C418.097 118.675 416.94 116.707 415.088 115.665L385.808 99.3472ZM381.294 243.318C381.294 243.897 381.062 244.36 380.599 244.591L363.818 254.313C363.355 254.544 362.777 254.544 362.314 254.313L345.533 244.591C345.07 244.36 344.838 243.781 344.838 243.318V223.875C344.838 223.297 345.07 222.834 345.533 222.602L362.314 212.881C362.777 212.649 363.355 212.649 363.818 212.881L380.599 222.602C381.062 222.834 381.294 223.412 381.294 223.875V243.318Z" fill="#333333"/>
<path d="M385.808 99.3472L400.412 73.142L399.825 72.8149L399.224 72.5144L385.808 99.3472ZM382.915 99.3472L368.03 73.2999L367.516 73.5935L367.015 73.9072L382.915 99.3472ZM380.368 178.971L393.785 205.804L395.455 204.969L397.009 203.933L380.368 178.971ZM378.285 178.971L363.322 204.973L364.083 205.411L364.869 205.804L378.285 178.971ZM366.018 171.911L380.981 145.91L380.854 145.836L380.725 145.764L366.018 171.911ZM360.115 171.911L345.407 145.764L345.256 145.849L345.106 145.936L360.115 171.911ZM311.045 200.266L325.752 226.413L325.904 226.328L326.054 226.241L311.045 200.266ZM311.045 267.043L326.054 241.068L325.904 240.981L325.753 240.896L311.045 267.043ZM360.115 295.398L345.106 321.373L345.256 321.46L345.407 321.545L360.115 295.398ZM366.018 295.398L380.725 321.545L380.877 321.46L381.027 321.373L366.018 295.398ZM415.088 267.043L400.38 240.896L400.229 240.981L400.079 241.068L415.088 267.043ZM415.088 115.665L429.796 89.5182L429.744 89.4891L429.693 89.4603L415.088 115.665ZM380.599 244.591L367.183 217.759L366.359 218.171L365.561 218.633L380.599 244.591ZM363.818 254.313L377.235 281.146L378.059 280.734L378.856 280.272L363.818 254.313ZM362.314 254.313L347.276 280.272L348.073 280.734L348.897 281.146L362.314 254.313ZM345.533 244.591L360.571 218.633L359.773 218.171L358.949 217.759L345.533 244.591ZM345.533 222.602L358.949 249.435L359.773 249.023L360.571 248.561L345.533 222.602ZM362.314 212.881L348.897 186.048L348.073 186.46L347.276 186.922L362.314 212.881ZM363.818 212.881L378.856 186.922L378.059 186.46L377.235 186.048L363.818 212.881ZM380.599 222.602L365.561 248.561L366.359 249.023L367.183 249.435L380.599 222.602ZM399.224 72.5144C390.482 68.1432 378.614 67.2521 368.03 73.2999L397.799 125.394C392.98 128.148 388.174 129 384.318 129C380.398 129 376.296 128.132 372.391 126.18L399.224 72.5144ZM367.015 73.9072C358.689 79.1106 351.41 88.9873 351.41 101.893H411.41C411.41 112.716 405.288 120.741 398.814 124.787L367.015 73.9072ZM351.41 101.893V177.119H411.41V101.893H351.41ZM351.41 177.119C351.41 167.425 356.378 158.909 363.727 154.01L397.009 203.933C405.747 198.107 411.41 188.202 411.41 177.119H351.41ZM366.952 152.138C370.273 150.478 374.491 149.231 379.327 149.231C384.163 149.231 388.38 150.478 391.702 152.138L364.869 205.804C374.009 210.374 384.645 210.374 393.785 205.804L366.952 152.138ZM393.249 152.969L380.981 145.91L351.054 197.913L363.322 204.973L393.249 152.969ZM380.725 145.764C369.741 139.586 356.392 139.586 345.407 145.764L374.823 198.059C367.542 202.154 358.59 202.154 351.31 198.059L380.725 145.764ZM345.106 145.936L296.035 174.29L326.054 226.241L375.125 197.887L345.106 145.936ZM296.337 174.119C285.199 180.384 278.036 192.254 278.036 205.358H338.036C338.036 214.296 333.187 222.231 325.752 226.413L296.337 174.119ZM278.036 205.358V261.951H338.036V205.358H278.036ZM278.036 261.951C278.036 275.055 285.199 286.926 296.337 293.191L325.753 240.896C333.187 245.078 338.036 253.014 338.036 261.951H278.036ZM296.035 293.019L345.106 321.373L375.125 269.422L326.054 241.068L296.035 293.019ZM345.407 321.545C356.391 327.724 369.741 327.724 380.725 321.545L351.31 269.251C358.59 265.155 367.542 265.155 374.823 269.251L345.407 321.545ZM381.027 321.373L430.097 293.019L400.079 241.068L351.008 269.422L381.027 321.373ZM429.796 293.191C440.934 286.926 448.097 275.055 448.097 261.951H388.097C388.097 253.014 392.946 245.078 400.38 240.896L429.796 293.191ZM448.097 261.951V120.873H388.097V261.951H448.097ZM448.097 120.873C448.097 107.982 441.22 95.9444 429.796 89.5182L400.38 141.813C392.659 137.47 388.097 129.367 388.097 120.873H448.097ZM429.693 89.4603L400.412 73.142L371.203 125.552L400.484 141.871L429.693 89.4603ZM351.294 243.318C351.294 239.69 352.017 234.904 354.65 229.967C357.409 224.793 361.752 220.474 367.183 217.759L394.016 271.424C407.179 264.843 411.294 252.117 411.294 243.318H351.294ZM365.561 218.633L348.78 228.354L378.856 280.272L395.638 270.55L365.561 218.633ZM350.402 227.48C358.385 223.489 367.747 223.489 375.73 227.48L348.897 281.146C357.806 285.6 368.326 285.6 377.235 281.146L350.402 227.48ZM377.352 228.354L360.571 218.633L330.494 270.55L347.276 280.272L377.352 228.354ZM358.949 217.759C365.94 221.254 369.856 226.649 371.845 230.625C373.825 234.586 374.838 238.923 374.838 243.318H314.838C314.838 250.614 317.988 264.36 332.116 271.424L358.949 217.759ZM374.838 243.318V223.875H314.838V243.318H374.838ZM374.838 223.875C374.838 227.503 374.115 232.289 371.482 237.226C368.723 242.401 364.38 246.719 358.949 249.435L332.116 195.769C318.954 202.351 314.838 215.077 314.838 223.875H374.838ZM360.571 248.561L377.352 238.839L347.276 186.922L330.494 196.643L360.571 248.561ZM375.73 239.713C367.747 243.705 358.385 243.705 350.402 239.713L377.235 186.048C368.326 181.593 357.806 181.593 348.897 186.048L375.73 239.713ZM348.78 238.839L365.561 248.561L395.638 196.643L378.856 186.922L348.78 238.839ZM367.183 249.435C360.192 245.939 356.276 240.545 354.287 236.568C352.307 232.607 351.294 228.271 351.294 223.875H411.294C411.294 216.58 408.144 202.834 394.016 195.769L367.183 249.435ZM351.294 223.875V243.318H411.294V223.875H351.294Z" fill="white" mask="url(#path-3-outside-1_59_477)"/>
<path d="M556.824 186.593L556.727 186.535L556.628 186.478L507.905 158.239L507.821 158.191L507.737 158.143C501.319 154.533 493.545 154.533 487.127 158.143L487.051 158.186L486.976 158.229L437.958 186.554C431.52 190.221 427.401 197.109 427.401 204.664V261.257C427.401 268.831 431.541 275.735 438.008 279.395L486.705 307.156L486.742 307.177L486.78 307.198C492.957 310.673 500.789 310.959 507.365 307.148L536.56 290.89C542.851 287.536 545.937 281.076 545.937 275.145C545.937 269.254 542.893 262.842 536.69 259.469L526.795 253.778C527.071 253.631 527.345 253.477 527.615 253.315L556.593 236.411C563.491 232.465 567 225.289 567 218.32V204.548C567 197.065 562.965 190.278 556.824 186.593ZM500.445 238.624L493.626 234.702V231.009L497.027 229.066L500.429 231.009V237.879C500.429 238.126 500.434 238.375 500.445 238.624Z" fill="#333333" stroke="white" stroke-width="30"/>
<path d="M505.532 207.873C500.447 204.811 494.069 204.811 488.984 207.873L479.777 213.216L479.373 213.45L478.985 213.709C475.18 216.245 471.727 220.95 471.727 227.231V238.11C471.727 244.392 475.18 249.096 478.985 251.633L479.373 251.892L479.777 252.126L488.984 257.468C494.069 260.53 500.447 260.53 505.532 257.468L514.739 252.126L515.143 251.892L515.532 251.633C519.336 249.096 522.79 244.392 522.79 238.11V227.231C522.79 220.95 519.336 216.245 515.532 213.709L515.143 213.45L514.739 213.216L505.532 207.873Z" fill="#539E43" stroke="white" stroke-width="30"/>
<path d="M218.744 158.375L218.671 158.416L218.599 158.457L169.926 186.551C163.003 190.492 159.481 197.681 159.481 204.664V261.025C159.481 268.508 163.516 275.295 169.657 278.98L169.766 279.045L169.876 279.109L218.599 307.232L218.671 307.273L218.744 307.314C225.162 310.924 232.936 310.924 239.354 307.314L239.426 307.273L239.498 307.232L288.172 279.138C295.095 275.196 298.617 268.008 298.617 261.025V204.664C298.617 197.181 294.581 190.393 288.441 186.709L288.332 186.644L288.222 186.58L239.498 158.457L232 171.448L239.354 158.375C232.936 154.765 225.162 154.765 218.744 158.375Z" fill="white" stroke="white" stroke-width="30"/>
<path d="M218.744 158.375L218.671 158.416L218.599 158.457L169.926 186.551C163.003 190.492 159.481 197.681 159.481 204.664V261.025C159.481 268.508 163.516 275.295 169.657 278.98L169.766 279.045L169.876 279.109L218.599 307.232L218.671 307.273L218.744 307.314C225.162 310.924 232.936 310.924 239.354 307.314L239.426 307.273L239.498 307.232L288.172 279.138C295.095 275.196 298.617 268.008 298.617 261.025V204.664C298.617 197.181 294.581 190.393 288.441 186.709L288.332 186.644L288.222 186.58L239.498 158.457L232 171.448L239.354 158.375C232.936 154.765 225.162 154.765 218.744 158.375Z" fill="url(#paint0_linear_59_477)" stroke="white" stroke-width="30"/>
<mask id="mask0_59_477" style="mask-type:luminance" maskUnits="userSpaceOnUse" x="144" y="140" width="170" height="186">
<path d="M218.744 158.375L218.671 158.416L218.599 158.457L169.926 186.551C163.003 190.492 159.481 197.681 159.481 204.664V261.025C159.481 268.508 163.516 275.295 169.657 278.98L169.766 279.045L169.876 279.109L218.599 307.232L218.671 307.273L218.744 307.314C225.162 310.924 232.936 310.924 239.354 307.314L239.426 307.273L239.498 307.232L288.172 279.138C295.095 275.196 298.617 268.008 298.617 261.025V204.664C298.617 197.181 294.581 190.393 288.441 186.709L288.332 186.644L288.222 186.58L239.498 158.457L232 171.448L239.354 158.375C232.936 154.765 225.162 154.765 218.744 158.375Z" fill="white" stroke="white" stroke-width="30"/>
</mask>
<g mask="url(#mask0_59_477)">
<path d="M233.54 184.405C233.516 184.419 233.492 184.433 233.468 184.447L229.303 177.216L229.313 177.158L233.54 184.405ZM218.472 158.464L169.703 186.547C163.746 189.935 159.019 196.569 159.019 204.664V261.025C159.019 266.765 161.437 271.459 164.312 274.694L178.052 290.151L188.477 272.291L243.335 178.316L254.299 159.534L232.846 155.958C229.08 155.33 223.687 155.44 218.472 158.464Z" stroke="white" stroke-width="30"/>
<path d="M238.825 307.657L239.219 307.46L239.601 307.239L288.395 279.143C294.841 275.477 298.964 268.585 298.964 261.025V204.664C298.964 198.764 296.381 193.552 292.835 190.006L278.674 175.845L269.067 193.418L217.566 287.624L230.728 294.819L234.366 309.371C236.591 308.815 238.481 307.835 238.787 307.676C238.805 307.667 238.818 307.66 238.825 307.657Z" stroke="white" stroke-width="30"/>
<path d="M239.357 158.442L238.981 158.226L238.593 158.032C237.472 157.472 235.842 156.774 234.019 156.318L223.1 153.588L217.426 163.308L162.569 257.282L157.378 266.175L163.81 274.215C165.608 276.462 167.655 278.033 169.426 279.096L169.548 279.169L169.672 279.24L218.598 307.347C223.282 310.059 229.197 311.064 235.023 309.272L240.85 307.479L243.774 302.13L295.275 207.924L299.906 199.452L294.113 191.729C292.37 189.405 290.257 187.874 289.887 187.606C289.865 187.59 289.849 187.578 289.84 187.571L280.84 199.571L288.312 186.565L239.357 158.442Z" fill="url(#paint1_linear_59_477)" stroke="white" stroke-width="30"/>
</g>
<mask id="mask1_59_477" style="mask-type:luminance" maskUnits="userSpaceOnUse" x="144" y="140" width="170" height="186">
<path d="M218.744 158.375L218.671 158.416L218.599 158.457L169.926 186.551C163.003 190.492 159.481 197.681 159.481 204.664V261.025C159.481 268.508 163.516 275.295 169.657 278.98L169.766 279.045L169.876 279.109L218.599 307.232L218.671 307.273L218.744 307.314C225.162 310.924 232.936 310.924 239.354 307.314L239.426 307.273L239.498 307.232L288.172 279.138C295.095 275.196 298.617 268.008 298.617 261.025V204.664C298.617 197.181 294.581 190.393 288.441 186.709L288.332 186.644L288.222 186.58L239.498 158.457L232 171.448L239.354 158.375C232.936 154.765 225.162 154.765 218.744 158.375Z" fill="white" stroke="white" stroke-width="30"/>
</mask>
<g mask="url(#mask1_59_477)">
<path d="M288.272 186.542L239.445 158.492C237.488 157.341 235.195 156.407 232.499 155.958L200.91 150.693L217.088 178.331L270.672 269.876L282.791 290.58L296.098 270.619C298.338 267.259 298.965 263.713 298.965 261.025V204.664C298.965 196.565 294.233 189.929 288.272 186.542Z" stroke="white" stroke-width="30"/>
<path d="M169.426 278.98L169.548 279.053L169.671 279.124L218.54 307.197C222.855 309.735 227.701 310.511 232.383 309.731L253.245 306.254L243.066 287.715L190.639 192.236L184.617 181.269L172.747 185.225L172.4 185.341L177.143 199.571L169.789 186.498C163.792 189.871 159.019 196.53 159.019 204.664V261.025C159.019 269.552 164.279 275.892 169.426 278.98Z" stroke="white" stroke-width="30"/>
<path d="M217.075 148.079L220.748 163.635L211.997 169.469L212.229 169.816L220.85 164.068L223.784 176.495H224.71H252.737L237.19 153.175L236.959 152.828L224.71 160.994V146.495H223.784V159.759L217.77 147.732L217.075 148.079Z" fill="url(#paint2_linear_59_477)" stroke="white" stroke-width="30"/>
<path d="M298.185 266.825L300.124 260.522L296.791 254.832L243.091 163.172L239.541 157.113L232.614 155.958C228.999 155.356 223.562 155.371 218.3 158.563L169.886 186.459L157.16 193.791L164.223 206.669L216.649 302.263L221.768 311.596L232.267 309.846C234.103 309.541 236.404 308.925 238.708 307.773L239.108 307.573L239.495 307.349L288.45 279.111L280.955 266.117L288.513 279.074C293.386 276.232 296.697 271.663 298.185 266.825Z" fill="url(#paint3_linear_59_477)" stroke="white" stroke-width="30"/>
<path d="M297.983 256.896L270.121 210.458V264.613V265.423V293.451L293.442 277.904L293.789 277.672L285.623 265.423H300.121V264.613H286.433L298.331 257.474L297.983 256.896Z" fill="url(#paint4_linear_59_477)" stroke="white" stroke-width="30"/>
<path d="M269.445 255.436L226.256 280.306L206.611 283.112L216.682 301.994L217.608 303.73L224.917 317.435L238.359 309.652L292.522 278.288L300.006 273.955V265.307V264.613V260.458L297.868 256.896L296.479 254.581L274.742 218.353L269.445 255.436Z" fill="url(#paint5_linear_59_477)" stroke="white" stroke-width="30"/>
<path d="M269.445 255.436L226.256 280.306L206.611 283.112L216.682 301.994L217.608 303.73L224.917 317.435L238.359 309.652L292.522 278.288L300.006 273.955V265.307V264.613V260.458L297.868 256.896L296.479 254.581L274.742 218.353L269.445 255.436Z" fill="url(#paint6_linear_59_477)" stroke="white" stroke-width="30"/>
</g>
</g>
<path fill-rule="evenodd" clip-rule="evenodd" d="M293.222 412.519C291.486 412.519 289.866 412.056 288.361 411.246L272.969 402.103C270.654 400.83 271.811 400.367 272.506 400.136C275.631 399.094 276.209 398.863 279.45 397.011C279.797 396.779 280.26 396.895 280.607 397.127L292.412 404.186C292.875 404.418 293.453 404.418 293.801 404.186L339.978 377.452C340.441 377.221 340.672 376.758 340.672 376.179V322.826C340.672 322.248 340.441 321.785 339.978 321.553L293.801 294.935C293.338 294.703 292.759 294.703 292.412 294.935L246.235 321.553C245.772 321.785 245.54 322.363 245.54 322.826V376.179C245.54 376.642 245.772 377.221 246.235 377.452L258.849 384.743C265.678 388.215 269.96 384.165 269.96 380.114V327.456C269.96 326.761 270.538 326.067 271.349 326.067H277.251C277.945 326.067 278.64 326.646 278.64 327.456V380.114C278.64 389.257 273.663 394.58 264.983 394.58C262.321 394.58 260.238 394.58 254.336 391.687L242.184 384.743C239.175 383.007 237.323 379.767 237.323 376.295V322.942C237.323 319.47 239.175 316.23 242.184 314.494L288.361 287.76C291.255 286.139 295.189 286.139 298.083 287.76L344.26 314.494C347.269 316.23 349.121 319.47 349.121 322.942V376.295C349.121 379.767 347.269 383.007 344.26 384.743L298.083 411.477C296.578 412.172 294.842 412.519 293.222 412.519ZM307.457 375.832C287.204 375.832 283.038 366.573 283.038 358.703C283.038 358.009 283.616 357.315 284.426 357.315H290.444C291.139 357.315 291.717 357.778 291.717 358.472C292.643 364.606 295.305 367.615 307.573 367.615C317.294 367.615 321.461 365.416 321.461 360.208C321.461 357.199 320.303 355 305.142 353.495C292.528 352.222 284.658 349.445 284.658 339.376C284.658 330.002 292.528 324.447 305.721 324.447C320.535 324.447 327.826 329.539 328.752 340.649C328.752 340.996 328.636 341.344 328.405 341.691C328.173 341.922 327.826 342.154 327.479 342.154H321.461C320.882 342.154 320.303 341.691 320.188 341.112C318.799 334.747 315.211 332.664 305.721 332.664C295.074 332.664 293.801 336.367 293.801 339.145C293.801 342.501 295.305 343.543 309.656 345.394C323.891 347.246 330.604 349.908 330.604 359.861C330.488 370.045 322.155 375.832 307.457 375.832Z" fill="#539E43"/>
<path fill-rule="evenodd" clip-rule="evenodd" d="M149.946 203.854C149.946 201.77 148.788 199.803 146.937 198.761L97.8662 170.523C97.0561 170.06 96.1302 169.828 95.2043 169.713H94.7414C93.8156 169.713 92.8897 170.06 92.0796 170.523L43.009 198.761C41.1573 199.803 40 201.77 40 203.854L40.1157 279.774C40.1157 280.816 40.6944 281.857 41.6203 282.32C42.5461 282.899 43.7034 282.899 44.5136 282.32L73.6781 265.655C75.5298 264.613 76.6872 262.646 76.6872 260.562V225.033C76.6872 222.949 77.8445 220.982 79.6962 219.94L92.0796 212.765C93.0054 212.186 94.047 211.955 95.0886 211.955C96.1302 211.955 97.1718 212.186 97.9819 212.765L110.365 219.94C112.217 220.982 113.374 222.949 113.374 225.033V260.562C113.374 262.646 114.532 264.613 116.383 265.655L145.548 282.32C146.474 282.899 147.631 282.899 148.557 282.32C149.483 281.857 150.062 280.816 150.062 279.774L149.946 203.854V203.854V203.854Z" fill="#333333"/>
<path fill-rule="evenodd" clip-rule="evenodd" d="M385.808 99.3472C384.882 98.8843 383.725 98.8843 382.915 99.3472C381.989 99.9259 381.41 100.852 381.41 101.893V177.119C381.41 177.814 381.063 178.508 380.368 178.971C379.674 179.318 378.98 179.318 378.285 178.971L366.018 171.911C364.166 170.87 361.967 170.87 360.115 171.911L311.045 200.266C309.193 201.307 308.036 203.275 308.036 205.358V261.951C308.036 264.034 309.193 266.002 311.045 267.043L360.115 295.398C361.967 296.439 364.166 296.439 366.018 295.398L415.088 267.043C416.94 266.002 418.097 264.034 418.097 261.951V120.873C418.097 118.675 416.94 116.707 415.088 115.665L385.808 99.3472V99.3472V99.3472ZM381.294 243.318C381.294 243.897 381.062 244.36 380.599 244.591L363.818 254.313C363.355 254.544 362.777 254.544 362.314 254.313L345.533 244.591C345.07 244.36 344.838 243.781 344.838 243.318V223.875C344.838 223.297 345.07 222.834 345.533 222.602L362.314 212.881C362.777 212.649 363.355 212.649 363.818 212.881L380.599 222.602C381.062 222.834 381.294 223.412 381.294 223.875V243.318V243.318V243.318Z" fill="#333333"/>
<path fill-rule="evenodd" clip-rule="evenodd" d="M549.107 223.412C550.958 222.371 552 220.403 552 218.32V204.548C552 202.465 550.843 200.497 549.107 199.456L500.383 171.217C498.532 170.175 496.333 170.175 494.481 171.217L445.41 199.571C443.559 200.613 442.401 202.58 442.401 204.664V261.257C442.401 263.34 443.559 265.307 445.41 266.349L494.134 294.125C495.985 295.166 498.184 295.166 499.92 294.125L529.432 277.691C530.358 277.228 530.937 276.186 530.937 275.145C530.937 274.103 530.358 273.061 529.432 272.599L480.13 244.244C479.204 243.665 478.626 242.74 478.626 241.698V223.991C478.626 222.949 479.204 221.908 480.13 221.445L495.523 212.649C496.448 212.071 497.606 212.071 498.532 212.649L513.924 221.445C514.85 222.024 515.429 222.949 515.429 223.991V237.879C515.429 238.92 516.007 239.962 516.933 240.425C517.859 241.004 519.016 241.004 519.942 240.425L549.107 223.412V223.412V223.412Z" fill="#333333"/>
<path fill-rule="evenodd" clip-rule="evenodd" d="M496.68 220.75C497.027 220.519 497.49 220.519 497.837 220.75L507.211 226.19C507.558 226.421 507.79 226.768 507.79 227.231V238.11C507.79 238.573 507.558 238.92 507.211 239.152L497.837 244.591C497.49 244.823 497.027 244.823 496.68 244.591L487.305 239.152C486.958 238.92 486.727 238.573 486.727 238.11V227.231C486.727 226.768 486.958 226.421 487.305 226.19L496.68 220.75V220.75V220.75Z" fill="#539E43"/>
<path fill-rule="evenodd" clip-rule="evenodd" d="M232 171.448C230.148 170.407 227.949 170.407 226.098 171.448L177.374 199.571C175.523 200.613 174.481 202.58 174.481 204.664V261.025C174.481 263.108 175.638 265.076 177.374 266.118L226.098 294.24C227.949 295.282 230.148 295.282 232 294.24L280.723 266.118C282.575 265.076 283.617 263.108 283.617 261.025V204.664C283.617 202.58 282.459 200.613 280.723 199.571L232 171.448V171.448V171.448Z" fill="white"/>
<path fill-rule="evenodd" clip-rule="evenodd" d="M232 171.448C230.148 170.407 227.949 170.407 226.098 171.448L177.374 199.571C175.523 200.613 174.481 202.58 174.481 204.664V261.025C174.481 263.108 175.638 265.076 177.374 266.118L226.098 294.24C227.949 295.282 230.148 295.282 232 294.24L280.723 266.118C282.575 265.076 283.617 263.108 283.617 261.025V204.664C283.617 202.58 282.459 200.613 280.723 199.571L232 171.448V171.448V171.448Z" fill="url(#paint7_linear_59_477)"/>
<mask id="mask2_59_477" style="mask-type:luminance" maskUnits="userSpaceOnUse" x="174" y="170" width="110" height="126">
<path fill-rule="evenodd" clip-rule="evenodd" d="M232 171.448C230.148 170.407 227.949 170.407 226.098 171.448L177.374 199.571C175.523 200.613 174.481 202.58 174.481 204.664V261.025C174.481 263.108 175.638 265.076 177.374 266.118L226.098 294.24C227.949 295.282 230.148 295.282 232 294.24L280.723 266.118C282.575 265.076 283.617 263.108 283.617 261.025V204.664C283.617 202.58 282.459 200.613 280.723 199.571L232 171.448V171.448V171.448Z" fill="white"/>
</mask>
<g mask="url(#mask2_59_477)">
<path fill-rule="evenodd" clip-rule="evenodd" d="M280.84 199.571L231.885 171.448C231.422 171.217 230.844 170.985 230.381 170.87L175.523 264.844C175.986 265.423 176.565 265.886 177.144 266.233L226.098 294.356C227.487 295.166 229.108 295.398 230.612 294.935L282.113 200.729C281.766 200.266 281.303 199.919 280.84 199.571V199.571V199.571Z" fill="url(#paint8_linear_59_477)"/>
</g>
<mask id="mask3_59_477" style="mask-type:luminance" maskUnits="userSpaceOnUse" x="174" y="170" width="110" height="126">
<path fill-rule="evenodd" clip-rule="evenodd" d="M232 171.448C230.148 170.407 227.949 170.407 226.098 171.448L177.374 199.571C175.523 200.613 174.481 202.58 174.481 204.664V261.025C174.481 263.108 175.638 265.076 177.374 266.118L226.098 294.24C227.949 295.282 230.148 295.282 232 294.24L280.723 266.118C282.575 265.076 283.617 263.108 283.617 261.025V204.664C283.617 202.58 282.459 200.613 280.723 199.571L232 171.448V171.448V171.448Z" fill="white"/>
</mask>
<g mask="url(#mask3_59_477)">
<path fill-rule="evenodd" clip-rule="evenodd" d="M280.955 266.117C282.344 265.307 283.385 263.919 283.848 262.414L230.148 170.754C228.76 170.523 227.255 170.638 225.982 171.448L177.375 199.456L229.801 295.051C230.496 294.935 231.306 294.703 232 294.356L280.955 266.117V266.117V266.117Z" fill="url(#paint9_linear_59_477)"/>
<path fill-rule="evenodd" clip-rule="evenodd" d="M280.955 266.118L232.116 294.24C231.422 294.588 230.727 294.819 229.917 294.935L230.843 296.671L285.006 265.307V264.613L283.617 262.298C283.385 263.919 282.344 265.307 280.955 266.118V266.118V266.118Z" fill="url(#paint10_linear_59_477)"/>
<path fill-rule="evenodd" clip-rule="evenodd" d="M280.955 266.118L232.116 294.24C231.422 294.588 230.727 294.819 229.917 294.935L230.843 296.671L285.006 265.307V264.613L283.617 262.298C283.385 263.919 282.344 265.307 280.955 266.118V266.118V266.118Z" fill="url(#paint11_linear_59_477)"/>
</g>
<defs>
<filter id="filter0_d_59_477" x="0" y="58.9999" width="592" height="393.519" filterUnits="userSpaceOnUse" color-interpolation-filters="sRGB">
<feFlood flood-opacity="0" result="BackgroundImageFix"/>
<feColorMatrix in="SourceAlpha" type="matrix" values="0 0 0 0 0 0 0 0 0 0 0 0 0 0 0 0 0 0 127 0" result="hardAlpha"/>
<feOffset/>
<feGaussianBlur stdDeviation="5"/>
<feComposite in2="hardAlpha" operator="out"/>
<feColorMatrix type="matrix" values="0 0 0 0 0 0 0 0 0 0 0 0 0 0 0 0 0 0 0.1 0"/>
<feBlend mode="normal" in2="BackgroundImageFix" result="effect1_dropShadow_59_477"/>
<feBlend mode="normal" in="SourceGraphic" in2="effect1_dropShadow_59_477" result="shape"/>
</filter>
<linearGradient id="paint0_linear_59_477" x1="218.525" y1="176.605" x2="166.662" y2="239.37" gradientUnits="userSpaceOnUse">
<stop stop-color="#41873F"/>
<stop offset="0.3288" stop-color="#418B3D"/>
<stop offset="0.6352" stop-color="#419637"/>
<stop offset="0.9319" stop-color="#3FA92D"/>
<stop offset="1" stop-color="#3FAE2A"/>
</linearGradient>
<linearGradient id="paint1_linear_59_477" x1="250.446" y1="309.82" x2="380.18" y2="257.991" gradientUnits="userSpaceOnUse">
<stop offset="0.1376" stop-color="#41873F"/>
<stop offset="0.4032" stop-color="#54A044"/>
<stop offset="0.7136" stop-color="#66B848"/>
<stop offset="0.9081" stop-color="#6CC04A"/>
</linearGradient>
<linearGradient id="paint2_linear_59_477" x1="182.918" y1="178.106" x2="273.113" y2="178.106" gradientUnits="userSpaceOnUse">
<stop offset="0.0919165" stop-color="#6CC04A"/>
<stop offset="0.2864" stop-color="#66B848"/>
<stop offset="0.5968" stop-color="#54A044"/>
<stop offset="0.8624" stop-color="#41873F"/>
</linearGradient>
<linearGradient id="paint3_linear_59_477" x1="172.702" y1="298.71" x2="285.445" y2="298.71" gradientUnits="userSpaceOnUse">
<stop offset="0.0919165" stop-color="#6CC04A"/>
<stop offset="0.2864" stop-color="#66B848"/>
<stop offset="0.5968" stop-color="#54A044"/>
<stop offset="0.8624" stop-color="#41873F"/>
</linearGradient>
<linearGradient id="paint4_linear_59_477" x1="251.395" y1="304.366" x2="285.218" y2="304.366" gradientUnits="userSpaceOnUse">
<stop offset="0.0919165" stop-color="#6CC04A"/>
<stop offset="0.2864" stop-color="#66B848"/>
<stop offset="0.5968" stop-color="#54A044"/>
<stop offset="0.8624" stop-color="#41873F"/>
</linearGradient>
<linearGradient id="paint5_linear_59_477" x1="172.702" y1="314.752" x2="285.445" y2="314.752" gradientUnits="userSpaceOnUse">
<stop offset="0.0919165" stop-color="#6CC04A"/>
<stop offset="0.2864" stop-color="#66B848"/>
<stop offset="0.5968" stop-color="#54A044"/>
<stop offset="0.8624" stop-color="#41873F"/>
</linearGradient>
<linearGradient id="paint6_linear_59_477" x1="161.082" y1="181.303" x2="150.452" y2="324.372" gradientUnits="userSpaceOnUse">
<stop stop-color="#41873F"/>
<stop offset="0.3288" stop-color="#418B3D"/>
<stop offset="0.6352" stop-color="#419637"/>
<stop offset="0.9319" stop-color="#3FA92D"/>
<stop offset="1" stop-color="#3FAE2A"/>
</linearGradient>
<linearGradient id="paint7_linear_59_477" x1="218.525" y1="176.605" x2="166.662" y2="239.37" gradientUnits="userSpaceOnUse">
<stop stop-color="#41873F"/>
<stop offset="0.3288" stop-color="#418B3D"/>
<stop offset="0.6352" stop-color="#419637"/>
<stop offset="0.9319" stop-color="#3FA92D"/>
<stop offset="1" stop-color="#3FAE2A"/>
</linearGradient>
<linearGradient id="paint8_linear_59_477" x1="250.446" y1="309.82" x2="380.18" y2="257.991" gradientUnits="userSpaceOnUse">
<stop offset="0.1376" stop-color="#41873F"/>
<stop offset="0.4032" stop-color="#54A044"/>
<stop offset="0.7136" stop-color="#66B848"/>
<stop offset="0.9081" stop-color="#6CC04A"/>
</linearGradient>
<linearGradient id="paint9_linear_59_477" x1="172.702" y1="298.71" x2="285.445" y2="298.71" gradientUnits="userSpaceOnUse">
<stop offset="0.0919165" stop-color="#6CC04A"/>
<stop offset="0.2864" stop-color="#66B848"/>
<stop offset="0.5968" stop-color="#54A044"/>
<stop offset="0.8624" stop-color="#41873F"/>
</linearGradient>
<linearGradient id="paint10_linear_59_477" x1="172.702" y1="314.752" x2="285.445" y2="314.752" gradientUnits="userSpaceOnUse">
<stop offset="0.0919165" stop-color="#6CC04A"/>
<stop offset="0.2864" stop-color="#66B848"/>
<stop offset="0.5968" stop-color="#54A044"/>
<stop offset="0.8624" stop-color="#41873F"/>
</linearGradient>
<linearGradient id="paint11_linear_59_477" x1="161.082" y1="181.303" x2="150.452" y2="324.372" gradientUnits="userSpaceOnUse">
<stop stop-color="#41873F"/>
<stop offset="0.3288" stop-color="#418B3D"/>
<stop offset="0.6352" stop-color="#419637"/>
<stop offset="0.9319" stop-color="#3FA92D"/>
<stop offset="1" stop-color="#3FAE2A"/>
</linearGradient>
</defs>
</svg>
