<svg width="584" height="599" viewBox="0 0 584 599" fill="none" xmlns="http://www.w3.org/2000/svg">
<g filter="url(#filter0_d_64_241)">
<mask id="path-1-outside-1_64_241" maskUnits="userSpaceOnUse" x="20" y="20" width="544" height="559" fill="black">
<rect fill="white" x="20" y="20" width="544" height="559"/>
<path fill-rule="evenodd" clip-rule="evenodd" d="M532.406 348.714C529.5 339.911 521.884 333.778 512.035 332.306C507.391 331.613 502.073 331.908 495.78 333.206C484.811 335.469 476.672 336.33 470.733 336.498C493.15 298.647 511.38 255.484 521.874 214.853C538.843 149.155 529.775 119.225 519.179 105.687C491.136 69.8549 450.222 50.6043 400.86 50.0142C374.531 49.6928 351.413 54.8918 339.356 58.6295C328.128 56.6498 316.055 55.5435 303.388 55.3386C279.646 54.9601 258.666 60.1356 240.74 70.7731C230.814 67.4184 214.888 62.6875 196.494 59.6675C153.231 52.565 118.365 58.0999 92.8615 76.1165C61.9791 97.9313 47.662 135.832 50.3102 188.768C51.15 205.576 60.5525 256.711 75.3555 305.208C83.8633 333.082 92.9355 356.23 102.32 374.014C115.628 399.232 129.868 414.083 145.854 419.415C154.816 422.401 171.096 424.491 188.22 410.232C190.39 412.859 193.285 415.471 197.129 417.897C202.008 420.975 207.977 423.49 213.936 424.98C235.416 430.35 255.535 429.007 272.7 421.481C272.805 424.533 272.887 427.45 272.956 429.969C273.071 434.055 273.183 438.06 273.333 441.805C274.349 467.136 276.073 486.831 281.179 500.611C281.459 501.37 281.836 502.525 282.235 503.748C284.781 511.549 289.042 524.605 299.877 534.831C311.1 545.423 324.674 548.672 337.105 548.671C343.34 548.671 349.289 547.854 354.506 546.735C373.106 542.75 394.229 536.677 409.509 514.92C423.955 494.352 430.978 463.373 432.249 414.559C432.413 413.179 432.566 411.861 432.712 410.605C432.811 409.757 432.912 408.891 433.014 408.026L436.418 408.325L437.294 408.384C456.238 409.248 479.401 405.23 493.626 398.622C504.867 393.406 540.887 374.39 532.406 348.714"/>
</mask>
<path fill-rule="evenodd" clip-rule="evenodd" d="M532.406 348.714C529.5 339.911 521.884 333.778 512.035 332.306C507.391 331.613 502.073 331.908 495.78 333.206C484.811 335.469 476.672 336.33 470.733 336.498C493.15 298.647 511.38 255.484 521.874 214.853C538.843 149.155 529.775 119.225 519.179 105.687C491.136 69.8549 450.222 50.6043 400.86 50.0142C374.531 49.6928 351.413 54.8918 339.356 58.6295C328.128 56.6498 316.055 55.5435 303.388 55.3386C279.646 54.9601 258.666 60.1356 240.74 70.7731C230.814 67.4184 214.888 62.6875 196.494 59.6675C153.231 52.565 118.365 58.0999 92.8615 76.1165C61.9791 97.9313 47.662 135.832 50.3102 188.768C51.15 205.576 60.5525 256.711 75.3555 305.208C83.8633 333.082 92.9355 356.23 102.32 374.014C115.628 399.232 129.868 414.083 145.854 419.415C154.816 422.401 171.096 424.491 188.22 410.232C190.39 412.859 193.285 415.471 197.129 417.897C202.008 420.975 207.977 423.49 213.936 424.98C235.416 430.35 255.535 429.007 272.7 421.481C272.805 424.533 272.887 427.45 272.956 429.969C273.071 434.055 273.183 438.06 273.333 441.805C274.349 467.136 276.073 486.831 281.179 500.611C281.459 501.37 281.836 502.525 282.235 503.748C284.781 511.549 289.042 524.605 299.877 534.831C311.1 545.423 324.674 548.672 337.105 548.671C343.34 548.671 349.289 547.854 354.506 546.735C373.106 542.75 394.229 536.677 409.509 514.92C423.955 494.352 430.978 463.373 432.249 414.559C432.413 413.179 432.566 411.861 432.712 410.605C432.811 409.757 432.912 408.891 433.014 408.026L436.418 408.325L437.294 408.384C456.238 409.248 479.401 405.23 493.626 398.622C504.867 393.406 540.887 374.39 532.406 348.714" fill="black"/>
<path d="M512.035 332.306L516.471 302.635L516.464 302.634L512.035 332.306ZM495.78 333.206L489.72 303.824L489.718 303.825L495.78 333.206ZM470.733 336.498L444.921 321.21L417.195 368.024L471.581 366.486L470.733 336.498ZM521.874 214.853L492.827 207.35L492.827 207.35L521.874 214.853ZM519.179 105.687L495.554 124.176L495.554 124.177L519.179 105.687ZM400.86 50.0142L400.494 80.012L400.502 80.0121L400.86 50.0142ZM339.356 58.6295L334.147 88.1738L341.3 89.4351L348.239 87.2843L339.356 58.6295ZM303.388 55.3386L303.873 25.3425L303.866 25.3424L303.388 55.3386ZM240.74 70.7731L231.135 99.1939L244.195 103.608L256.05 96.5725L240.74 70.7731ZM196.494 59.6675L201.354 30.0638L201.354 30.0638L196.494 59.6675ZM92.8615 76.1165L110.17 100.62L110.171 100.619L92.8615 76.1165ZM50.3102 188.768L80.2728 187.271L80.2727 187.269L50.3102 188.768ZM75.3555 305.208L104.049 296.45L104.049 296.45L75.3555 305.208ZM102.32 374.014L75.7877 388.015L75.7879 388.016L102.32 374.014ZM145.854 419.415L136.362 447.874L136.37 447.876L145.854 419.415ZM188.22 410.232L211.349 391.126L192.168 367.906L169.023 387.178L188.22 410.232ZM197.129 417.897L181.121 443.269L181.123 443.27L197.129 417.897ZM213.936 424.98L206.657 454.084L206.66 454.084L213.936 424.98ZM272.7 421.481L302.682 420.447L301.158 376.247L260.654 394.006L272.7 421.481ZM272.956 429.969L242.968 430.795L242.968 430.807L272.956 429.969ZM273.333 441.805L243.357 443.006L243.357 443.009L273.333 441.805ZM281.179 500.611L309.326 490.232L309.318 490.21L309.31 490.187L281.179 500.611ZM282.235 503.748L253.71 513.039L253.713 513.049L253.716 513.058L282.235 503.748ZM299.877 534.831L279.286 556.649L279.287 556.65L299.877 534.831ZM337.105 548.671L337.105 518.671L337.103 518.671L337.105 548.671ZM354.506 546.735L348.221 517.401L348.216 517.402L354.506 546.735ZM409.509 514.92L384.959 497.678L384.959 497.678L409.509 514.92ZM432.249 414.559L402.46 411.004L402.295 412.386L402.259 413.778L432.249 414.559ZM432.712 410.605L462.51 414.084L462.511 414.076L462.512 414.069L432.712 410.605ZM433.014 408.026L435.638 378.141L406.629 375.593L403.22 404.514L433.014 408.026ZM436.418 408.325L433.793 438.21L434.092 438.236L434.391 438.257L436.418 408.325ZM437.294 408.384L435.268 438.316L435.598 438.338L435.929 438.353L437.294 408.384ZM493.626 398.622L480.997 371.41L480.988 371.414L493.626 398.622ZM560.894 339.308C554.117 318.785 536.474 305.626 516.471 302.635L507.599 361.976C507.606 361.977 507.438 361.952 507.141 361.825C506.843 361.697 506.444 361.478 506.006 361.125C505.062 360.364 504.3 359.275 503.919 358.121L560.894 339.308ZM516.464 302.634C507.306 301.268 498.274 302.06 489.72 303.824L501.839 362.588C505.871 361.756 507.477 361.958 507.606 361.977L516.464 302.634ZM489.718 303.825C480.109 305.807 473.742 306.401 469.885 306.51L471.581 366.486C479.602 366.259 489.512 365.131 501.841 362.587L489.718 303.825ZM496.546 351.786C520.304 311.67 539.674 265.9 550.921 222.355L492.827 207.35C483.086 245.067 465.997 285.625 444.921 321.21L496.546 351.786ZM550.921 222.355C568.708 153.49 562.068 111.812 542.804 87.1969L495.554 124.177C497.482 126.639 508.978 144.82 492.827 207.35L550.921 222.355ZM542.804 87.1972C508.629 43.5298 458.795 20.7047 401.219 20.0164L400.502 80.0121C441.649 80.504 473.643 96.1801 495.554 124.176L542.804 87.1972ZM401.226 20.0164C371.089 19.6486 344.805 25.5321 330.473 29.9747L348.239 87.2843C358.022 84.2516 377.972 79.7371 400.494 80.012L401.226 20.0164ZM344.565 29.0853C331.62 26.8028 317.957 25.5703 303.873 25.3425L302.902 85.3347C314.154 85.5167 324.636 86.4968 334.147 88.1738L344.565 29.0853ZM303.866 25.3424C275.354 24.8879 248.759 31.1305 225.431 44.9737L256.05 96.5725C268.574 89.1406 283.937 85.0323 302.91 85.3348L303.866 25.3424ZM250.345 42.3523C239.407 38.6556 221.834 33.4263 201.354 30.0638L191.633 89.2712C207.941 91.9486 222.221 96.1812 231.135 99.1939L250.345 42.3523ZM201.354 30.0638C153.494 22.2065 109.71 27.4829 75.5518 51.614L110.171 100.619C127.019 88.7169 152.968 82.9234 191.634 89.2712L201.354 30.0638ZM75.5529 51.6133C33.1467 81.5682 17.4125 131.595 20.3477 190.267L80.2727 187.269C77.9115 140.07 90.8114 114.294 110.17 100.62L75.5529 51.6133ZM20.3476 190.265C21.363 210.587 31.53 264.39 46.6624 313.966L104.049 296.45C89.575 249.032 80.9371 200.565 80.2728 187.271L20.3476 190.265ZM46.6623 313.966C55.5004 342.922 65.2225 367.994 75.7877 388.015L128.852 360.013C120.648 344.466 112.226 323.242 104.049 296.45L46.6623 313.966ZM75.7879 388.016C90.373 415.653 109.388 438.877 136.362 447.874L155.347 390.956C150.348 389.289 140.883 382.81 128.852 360.012L75.7879 388.016ZM136.37 447.876C152.15 453.135 180.13 456.006 207.416 433.286L169.023 387.178C164.873 390.634 161.928 391.32 160.374 391.508C158.495 391.735 156.737 391.42 155.339 390.954L136.37 447.876ZM165.091 429.338C169.42 434.579 174.767 439.26 181.121 443.269L213.137 392.525C211.802 391.682 211.36 391.139 211.349 391.126L165.091 429.338ZM181.123 443.27C188.866 448.155 197.812 451.872 206.657 454.084L221.215 395.877C218.142 395.108 215.151 393.795 213.134 392.523L181.123 443.27ZM206.66 454.084C233.618 460.824 260.646 459.523 284.746 448.956L260.654 394.006C250.425 398.491 237.214 399.877 221.212 395.876L206.66 454.084ZM242.718 422.515C242.819 425.454 242.899 428.28 242.968 430.795L302.945 429.142C302.876 426.62 302.791 423.612 302.682 420.447L242.718 422.515ZM242.968 430.807C243.081 434.853 243.198 439.046 243.357 443.006L303.309 440.605C303.167 437.074 303.06 433.256 302.945 429.13L242.968 430.807ZM243.357 443.009C244.347 467.671 246.032 492.101 253.048 511.035L309.31 490.187C306.113 481.561 304.352 466.602 303.309 440.602L243.357 443.009ZM253.031 510.99C253.008 510.927 253.056 511.055 253.207 511.508C253.346 511.923 253.507 512.416 253.71 513.039L310.76 494.458C310.433 493.453 309.852 491.658 309.326 490.232L253.031 510.99ZM253.716 513.058C256.211 520.702 262.32 540.636 279.286 556.649L320.468 513.014C315.764 508.573 313.351 502.395 310.754 494.439L253.716 513.058ZM279.287 556.65C297.645 573.974 319.485 578.673 337.108 578.671L337.103 518.671C329.863 518.672 324.556 516.871 320.468 513.013L279.287 556.65ZM337.105 578.671C345.901 578.671 354 577.526 360.796 576.069L348.216 517.402C344.578 518.182 340.779 518.671 337.105 518.671V578.671ZM360.791 576.07C380.824 571.778 411.879 563.743 434.059 532.162L384.959 497.678C376.579 509.61 365.389 513.723 348.221 517.401L360.791 576.07ZM434.059 532.162C453.839 503.998 460.935 465.399 462.239 415.339L402.259 413.778C401.02 461.347 394.07 484.705 384.959 497.678L434.059 532.162ZM462.037 418.113C462.208 416.683 462.369 415.295 462.51 414.084L402.915 407.126C402.763 408.428 402.619 409.675 402.46 411.004L462.037 418.113ZM462.512 414.069C462.611 413.218 462.709 412.375 462.807 411.538L403.22 404.514C403.115 405.406 403.011 406.296 402.913 407.141L462.512 414.069ZM430.389 437.911L433.793 438.21L439.042 378.44L435.638 378.141L430.389 437.911ZM434.391 438.257L435.268 438.316L439.321 378.453L438.444 378.394L434.391 438.257ZM435.929 438.353C458.703 439.391 486.842 434.852 506.264 425.831L480.988 371.414C471.96 375.608 453.773 379.104 438.66 378.416L435.929 438.353ZM506.255 425.835C512.771 422.811 527.945 415.193 540.741 403.403C552.768 392.321 570.835 369.406 560.893 339.305L503.92 358.124C503.783 357.709 503.641 356.957 503.7 356.06C503.726 355.657 503.787 355.325 503.848 355.084C503.907 354.848 503.959 354.73 503.956 354.736C503.843 354.998 502.965 356.623 500.083 359.278C494.179 364.719 485.723 369.217 480.997 371.41L506.255 425.835Z" fill="white" mask="url(#path-1-outside-1_64_241)"/>
</g>
<g clip-path="url(#clip0_64_241)">
<g clip-path="url(#clip1_64_241)">
<path fill-rule="evenodd" clip-rule="evenodd" d="M535.969 348.405C533.063 339.601 525.447 333.468 515.598 331.996C510.954 331.303 505.636 331.598 499.343 332.896C488.374 335.159 480.235 336.02 474.296 336.188C496.713 298.338 514.943 255.174 525.437 214.543C542.406 148.845 533.338 118.916 522.742 105.377C494.699 69.545 453.785 50.2944 404.423 49.7043C378.094 49.383 354.976 54.5819 342.919 58.3196C331.691 56.3399 319.618 55.2336 306.951 55.0287C283.209 54.6502 262.229 59.8257 244.303 70.4632C234.377 67.1085 218.451 62.3776 200.057 59.3576C156.794 52.2551 121.928 57.79 96.4245 75.8067C65.542 97.6215 51.225 135.523 53.8732 188.458C54.713 205.266 64.1155 256.401 78.9185 304.898C87.4263 332.772 96.4984 355.92 105.883 373.704C119.191 398.922 133.431 413.773 149.417 419.105C158.379 422.091 174.659 424.181 191.783 409.922C193.953 412.549 196.848 415.161 200.692 417.587C205.571 420.665 211.54 423.18 217.499 424.67C238.979 430.041 259.098 428.697 276.263 421.171C276.368 424.223 276.45 427.14 276.519 429.659C276.634 433.745 276.746 437.75 276.896 441.496C277.912 466.826 279.636 486.521 284.742 500.301C285.022 501.06 285.399 502.215 285.798 503.439C288.344 511.239 292.605 524.295 303.44 534.521C314.663 545.113 328.237 548.363 340.668 548.361C346.903 548.361 352.852 547.544 358.069 546.425C376.669 542.44 397.792 536.367 413.072 514.61C427.518 494.042 434.541 463.063 435.812 414.249C435.976 412.869 436.129 411.551 436.275 410.295C436.374 409.447 436.475 408.581 436.577 407.716L439.981 408.015L440.857 408.075C459.801 408.938 482.964 404.92 497.189 398.313C508.43 393.096 544.45 374.08 535.969 348.405" fill="black"/>
<path fill-rule="evenodd" clip-rule="evenodd" d="M503.579 353.399C447.254 365.017 443.382 345.947 443.382 345.947C502.852 257.702 527.713 145.689 506.258 118.274C447.73 43.492 346.413 78.859 344.722 79.7772L344.178 79.8746C333.05 77.5646 320.596 76.1885 306.599 75.96C281.113 75.5424 261.781 82.6415 247.111 93.7662C247.111 93.7662 66.3721 19.3089 74.778 187.41C76.5663 223.173 126.035 458.004 185.04 387.074C206.606 361.137 227.444 339.207 227.444 339.207C237.793 346.082 250.183 349.589 263.172 348.33L264.181 347.473C263.868 350.693 264.011 353.843 264.586 357.572C249.385 374.555 253.852 377.537 223.465 383.792C192.718 390.128 210.781 401.41 222.574 404.358C236.871 407.933 269.947 412.998 292.296 381.712L291.405 385.282C297.36 390.052 301.543 416.311 300.842 440.115C300.141 463.919 299.673 480.262 304.366 493.027C309.058 505.792 313.736 534.514 353.681 525.954C387.06 518.801 404.356 500.265 406.763 469.346C408.47 447.364 412.334 450.614 412.579 430.961L415.678 421.657C419.252 391.86 416.246 382.247 436.81 386.718L441.807 387.157C456.943 387.845 476.752 384.722 488.378 379.318C513.414 367.7 528.261 348.302 503.577 353.399H503.579" fill="#336791"/>
<path fill-rule="evenodd" clip-rule="evenodd" d="M257.69 203.404C252.616 202.697 248.018 203.351 245.692 205.111C244.383 206.102 243.979 207.25 243.87 208.04C243.578 210.133 245.045 212.447 245.945 213.64C248.494 217.018 252.218 219.341 255.904 219.853C256.438 219.926 256.969 219.962 257.498 219.962C263.645 219.962 269.233 215.177 269.725 211.644C270.341 207.22 263.918 204.27 257.69 203.404" fill="white"/>
<path fill-rule="evenodd" clip-rule="evenodd" d="M425.842 203.544H425.841C425.357 200.076 419.185 199.087 413.329 199.901C407.481 200.716 401.81 203.355 402.284 206.831C402.664 209.534 407.543 214.149 413.321 214.147C413.808 214.147 414.301 214.115 414.797 214.046C418.653 213.511 421.483 211.063 422.826 209.651C424.874 207.501 426.058 205.102 425.842 203.544" fill="white"/>
<path fill-rule="evenodd" clip-rule="evenodd" d="M522.322 352.078C520.174 345.584 513.262 343.493 501.777 345.866C467.676 352.904 455.465 348.028 451.454 345.076C477.96 304.695 499.765 255.887 511.528 210.346C517.101 188.774 520.179 168.741 520.43 152.413C520.707 134.488 517.656 121.319 511.36 113.273C485.976 80.8388 448.724 63.4413 403.628 62.9632C372.627 62.615 346.434 70.5495 341.356 72.78C330.663 70.1206 319.005 68.488 306.315 68.2797C283.041 67.9035 262.925 73.4753 246.269 84.8318C239.034 82.1399 220.337 75.7215 197.473 72.0387C157.941 65.673 126.529 70.4957 104.112 86.377C77.3633 105.328 65.0148 139.202 67.4077 187.058C68.2128 203.159 77.3857 252.689 91.864 300.124C110.921 362.555 131.635 397.898 153.432 405.168C155.983 406.019 158.925 406.614 162.168 406.614C170.119 406.614 179.867 403.03 190.009 390.837C206.856 370.57 222.585 353.587 228.383 347.416C236.951 352.016 246.363 354.583 255.991 354.841C256.008 355.093 256.034 355.345 256.056 355.596C254.125 357.887 252.54 359.894 251.19 361.609C244.52 370.076 243.131 371.839 221.659 376.26C215.552 377.52 199.328 380.864 199.092 392.235C198.833 404.658 218.266 409.876 220.481 410.429C228.197 412.361 235.63 413.314 242.719 413.314C259.961 413.313 275.132 407.647 287.258 396.683C286.884 440.975 288.732 484.619 294.049 497.917C298.404 508.802 309.045 535.407 342.656 535.405C347.586 535.405 353.016 534.832 358.988 533.552C394.065 526.03 409.296 510.528 415.19 476.349C418.343 458.082 423.755 414.462 426.299 391.065C431.67 392.74 438.586 393.507 446.061 393.506C461.652 393.506 479.642 390.193 490.925 384.956C503.598 379.071 526.47 364.626 522.322 352.078V352.078V352.078ZM438.788 193.971C438.672 200.879 437.721 207.149 436.713 213.695C435.629 220.735 434.507 228.013 434.225 236.849C433.946 245.448 435.02 254.388 436.059 263.032C438.158 280.493 440.311 298.471 431.975 316.21C430.679 313.909 429.428 311.398 428.282 308.618C427.246 306.106 424.996 302.072 421.882 296.488C409.762 274.754 381.381 223.857 395.91 203.088C400.237 196.905 411.219 190.55 438.788 193.971V193.971V193.971ZM405.372 76.951C445.777 77.8435 477.737 92.9589 500.367 121.875C517.723 144.055 498.612 244.977 443.284 332.043C442.738 331.349 442.181 330.648 441.605 329.929C441.376 329.641 441.142 329.349 440.906 329.053C455.203 305.441 452.407 282.08 449.918 261.367C448.896 252.867 447.931 244.838 448.176 237.298C448.43 229.303 449.487 222.449 450.509 215.82C451.766 207.651 453.044 199.199 452.691 189.234C452.954 188.19 453.06 186.955 452.923 185.489C452.022 175.933 441.114 147.338 418.878 121.453C406.717 107.297 388.979 91.4539 364.761 80.7682C375.178 78.6094 389.423 76.5961 405.372 76.951V76.951V76.951ZM179.277 381.913C168.103 395.348 160.386 392.773 157.848 391.928C141.313 386.412 122.128 351.466 105.214 296.049C90.5774 248.098 82.0237 199.881 81.3474 186.36C79.2098 143.599 89.5753 113.797 112.157 97.7827C148.907 71.7207 209.328 87.3198 233.607 95.2319C233.257 95.5757 232.894 95.8982 232.548 96.2475C192.709 136.483 193.654 205.226 193.752 209.428C193.748 211.049 193.884 213.345 194.071 216.502C194.756 228.064 196.031 249.583 192.624 273.953C189.456 296.599 196.437 318.764 211.773 334.765C213.361 336.421 215.018 337.976 216.73 339.44C209.903 346.751 195.067 362.916 179.277 381.913V381.913V381.913ZM221.85 325.107C209.49 312.211 203.876 294.272 206.447 275.886C210.046 250.142 208.717 227.721 208.004 215.676C207.904 213.991 207.816 212.514 207.763 211.348C213.583 206.188 240.555 191.736 259.788 196.143C268.567 198.154 273.914 204.13 276.138 214.412C287.646 267.636 277.662 289.821 269.639 307.647C267.985 311.32 266.423 314.791 265.088 318.383L264.055 321.159C261.437 328.179 259.001 334.705 257.492 340.902C244.353 340.862 231.57 335.25 221.85 325.107V325.107V325.107ZM223.867 396.888C220.031 395.93 216.58 394.265 214.555 392.884C216.246 392.088 219.256 391.006 224.475 389.931C249.735 384.73 253.635 381.061 262.154 370.244C264.108 367.765 266.322 364.953 269.388 361.529C269.389 361.527 269.39 361.526 269.391 361.525C273.959 356.412 276.047 357.279 279.835 358.85C282.906 360.12 285.895 363.968 287.108 368.203C287.681 370.203 288.326 374 286.218 376.952C268.422 401.869 242.491 401.549 223.867 396.888V396.888V396.888ZM356.062 519.904C325.16 526.525 314.219 510.758 307.009 492.734C302.355 481.096 300.069 428.622 301.691 370.674C301.713 369.903 301.603 369.158 301.39 368.458C301.205 367.107 300.921 365.739 300.527 364.363C298.113 355.931 292.233 348.878 285.179 345.955C282.376 344.793 277.231 342.663 271.049 344.244C272.368 338.812 274.654 332.679 277.132 326.037L278.172 323.242C279.344 320.092 280.812 316.829 282.366 313.376C290.762 294.723 302.26 269.176 289.781 211.461C285.106 189.845 269.497 179.289 245.833 181.74C231.646 183.208 218.668 188.932 212.195 192.214C210.803 192.919 209.53 193.6 208.341 194.264C210.147 172.483 216.974 131.779 242.509 106.026C258.585 89.8124 279.996 81.8051 306.084 82.2362C357.486 83.0783 390.448 109.457 409.05 131.439C425.079 150.381 433.759 169.462 437.224 179.752C411.173 177.104 393.455 182.247 384.473 195.087C364.933 223.018 395.163 277.232 409.692 303.286C412.356 308.061 414.656 312.188 415.379 313.941C420.11 325.407 426.235 333.062 430.707 338.651C432.078 340.363 433.408 342.023 434.419 343.473C426.529 345.749 412.357 351.004 413.648 377.274C412.606 390.457 405.198 452.172 401.436 473.977C396.469 502.783 385.868 513.514 356.062 519.904V519.904V519.904ZM485.047 372.297C476.979 376.042 463.477 378.851 450.651 379.454C436.484 380.118 429.273 377.867 427.576 376.483C426.779 360.113 432.874 358.402 439.322 356.591C440.336 356.305 441.324 356.029 442.278 355.695C442.872 356.178 443.521 356.657 444.232 357.126C455.619 364.642 475.929 365.453 504.6 359.535C504.705 359.512 504.81 359.492 504.915 359.471C501.048 363.087 494.43 367.94 485.047 372.297V372.297V372.297Z" fill="white"/>
</g>
</g>
<defs>
<filter id="filter0_d_64_241" x="0.00537109" y="0" width="583.764" height="598.671" filterUnits="userSpaceOnUse" color-interpolation-filters="sRGB">
<feFlood flood-opacity="0" result="BackgroundImageFix"/>
<feColorMatrix in="SourceAlpha" type="matrix" values="0 0 0 0 0 0 0 0 0 0 0 0 0 0 0 0 0 0 127 0" result="hardAlpha"/>
<feOffset/>
<feGaussianBlur stdDeviation="10"/>
<feComposite in2="hardAlpha" operator="out"/>
<feColorMatrix type="matrix" values="0 0 0 0 0 0 0 0 0 0 0 0 0 0 0 0 0 0 0.1 0"/>
<feBlend mode="normal" in2="BackgroundImageFix" result="effect1_dropShadow_64_241"/>
<feBlend mode="normal" in="SourceGraphic" in2="effect1_dropShadow_64_241" result="shape"/>
</filter>
<clipPath id="clip0_64_241">
<rect width="485" height="500" fill="white" transform="translate(53 49)"/>
</clipPath>
<clipPath id="clip1_64_241">
<rect width="484.848" height="500" fill="white" transform="translate(53 49)"/>
</clipPath>
</defs>
</svg>
