<svg width="518" height="518" viewBox="0 0 518 518" fill="none" xmlns="http://www.w3.org/2000/svg">
<g clip-path="url(#clip0_59_237)">
<g clip-path="url(#clip1_59_237)">
<path fill-rule="evenodd" clip-rule="evenodd" d="M502.969 308.405C500.063 299.601 492.447 293.468 482.598 291.996C477.954 291.303 472.636 291.598 466.343 292.896C455.374 295.159 447.235 296.02 441.296 296.188C463.713 258.337 481.943 215.174 492.437 174.543C509.406 108.845 500.338 78.9156 489.742 65.3767C461.699 29.545 420.785 10.2944 371.423 9.70427C345.094 9.38291 321.976 14.5819 309.919 18.3196C298.691 16.3399 286.618 15.2336 273.951 15.0286C250.209 14.6502 229.229 19.8256 211.303 30.4632C201.377 27.1084 185.451 22.3775 167.057 19.3576C123.794 12.255 88.9278 17.7899 63.4245 35.8066C32.542 57.6214 18.225 95.5225 20.8732 148.458C21.713 165.266 31.1155 216.401 45.9185 264.898C54.4263 292.772 63.4984 315.92 72.883 333.704C86.1911 358.922 100.431 373.773 116.417 379.105C125.379 382.091 141.659 384.181 158.783 369.922C160.953 372.549 163.848 375.161 167.692 377.587C172.571 380.665 178.54 383.18 184.499 384.67C205.979 390.04 226.098 388.697 243.263 381.171C243.368 384.223 243.45 387.14 243.519 389.659C243.634 393.745 243.746 397.75 243.896 401.495C244.912 426.826 246.636 446.521 251.742 460.301C252.022 461.06 252.399 462.215 252.798 463.438C255.344 471.239 259.605 484.295 270.44 494.521C281.663 505.113 295.237 508.363 307.668 508.361C313.903 508.361 319.852 507.544 325.069 506.425C343.669 502.44 364.792 496.367 380.072 474.61C394.518 454.042 401.541 423.063 402.812 374.249C402.976 372.869 403.129 371.551 403.275 370.295C403.374 369.447 403.475 368.581 403.577 367.716L406.981 368.015L407.857 368.074C426.801 368.938 449.964 364.92 464.189 358.313C475.43 353.096 511.45 334.08 502.969 308.405" fill="black"/>
<path fill-rule="evenodd" clip-rule="evenodd" d="M470.579 313.399C414.254 325.017 410.382 305.947 410.382 305.947C469.852 217.702 494.713 105.689 473.258 78.274C414.73 3.49197 313.413 38.859 311.722 39.7772L311.178 39.8746C300.05 37.5646 287.596 36.1885 273.599 35.96C248.113 35.5424 228.781 42.6415 214.111 53.7662C214.111 53.7662 33.3721 -20.6911 41.778 147.41C43.5663 183.173 93.0354 418.004 152.04 347.074C173.606 321.137 194.444 299.207 194.444 299.207C204.793 306.082 217.183 309.589 230.172 308.33L231.181 307.473C230.868 310.693 231.011 313.843 231.586 317.572C216.385 334.555 220.852 337.537 190.465 343.792C159.718 350.128 177.781 361.41 189.574 364.358C203.871 367.933 236.947 372.998 259.296 341.712L258.405 345.282C264.36 350.052 268.543 376.311 267.842 400.115C267.141 423.919 266.673 440.262 271.366 453.027C276.058 465.792 280.736 494.514 320.681 485.954C354.06 478.801 371.356 460.265 373.763 429.346C375.47 407.364 379.334 410.614 379.579 390.961L382.678 381.657C386.252 351.86 383.246 342.247 403.81 346.718L408.807 347.157C423.943 347.845 443.752 344.722 455.378 339.318C480.414 327.7 495.261 308.302 470.577 313.399H470.579" fill="#336791"/>
<path fill-rule="evenodd" clip-rule="evenodd" d="M224.69 163.403C219.616 162.697 215.018 163.351 212.692 165.111C211.383 166.102 210.979 167.25 210.87 168.04C210.578 170.133 212.045 172.447 212.945 173.64C215.494 177.018 219.218 179.341 222.904 179.853C223.438 179.926 223.969 179.962 224.498 179.962C230.645 179.962 236.233 175.176 236.725 171.644C237.341 167.22 230.918 164.27 224.69 163.403" fill="white"/>
<path fill-rule="evenodd" clip-rule="evenodd" d="M392.842 163.543H392.841C392.357 160.076 386.185 159.087 380.329 159.901C374.481 160.716 368.81 163.355 369.284 166.831C369.664 169.534 374.543 174.149 380.321 174.147C380.808 174.147 381.301 174.115 381.797 174.046C385.653 173.511 388.483 171.063 389.826 169.651C391.874 167.501 393.058 165.102 392.842 163.543" fill="white"/>
<path fill-rule="evenodd" clip-rule="evenodd" d="M489.322 312.078C487.174 305.584 480.262 303.493 468.777 305.866C434.676 312.904 422.465 308.028 418.454 305.076C444.96 264.695 466.765 215.887 478.528 170.346C484.101 148.774 487.179 128.741 487.43 112.413C487.707 94.4878 484.656 81.3185 478.36 73.2732C452.976 40.8387 415.724 23.4413 370.628 22.9631C339.627 22.6149 313.434 30.5494 308.356 32.7799C297.663 30.1205 286.005 28.488 273.315 28.2797C250.041 27.9034 229.925 33.4753 213.269 44.8317C206.034 42.1398 187.337 35.7215 164.473 32.0387C124.941 25.6729 93.529 30.4956 71.1118 46.377C44.3633 65.3275 32.0148 99.2019 34.4077 147.057C35.2128 163.159 44.3857 212.689 58.864 260.123C77.9209 322.555 98.635 357.898 120.432 365.168C122.983 366.019 125.925 366.614 129.168 366.614C137.119 366.614 146.867 363.03 157.009 350.837C173.856 330.57 189.585 313.587 195.383 307.416C203.951 312.016 213.363 314.583 222.991 314.841C223.008 315.093 223.034 315.345 223.056 315.596C221.125 317.887 219.54 319.894 218.19 321.609C211.52 330.076 210.131 331.839 188.659 336.26C182.552 337.52 166.328 340.864 166.092 352.235C165.833 364.658 185.266 369.876 187.481 370.429C195.197 372.361 202.63 373.314 209.719 373.314C226.961 373.313 242.132 367.647 254.258 356.683C253.884 400.975 255.732 444.619 261.049 457.917C265.404 468.802 276.045 495.407 309.656 495.405C314.586 495.405 320.016 494.832 325.988 493.552C361.065 486.03 376.296 470.528 382.19 436.349C385.343 418.082 390.755 374.462 393.299 351.064C398.67 352.74 405.586 353.507 413.061 353.506C428.652 353.506 446.642 350.193 457.925 344.956C470.598 339.071 493.47 324.626 489.322 312.078V312.078V312.078ZM405.788 153.971C405.672 160.878 404.721 167.149 403.713 173.695C402.629 180.735 401.507 188.013 401.225 196.849C400.946 205.448 402.02 214.388 403.059 223.032C405.158 240.493 407.311 258.471 398.975 276.21C397.679 273.909 396.428 271.398 395.282 268.618C394.246 266.106 391.996 262.072 388.882 256.488C376.762 234.753 348.381 183.857 362.91 163.088C367.237 156.904 378.219 150.55 405.788 153.971V153.971V153.971ZM372.372 36.951C412.777 37.8434 444.737 52.9588 467.367 81.875C484.723 104.055 465.612 204.977 410.284 292.043C409.738 291.349 409.181 290.648 408.605 289.929C408.376 289.641 408.142 289.349 407.906 289.053C422.203 265.441 419.407 242.08 416.918 221.367C415.896 212.867 414.931 204.838 415.176 197.298C415.43 189.303 416.487 182.449 417.509 175.82C418.766 167.651 420.044 159.199 419.691 149.234C419.954 148.19 420.06 146.954 419.923 145.489C419.022 135.933 408.114 107.338 385.878 81.4529C373.717 67.2971 355.979 51.4539 331.761 40.7682C342.178 38.6093 356.423 36.596 372.372 36.951V36.951V36.951ZM146.277 341.913C135.103 355.347 127.386 352.773 124.848 351.928C108.313 346.412 89.1284 311.466 72.2136 256.049C57.5774 208.098 49.0237 159.881 48.3474 146.36C46.2098 103.599 56.5753 73.7972 79.1571 57.7827C115.907 31.7206 176.328 47.3198 200.607 55.2319C200.257 55.5756 199.894 55.8981 199.548 56.2475C159.709 96.4832 160.654 165.226 160.752 169.428C160.748 171.049 160.884 173.345 161.071 176.502C161.756 188.064 163.031 209.583 159.624 233.953C156.456 256.599 163.437 278.764 178.773 294.765C180.361 296.421 182.018 297.976 183.73 299.44C176.903 306.751 162.067 322.916 146.277 341.913V341.913V341.913ZM188.85 285.107C176.49 272.211 170.876 254.272 173.447 235.886C177.046 210.142 175.717 187.721 175.004 175.676C174.904 173.991 174.816 172.514 174.763 171.348C180.583 166.188 207.555 151.736 226.788 156.143C235.567 158.154 240.914 164.13 243.138 174.412C254.646 227.636 244.662 249.821 236.639 267.647C234.985 271.32 233.423 274.791 232.088 278.383L231.055 281.159C228.437 288.179 226.001 294.704 224.492 300.902C211.353 300.862 198.57 295.25 188.85 285.107V285.107V285.107ZM190.867 356.888C187.031 355.93 183.58 354.265 181.555 352.884C183.246 352.088 186.256 351.006 191.475 349.931C216.735 344.73 220.635 341.061 229.154 330.244C231.108 327.765 233.322 324.953 236.388 321.529C236.389 321.527 236.39 321.526 236.391 321.525C240.959 316.412 243.047 317.278 246.835 318.849C249.906 320.12 252.895 323.968 254.108 328.203C254.681 330.203 255.326 334 253.218 336.952C235.422 361.869 209.491 361.549 190.867 356.888V356.888V356.888ZM323.062 479.904C292.16 486.525 281.219 470.758 274.009 452.734C269.355 441.096 267.069 388.622 268.691 330.674C268.713 329.902 268.603 329.158 268.39 328.458C268.205 327.106 267.921 325.739 267.527 324.363C265.113 315.931 259.233 308.878 252.179 305.955C249.376 304.793 244.231 302.662 238.049 304.244C239.368 298.812 241.654 292.679 244.132 286.037L245.172 283.242C246.344 280.092 247.812 276.829 249.366 273.376C257.762 254.723 269.26 229.176 256.781 171.461C252.106 149.845 236.497 139.289 212.833 141.74C198.646 143.208 185.668 148.932 179.195 152.214C177.803 152.919 176.53 153.6 175.341 154.264C177.147 132.483 183.974 91.7792 209.509 66.0262C225.585 49.8123 246.996 41.805 273.084 42.2361C324.486 43.0782 357.448 69.4571 376.05 91.4387C392.079 110.381 400.759 129.462 404.224 139.752C378.173 137.104 360.455 142.247 351.473 155.087C331.933 183.018 362.163 237.231 376.692 263.286C379.356 268.061 381.656 272.188 382.379 273.941C387.11 285.407 393.235 293.062 397.707 298.65C399.078 300.363 400.408 302.023 401.419 303.473C393.529 305.749 379.357 311.003 380.648 337.274C379.606 350.456 372.198 412.172 368.436 433.977C363.469 462.783 352.868 473.514 323.062 479.904V479.904V479.904ZM452.047 332.296C443.979 336.042 430.477 338.851 417.651 339.454C403.484 340.118 396.273 337.867 394.576 336.483C393.779 320.113 399.874 318.402 406.322 316.591C407.336 316.305 408.324 316.029 409.278 315.695C409.872 316.178 410.521 316.657 411.232 317.126C422.619 324.642 442.929 325.453 471.6 319.535C471.705 319.512 471.81 319.492 471.915 319.471C468.048 323.087 461.43 327.94 452.047 332.296V332.296V332.296Z" fill="white"/>
</g>
</g>
<defs>
<clipPath id="clip0_59_237">
<rect width="485" height="500" fill="white" transform="translate(20 9)"/>
</clipPath>
<clipPath id="clip1_59_237">
<rect width="484.848" height="500" fill="white" transform="translate(20 9)"/>
</clipPath>
</defs>
</svg>
