<svg width="592" height="536" viewBox="0 0 592 536" fill="none" xmlns="http://www.w3.org/2000/svg">
<g filter="url(#filter0_d_59_13)">
<mask id="path-1-outside-1_59_13" maskUnits="userSpaceOnUse" x="10" y="10" width="572" height="516" fill="black">
<rect fill="white" x="10" y="10" width="572" height="516"/>
<path d="M460.967 187.647C455.655 185.819 450.152 184.089 444.485 182.453C445.416 178.652 446.271 174.9 447.031 171.212C459.508 110.65 451.35 61.8605 423.495 45.797C396.785 30.3942 353.103 46.4541 308.986 84.8476C304.744 88.5394 300.489 92.4482 296.237 96.5448C293.404 93.8344 290.575 91.2152 287.753 88.7099C241.517 47.6571 195.173 30.3568 167.345 46.4668C140.661 61.9143 132.758 107.781 143.989 165.176C145.074 170.72 146.341 176.381 147.775 182.137C141.216 183.999 134.884 185.984 128.825 188.096C74.6187 206.994 40 236.613 40 267.336C40 299.067 77.1632 330.893 133.623 350.191C138.079 351.714 142.702 353.154 147.467 354.521C145.92 360.746 144.575 366.847 143.446 372.797C132.737 429.196 141.1 473.979 167.713 489.329C195.203 505.181 241.337 488.887 286.26 449.618C289.811 446.514 293.374 443.223 296.944 439.772C301.571 444.228 306.191 448.445 310.786 452.4C354.299 489.845 397.276 504.965 423.865 489.572C451.326 473.675 460.251 425.567 448.664 367.036C447.779 362.566 446.75 357.999 445.593 353.351C448.833 352.393 452.014 351.405 455.115 350.377C513.811 330.929 552 299.49 552 267.336C552 236.502 516.265 206.684 460.967 187.647ZM448.236 329.615C445.436 330.542 442.564 331.438 439.637 332.306C433.157 311.793 424.411 289.979 413.709 267.443C423.922 245.443 432.329 223.908 438.628 203.528C443.865 205.043 448.949 206.642 453.847 208.329C501.227 224.639 530.128 248.754 530.128 267.336C530.128 287.129 498.916 312.823 448.236 329.615ZM427.208 371.284C432.331 397.166 433.063 420.565 429.669 438.858C426.62 455.295 420.487 466.254 412.905 470.643C396.769 479.983 362.264 467.843 325.05 435.82C320.784 432.149 316.487 428.229 312.177 424.081C326.603 408.302 341.022 389.959 355.094 369.588C379.845 367.392 403.23 363.801 424.436 358.899C425.481 363.112 426.408 367.244 427.208 371.284ZM214.552 469.029C198.788 474.597 186.232 474.756 178.642 470.38C162.492 461.065 155.778 425.109 164.936 376.876C165.985 371.352 167.234 365.678 168.673 359.878C189.647 364.516 212.86 367.854 237.671 369.865C251.838 389.799 266.673 408.122 281.622 424.165C278.356 427.319 275.103 430.321 271.867 433.149C252.003 450.513 232.096 462.833 214.552 469.029ZM140.697 329.494C115.732 320.961 95.1141 309.871 80.9817 297.769C68.2829 286.894 61.8716 276.097 61.8716 267.336C61.8716 248.692 89.6669 224.912 136.025 208.75C141.65 206.788 147.538 204.94 153.648 203.204C160.055 224.045 168.46 245.834 178.602 267.868C168.329 290.229 159.805 312.366 153.335 333.451C148.979 332.199 144.758 330.881 140.697 329.494ZM165.454 160.976C155.832 111.801 162.222 74.7051 178.303 65.3965C195.432 55.4801 233.309 69.6188 273.23 105.066C275.782 107.332 278.343 109.703 280.913 112.156C266.037 128.13 251.337 146.315 237.296 166.131C213.216 168.363 190.166 171.948 168.974 176.749C167.641 171.39 166.461 166.124 165.454 160.976ZM386.308 215.51C381.242 206.759 376.041 198.215 370.738 189.905C387.074 191.97 402.726 194.711 417.424 198.066C413.011 212.208 407.511 226.995 401.037 242.153C396.393 233.336 391.481 224.446 386.308 215.51ZM296.244 127.788C306.333 138.718 316.436 150.921 326.374 164.161C316.36 163.688 306.222 163.442 296 163.442C285.875 163.442 275.812 163.682 265.86 164.147C275.807 151.03 285.998 138.843 296.244 127.788ZM205.604 215.661C200.543 224.437 195.722 233.279 191.151 242.137C184.781 227.031 179.332 212.177 174.881 197.834C189.489 194.565 205.067 191.892 221.299 189.866C215.922 198.254 210.678 206.86 205.604 215.66V215.661ZM221.767 346.366C204.996 344.495 189.184 341.959 174.58 338.781C179.102 324.182 184.671 309.01 191.175 293.579C195.758 302.431 200.599 311.277 205.69 320.071H205.691C210.878 329.031 216.251 337.807 221.767 346.366ZM296.849 408.426C286.483 397.241 276.143 384.869 266.044 371.56C275.847 371.945 285.842 372.142 296 372.142C306.436 372.142 316.752 371.906 326.907 371.454C316.937 385.003 306.87 397.394 296.849 408.426ZM401.246 292.793C408.089 308.391 413.858 323.483 418.438 337.833C403.593 341.219 387.565 343.947 370.678 345.974C375.993 337.551 381.24 328.861 386.395 319.921C391.611 310.877 396.563 301.819 401.246 292.793ZM367.449 308.994C359.446 322.871 351.229 336.119 342.887 348.623C327.694 349.71 311.998 350.269 296 350.269C280.067 350.269 264.568 349.774 249.644 348.805C240.966 336.137 232.571 322.85 224.618 309.113H224.62C216.689 295.414 209.389 281.599 202.774 267.861C209.387 254.091 216.668 240.261 224.554 226.586L224.552 226.588C232.459 212.877 240.78 199.655 249.378 187.066C264.605 185.915 280.219 185.314 295.999 185.314H296C311.851 185.314 327.485 185.919 342.708 187.08C351.174 199.578 359.439 212.757 367.377 226.47C375.405 240.337 382.78 254.076 389.449 267.55C382.8 281.256 375.442 295.133 367.449 308.994ZM412.569 64.7458C429.715 74.6331 436.382 114.508 425.61 166.797C424.923 170.134 424.149 173.532 423.309 176.976C402.067 172.075 379.001 168.428 354.851 166.162C340.782 146.128 326.203 127.914 311.57 112.146C315.504 108.361 319.433 104.752 323.345 101.347C361.144 68.4514 396.473 55.4637 412.569 64.7458ZM296 221.616C321.25 221.616 341.72 242.085 341.72 267.336C341.72 292.586 321.25 313.056 296 313.056C270.75 313.056 250.28 292.586 250.28 267.336C250.28 242.085 270.75 221.616 296 221.616Z"/>
</mask>
<path d="M460.967 187.647C455.655 185.819 450.152 184.089 444.485 182.453C445.416 178.652 446.271 174.9 447.031 171.212C459.508 110.65 451.35 61.8605 423.495 45.797C396.785 30.3942 353.103 46.4541 308.986 84.8476C304.744 88.5394 300.489 92.4482 296.237 96.5448C293.404 93.8344 290.575 91.2152 287.753 88.7099C241.517 47.6571 195.173 30.3568 167.345 46.4668C140.661 61.9143 132.758 107.781 143.989 165.176C145.074 170.72 146.341 176.381 147.775 182.137C141.216 183.999 134.884 185.984 128.825 188.096C74.6187 206.994 40 236.613 40 267.336C40 299.067 77.1632 330.893 133.623 350.191C138.079 351.714 142.702 353.154 147.467 354.521C145.92 360.746 144.575 366.847 143.446 372.797C132.737 429.196 141.1 473.979 167.713 489.329C195.203 505.181 241.337 488.887 286.26 449.618C289.811 446.514 293.374 443.223 296.944 439.772C301.571 444.228 306.191 448.445 310.786 452.4C354.299 489.845 397.276 504.965 423.865 489.572C451.326 473.675 460.251 425.567 448.664 367.036C447.779 362.566 446.75 357.999 445.593 353.351C448.833 352.393 452.014 351.405 455.115 350.377C513.811 330.929 552 299.49 552 267.336C552 236.502 516.265 206.684 460.967 187.647ZM448.236 329.615C445.436 330.542 442.564 331.438 439.637 332.306C433.157 311.793 424.411 289.979 413.709 267.443C423.922 245.443 432.329 223.908 438.628 203.528C443.865 205.043 448.949 206.642 453.847 208.329C501.227 224.639 530.128 248.754 530.128 267.336C530.128 287.129 498.916 312.823 448.236 329.615ZM427.208 371.284C432.331 397.166 433.063 420.565 429.669 438.858C426.62 455.295 420.487 466.254 412.905 470.643C396.769 479.983 362.264 467.843 325.05 435.82C320.784 432.149 316.487 428.229 312.177 424.081C326.603 408.302 341.022 389.959 355.094 369.588C379.845 367.392 403.23 363.801 424.436 358.899C425.481 363.112 426.408 367.244 427.208 371.284ZM214.552 469.029C198.788 474.597 186.232 474.756 178.642 470.38C162.492 461.065 155.778 425.109 164.936 376.876C165.985 371.352 167.234 365.678 168.673 359.878C189.647 364.516 212.86 367.854 237.671 369.865C251.838 389.799 266.673 408.122 281.622 424.165C278.356 427.319 275.103 430.321 271.867 433.149C252.003 450.513 232.096 462.833 214.552 469.029ZM140.697 329.494C115.732 320.961 95.1141 309.871 80.9817 297.769C68.2829 286.894 61.8716 276.097 61.8716 267.336C61.8716 248.692 89.6669 224.912 136.025 208.75C141.65 206.788 147.538 204.94 153.648 203.204C160.055 224.045 168.46 245.834 178.602 267.868C168.329 290.229 159.805 312.366 153.335 333.451C148.979 332.199 144.758 330.881 140.697 329.494ZM165.454 160.976C155.832 111.801 162.222 74.7051 178.303 65.3965C195.432 55.4801 233.309 69.6188 273.23 105.066C275.782 107.332 278.343 109.703 280.913 112.156C266.037 128.13 251.337 146.315 237.296 166.131C213.216 168.363 190.166 171.948 168.974 176.749C167.641 171.39 166.461 166.124 165.454 160.976ZM386.308 215.51C381.242 206.759 376.041 198.215 370.738 189.905C387.074 191.97 402.726 194.711 417.424 198.066C413.011 212.208 407.511 226.995 401.037 242.153C396.393 233.336 391.481 224.446 386.308 215.51ZM296.244 127.788C306.333 138.718 316.436 150.921 326.374 164.161C316.36 163.688 306.222 163.442 296 163.442C285.875 163.442 275.812 163.682 265.86 164.147C275.807 151.03 285.998 138.843 296.244 127.788ZM205.604 215.661C200.543 224.437 195.722 233.279 191.151 242.137C184.781 227.031 179.332 212.177 174.881 197.834C189.489 194.565 205.067 191.892 221.299 189.866C215.922 198.254 210.678 206.86 205.604 215.66V215.661ZM221.767 346.366C204.996 344.495 189.184 341.959 174.58 338.781C179.102 324.182 184.671 309.01 191.175 293.579C195.758 302.431 200.599 311.277 205.69 320.071H205.691C210.878 329.031 216.251 337.807 221.767 346.366ZM296.849 408.426C286.483 397.241 276.143 384.869 266.044 371.56C275.847 371.945 285.842 372.142 296 372.142C306.436 372.142 316.752 371.906 326.907 371.454C316.937 385.003 306.87 397.394 296.849 408.426ZM401.246 292.793C408.089 308.391 413.858 323.483 418.438 337.833C403.593 341.219 387.565 343.947 370.678 345.974C375.993 337.551 381.24 328.861 386.395 319.921C391.611 310.877 396.563 301.819 401.246 292.793ZM367.449 308.994C359.446 322.871 351.229 336.119 342.887 348.623C327.694 349.71 311.998 350.269 296 350.269C280.067 350.269 264.568 349.774 249.644 348.805C240.966 336.137 232.571 322.85 224.618 309.113H224.62C216.689 295.414 209.389 281.599 202.774 267.861C209.387 254.091 216.668 240.261 224.554 226.586L224.552 226.588C232.459 212.877 240.78 199.655 249.378 187.066C264.605 185.915 280.219 185.314 295.999 185.314H296C311.851 185.314 327.485 185.919 342.708 187.08C351.174 199.578 359.439 212.757 367.377 226.47C375.405 240.337 382.78 254.076 389.449 267.55C382.8 281.256 375.442 295.133 367.449 308.994ZM412.569 64.7458C429.715 74.6331 436.382 114.508 425.61 166.797C424.923 170.134 424.149 173.532 423.309 176.976C402.067 172.075 379.001 168.428 354.851 166.162C340.782 146.128 326.203 127.914 311.57 112.146C315.504 108.361 319.433 104.752 323.345 101.347C361.144 68.4514 396.473 55.4637 412.569 64.7458ZM296 221.616C321.25 221.616 341.72 242.085 341.72 267.336C341.72 292.586 321.25 313.056 296 313.056C270.75 313.056 250.28 292.586 250.28 267.336C250.28 242.085 270.75 221.616 296 221.616Z" fill="white"/>
<path d="M460.967 187.647C455.655 185.819 450.152 184.089 444.485 182.453C445.416 178.652 446.271 174.9 447.031 171.212C459.508 110.65 451.35 61.8605 423.495 45.797C396.785 30.3942 353.103 46.4541 308.986 84.8476C304.744 88.5394 300.489 92.4482 296.237 96.5448C293.404 93.8344 290.575 91.2152 287.753 88.7099C241.517 47.6571 195.173 30.3568 167.345 46.4668C140.661 61.9143 132.758 107.781 143.989 165.176C145.074 170.72 146.341 176.381 147.775 182.137C141.216 183.999 134.884 185.984 128.825 188.096C74.6187 206.994 40 236.613 40 267.336C40 299.067 77.1632 330.893 133.623 350.191C138.079 351.714 142.702 353.154 147.467 354.521C145.92 360.746 144.575 366.847 143.446 372.797C132.737 429.196 141.1 473.979 167.713 489.329C195.203 505.181 241.337 488.887 286.26 449.618C289.811 446.514 293.374 443.223 296.944 439.772C301.571 444.228 306.191 448.445 310.786 452.4C354.299 489.845 397.276 504.965 423.865 489.572C451.326 473.675 460.251 425.567 448.664 367.036C447.779 362.566 446.75 357.999 445.593 353.351C448.833 352.393 452.014 351.405 455.115 350.377C513.811 330.929 552 299.49 552 267.336C552 236.502 516.265 206.684 460.967 187.647ZM448.236 329.615C445.436 330.542 442.564 331.438 439.637 332.306C433.157 311.793 424.411 289.979 413.709 267.443C423.922 245.443 432.329 223.908 438.628 203.528C443.865 205.043 448.949 206.642 453.847 208.329C501.227 224.639 530.128 248.754 530.128 267.336C530.128 287.129 498.916 312.823 448.236 329.615ZM427.208 371.284C432.331 397.166 433.063 420.565 429.669 438.858C426.62 455.295 420.487 466.254 412.905 470.643C396.769 479.983 362.264 467.843 325.05 435.82C320.784 432.149 316.487 428.229 312.177 424.081C326.603 408.302 341.022 389.959 355.094 369.588C379.845 367.392 403.23 363.801 424.436 358.899C425.481 363.112 426.408 367.244 427.208 371.284ZM214.552 469.029C198.788 474.597 186.232 474.756 178.642 470.38C162.492 461.065 155.778 425.109 164.936 376.876C165.985 371.352 167.234 365.678 168.673 359.878C189.647 364.516 212.86 367.854 237.671 369.865C251.838 389.799 266.673 408.122 281.622 424.165C278.356 427.319 275.103 430.321 271.867 433.149C252.003 450.513 232.096 462.833 214.552 469.029ZM140.697 329.494C115.732 320.961 95.1141 309.871 80.9817 297.769C68.2829 286.894 61.8716 276.097 61.8716 267.336C61.8716 248.692 89.6669 224.912 136.025 208.75C141.65 206.788 147.538 204.94 153.648 203.204C160.055 224.045 168.46 245.834 178.602 267.868C168.329 290.229 159.805 312.366 153.335 333.451C148.979 332.199 144.758 330.881 140.697 329.494ZM165.454 160.976C155.832 111.801 162.222 74.7051 178.303 65.3965C195.432 55.4801 233.309 69.6188 273.23 105.066C275.782 107.332 278.343 109.703 280.913 112.156C266.037 128.13 251.337 146.315 237.296 166.131C213.216 168.363 190.166 171.948 168.974 176.749C167.641 171.39 166.461 166.124 165.454 160.976ZM386.308 215.51C381.242 206.759 376.041 198.215 370.738 189.905C387.074 191.97 402.726 194.711 417.424 198.066C413.011 212.208 407.511 226.995 401.037 242.153C396.393 233.336 391.481 224.446 386.308 215.51ZM296.244 127.788C306.333 138.718 316.436 150.921 326.374 164.161C316.36 163.688 306.222 163.442 296 163.442C285.875 163.442 275.812 163.682 265.86 164.147C275.807 151.03 285.998 138.843 296.244 127.788ZM205.604 215.661C200.543 224.437 195.722 233.279 191.151 242.137C184.781 227.031 179.332 212.177 174.881 197.834C189.489 194.565 205.067 191.892 221.299 189.866C215.922 198.254 210.678 206.86 205.604 215.66V215.661ZM221.767 346.366C204.996 344.495 189.184 341.959 174.58 338.781C179.102 324.182 184.671 309.01 191.175 293.579C195.758 302.431 200.599 311.277 205.69 320.071H205.691C210.878 329.031 216.251 337.807 221.767 346.366ZM296.849 408.426C286.483 397.241 276.143 384.869 266.044 371.56C275.847 371.945 285.842 372.142 296 372.142C306.436 372.142 316.752 371.906 326.907 371.454C316.937 385.003 306.87 397.394 296.849 408.426ZM401.246 292.793C408.089 308.391 413.858 323.483 418.438 337.833C403.593 341.219 387.565 343.947 370.678 345.974C375.993 337.551 381.24 328.861 386.395 319.921C391.611 310.877 396.563 301.819 401.246 292.793ZM367.449 308.994C359.446 322.871 351.229 336.119 342.887 348.623C327.694 349.71 311.998 350.269 296 350.269C280.067 350.269 264.568 349.774 249.644 348.805C240.966 336.137 232.571 322.85 224.618 309.113H224.62C216.689 295.414 209.389 281.599 202.774 267.861C209.387 254.091 216.668 240.261 224.554 226.586L224.552 226.588C232.459 212.877 240.78 199.655 249.378 187.066C264.605 185.915 280.219 185.314 295.999 185.314H296C311.851 185.314 327.485 185.919 342.708 187.08C351.174 199.578 359.439 212.757 367.377 226.47C375.405 240.337 382.78 254.076 389.449 267.55C382.8 281.256 375.442 295.133 367.449 308.994ZM412.569 64.7458C429.715 74.6331 436.382 114.508 425.61 166.797C424.923 170.134 424.149 173.532 423.309 176.976C402.067 172.075 379.001 168.428 354.851 166.162C340.782 146.128 326.203 127.914 311.57 112.146C315.504 108.361 319.433 104.752 323.345 101.347C361.144 68.4514 396.473 55.4637 412.569 64.7458ZM296 221.616C321.25 221.616 341.72 242.085 341.72 267.336C341.72 292.586 321.25 313.056 296 313.056C270.75 313.056 250.28 292.586 250.28 267.336C250.28 242.085 270.75 221.616 296 221.616Z" stroke="white" stroke-width="60" mask="url(#path-1-outside-1_59_13)"/>
</g>
<path d="M460.967 187.647C455.655 185.819 450.152 184.089 444.485 182.453C445.416 178.652 446.271 174.9 447.031 171.212C459.508 110.65 451.35 61.8605 423.495 45.797C396.785 30.3942 353.103 46.4541 308.986 84.8476C304.744 88.5394 300.489 92.4482 296.237 96.5448C293.404 93.8344 290.575 91.2152 287.753 88.7099C241.517 47.6571 195.173 30.3568 167.345 46.4668C140.661 61.9143 132.758 107.781 143.989 165.176C145.074 170.72 146.341 176.381 147.775 182.137C141.216 183.999 134.884 185.984 128.825 188.096C74.6187 206.994 40 236.613 40 267.336C40 299.067 77.1632 330.893 133.623 350.191C138.079 351.714 142.702 353.154 147.467 354.521C145.92 360.746 144.575 366.847 143.446 372.797C132.737 429.196 141.1 473.979 167.713 489.329C195.203 505.181 241.337 488.887 286.26 449.618C289.811 446.514 293.374 443.223 296.944 439.772C301.571 444.228 306.191 448.445 310.786 452.4C354.299 489.845 397.276 504.965 423.865 489.572C451.326 473.675 460.251 425.567 448.664 367.036C447.779 362.566 446.75 357.999 445.593 353.351C448.833 352.393 452.014 351.405 455.115 350.377C513.811 330.929 552 299.49 552 267.336C552 236.502 516.265 206.684 460.967 187.647ZM448.236 329.615C445.436 330.542 442.564 331.438 439.637 332.306C433.157 311.793 424.411 289.979 413.709 267.443C423.922 245.443 432.329 223.908 438.628 203.528C443.865 205.043 448.949 206.642 453.847 208.329C501.227 224.639 530.128 248.754 530.128 267.336C530.128 287.129 498.916 312.823 448.236 329.615ZM427.208 371.284C432.331 397.166 433.063 420.565 429.669 438.858C426.62 455.295 420.487 466.254 412.905 470.643C396.769 479.983 362.264 467.843 325.05 435.82C320.784 432.149 316.487 428.229 312.177 424.081C326.603 408.302 341.022 389.959 355.094 369.588C379.845 367.392 403.23 363.801 424.436 358.899C425.481 363.112 426.408 367.244 427.208 371.284ZM214.552 469.029C198.788 474.597 186.232 474.756 178.642 470.38C162.492 461.065 155.778 425.109 164.936 376.876C165.985 371.352 167.234 365.678 168.673 359.878C189.647 364.516 212.86 367.854 237.671 369.865C251.838 389.799 266.673 408.122 281.622 424.165C278.356 427.319 275.103 430.321 271.867 433.149C252.003 450.513 232.096 462.833 214.552 469.029ZM140.697 329.494C115.732 320.961 95.1141 309.871 80.9817 297.769C68.2829 286.894 61.8716 276.097 61.8716 267.336C61.8716 248.692 89.6669 224.912 136.025 208.75C141.65 206.788 147.538 204.94 153.648 203.204C160.055 224.045 168.46 245.834 178.602 267.868C168.329 290.229 159.805 312.366 153.335 333.451C148.979 332.199 144.758 330.881 140.697 329.494ZM165.454 160.976C155.832 111.801 162.222 74.7051 178.303 65.3965C195.432 55.4801 233.309 69.6188 273.23 105.066C275.782 107.332 278.343 109.703 280.913 112.156C266.037 128.13 251.337 146.315 237.296 166.131C213.216 168.363 190.166 171.948 168.974 176.749C167.641 171.39 166.461 166.124 165.454 160.976ZM386.308 215.51C381.242 206.759 376.041 198.215 370.738 189.905C387.074 191.97 402.726 194.711 417.424 198.066C413.011 212.208 407.511 226.995 401.037 242.153C396.393 233.336 391.481 224.446 386.308 215.51ZM296.244 127.788C306.333 138.718 316.436 150.921 326.374 164.161C316.36 163.688 306.222 163.442 296 163.442C285.875 163.442 275.812 163.682 265.86 164.147C275.807 151.03 285.998 138.843 296.244 127.788ZM205.604 215.661C200.543 224.437 195.722 233.279 191.151 242.137C184.781 227.031 179.332 212.177 174.881 197.834C189.489 194.565 205.067 191.892 221.299 189.866C215.922 198.254 210.678 206.86 205.604 215.66V215.661ZM221.767 346.366C204.996 344.495 189.184 341.959 174.58 338.781C179.102 324.182 184.671 309.01 191.175 293.579C195.758 302.431 200.599 311.277 205.69 320.071H205.691C210.878 329.031 216.251 337.807 221.767 346.366ZM296.849 408.426C286.483 397.241 276.143 384.869 266.044 371.56C275.847 371.945 285.842 372.142 296 372.142C306.436 372.142 316.752 371.906 326.907 371.454C316.937 385.003 306.87 397.394 296.849 408.426ZM401.246 292.793C408.089 308.391 413.858 323.483 418.438 337.833C403.593 341.219 387.565 343.947 370.678 345.974C375.993 337.551 381.24 328.861 386.395 319.921C391.611 310.877 396.563 301.819 401.246 292.793ZM367.449 308.994C359.446 322.871 351.229 336.119 342.887 348.623C327.694 349.71 311.998 350.269 296 350.269C280.067 350.269 264.568 349.774 249.644 348.805C240.966 336.137 232.571 322.85 224.618 309.113H224.62C216.689 295.414 209.389 281.599 202.774 267.861C209.387 254.091 216.668 240.261 224.554 226.586L224.552 226.588C232.459 212.877 240.78 199.655 249.378 187.066C264.605 185.915 280.219 185.314 295.999 185.314H296C311.851 185.314 327.485 185.919 342.708 187.08C351.174 199.578 359.439 212.757 367.377 226.47C375.405 240.337 382.78 254.076 389.449 267.55C382.8 281.256 375.442 295.133 367.449 308.994ZM412.569 64.7458C429.715 74.6331 436.382 114.508 425.61 166.797C424.923 170.134 424.149 173.532 423.309 176.976C402.067 172.075 379.001 168.428 354.851 166.162C340.782 146.128 326.203 127.914 311.57 112.146C315.504 108.361 319.433 104.752 323.345 101.347C361.144 68.4514 396.473 55.4637 412.569 64.7458ZM296 221.616C321.25 221.616 341.72 242.085 341.72 267.336C341.72 292.586 321.25 313.056 296 313.056C270.75 313.056 250.28 292.586 250.28 267.336C250.28 242.085 270.75 221.616 296 221.616Z" fill="#00D8FF"/>
<defs>
<filter id="filter0_d_59_13" x="0" y="0.000823975" width="592" height="535.531" filterUnits="userSpaceOnUse" color-interpolation-filters="sRGB">
<feFlood flood-opacity="0" result="BackgroundImageFix"/>
<feColorMatrix in="SourceAlpha" type="matrix" values="0 0 0 0 0 0 0 0 0 0 0 0 0 0 0 0 0 0 127 0" result="hardAlpha"/>
<feOffset/>
<feGaussianBlur stdDeviation="5"/>
<feComposite in2="hardAlpha" operator="out"/>
<feColorMatrix type="matrix" values="0 0 0 0 0 0 0 0 0 0 0 0 0 0 0 0 0 0 0.1 0"/>
<feBlend mode="normal" in2="BackgroundImageFix" result="effect1_dropShadow_59_13"/>
<feBlend mode="normal" in="SourceGraphic" in2="effect1_dropShadow_59_13" result="shape"/>
</filter>
</defs>
</svg>
