<svg width="633" height="634" viewBox="0 0 633 634" fill="none" xmlns="http://www.w3.org/2000/svg">
<g filter="url(#filter0_d_60_125)">
<mask id="path-1-outside-1_60_125" maskUnits="userSpaceOnUse" x="20.0005" y="20.0012" width="594" height="594" fill="black">
<rect fill="white" x="20.0005" y="20.0012" width="594" height="594"/>
<path fill-rule="evenodd" clip-rule="evenodd" d="M196.802 111.391C196.781 83.0343 219.731 60.0222 248.089 60.0012C276.468 60.0431 299.44 83.0552 299.419 111.412V162.78H248.11C219.752 162.759 196.781 139.747 196.802 111.391ZM111.309 197.068H248.089C276.447 197.089 299.419 220.101 299.398 248.478C299.419 276.835 276.447 299.847 248.089 299.868H111.288C82.93 299.826 59.9586 276.814 60.0005 248.457C59.9796 220.101 82.951 197.089 111.309 197.068ZM521.692 197.068C550.05 197.089 573.021 220.101 573 248.457C573.021 276.835 550.05 299.847 521.692 299.868H470.383V248.457C470.362 220.101 493.334 197.089 521.692 197.068ZM436.199 111.391V248.457C436.22 276.835 413.248 299.847 384.89 299.868C356.533 299.826 333.561 276.814 333.603 248.457V111.391C333.582 83.0343 356.553 60.0222 384.911 60.0012C413.269 60.0431 436.22 83.0552 436.199 111.391ZM384.891 574.001C413.249 573.98 436.22 550.968 436.199 522.612C436.22 494.255 413.249 471.243 384.891 471.222H333.583V522.612C333.562 550.947 356.533 573.959 384.891 574.001ZM384.891 436.914H521.692C550.05 436.893 573.022 413.881 573.001 385.524C573.042 357.168 550.071 334.156 521.713 334.114H384.912C356.554 334.135 333.583 357.147 333.603 385.503C333.583 413.881 356.533 436.893 384.891 436.914ZM111.309 436.914C82.9509 436.893 59.9795 413.881 60.0005 385.524C59.9795 357.168 82.9509 334.156 111.309 334.135H162.617V385.524C162.638 413.881 139.667 436.893 111.309 436.914ZM196.802 522.591V385.524C196.781 357.168 219.731 334.156 248.11 334.156C276.468 334.198 299.439 357.21 299.398 385.566V522.612C299.419 550.968 276.447 573.98 248.089 574.001C219.731 573.959 196.76 550.947 196.802 522.591Z"/>
</mask>
<path fill-rule="evenodd" clip-rule="evenodd" d="M196.802 111.391C196.781 83.0343 219.731 60.0222 248.089 60.0012C276.468 60.0431 299.44 83.0552 299.419 111.412V162.78H248.11C219.752 162.759 196.781 139.747 196.802 111.391ZM111.309 197.068H248.089C276.447 197.089 299.419 220.101 299.398 248.478C299.419 276.835 276.447 299.847 248.089 299.868H111.288C82.93 299.826 59.9586 276.814 60.0005 248.457C59.9796 220.101 82.951 197.089 111.309 197.068ZM521.692 197.068C550.05 197.089 573.021 220.101 573 248.457C573.021 276.835 550.05 299.847 521.692 299.868H470.383V248.457C470.362 220.101 493.334 197.089 521.692 197.068ZM436.199 111.391V248.457C436.22 276.835 413.248 299.847 384.89 299.868C356.533 299.826 333.561 276.814 333.603 248.457V111.391C333.582 83.0343 356.553 60.0222 384.911 60.0012C413.269 60.0431 436.22 83.0552 436.199 111.391ZM384.891 574.001C413.249 573.98 436.22 550.968 436.199 522.612C436.22 494.255 413.249 471.243 384.891 471.222H333.583V522.612C333.562 550.947 356.533 573.959 384.891 574.001ZM384.891 436.914H521.692C550.05 436.893 573.022 413.881 573.001 385.524C573.042 357.168 550.071 334.156 521.713 334.114H384.912C356.554 334.135 333.583 357.147 333.603 385.503C333.583 413.881 356.533 436.893 384.891 436.914ZM111.309 436.914C82.9509 436.893 59.9795 413.881 60.0005 385.524C59.9795 357.168 82.9509 334.156 111.309 334.135H162.617V385.524C162.638 413.881 139.667 436.893 111.309 436.914ZM196.802 522.591V385.524C196.781 357.168 219.731 334.156 248.11 334.156C276.468 334.198 299.439 357.21 299.398 385.566V522.612C299.419 550.968 276.447 573.98 248.089 574.001C219.731 573.959 196.76 550.947 196.802 522.591Z" fill="#E01E5A"/>
<path d="M248.089 60.0012L248.148 20.0013L248.104 20.0012L248.06 20.0012L248.089 60.0012ZM196.802 111.391L236.802 111.42L236.802 111.391L236.802 111.361L196.802 111.391ZM299.419 111.412L259.419 111.382L259.419 111.397V111.412H299.419ZM299.419 162.78V202.78H339.419V162.78H299.419ZM248.11 162.78L248.081 202.78L248.095 202.78H248.11V162.78ZM248.089 197.068L248.119 157.068L248.104 157.068H248.089V197.068ZM111.309 197.068V157.068H111.294L111.279 157.068L111.309 197.068ZM299.398 248.478L259.398 248.449L259.398 248.478L259.398 248.508L299.398 248.478ZM248.089 299.868V339.868H248.104L248.119 339.868L248.089 299.868ZM111.288 299.868L111.229 339.868L111.258 339.868H111.288V299.868ZM60.0005 248.457L100.001 248.516L100.001 248.472L100.001 248.428L60.0005 248.457ZM573 248.457L533 248.428L533 248.457L533 248.487L573 248.457ZM521.692 197.068L521.721 157.068L521.692 157.068L521.662 157.068L521.692 197.068ZM521.692 299.868V339.868H521.707L521.721 339.868L521.692 299.868ZM470.383 299.868H430.383V339.868H470.383V299.868ZM470.383 248.457H510.383V248.443L510.383 248.428L470.383 248.457ZM436.199 248.457H396.199V248.472L396.199 248.487L436.199 248.457ZM436.199 111.391L396.199 111.361L396.199 111.376V111.391H436.199ZM384.89 299.868L384.831 339.868L384.876 339.868L384.92 339.868L384.89 299.868ZM333.603 248.457L373.603 248.516L373.603 248.487V248.457H333.603ZM333.603 111.391H373.603V111.376L373.603 111.361L333.603 111.391ZM384.911 60.0012L384.971 20.0013L384.926 20.0012L384.882 20.0012L384.911 60.0012ZM436.199 522.612L396.199 522.582L396.199 522.612L396.199 522.641L436.199 522.612ZM384.891 574.001L384.832 614.001L384.876 614.001L384.92 614.001L384.891 574.001ZM384.891 471.222L384.92 431.222L384.906 431.222H384.891V471.222ZM333.583 471.222V431.222H293.583V471.222H333.583ZM333.583 522.612L373.583 522.641L373.583 522.627V522.612H333.583ZM521.692 436.914V476.914H521.707L521.722 476.914L521.692 436.914ZM384.891 436.914L384.861 476.914L384.876 476.914H384.891V436.914ZM573.001 385.524L533.001 385.465L533.001 385.509L533.001 385.554L573.001 385.524ZM521.713 334.114L521.772 294.114L521.743 294.114H521.713V334.114ZM384.912 334.114V294.114H384.897L384.882 294.114L384.912 334.114ZM333.603 385.503L373.603 385.533L373.603 385.503L373.603 385.474L333.603 385.503ZM60.0005 385.524L100 385.554L100.001 385.524L100 385.495L60.0005 385.524ZM111.309 436.914L111.279 476.914L111.309 476.914L111.338 476.914L111.309 436.914ZM111.309 334.135V294.135H111.294L111.279 294.135L111.309 334.135ZM162.617 334.135H202.617V294.135H162.617V334.135ZM162.617 385.524H122.617V385.539L122.617 385.554L162.617 385.524ZM196.802 385.524H236.802V385.509L236.802 385.495L196.802 385.524ZM196.802 522.591L236.802 522.65L236.802 522.62V522.591H196.802ZM248.11 334.156L248.169 294.156L248.14 294.156H248.11V334.156ZM299.398 385.566L259.398 385.507L259.398 385.537V385.566H299.398ZM299.398 522.612H259.398V522.627L259.398 522.641L299.398 522.612ZM248.089 574.001L248.03 614.001L248.074 614.001L248.119 614.001L248.089 574.001ZM248.06 20.0012C197.583 20.0385 156.765 60.9998 156.802 111.42L236.802 111.361C236.797 105.069 241.88 100.006 248.119 100.001L248.06 20.0012ZM339.419 111.441C339.456 60.9832 298.585 20.0758 248.148 20.0013L248.03 100.001C254.351 100.011 259.423 105.127 259.419 111.382L339.419 111.441ZM339.419 162.78V111.412H259.419V162.78H339.419ZM248.11 202.78H299.419V122.78H248.11V202.78ZM156.802 111.361C156.765 161.803 197.625 202.743 248.081 202.78L248.14 122.78C241.879 122.776 236.797 117.691 236.802 111.42L156.802 111.361ZM248.089 157.068H111.309V237.068H248.089V157.068ZM339.398 248.508C339.435 198.056 298.585 157.105 248.119 157.068L248.06 237.068C254.31 237.072 259.402 242.146 259.398 248.449L339.398 248.508ZM248.119 339.868C298.574 339.83 339.435 298.89 339.398 248.449L259.398 248.508C259.402 254.779 254.32 259.863 248.06 259.868L248.119 339.868ZM111.288 339.868H248.089V259.868H111.288V339.868ZM20.0006 248.398C19.926 298.874 60.8079 339.793 111.229 339.868L111.347 259.868C105.052 259.858 99.9913 254.753 100.001 248.516L20.0006 248.398ZM111.279 157.068C60.824 157.105 19.9633 198.045 20.0006 248.487L100.001 248.428C99.9959 242.157 105.078 237.072 111.338 237.068L111.279 157.068ZM613 248.487C613.037 198.045 572.177 157.105 521.721 157.068L521.662 237.068C527.923 237.072 533.005 242.157 533 248.428L613 248.487ZM521.721 339.868C572.187 339.83 613.037 298.88 613 248.428L533 248.487C533.005 254.79 527.912 259.863 521.662 259.868L521.721 339.868ZM470.383 339.868H521.692V259.868H470.383V339.868ZM430.383 248.457V299.868H510.383V248.457H430.383ZM521.662 157.068C471.207 157.105 430.346 198.045 430.383 248.487L510.383 248.428C510.379 242.157 515.461 237.072 521.721 237.068L521.662 157.068ZM476.199 248.457V111.391H396.199V248.457H476.199ZM384.92 339.868C435.386 339.83 476.236 298.88 476.199 248.428L396.199 248.487C396.203 254.79 391.111 259.863 384.861 259.868L384.92 339.868ZM293.603 248.398C293.528 298.874 334.41 339.793 384.831 339.868L384.95 259.868C378.655 259.858 373.594 254.753 373.603 248.516L293.603 248.398ZM293.603 111.391V248.457H373.603V111.391H293.603ZM384.882 20.0012C334.426 20.0385 293.566 60.9785 293.603 111.42L373.603 111.361C373.598 105.09 378.681 100.006 384.941 100.001L384.882 20.0012ZM476.199 111.42C476.236 61.0044 435.408 20.0758 384.971 20.0013L384.852 100.001C391.131 100.01 396.203 105.106 396.199 111.361L476.199 111.42ZM396.199 522.641C396.204 528.912 391.122 533.997 384.861 534.001L384.92 614.001C435.376 613.964 476.236 573.024 476.199 522.582L396.199 522.641ZM384.861 511.222C391.122 511.227 396.204 516.311 396.199 522.582L476.199 522.641C476.236 472.2 435.376 431.26 384.92 431.222L384.861 511.222ZM333.583 511.222H384.891V431.222H333.583V511.222ZM373.583 522.612V471.222H293.583V522.612H373.583ZM384.95 534.001C378.65 533.992 373.578 528.875 373.583 522.641L293.583 522.582C293.545 573.019 334.416 613.927 384.832 614.001L384.95 534.001ZM521.692 396.914H384.891V476.914H521.692V396.914ZM533.001 385.554C533.005 391.825 527.923 396.909 521.663 396.914L521.722 476.914C572.177 476.876 613.038 435.936 613.001 385.495L533.001 385.554ZM521.654 374.114C527.949 374.123 533.01 379.228 533.001 385.465L613.001 385.583C613.075 335.107 572.193 294.188 521.772 294.114L521.654 374.114ZM384.912 374.114H521.713V294.114H384.912V374.114ZM373.603 385.474C373.599 379.203 378.681 374.118 384.941 374.114L384.882 294.114C334.427 294.151 293.566 335.091 293.603 385.533L373.603 385.474ZM384.92 396.914C378.692 396.909 373.599 391.857 373.603 385.533L293.603 385.474C293.566 435.904 334.374 476.876 384.861 476.914L384.92 396.914ZM20.0005 385.495C19.9632 435.936 60.8239 476.876 111.279 476.914L111.338 396.914C105.078 396.909 99.9959 391.825 100 385.554L20.0005 385.495ZM111.279 294.135C60.8239 294.172 19.9632 335.112 20.0005 385.554L100 385.495C99.9959 379.224 105.078 374.139 111.338 374.135L111.279 294.135ZM162.617 294.135H111.309V374.135H162.617V294.135ZM202.617 385.524V334.135H122.617V385.524H202.617ZM111.338 476.914C161.794 476.876 202.654 435.936 202.617 385.495L122.617 385.554C122.622 391.825 117.54 396.909 111.279 396.914L111.338 476.914ZM156.802 385.524V522.591H236.802V385.524H156.802ZM248.11 294.156C197.594 294.156 156.765 335.128 156.802 385.554L236.802 385.495C236.797 379.207 241.868 374.156 248.11 374.156V294.156ZM339.398 385.625C339.472 335.149 298.59 294.23 248.169 294.156L248.051 374.156C254.346 374.165 259.407 379.27 259.398 385.507L339.398 385.625ZM339.398 522.612V385.566H259.398V522.612H339.398ZM248.119 614.001C298.574 613.964 339.435 573.024 339.398 522.582L259.398 522.641C259.402 528.912 254.32 533.997 248.06 534.001L248.119 614.001ZM156.802 522.532C156.727 573.008 197.609 613.927 248.03 614.001L248.148 534.001C241.853 533.992 236.793 528.887 236.802 522.65L156.802 522.532Z" fill="white" mask="url(#path-1-outside-1_60_125)"/>
</g>
<path fill-rule="evenodd" clip-rule="evenodd" d="M248.089 60.0012C219.731 60.0222 196.781 83.0343 196.802 111.391C196.781 139.747 219.752 162.759 248.11 162.78H299.419V111.412C299.44 83.0552 276.468 60.0431 248.089 60.0012C248.11 60.0012 248.11 60.0012 248.089 60.0012ZM248.089 197.068H111.309C82.951 197.089 59.9796 220.101 60.0005 248.457C59.9586 276.814 82.93 299.826 111.288 299.868H248.089C276.447 299.847 299.419 276.835 299.398 248.478C299.419 220.101 276.447 197.089 248.089 197.068Z" fill="#36C5F0"/>
<path fill-rule="evenodd" clip-rule="evenodd" d="M573 248.457C573.021 220.101 550.05 197.089 521.692 197.068C493.334 197.089 470.362 220.101 470.383 248.457V299.868H521.692C550.05 299.847 573.021 276.835 573 248.457ZM436.199 248.457V111.391C436.22 83.0552 413.269 60.0431 384.911 60.0012C356.553 60.0222 333.582 83.0343 333.603 111.391V248.457C333.561 276.814 356.533 299.826 384.89 299.868C413.248 299.847 436.22 276.835 436.199 248.457Z" fill="#2EB67D"/>
<path fill-rule="evenodd" clip-rule="evenodd" d="M384.891 574.001C413.249 573.98 436.22 550.968 436.199 522.612C436.22 494.255 413.249 471.243 384.891 471.222H333.583V522.612C333.562 550.947 356.533 573.959 384.891 574.001ZM384.891 436.914H521.692C550.05 436.893 573.022 413.881 573.001 385.524C573.043 357.168 550.071 334.156 521.713 334.114H384.912C356.554 334.135 333.583 357.147 333.603 385.503C333.583 413.881 356.533 436.893 384.891 436.914Z" fill="#ECB22E"/>
<path fill-rule="evenodd" clip-rule="evenodd" d="M60.0005 385.524C59.9795 413.881 82.9509 436.893 111.309 436.914C139.667 436.893 162.638 413.881 162.617 385.524V334.135H111.309C82.9509 334.156 59.9795 357.168 60.0005 385.524ZM196.802 385.524V522.591C196.76 550.947 219.731 573.959 248.089 574.001C276.447 573.98 299.419 550.968 299.398 522.612V385.566C299.439 357.21 276.468 334.198 248.11 334.156C219.731 334.156 196.781 357.168 196.802 385.524Z" fill="#E01E5A"/>
<defs>
<filter id="filter0_d_60_125" x="0.000488281" y="0.0012207" width="633" height="634" filterUnits="userSpaceOnUse" color-interpolation-filters="sRGB">
<feFlood flood-opacity="0" result="BackgroundImageFix"/>
<feColorMatrix in="SourceAlpha" type="matrix" values="0 0 0 0 0 0 0 0 0 0 0 0 0 0 0 0 0 0 127 0" result="hardAlpha"/>
<feOffset/>
<feGaussianBlur stdDeviation="10"/>
<feComposite in2="hardAlpha" operator="out"/>
<feColorMatrix type="matrix" values="0 0 0 0 0 0 0 0 0 0 0 0 0 0 0 0 0 0 0.1 0"/>
<feBlend mode="normal" in2="BackgroundImageFix" result="effect1_dropShadow_60_125"/>
<feBlend mode="normal" in="SourceGraphic" in2="effect1_dropShadow_60_125" result="shape"/>
</filter>
</defs>
</svg>
