<svg width="612" height="612" viewBox="0 0 612 612" fill="none" xmlns="http://www.w3.org/2000/svg">
<g clip-path="url(#clip0_59_680)">
<path d="M90 50H522C544.091 50 562 67.9086 562 90V522C562 544.091 544.091 562 522 562H90C67.9086 562 50 544.091 50 522V90C50 67.9086 67.9086 50 90 50Z" fill="#3178C6"/>
<path d="M351.036 450.95V506.19C360.02 510.794 370.646 514.246 382.912 516.548C395.178 518.85 408.106 520 421.698 520C434.942 520 447.526 518.734 459.446 516.202C471.366 513.67 481.82 509.498 490.802 503.688C499.786 497.876 506.898 490.28 512.14 480.9C517.38 471.522 520 459.928 520 446.118C520 436.106 518.502 427.33 515.508 419.792C512.514 412.254 508.194 405.55 502.55 399.682C496.908 393.812 490.14 388.548 482.252 383.886C474.362 379.226 465.464 374.824 455.558 370.682C448.302 367.688 441.796 364.784 436.036 361.964C430.278 359.144 425.382 356.268 421.352 353.332C417.32 350.398 414.21 347.29 412.022 344.01C409.834 340.73 408.74 337.02 408.74 332.876C408.74 329.078 409.718 325.656 411.676 322.606C413.634 319.556 416.4 316.938 419.97 314.752C423.54 312.564 427.916 310.868 433.1 309.658C438.282 308.45 444.042 307.846 450.376 307.846C454.984 307.846 459.85 308.192 464.974 308.882C470.1 309.572 475.254 310.636 480.438 312.076C485.62 313.514 490.658 315.326 495.554 317.514C500.448 319.7 504.97 322.232 509.116 325.108V273.494C500.708 270.272 491.522 267.884 481.56 266.33C471.598 264.776 460.166 264 447.266 264C434.136 264 421.698 265.41 409.95 268.23C398.202 271.048 387.864 275.45 378.938 281.434C370.012 287.42 362.958 295.044 357.774 304.308C352.592 313.572 350 324.648 350 337.538C350 353.994 354.75 368.034 364.254 379.658C373.756 391.28 388.18 401.12 407.53 409.176C415.132 412.284 422.216 415.332 428.78 418.326C435.346 421.318 441.018 424.424 445.798 427.646C450.578 430.868 454.35 434.378 457.114 438.176C459.878 441.974 461.26 446.29 461.26 451.124C461.26 454.69 460.396 458 458.668 461.05C456.942 464.098 454.32 466.746 450.808 468.99C447.296 471.234 442.918 472.988 437.678 474.254C432.438 475.52 426.304 476.154 419.278 476.154C407.3 476.154 395.438 474.054 383.69 469.852C371.94 465.652 361.056 459.352 351.036 450.95ZM258.964 313.484H330V268H132V313.484H202.689V516H258.964V313.484Z" fill="white"/>
</g>
<g filter="url(#filter0_d_59_680)">
<path d="M522 35H90C59.6243 35 35 59.6243 35 90V522C35 552.376 59.6243 577 90 577H522C552.376 577 577 552.376 577 522V90C577 59.6243 552.376 35 522 35Z" fill="#3178C6" stroke="white" stroke-width="30"/>
<path d="M336.036 418.797L360.674 439.456C369.398 446.771 378.741 452.154 388.739 455.727L388.742 455.728C398.936 459.375 409.092 461.154 419.278 461.154C425.452 461.154 430.354 460.592 434.155 459.674C438.233 458.688 440.965 457.479 442.732 456.35C444.573 455.173 445.305 454.206 445.615 453.659L445.617 453.656C446.044 452.903 446.26 452.147 446.26 451.124C446.26 449.363 445.826 448.157 444.986 447.002C443.454 444.897 441.063 442.544 437.414 440.084C433.467 437.424 428.552 434.706 422.56 431.976L422.555 431.973C416.198 429.074 409.3 426.105 401.853 423.06L401.809 423.042L401.765 423.024C380.989 414.374 364.2 403.29 352.641 389.152M336.036 418.797L406.449 253.644C393.183 256.827 381.161 261.885 370.585 268.975L370.583 268.976C359.901 276.14 351.322 285.325 345 296.424V268V253H330H132H117V268V313.484V328.484H132H187.689V516V531H202.689H258.964H273.964V516V328.484H330H335.388C335.128 331.448 335 334.467 335 337.538C335 357.099 340.731 374.586 352.641 389.152M336.036 418.797V450.95V506.19V515.358L344.195 519.539C354.725 524.935 366.783 528.783 380.145 531.291C393.401 533.778 407.26 535 421.698 535C435.9 535 449.534 533.642 462.563 530.875C476.025 528.015 488.233 523.215 498.949 516.283L498.95 516.282C509.998 509.135 518.804 499.724 525.234 488.218L525.235 488.217C532.031 476.052 535 461.776 535 446.118C535 434.639 533.285 423.914 529.449 414.255C525.734 404.901 520.348 396.548 513.361 389.284M336.036 418.797L357.774 304.308C352.592 313.572 350 324.648 350 337.538C350 353.994 354.75 368.034 364.254 379.658M352.641 389.152L364.254 379.658M352.641 389.152L364.254 379.658M364.254 379.658C373.756 391.28 388.18 401.12 407.53 409.176C415.132 412.284 422.216 415.332 428.78 418.326C435.346 421.318 441.018 424.424 445.798 427.646C450.578 430.868 454.35 434.378 457.114 438.176C459.878 441.974 461.26 446.29 461.26 451.124C461.26 454.69 460.396 458 458.668 461.05C456.942 464.098 454.32 466.746 450.808 468.99C447.296 471.234 442.918 472.988 437.678 474.254C432.438 475.52 426.304 476.154 419.278 476.154C407.3 476.154 395.438 474.054 383.69 469.852C377.571 467.665 371.686 464.908 366.036 461.581V450.95H351.036L341.398 462.444C344.526 465.067 347.739 467.516 351.036 469.79V506.19C360.02 510.794 370.646 514.246 382.912 516.548C395.178 518.85 408.106 520 421.698 520C434.942 520 447.526 518.734 459.446 516.202C471.366 513.67 481.82 509.498 490.802 503.688C499.786 497.876 506.898 490.28 512.14 480.9C517.38 471.522 520 459.928 520 446.118C520 436.106 518.502 427.33 515.508 419.792C512.514 412.254 508.194 405.55 502.55 399.682M502.55 399.682L513.365 389.288C513.363 389.286 513.362 389.285 513.361 389.284M502.55 399.682C496.908 393.812 490.14 388.548 482.252 383.886L502.55 399.682ZM513.361 389.284C506.666 382.319 498.793 376.238 489.884 370.973L489.88 370.97C481.309 365.908 471.781 361.207 461.345 356.843L461.312 356.829L461.279 356.816C454.254 353.917 448.049 351.144 442.634 348.493M513.361 389.284L442.634 348.493M442.634 348.493C437.444 345.951 433.341 343.507 430.185 341.208L430.178 341.203C427.217 339.049 425.484 337.161 424.5 335.686C424.042 334.999 423.74 334.215 423.74 332.876C423.74 331.805 423.97 331.222 424.299 330.709C424.856 329.841 425.861 328.734 427.803 327.544L427.808 327.541C429.691 326.387 432.478 325.207 436.505 324.266C440.383 323.362 444.978 322.846 450.376 322.846C454.238 322.846 458.431 323.136 462.972 323.748L462.973 323.748C467.394 324.343 471.875 325.265 476.423 326.529L476.427 326.53C480.891 327.769 485.224 329.327 489.434 331.209L489.436 331.21C493.532 333.039 497.233 335.12 500.566 337.433L524.116 353.769V325.108V273.494V263.178L514.483 259.487C504.979 255.845 494.756 253.207 483.872 251.509C472.967 249.808 460.737 249 447.266 249C433.059 249 419.439 250.526 406.451 253.644L442.634 348.493Z" fill="white" stroke="white" stroke-width="30"/>
</g>
<path d="M90 50H522C544.091 50 562 67.9086 562 90V522C562 544.091 544.091 562 522 562H90C67.9086 562 50 544.091 50 522V90C50 67.9086 67.9086 50 90 50Z" fill="#3178C6"/>
<path d="M351.036 450.95V506.19C360.02 510.794 370.646 514.246 382.912 516.548C395.178 518.85 408.106 520 421.698 520C434.942 520 447.526 518.734 459.446 516.202C471.366 513.67 481.82 509.498 490.802 503.688C499.786 497.876 506.898 490.28 512.14 480.9C517.38 471.522 520 459.928 520 446.118C520 436.106 518.502 427.33 515.508 419.792C512.514 412.254 508.194 405.55 502.55 399.682C496.908 393.812 490.14 388.548 482.252 383.886C474.362 379.226 465.464 374.824 455.558 370.682C448.302 367.688 441.796 364.784 436.036 361.964C430.278 359.144 425.382 356.268 421.352 353.332C417.32 350.398 414.21 347.29 412.022 344.01C409.834 340.73 408.74 337.02 408.74 332.876C408.74 329.078 409.718 325.656 411.676 322.606C413.634 319.556 416.4 316.938 419.97 314.752C423.54 312.564 427.916 310.868 433.1 309.658C438.282 308.45 444.042 307.846 450.376 307.846C454.984 307.846 459.85 308.192 464.974 308.882C470.1 309.572 475.254 310.636 480.438 312.076C485.62 313.514 490.658 315.326 495.554 317.514C500.448 319.7 504.97 322.232 509.116 325.108V273.494C500.708 270.272 491.522 267.884 481.56 266.33C471.598 264.776 460.166 264 447.266 264C434.136 264 421.698 265.41 409.95 268.23C398.202 271.048 387.864 275.45 378.938 281.434C370.012 287.42 362.958 295.044 357.774 304.308C352.592 313.572 350 324.648 350 337.538C350 353.994 354.75 368.034 364.254 379.658C373.756 391.28 388.18 401.12 407.53 409.176C415.132 412.284 422.216 415.332 428.78 418.326C435.346 421.318 441.018 424.424 445.798 427.646C450.578 430.868 454.35 434.378 457.114 438.176C459.878 441.974 461.26 446.29 461.26 451.124C461.26 454.69 460.396 458 458.668 461.05C456.942 464.098 454.32 466.746 450.808 468.99C447.296 471.234 442.918 472.988 437.678 474.254C432.438 475.52 426.304 476.154 419.278 476.154C407.3 476.154 395.438 474.054 383.69 469.852C371.94 465.652 361.056 459.352 351.036 450.95ZM258.964 313.484H330V268H132V313.484H202.689V516H258.964V313.484Z" fill="white"/>
<path d="M90 50H522C544.091 50 562 67.9086 562 90V522C562 544.091 544.091 562 522 562H90C67.9086 562 50 544.091 50 522V90C50 67.9086 67.9086 50 90 50Z" fill="#3178C6"/>
<path d="M351.036 450.95V506.19C360.02 510.794 370.646 514.246 382.912 516.548C395.178 518.85 408.106 520 421.698 520C434.942 520 447.526 518.734 459.446 516.202C471.366 513.67 481.82 509.498 490.802 503.688C499.786 497.876 506.898 490.28 512.14 480.9C517.38 471.522 520 459.928 520 446.118C520 436.106 518.502 427.33 515.508 419.792C512.514 412.254 508.194 405.55 502.55 399.682C496.908 393.812 490.14 388.548 482.252 383.886C474.362 379.226 465.464 374.824 455.558 370.682C448.302 367.688 441.796 364.784 436.036 361.964C430.278 359.144 425.382 356.268 421.352 353.332C417.32 350.398 414.21 347.29 412.022 344.01C409.834 340.73 408.74 337.02 408.74 332.876C408.74 329.078 409.718 325.656 411.676 322.606C413.634 319.556 416.4 316.938 419.97 314.752C423.54 312.564 427.916 310.868 433.1 309.658C438.282 308.45 444.042 307.846 450.376 307.846C454.984 307.846 459.85 308.192 464.974 308.882C470.1 309.572 475.254 310.636 480.438 312.076C485.62 313.514 490.658 315.326 495.554 317.514C500.448 319.7 504.97 322.232 509.116 325.108V273.494C500.708 270.272 491.522 267.884 481.56 266.33C471.598 264.776 460.166 264 447.266 264C434.136 264 421.698 265.41 409.95 268.23C398.202 271.048 387.864 275.45 378.938 281.434C370.012 287.42 362.958 295.044 357.774 304.308C352.592 313.572 350 324.648 350 337.538C350 353.994 354.75 368.034 364.254 379.658C373.756 391.28 388.18 401.12 407.53 409.176C415.132 412.284 422.216 415.332 428.78 418.326C435.346 421.318 441.018 424.424 445.798 427.646C450.578 430.868 454.35 434.378 457.114 438.176C459.878 441.974 461.26 446.29 461.26 451.124C461.26 454.69 460.396 458 458.668 461.05C456.942 464.098 454.32 466.746 450.808 468.99C447.296 471.234 442.918 472.988 437.678 474.254C432.438 475.52 426.304 476.154 419.278 476.154C407.3 476.154 395.438 474.054 383.69 469.852C371.94 465.652 361.056 459.352 351.036 450.95ZM258.964 313.484H330V268H132V313.484H202.689V516H258.964V313.484Z" fill="white"/>
<defs>
<filter id="filter0_d_59_680" x="0" y="0" width="612" height="612" filterUnits="userSpaceOnUse" color-interpolation-filters="sRGB">
<feFlood flood-opacity="0" result="BackgroundImageFix"/>
<feColorMatrix in="SourceAlpha" type="matrix" values="0 0 0 0 0 0 0 0 0 0 0 0 0 0 0 0 0 0 127 0" result="hardAlpha"/>
<feOffset/>
<feGaussianBlur stdDeviation="10"/>
<feComposite in2="hardAlpha" operator="out"/>
<feColorMatrix type="matrix" values="0 0 0 0 0 0 0 0 0 0 0 0 0 0 0 0 0 0 0.1 0"/>
<feBlend mode="normal" in2="BackgroundImageFix" result="effect1_dropShadow_59_680"/>
<feBlend mode="normal" in="SourceGraphic" in2="effect1_dropShadow_59_680" result="shape"/>
</filter>
<clipPath id="clip0_59_680">
<rect width="512" height="512" fill="white" transform="translate(50 50)"/>
</clipPath>
</defs>
</svg>
