<svg width="10" height="10" viewBox="0 0 10 10" fill="none" xmlns="http://www.w3.org/2000/svg">
<g opacity="0.2">
<path d="M8.68633 6.18983L6.8461 5.36522L6.84102 5.36287C6.74548 5.32201 6.64127 5.30561 6.5378 5.31516C6.43434 5.32471 6.33488 5.35991 6.24844 5.41756C6.23826 5.42428 6.22848 5.43159 6.21914 5.43944L5.26836 6.24998C4.66602 5.9574 4.04414 5.34022 3.75157 4.74569L4.56328 3.78045C4.5711 3.77069 4.57852 3.76092 4.58555 3.75037C4.64197 3.66416 4.6762 3.56534 4.68519 3.46271C4.69419 3.36007 4.67767 3.2568 4.63711 3.16209V3.1574L3.81016 1.31404C3.75654 1.19032 3.66435 1.08725 3.54734 1.02023C3.43034 0.953209 3.29479 0.925826 3.16094 0.942169C2.63163 1.01182 2.14578 1.27177 1.79412 1.67346C1.44246 2.07515 1.24905 2.59111 1.25 3.12498C1.25 6.22654 3.77344 8.74998 6.875 8.74998C7.40887 8.75094 7.92484 8.55753 8.32653 8.20587C8.72822 7.85421 8.98817 7.36835 9.05782 6.83904C9.07419 6.70524 9.04686 6.56973 8.97991 6.45273C8.91297 6.33573 8.80998 6.24351 8.68633 6.18983ZM6.875 8.12498C5.54937 8.12353 4.27844 7.59628 3.34107 6.65892C2.4037 5.72155 1.87645 4.45062 1.875 3.12498C1.87353 2.74353 2.01096 2.37459 2.26162 2.08705C2.51228 1.79952 2.85903 1.61305 3.23711 1.56248C3.23696 1.56404 3.23696 1.56561 3.23711 1.56717L4.05743 3.40311L3.25 4.36951C3.24181 4.37894 3.23436 4.389 3.22774 4.39959C3.16895 4.48979 3.13447 4.59365 3.12763 4.7011C3.12078 4.80855 3.14181 4.91594 3.18868 5.01287C3.54258 5.7367 4.27188 6.46053 5.00352 6.81404C5.10116 6.86047 5.20918 6.88077 5.31701 6.87297C5.42485 6.86516 5.52881 6.82952 5.61875 6.76951C5.62878 6.76276 5.63843 6.75545 5.64766 6.74764L6.59727 5.93748L8.43321 6.75975C8.43321 6.75975 8.43633 6.75975 8.4375 6.75975C8.38755 7.13837 8.20136 7.48582 7.91377 7.73709C7.62619 7.98837 7.2569 8.12627 6.875 8.12498Z" fill="black"/>
</g>
</svg>
