<svg xmlns="http://www.w3.org/2000/svg" xmlns:xlink="http://www.w3.org/1999/xlink" version="1.1" x="0" y="0" viewBox="0 0 220 220" width="220" height="220">
<rect x="0" y="0" fill="transparent" width="220" height="220" stroke="none"></rect>
<g transform="translate(0, 0)">
<g fill="currentColor">
<rect x="49.247499999999995" y="0.7675" width="4.545" height="4.545" rx="4"></rect>
<rect x="55.3075" y="0.7675" width="4.545" height="4.545" rx="4"></rect>
<rect x="61.36749999999999" y="0.7675" width="4.545" height="4.545" rx="4"></rect>
<rect x="79.5475" y="0.7675" width="4.545" height="4.545" rx="4"></rect>
<rect x="91.66749999999999" y="0.7675" width="4.545" height="4.545" rx="4"></rect>
<rect x="97.72749999999999" y="0.7675" width="4.545" height="4.545" rx="4"></rect>
<rect x="103.7875" y="0.7675" width="4.545" height="4.545" rx="4"></rect>
<rect x="109.8475" y="0.7675" width="4.545" height="4.545" rx="4"></rect>
<rect x="115.90749999999998" y="0.7675" width="4.545" height="4.545" rx="4"></rect>
<rect x="121.96749999999999" y="0.7675" width="4.545" height="4.545" rx="4"></rect>
<rect x="134.08749999999998" y="0.7675" width="4.545" height="4.545" rx="4"></rect>
<rect x="140.14749999999998" y="0.7675" width="4.545" height="4.545" rx="4"></rect>
<rect x="61.36749999999999" y="6.8275" width="4.545" height="4.545" rx="4"></rect>
<rect x="73.4875" y="6.8275" width="4.545" height="4.545" rx="4"></rect>
<rect x="79.5475" y="6.8275" width="4.545" height="4.545" rx="4"></rect>
<rect x="85.60749999999999" y="6.8275" width="4.545" height="4.545" rx="4"></rect>
<rect x="97.72749999999999" y="6.8275" width="4.545" height="4.545" rx="4"></rect>
<rect x="103.7875" y="6.8275" width="4.545" height="4.545" rx="4"></rect>
<rect x="121.96749999999999" y="6.8275" width="4.545" height="4.545" rx="4"></rect>
<rect x="134.08749999999998" y="6.8275" width="4.545" height="4.545" rx="4"></rect>
<rect x="146.20749999999998" y="6.8275" width="4.545" height="4.545" rx="4"></rect>
<rect x="55.3075" y="12.8875" width="4.545" height="4.545" rx="4"></rect>
<rect x="91.66749999999999" y="12.8875" width="4.545" height="4.545" rx="4"></rect>
<rect x="97.72749999999999" y="12.8875" width="4.545" height="4.545" rx="4"></rect>
<rect x="103.7875" y="12.8875" width="4.545" height="4.545" rx="4"></rect>
<rect x="109.8475" y="12.8875" width="4.545" height="4.545" rx="4"></rect>
<rect x="115.90749999999998" y="12.8875" width="4.545" height="4.545" rx="4"></rect>
<rect x="140.14749999999998" y="12.8875" width="4.545" height="4.545" rx="4"></rect>
<rect x="55.3075" y="18.9475" width="4.545" height="4.545" rx="4"></rect>
<rect x="67.4275" y="18.9475" width="4.545" height="4.545" rx="4"></rect>
<rect x="73.4875" y="18.9475" width="4.545" height="4.545" rx="4"></rect>
<rect x="79.5475" y="18.9475" width="4.545" height="4.545" rx="4"></rect>
<rect x="97.72749999999999" y="18.9475" width="4.545" height="4.545" rx="4"></rect>
<rect x="121.96749999999999" y="18.9475" width="4.545" height="4.545" rx="4"></rect>
<rect x="128.0275" y="18.9475" width="4.545" height="4.545" rx="4"></rect>
<rect x="134.08749999999998" y="18.9475" width="4.545" height="4.545" rx="4"></rect>
<rect x="140.14749999999998" y="18.9475" width="4.545" height="4.545" rx="4"></rect>
<rect x="49.247499999999995" y="25.0075" width="4.545" height="4.545" rx="4"></rect>
<rect x="55.3075" y="25.0075" width="4.545" height="4.545" rx="4"></rect>
<rect x="61.36749999999999" y="25.0075" width="4.545" height="4.545" rx="4"></rect>
<rect x="73.4875" y="25.0075" width="4.545" height="4.545" rx="4"></rect>
<rect x="79.5475" y="25.0075" width="4.545" height="4.545" rx="4"></rect>
<rect x="85.60749999999999" y="25.0075" width="4.545" height="4.545" rx="4"></rect>
<rect x="103.7875" y="25.0075" width="4.545" height="4.545" rx="4"></rect>
<rect x="109.8475" y="25.0075" width="4.545" height="4.545" rx="4"></rect>
<rect x="128.0275" y="25.0075" width="4.545" height="4.545" rx="4"></rect>
<rect x="146.20749999999998" y="25.0075" width="4.545" height="4.545" rx="4"></rect>
<rect x="49.247499999999995" y="31.0675" width="4.545" height="4.545" rx="4"></rect>
<rect x="55.3075" y="31.0675" width="4.545" height="4.545" rx="4"></rect>
<rect x="61.36749999999999" y="31.0675" width="4.545" height="4.545" rx="4"></rect>
<rect x="73.4875" y="31.0675" width="4.545" height="4.545" rx="4"></rect>
<rect x="79.5475" y="31.0675" width="4.545" height="4.545" rx="4"></rect>
<rect x="85.60749999999999" y="31.0675" width="4.545" height="4.545" rx="4"></rect>
<rect x="97.72749999999999" y="31.0675" width="4.545" height="4.545" rx="4"></rect>
<rect x="103.7875" y="31.0675" width="4.545" height="4.545" rx="4"></rect>
<rect x="121.96749999999999" y="31.0675" width="4.545" height="4.545" rx="4"></rect>
<rect x="134.08749999999998" y="31.0675" width="4.545" height="4.545" rx="4"></rect>
<rect x="49.247499999999995" y="37.1275" width="4.545" height="4.545" rx="4"></rect>
<rect x="61.36749999999999" y="37.1275" width="4.545" height="4.545" rx="4"></rect>
<rect x="73.4875" y="37.1275" width="4.545" height="4.545" rx="4"></rect>
<rect x="85.60749999999999" y="37.1275" width="4.545" height="4.545" rx="4"></rect>
<rect x="97.72749999999999" y="37.1275" width="4.545" height="4.545" rx="4"></rect>
<rect x="109.8475" y="37.1275" width="4.545" height="4.545" rx="4"></rect>
<rect x="121.96749999999999" y="37.1275" width="4.545" height="4.545" rx="4"></rect>
<rect x="134.08749999999998" y="37.1275" width="4.545" height="4.545" rx="4"></rect>
<rect x="146.20749999999998" y="37.1275" width="4.545" height="4.545" rx="4"></rect>
<rect x="55.3075" y="43.18749999999999" width="4.545" height="4.545" rx="4"></rect>
<rect x="67.4275" y="43.18749999999999" width="4.545" height="4.545" rx="4"></rect>
<rect x="79.5475" y="43.18749999999999" width="4.545" height="4.545" rx="4"></rect>
<rect x="128.0275" y="43.18749999999999" width="4.545" height="4.545" rx="4"></rect>
<rect x="134.08749999999998" y="43.18749999999999" width="4.545" height="4.545" rx="4"></rect>
<rect x="146.20749999999998" y="43.18749999999999" width="4.545" height="4.545" rx="4"></rect>
<rect x="6.8275" y="49.247499999999995" width="4.545" height="4.545" rx="4"></rect>
<rect x="12.8875" y="49.247499999999995" width="4.545" height="4.545" rx="4"></rect>
<rect x="18.9475" y="49.247499999999995" width="4.545" height="4.545" rx="4"></rect>
<rect x="25.0075" y="49.247499999999995" width="4.545" height="4.545" rx="4"></rect>
<rect x="31.0675" y="49.247499999999995" width="4.545" height="4.545" rx="4"></rect>
<rect x="37.1275" y="49.247499999999995" width="4.545" height="4.545" rx="4"></rect>
<rect x="43.18749999999999" y="49.247499999999995" width="4.545" height="4.545" rx="4"></rect>
<rect x="103.7875" y="49.247499999999995" width="4.545" height="4.545" rx="4"></rect>
<rect x="134.08749999999998" y="49.247499999999995" width="4.545" height="4.545" rx="4"></rect>
<rect x="146.20749999999998" y="49.247499999999995" width="4.545" height="4.545" rx="4"></rect>
<rect x="164.38749999999996" y="49.247499999999995" width="4.545" height="4.545" rx="4"></rect>
<rect x="170.44749999999996" y="49.247499999999995" width="4.545" height="4.545" rx="4"></rect>
<rect x="194.68749999999997" y="49.247499999999995" width="4.545" height="4.545" rx="4"></rect>
<rect x="0.7675" y="55.3075" width="4.545" height="4.545" rx="4"></rect>
<rect x="18.9475" y="55.3075" width="4.545" height="4.545" rx="4"></rect>
<rect x="25.0075" y="55.3075" width="4.545" height="4.545" rx="4"></rect>
<rect x="43.18749999999999" y="55.3075" width="4.545" height="4.545" rx="4"></rect>
<rect x="49.247499999999995" y="55.3075" width="4.545" height="4.545" rx="4"></rect>
<rect x="61.36749999999999" y="55.3075" width="4.545" height="4.545" rx="4"></rect>
<rect x="67.4275" y="55.3075" width="4.545" height="4.545" rx="4"></rect>
<rect x="73.4875" y="55.3075" width="4.545" height="4.545" rx="4"></rect>
<rect x="85.60749999999999" y="55.3075" width="4.545" height="4.545" rx="4"></rect>
<rect x="91.66749999999999" y="55.3075" width="4.545" height="4.545" rx="4"></rect>
<rect x="97.72749999999999" y="55.3075" width="4.545" height="4.545" rx="4"></rect>
<rect x="109.8475" y="55.3075" width="4.545" height="4.545" rx="4"></rect>
<rect x="115.90749999999998" y="55.3075" width="4.545" height="4.545" rx="4"></rect>
<rect x="121.96749999999999" y="55.3075" width="4.545" height="4.545" rx="4"></rect>
<rect x="128.0275" y="55.3075" width="4.545" height="4.545" rx="4"></rect>
<rect x="140.14749999999998" y="55.3075" width="4.545" height="4.545" rx="4"></rect>
<rect x="158.3275" y="55.3075" width="4.545" height="4.545" rx="4"></rect>
<rect x="164.38749999999996" y="55.3075" width="4.545" height="4.545" rx="4"></rect>
<rect x="176.50749999999996" y="55.3075" width="4.545" height="4.545" rx="4"></rect>
<rect x="182.56749999999997" y="55.3075" width="4.545" height="4.545" rx="4"></rect>
<rect x="194.68749999999997" y="55.3075" width="4.545" height="4.545" rx="4"></rect>
<rect x="0.7675" y="61.36749999999999" width="4.545" height="4.545" rx="4"></rect>
<rect x="12.8875" y="61.36749999999999" width="4.545" height="4.545" rx="4"></rect>
<rect x="18.9475" y="61.36749999999999" width="4.545" height="4.545" rx="4"></rect>
<rect x="37.1275" y="61.36749999999999" width="4.545" height="4.545" rx="4"></rect>
<rect x="43.18749999999999" y="61.36749999999999" width="4.545" height="4.545" rx="4"></rect>
<rect x="55.3075" y="61.36749999999999" width="4.545" height="4.545" rx="4"></rect>
<rect x="73.4875" y="61.36749999999999" width="4.545" height="4.545" rx="4"></rect>
<rect x="79.5475" y="61.36749999999999" width="4.545" height="4.545" rx="4"></rect>
<rect x="109.8475" y="61.36749999999999" width="4.545" height="4.545" rx="4"></rect>
<rect x="128.0275" y="61.36749999999999" width="4.545" height="4.545" rx="4"></rect>
<rect x="152.26749999999998" y="61.36749999999999" width="4.545" height="4.545" rx="4"></rect>
<rect x="158.3275" y="61.36749999999999" width="4.545" height="4.545" rx="4"></rect>
<rect x="170.44749999999996" y="61.36749999999999" width="4.545" height="4.545" rx="4"></rect>
<rect x="182.56749999999997" y="61.36749999999999" width="4.545" height="4.545" rx="4"></rect>
<rect x="188.62749999999997" y="61.36749999999999" width="4.545" height="4.545" rx="4"></rect>
<rect x="18.9475" y="67.4275" width="4.545" height="4.545" rx="4"></rect>
<rect x="25.0075" y="67.4275" width="4.545" height="4.545" rx="4"></rect>
<rect x="43.18749999999999" y="67.4275" width="4.545" height="4.545" rx="4"></rect>
<rect x="49.247499999999995" y="67.4275" width="4.545" height="4.545" rx="4"></rect>
<rect x="67.4275" y="67.4275" width="4.545" height="4.545" rx="4"></rect>
<rect x="73.4875" y="67.4275" width="4.545" height="4.545" rx="4"></rect>
<rect x="97.72749999999999" y="67.4275" width="4.545" height="4.545" rx="4"></rect>
<rect x="115.90749999999998" y="67.4275" width="4.545" height="4.545" rx="4"></rect>
<rect x="121.96749999999999" y="67.4275" width="4.545" height="4.545" rx="4"></rect>
<rect x="128.0275" y="67.4275" width="4.545" height="4.545" rx="4"></rect>
<rect x="134.08749999999998" y="67.4275" width="4.545" height="4.545" rx="4"></rect>
<rect x="140.14749999999998" y="67.4275" width="4.545" height="4.545" rx="4"></rect>
<rect x="158.3275" y="67.4275" width="4.545" height="4.545" rx="4"></rect>
<rect x="170.44749999999996" y="67.4275" width="4.545" height="4.545" rx="4"></rect>
<rect x="176.50749999999996" y="67.4275" width="4.545" height="4.545" rx="4"></rect>
<rect x="182.56749999999997" y="67.4275" width="4.545" height="4.545" rx="4"></rect>
<rect x="194.68749999999997" y="67.4275" width="4.545" height="4.545" rx="4"></rect>
<rect x="0.7675" y="73.4875" width="4.545" height="4.545" rx="4"></rect>
<rect x="18.9475" y="73.4875" width="4.545" height="4.545" rx="4"></rect>
<rect x="25.0075" y="73.4875" width="4.545" height="4.545" rx="4"></rect>
<rect x="31.0675" y="73.4875" width="4.545" height="4.545" rx="4"></rect>
<rect x="37.1275" y="73.4875" width="4.545" height="4.545" rx="4"></rect>
<rect x="43.18749999999999" y="73.4875" width="4.545" height="4.545" rx="4"></rect>
<rect x="67.4275" y="73.4875" width="4.545" height="4.545" rx="4"></rect>
<rect x="73.4875" y="73.4875" width="4.545" height="4.545" rx="4"></rect>
<rect x="85.60749999999999" y="73.4875" width="4.545" height="4.545" rx="4"></rect>
<rect x="91.66749999999999" y="73.4875" width="4.545" height="4.545" rx="4"></rect>
<rect x="97.72749999999999" y="73.4875" width="4.545" height="4.545" rx="4"></rect>
<rect x="109.8475" y="73.4875" width="4.545" height="4.545" rx="4"></rect>
<rect x="115.90749999999998" y="73.4875" width="4.545" height="4.545" rx="4"></rect>
<rect x="128.0275" y="73.4875" width="4.545" height="4.545" rx="4"></rect>
<rect x="140.14749999999998" y="73.4875" width="4.545" height="4.545" rx="4"></rect>
<rect x="146.20749999999998" y="73.4875" width="4.545" height="4.545" rx="4"></rect>
<rect x="152.26749999999998" y="73.4875" width="4.545" height="4.545" rx="4"></rect>
<rect x="164.38749999999996" y="73.4875" width="4.545" height="4.545" rx="4"></rect>
<rect x="170.44749999999996" y="73.4875" width="4.545" height="4.545" rx="4"></rect>
<rect x="176.50749999999996" y="73.4875" width="4.545" height="4.545" rx="4"></rect>
<rect x="6.8275" y="79.5475" width="4.545" height="4.545" rx="4"></rect>
<rect x="12.8875" y="79.5475" width="4.545" height="4.545" rx="4"></rect>
<rect x="18.9475" y="79.5475" width="4.545" height="4.545" rx="4"></rect>
<rect x="25.0075" y="79.5475" width="4.545" height="4.545" rx="4"></rect>
<rect x="49.247499999999995" y="79.5475" width="4.545" height="4.545" rx="4"></rect>
<rect x="61.36749999999999" y="79.5475" width="4.545" height="4.545" rx="4"></rect>
<rect x="73.4875" y="79.5475" width="4.545" height="4.545" rx="4"></rect>
<rect x="85.60749999999999" y="79.5475" width="4.545" height="4.545" rx="4"></rect>
<rect x="91.66749999999999" y="79.5475" width="4.545" height="4.545" rx="4"></rect>
<rect x="97.72749999999999" y="79.5475" width="4.545" height="4.545" rx="4"></rect>
<rect x="121.96749999999999" y="79.5475" width="4.545" height="4.545" rx="4"></rect>
<rect x="134.08749999999998" y="79.5475" width="4.545" height="4.545" rx="4"></rect>
<rect x="152.26749999999998" y="79.5475" width="4.545" height="4.545" rx="4"></rect>
<rect x="158.3275" y="79.5475" width="4.545" height="4.545" rx="4"></rect>
<rect x="164.38749999999996" y="79.5475" width="4.545" height="4.545" rx="4"></rect>
<rect x="176.50749999999996" y="79.5475" width="4.545" height="4.545" rx="4"></rect>
<rect x="182.56749999999997" y="79.5475" width="4.545" height="4.545" rx="4"></rect>
<rect x="188.62749999999997" y="79.5475" width="4.545" height="4.545" rx="4"></rect>
<rect x="194.68749999999997" y="79.5475" width="4.545" height="4.545" rx="4"></rect>
<rect x="6.8275" y="85.60749999999999" width="4.545" height="4.545" rx="4"></rect>
<rect x="18.9475" y="85.60749999999999" width="4.545" height="4.545" rx="4"></rect>
<rect x="31.0675" y="85.60749999999999" width="4.545" height="4.545" rx="4"></rect>
<rect x="37.1275" y="85.60749999999999" width="4.545" height="4.545" rx="4"></rect>
<rect x="55.3075" y="85.60749999999999" width="4.545" height="4.545" rx="4"></rect>
<rect x="61.36749999999999" y="85.60749999999999" width="4.545" height="4.545" rx="4"></rect>
<rect x="73.4875" y="85.60749999999999" width="4.545" height="4.545" rx="4"></rect>
<rect x="79.5475" y="85.60749999999999" width="4.545" height="4.545" rx="4"></rect>
<rect x="91.66749999999999" y="85.60749999999999" width="4.545" height="4.545" rx="4"></rect>
<rect x="97.72749999999999" y="85.60749999999999" width="4.545" height="4.545" rx="4"></rect>
<rect x="115.90749999999998" y="85.60749999999999" width="4.545" height="4.545" rx="4"></rect>
<rect x="134.08749999999998" y="85.60749999999999" width="4.545" height="4.545" rx="4"></rect>
<rect x="140.14749999999998" y="85.60749999999999" width="4.545" height="4.545" rx="4"></rect>
<rect x="146.20749999999998" y="85.60749999999999" width="4.545" height="4.545" rx="4"></rect>
<rect x="152.26749999999998" y="85.60749999999999" width="4.545" height="4.545" rx="4"></rect>
<rect x="158.3275" y="85.60749999999999" width="4.545" height="4.545" rx="4"></rect>
<rect x="176.50749999999996" y="85.60749999999999" width="4.545" height="4.545" rx="4"></rect>
<rect x="182.56749999999997" y="85.60749999999999" width="4.545" height="4.545" rx="4"></rect>
<rect x="188.62749999999997" y="85.60749999999999" width="4.545" height="4.545" rx="4"></rect>
<rect x="6.8275" y="91.66749999999999" width="4.545" height="4.545" rx="4"></rect>
<rect x="25.0075" y="91.66749999999999" width="4.545" height="4.545" rx="4"></rect>
<rect x="31.0675" y="91.66749999999999" width="4.545" height="4.545" rx="4"></rect>
<rect x="55.3075" y="91.66749999999999" width="4.545" height="4.545" rx="4"></rect>
<rect x="61.36749999999999" y="91.66749999999999" width="4.545" height="4.545" rx="4"></rect>
<rect x="85.60749999999999" y="91.66749999999999" width="4.545" height="4.545" rx="4"></rect>
<rect x="91.66749999999999" y="91.66749999999999" width="4.545" height="4.545" rx="4"></rect>
<rect x="103.7875" y="91.66749999999999" width="4.545" height="4.545" rx="4"></rect>
<rect x="109.8475" y="91.66749999999999" width="4.545" height="4.545" rx="4"></rect>
<rect x="115.90749999999998" y="91.66749999999999" width="4.545" height="4.545" rx="4"></rect>
<rect x="121.96749999999999" y="91.66749999999999" width="4.545" height="4.545" rx="4"></rect>
<rect x="128.0275" y="91.66749999999999" width="4.545" height="4.545" rx="4"></rect>
<rect x="134.08749999999998" y="91.66749999999999" width="4.545" height="4.545" rx="4"></rect>
<rect x="140.14749999999998" y="91.66749999999999" width="4.545" height="4.545" rx="4"></rect>
<rect x="152.26749999999998" y="91.66749999999999" width="4.545" height="4.545" rx="4"></rect>
<rect x="158.3275" y="91.66749999999999" width="4.545" height="4.545" rx="4"></rect>
<rect x="176.50749999999996" y="91.66749999999999" width="4.545" height="4.545" rx="4"></rect>
<rect x="182.56749999999997" y="91.66749999999999" width="4.545" height="4.545" rx="4"></rect>
<rect x="18.9475" y="97.72749999999999" width="4.545" height="4.545" rx="4"></rect>
<rect x="25.0075" y="97.72749999999999" width="4.545" height="4.545" rx="4"></rect>
<rect x="37.1275" y="97.72749999999999" width="4.545" height="4.545" rx="4"></rect>
<rect x="67.4275" y="97.72749999999999" width="4.545" height="4.545" rx="4"></rect>
<rect x="73.4875" y="97.72749999999999" width="4.545" height="4.545" rx="4"></rect>
<rect x="97.72749999999999" y="97.72749999999999" width="4.545" height="4.545" rx="4"></rect>
<rect x="103.7875" y="97.72749999999999" width="4.545" height="4.545" rx="4"></rect>
<rect x="109.8475" y="97.72749999999999" width="4.545" height="4.545" rx="4"></rect>
<rect x="115.90749999999998" y="97.72749999999999" width="4.545" height="4.545" rx="4"></rect>
<rect x="134.08749999999998" y="97.72749999999999" width="4.545" height="4.545" rx="4"></rect>
<rect x="140.14749999999998" y="97.72749999999999" width="4.545" height="4.545" rx="4"></rect>
<rect x="146.20749999999998" y="97.72749999999999" width="4.545" height="4.545" rx="4"></rect>
<rect x="152.26749999999998" y="97.72749999999999" width="4.545" height="4.545" rx="4"></rect>
<rect x="164.38749999999996" y="97.72749999999999" width="4.545" height="4.545" rx="4"></rect>
<rect x="170.44749999999996" y="97.72749999999999" width="4.545" height="4.545" rx="4"></rect>
<rect x="176.50749999999996" y="97.72749999999999" width="4.545" height="4.545" rx="4"></rect>
<rect x="194.68749999999997" y="97.72749999999999" width="4.545" height="4.545" rx="4"></rect>
<rect x="6.8275" y="103.7875" width="4.545" height="4.545" rx="4"></rect>
<rect x="31.0675" y="103.7875" width="4.545" height="4.545" rx="4"></rect>
<rect x="49.247499999999995" y="103.7875" width="4.545" height="4.545" rx="4"></rect>
<rect x="61.36749999999999" y="103.7875" width="4.545" height="4.545" rx="4"></rect>
<rect x="73.4875" y="103.7875" width="4.545" height="4.545" rx="4"></rect>
<rect x="79.5475" y="103.7875" width="4.545" height="4.545" rx="4"></rect>
<rect x="85.60749999999999" y="103.7875" width="4.545" height="4.545" rx="4"></rect>
<rect x="97.72749999999999" y="103.7875" width="4.545" height="4.545" rx="4"></rect>
<rect x="115.90749999999998" y="103.7875" width="4.545" height="4.545" rx="4"></rect>
<rect x="140.14749999999998" y="103.7875" width="4.545" height="4.545" rx="4"></rect>
<rect x="158.3275" y="103.7875" width="4.545" height="4.545" rx="4"></rect>
<rect x="164.38749999999996" y="103.7875" width="4.545" height="4.545" rx="4"></rect>
<rect x="176.50749999999996" y="103.7875" width="4.545" height="4.545" rx="4"></rect>
<rect x="182.56749999999997" y="103.7875" width="4.545" height="4.545" rx="4"></rect>
<rect x="188.62749999999997" y="103.7875" width="4.545" height="4.545" rx="4"></rect>
<rect x="194.68749999999997" y="103.7875" width="4.545" height="4.545" rx="4"></rect>
<rect x="0.7675" y="109.8475" width="4.545" height="4.545" rx="4"></rect>
<rect x="18.9475" y="109.8475" width="4.545" height="4.545" rx="4"></rect>
<rect x="37.1275" y="109.8475" width="4.545" height="4.545" rx="4"></rect>
<rect x="49.247499999999995" y="109.8475" width="4.545" height="4.545" rx="4"></rect>
<rect x="55.3075" y="109.8475" width="4.545" height="4.545" rx="4"></rect>
<rect x="61.36749999999999" y="109.8475" width="4.545" height="4.545" rx="4"></rect>
<rect x="73.4875" y="109.8475" width="4.545" height="4.545" rx="4"></rect>
<rect x="91.66749999999999" y="109.8475" width="4.545" height="4.545" rx="4"></rect>
<rect x="97.72749999999999" y="109.8475" width="4.545" height="4.545" rx="4"></rect>
<rect x="103.7875" y="109.8475" width="4.545" height="4.545" rx="4"></rect>
<rect x="109.8475" y="109.8475" width="4.545" height="4.545" rx="4"></rect>
<rect x="121.96749999999999" y="109.8475" width="4.545" height="4.545" rx="4"></rect>
<rect x="134.08749999999998" y="109.8475" width="4.545" height="4.545" rx="4"></rect>
<rect x="164.38749999999996" y="109.8475" width="4.545" height="4.545" rx="4"></rect>
<rect x="170.44749999999996" y="109.8475" width="4.545" height="4.545" rx="4"></rect>
<rect x="182.56749999999997" y="109.8475" width="4.545" height="4.545" rx="4"></rect>
<rect x="188.62749999999997" y="109.8475" width="4.545" height="4.545" rx="4"></rect>
<rect x="12.8875" y="115.90749999999998" width="4.545" height="4.545" rx="4"></rect>
<rect x="25.0075" y="115.90749999999998" width="4.545" height="4.545" rx="4"></rect>
<rect x="43.18749999999999" y="115.90749999999998" width="4.545" height="4.545" rx="4"></rect>
<rect x="49.247499999999995" y="115.90749999999998" width="4.545" height="4.545" rx="4"></rect>
<rect x="61.36749999999999" y="115.90749999999998" width="4.545" height="4.545" rx="4"></rect>
<rect x="67.4275" y="115.90749999999998" width="4.545" height="4.545" rx="4"></rect>
<rect x="73.4875" y="115.90749999999998" width="4.545" height="4.545" rx="4"></rect>
<rect x="85.60749999999999" y="115.90749999999998" width="4.545" height="4.545" rx="4"></rect>
<rect x="91.66749999999999" y="115.90749999999998" width="4.545" height="4.545" rx="4"></rect>
<rect x="97.72749999999999" y="115.90749999999998" width="4.545" height="4.545" rx="4"></rect>
<rect x="115.90749999999998" y="115.90749999999998" width="4.545" height="4.545" rx="4"></rect>
<rect x="140.14749999999998" y="115.90749999999998" width="4.545" height="4.545" rx="4"></rect>
<rect x="146.20749999999998" y="115.90749999999998" width="4.545" height="4.545" rx="4"></rect>
<rect x="164.38749999999996" y="115.90749999999998" width="4.545" height="4.545" rx="4"></rect>
<rect x="170.44749999999996" y="115.90749999999998" width="4.545" height="4.545" rx="4"></rect>
<rect x="176.50749999999996" y="115.90749999999998" width="4.545" height="4.545" rx="4"></rect>
<rect x="182.56749999999997" y="115.90749999999998" width="4.545" height="4.545" rx="4"></rect>
<rect x="188.62749999999997" y="115.90749999999998" width="4.545" height="4.545" rx="4"></rect>
<rect x="194.68749999999997" y="115.90749999999998" width="4.545" height="4.545" rx="4"></rect>
<rect x="31.0675" y="121.96749999999999" width="4.545" height="4.545" rx="4"></rect>
<rect x="37.1275" y="121.96749999999999" width="4.545" height="4.545" rx="4"></rect>
<rect x="49.247499999999995" y="121.96749999999999" width="4.545" height="4.545" rx="4"></rect>
<rect x="61.36749999999999" y="121.96749999999999" width="4.545" height="4.545" rx="4"></rect>
<rect x="67.4275" y="121.96749999999999" width="4.545" height="4.545" rx="4"></rect>
<rect x="73.4875" y="121.96749999999999" width="4.545" height="4.545" rx="4"></rect>
<rect x="79.5475" y="121.96749999999999" width="4.545" height="4.545" rx="4"></rect>
<rect x="97.72749999999999" y="121.96749999999999" width="4.545" height="4.545" rx="4"></rect>
<rect x="103.7875" y="121.96749999999999" width="4.545" height="4.545" rx="4"></rect>
<rect x="109.8475" y="121.96749999999999" width="4.545" height="4.545" rx="4"></rect>
<rect x="121.96749999999999" y="121.96749999999999" width="4.545" height="4.545" rx="4"></rect>
<rect x="128.0275" y="121.96749999999999" width="4.545" height="4.545" rx="4"></rect>
<rect x="134.08749999999998" y="121.96749999999999" width="4.545" height="4.545" rx="4"></rect>
<rect x="146.20749999999998" y="121.96749999999999" width="4.545" height="4.545" rx="4"></rect>
<rect x="152.26749999999998" y="121.96749999999999" width="4.545" height="4.545" rx="4"></rect>
<rect x="164.38749999999996" y="121.96749999999999" width="4.545" height="4.545" rx="4"></rect>
<rect x="170.44749999999996" y="121.96749999999999" width="4.545" height="4.545" rx="4"></rect>
<rect x="176.50749999999996" y="121.96749999999999" width="4.545" height="4.545" rx="4"></rect>
<rect x="188.62749999999997" y="121.96749999999999" width="4.545" height="4.545" rx="4"></rect>
<rect x="194.68749999999997" y="121.96749999999999" width="4.545" height="4.545" rx="4"></rect>
<rect x="0.7675" y="128.0275" width="4.545" height="4.545" rx="4"></rect>
<rect x="6.8275" y="128.0275" width="4.545" height="4.545" rx="4"></rect>
<rect x="12.8875" y="128.0275" width="4.545" height="4.545" rx="4"></rect>
<rect x="31.0675" y="128.0275" width="4.545" height="4.545" rx="4"></rect>
<rect x="55.3075" y="128.0275" width="4.545" height="4.545" rx="4"></rect>
<rect x="61.36749999999999" y="128.0275" width="4.545" height="4.545" rx="4"></rect>
<rect x="67.4275" y="128.0275" width="4.545" height="4.545" rx="4"></rect>
<rect x="91.66749999999999" y="128.0275" width="4.545" height="4.545" rx="4"></rect>
<rect x="97.72749999999999" y="128.0275" width="4.545" height="4.545" rx="4"></rect>
<rect x="109.8475" y="128.0275" width="4.545" height="4.545" rx="4"></rect>
<rect x="146.20749999999998" y="128.0275" width="4.545" height="4.545" rx="4"></rect>
<rect x="158.3275" y="128.0275" width="4.545" height="4.545" rx="4"></rect>
<rect x="182.56749999999997" y="128.0275" width="4.545" height="4.545" rx="4"></rect>
<rect x="194.68749999999997" y="128.0275" width="4.545" height="4.545" rx="4"></rect>
<rect x="0.7675" y="134.08749999999998" width="4.545" height="4.545" rx="4"></rect>
<rect x="25.0075" y="134.08749999999998" width="4.545" height="4.545" rx="4"></rect>
<rect x="37.1275" y="134.08749999999998" width="4.545" height="4.545" rx="4"></rect>
<rect x="43.18749999999999" y="134.08749999999998" width="4.545" height="4.545" rx="4"></rect>
<rect x="49.247499999999995" y="134.08749999999998" width="4.545" height="4.545" rx="4"></rect>
<rect x="55.3075" y="134.08749999999998" width="4.545" height="4.545" rx="4"></rect>
<rect x="61.36749999999999" y="134.08749999999998" width="4.545" height="4.545" rx="4"></rect>
<rect x="67.4275" y="134.08749999999998" width="4.545" height="4.545" rx="4"></rect>
<rect x="91.66749999999999" y="134.08749999999998" width="4.545" height="4.545" rx="4"></rect>
<rect x="97.72749999999999" y="134.08749999999998" width="4.545" height="4.545" rx="4"></rect>
<rect x="103.7875" y="134.08749999999998" width="4.545" height="4.545" rx="4"></rect>
<rect x="121.96749999999999" y="134.08749999999998" width="4.545" height="4.545" rx="4"></rect>
<rect x="134.08749999999998" y="134.08749999999998" width="4.545" height="4.545" rx="4"></rect>
<rect x="146.20749999999998" y="134.08749999999998" width="4.545" height="4.545" rx="4"></rect>
<rect x="152.26749999999998" y="134.08749999999998" width="4.545" height="4.545" rx="4"></rect>
<rect x="158.3275" y="134.08749999999998" width="4.545" height="4.545" rx="4"></rect>
<rect x="176.50749999999996" y="134.08749999999998" width="4.545" height="4.545" rx="4"></rect>
<rect x="188.62749999999997" y="134.08749999999998" width="4.545" height="4.545" rx="4"></rect>
<rect x="0.7675" y="140.14749999999998" width="4.545" height="4.545" rx="4"></rect>
<rect x="12.8875" y="140.14749999999998" width="4.545" height="4.545" rx="4"></rect>
<rect x="18.9475" y="140.14749999999998" width="4.545" height="4.545" rx="4"></rect>
<rect x="31.0675" y="140.14749999999998" width="4.545" height="4.545" rx="4"></rect>
<rect x="61.36749999999999" y="140.14749999999998" width="4.545" height="4.545" rx="4"></rect>
<rect x="79.5475" y="140.14749999999998" width="4.545" height="4.545" rx="4"></rect>
<rect x="85.60749999999999" y="140.14749999999998" width="4.545" height="4.545" rx="4"></rect>
<rect x="91.66749999999999" y="140.14749999999998" width="4.545" height="4.545" rx="4"></rect>
<rect x="128.0275" y="140.14749999999998" width="4.545" height="4.545" rx="4"></rect>
<rect x="140.14749999999998" y="140.14749999999998" width="4.545" height="4.545" rx="4"></rect>
<rect x="152.26749999999998" y="140.14749999999998" width="4.545" height="4.545" rx="4"></rect>
<rect x="170.44749999999996" y="140.14749999999998" width="4.545" height="4.545" rx="4"></rect>
<rect x="176.50749999999996" y="140.14749999999998" width="4.545" height="4.545" rx="4"></rect>
<rect x="182.56749999999997" y="140.14749999999998" width="4.545" height="4.545" rx="4"></rect>
<rect x="194.68749999999997" y="140.14749999999998" width="4.545" height="4.545" rx="4"></rect>
<rect x="0.7675" y="146.20749999999998" width="4.545" height="4.545" rx="4"></rect>
<rect x="37.1275" y="146.20749999999998" width="4.545" height="4.545" rx="4"></rect>
<rect x="43.18749999999999" y="146.20749999999998" width="4.545" height="4.545" rx="4"></rect>
<rect x="55.3075" y="146.20749999999998" width="4.545" height="4.545" rx="4"></rect>
<rect x="67.4275" y="146.20749999999998" width="4.545" height="4.545" rx="4"></rect>
<rect x="73.4875" y="146.20749999999998" width="4.545" height="4.545" rx="4"></rect>
<rect x="79.5475" y="146.20749999999998" width="4.545" height="4.545" rx="4"></rect>
<rect x="85.60749999999999" y="146.20749999999998" width="4.545" height="4.545" rx="4"></rect>
<rect x="91.66749999999999" y="146.20749999999998" width="4.545" height="4.545" rx="4"></rect>
<rect x="121.96749999999999" y="146.20749999999998" width="4.545" height="4.545" rx="4"></rect>
<rect x="134.08749999999998" y="146.20749999999998" width="4.545" height="4.545" rx="4"></rect>
<rect x="146.20749999999998" y="146.20749999999998" width="4.545" height="4.545" rx="4"></rect>
<rect x="152.26749999999998" y="146.20749999999998" width="4.545" height="4.545" rx="4"></rect>
<rect x="158.3275" y="146.20749999999998" width="4.545" height="4.545" rx="4"></rect>
<rect x="164.38749999999996" y="146.20749999999998" width="4.545" height="4.545" rx="4"></rect>
<rect x="170.44749999999996" y="146.20749999999998" width="4.545" height="4.545" rx="4"></rect>
<rect x="176.50749999999996" y="146.20749999999998" width="4.545" height="4.545" rx="4"></rect>
<rect x="49.247499999999995" y="152.26749999999998" width="4.545" height="4.545" rx="4"></rect>
<rect x="55.3075" y="152.26749999999998" width="4.545" height="4.545" rx="4"></rect>
<rect x="61.36749999999999" y="152.26749999999998" width="4.545" height="4.545" rx="4"></rect>
<rect x="67.4275" y="152.26749999999998" width="4.545" height="4.545" rx="4"></rect>
<rect x="73.4875" y="152.26749999999998" width="4.545" height="4.545" rx="4"></rect>
<rect x="85.60749999999999" y="152.26749999999998" width="4.545" height="4.545" rx="4"></rect>
<rect x="91.66749999999999" y="152.26749999999998" width="4.545" height="4.545" rx="4"></rect>
<rect x="97.72749999999999" y="152.26749999999998" width="4.545" height="4.545" rx="4"></rect>
<rect x="103.7875" y="152.26749999999998" width="4.545" height="4.545" rx="4"></rect>
<rect x="115.90749999999998" y="152.26749999999998" width="4.545" height="4.545" rx="4"></rect>
<rect x="121.96749999999999" y="152.26749999999998" width="4.545" height="4.545" rx="4"></rect>
<rect x="128.0275" y="152.26749999999998" width="4.545" height="4.545" rx="4"></rect>
<rect x="140.14749999999998" y="152.26749999999998" width="4.545" height="4.545" rx="4"></rect>
<rect x="146.20749999999998" y="152.26749999999998" width="4.545" height="4.545" rx="4"></rect>
<rect x="170.44749999999996" y="152.26749999999998" width="4.545" height="4.545" rx="4"></rect>
<rect x="182.56749999999997" y="152.26749999999998" width="4.545" height="4.545" rx="4"></rect>
<rect x="194.68749999999997" y="152.26749999999998" width="4.545" height="4.545" rx="4"></rect>
<rect x="49.247499999999995" y="158.3275" width="4.545" height="4.545" rx="4"></rect>
<rect x="55.3075" y="158.3275" width="4.545" height="4.545" rx="4"></rect>
<rect x="61.36749999999999" y="158.3275" width="4.545" height="4.545" rx="4"></rect>
<rect x="85.60749999999999" y="158.3275" width="4.545" height="4.545" rx="4"></rect>
<rect x="97.72749999999999" y="158.3275" width="4.545" height="4.545" rx="4"></rect>
<rect x="109.8475" y="158.3275" width="4.545" height="4.545" rx="4"></rect>
<rect x="121.96749999999999" y="158.3275" width="4.545" height="4.545" rx="4"></rect>
<rect x="128.0275" y="158.3275" width="4.545" height="4.545" rx="4"></rect>
<rect x="140.14749999999998" y="158.3275" width="4.545" height="4.545" rx="4"></rect>
<rect x="146.20749999999998" y="158.3275" width="4.545" height="4.545" rx="4"></rect>
<rect x="158.3275" y="158.3275" width="4.545" height="4.545" rx="4"></rect>
<rect x="170.44749999999996" y="158.3275" width="4.545" height="4.545" rx="4"></rect>
<rect x="182.56749999999997" y="158.3275" width="4.545" height="4.545" rx="4"></rect>
<rect x="49.247499999999995" y="164.38749999999996" width="4.545" height="4.545" rx="4"></rect>
<rect x="55.3075" y="164.38749999999996" width="4.545" height="4.545" rx="4"></rect>
<rect x="91.66749999999999" y="164.38749999999996" width="4.545" height="4.545" rx="4"></rect>
<rect x="103.7875" y="164.38749999999996" width="4.545" height="4.545" rx="4"></rect>
<rect x="115.90749999999998" y="164.38749999999996" width="4.545" height="4.545" rx="4"></rect>
<rect x="128.0275" y="164.38749999999996" width="4.545" height="4.545" rx="4"></rect>
<rect x="134.08749999999998" y="164.38749999999996" width="4.545" height="4.545" rx="4"></rect>
<rect x="140.14749999999998" y="164.38749999999996" width="4.545" height="4.545" rx="4"></rect>
<rect x="146.20749999999998" y="164.38749999999996" width="4.545" height="4.545" rx="4"></rect>
<rect x="170.44749999999996" y="164.38749999999996" width="4.545" height="4.545" rx="4"></rect>
<rect x="176.50749999999996" y="164.38749999999996" width="4.545" height="4.545" rx="4"></rect>
<rect x="182.56749999999997" y="164.38749999999996" width="4.545" height="4.545" rx="4"></rect>
<rect x="188.62749999999997" y="164.38749999999996" width="4.545" height="4.545" rx="4"></rect>
<rect x="49.247499999999995" y="170.44749999999996" width="4.545" height="4.545" rx="4"></rect>
<rect x="61.36749999999999" y="170.44749999999996" width="4.545" height="4.545" rx="4"></rect>
<rect x="73.4875" y="170.44749999999996" width="4.545" height="4.545" rx="4"></rect>
<rect x="79.5475" y="170.44749999999996" width="4.545" height="4.545" rx="4"></rect>
<rect x="91.66749999999999" y="170.44749999999996" width="4.545" height="4.545" rx="4"></rect>
<rect x="97.72749999999999" y="170.44749999999996" width="4.545" height="4.545" rx="4"></rect>
<rect x="103.7875" y="170.44749999999996" width="4.545" height="4.545" rx="4"></rect>
<rect x="109.8475" y="170.44749999999996" width="4.545" height="4.545" rx="4"></rect>
<rect x="128.0275" y="170.44749999999996" width="4.545" height="4.545" rx="4"></rect>
<rect x="146.20749999999998" y="170.44749999999996" width="4.545" height="4.545" rx="4"></rect>
<rect x="152.26749999999998" y="170.44749999999996" width="4.545" height="4.545" rx="4"></rect>
<rect x="158.3275" y="170.44749999999996" width="4.545" height="4.545" rx="4"></rect>
<rect x="164.38749999999996" y="170.44749999999996" width="4.545" height="4.545" rx="4"></rect>
<rect x="170.44749999999996" y="170.44749999999996" width="4.545" height="4.545" rx="4"></rect>
<rect x="176.50749999999996" y="170.44749999999996" width="4.545" height="4.545" rx="4"></rect>
<rect x="188.62749999999997" y="170.44749999999996" width="4.545" height="4.545" rx="4"></rect>
<rect x="194.68749999999997" y="170.44749999999996" width="4.545" height="4.545" rx="4"></rect>
<rect x="49.247499999999995" y="176.50749999999996" width="4.545" height="4.545" rx="4"></rect>
<rect x="85.60749999999999" y="176.50749999999996" width="4.545" height="4.545" rx="4"></rect>
<rect x="121.96749999999999" y="176.50749999999996" width="4.545" height="4.545" rx="4"></rect>
<rect x="128.0275" y="176.50749999999996" width="4.545" height="4.545" rx="4"></rect>
<rect x="134.08749999999998" y="176.50749999999996" width="4.545" height="4.545" rx="4"></rect>
<rect x="140.14749999999998" y="176.50749999999996" width="4.545" height="4.545" rx="4"></rect>
<rect x="146.20749999999998" y="176.50749999999996" width="4.545" height="4.545" rx="4"></rect>
<rect x="152.26749999999998" y="176.50749999999996" width="4.545" height="4.545" rx="4"></rect>
<rect x="170.44749999999996" y="176.50749999999996" width="4.545" height="4.545" rx="4"></rect>
<rect x="176.50749999999996" y="176.50749999999996" width="4.545" height="4.545" rx="4"></rect>
<rect x="182.56749999999997" y="176.50749999999996" width="4.545" height="4.545" rx="4"></rect>
<rect x="194.68749999999997" y="176.50749999999996" width="4.545" height="4.545" rx="4"></rect>
<rect x="49.247499999999995" y="182.56749999999997" width="4.545" height="4.545" rx="4"></rect>
<rect x="55.3075" y="182.56749999999997" width="4.545" height="4.545" rx="4"></rect>
<rect x="61.36749999999999" y="182.56749999999997" width="4.545" height="4.545" rx="4"></rect>
<rect x="91.66749999999999" y="182.56749999999997" width="4.545" height="4.545" rx="4"></rect>
<rect x="115.90749999999998" y="182.56749999999997" width="4.545" height="4.545" rx="4"></rect>
<rect x="134.08749999999998" y="182.56749999999997" width="4.545" height="4.545" rx="4"></rect>
<rect x="146.20749999999998" y="182.56749999999997" width="4.545" height="4.545" rx="4"></rect>
<rect x="158.3275" y="182.56749999999997" width="4.545" height="4.545" rx="4"></rect>
<rect x="164.38749999999996" y="182.56749999999997" width="4.545" height="4.545" rx="4"></rect>
<rect x="176.50749999999996" y="182.56749999999997" width="4.545" height="4.545" rx="4"></rect>
<rect x="182.56749999999997" y="182.56749999999997" width="4.545" height="4.545" rx="4"></rect>
<rect x="49.247499999999995" y="188.62749999999997" width="4.545" height="4.545" rx="4"></rect>
<rect x="55.3075" y="188.62749999999997" width="4.545" height="4.545" rx="4"></rect>
<rect x="61.36749999999999" y="188.62749999999997" width="4.545" height="4.545" rx="4"></rect>
<rect x="67.4275" y="188.62749999999997" width="4.545" height="4.545" rx="4"></rect>
<rect x="73.4875" y="188.62749999999997" width="4.545" height="4.545" rx="4"></rect>
<rect x="85.60749999999999" y="188.62749999999997" width="4.545" height="4.545" rx="4"></rect>
<rect x="103.7875" y="188.62749999999997" width="4.545" height="4.545" rx="4"></rect>
<rect x="115.90749999999998" y="188.62749999999997" width="4.545" height="4.545" rx="4"></rect>
<rect x="121.96749999999999" y="188.62749999999997" width="4.545" height="4.545" rx="4"></rect>
<rect x="128.0275" y="188.62749999999997" width="4.545" height="4.545" rx="4"></rect>
<rect x="134.08749999999998" y="188.62749999999997" width="4.545" height="4.545" rx="4"></rect>
<rect x="152.26749999999998" y="188.62749999999997" width="4.545" height="4.545" rx="4"></rect>
<rect x="170.44749999999996" y="188.62749999999997" width="4.545" height="4.545" rx="4"></rect>
<rect x="176.50749999999996" y="188.62749999999997" width="4.545" height="4.545" rx="4"></rect>
<rect x="182.56749999999997" y="188.62749999999997" width="4.545" height="4.545" rx="4"></rect>
<rect x="61.36749999999999" y="194.68749999999997" width="4.545" height="4.545" rx="4"></rect>
<rect x="67.4275" y="194.68749999999997" width="4.545" height="4.545" rx="4"></rect>
<rect x="73.4875" y="194.68749999999997" width="4.545" height="4.545" rx="4"></rect>
<rect x="79.5475" y="194.68749999999997" width="4.545" height="4.545" rx="4"></rect>
<rect x="85.60749999999999" y="194.68749999999997" width="4.545" height="4.545" rx="4"></rect>
<rect x="115.90749999999998" y="194.68749999999997" width="4.545" height="4.545" rx="4"></rect>
<rect x="134.08749999999998" y="194.68749999999997" width="4.545" height="4.545" rx="4"></rect>
<rect x="140.14749999999998" y="194.68749999999997" width="4.545" height="4.545" rx="4"></rect>
<rect x="146.20749999999998" y="194.68749999999997" width="4.545" height="4.545" rx="4"></rect>
<rect x="164.38749999999996" y="194.68749999999997" width="4.545" height="4.545" rx="4"></rect>
<rect x="188.62749999999997" y="194.68749999999997" width="4.545" height="4.545" rx="4"></rect>
</g>
<g>
<rect x="3.03" y="3.03" width="36.36" fill="none" height="36.36" stroke-width="6.06" stroke="#222222" rx="6.06"></rect>
<rect x="12.12" y="12.12" width="18.18" fill="#222222" height="18.18" rx="3.03"></rect>
<rect x="160.61" y="3.03" width="36.36" fill="none" height="36.36" stroke-width="6.06" stroke="#222222" rx="6.06"></rect>
<rect x="169.7" y="12.12" width="18.18" fill="#222222" height="18.18" rx="3.03"></rect>
<rect x="3.03" y="160.61" width="36.36" fill="none" height="36.36" stroke-width="6.06" stroke="#222222" rx="6.06"></rect>
<rect x="12.12" y="169.7" width="18.18" fill="#222222" height="18.18" rx="3.03"></rect>
</g>
</g>
</svg>
