<svg width="10" height="10" viewBox="0 0 10 10" fill="none" xmlns="http://www.w3.org/2000/svg">
<g opacity="0.2" clip-path="url(#clip0_18_193)">
<path d="M5 0.9375C3.92256 0.9375 2.88925 1.36551 2.12738 2.12738C1.36551 2.88925 0.9375 3.92256 0.9375 5C0.9375 6.07744 1.36551 7.11075 2.12738 7.87262C2.88925 8.63449 3.92256 9.0625 5 9.0625C5.84023 9.0625 6.72266 8.80937 7.36055 8.38555C7.39474 8.36282 7.42412 8.33359 7.44701 8.29951C7.4699 8.26543 7.48585 8.22717 7.49396 8.18693C7.50207 8.14668 7.50217 8.10524 7.49426 8.06495C7.48634 8.02467 7.47058 7.98634 7.44785 7.95215C7.42513 7.91796 7.39589 7.88858 7.36181 7.86569C7.32773 7.8428 7.28948 7.82684 7.24923 7.81874C7.20899 7.81063 7.16754 7.81053 7.12726 7.81844C7.08697 7.82635 7.04864 7.84212 7.01445 7.86484C6.48438 8.21797 5.71133 8.4375 5 8.4375C4.32013 8.4375 3.65552 8.23589 3.09023 7.85818C2.52493 7.48046 2.08434 6.9436 1.82416 6.31547C1.56399 5.68735 1.49591 4.99619 1.62855 4.32938C1.76119 3.66257 2.08858 3.05006 2.56932 2.56932C3.05006 2.08858 3.66257 1.76119 4.32938 1.62855C4.99619 1.49591 5.68735 1.56399 6.31547 1.82416C6.9436 2.08434 7.48046 2.52493 7.85818 3.09023C8.23589 3.65552 8.4375 4.32013 8.4375 5C8.4375 6.0332 8.0125 6.25 7.65625 6.25C7.3 6.25 6.875 6.0332 6.875 5V3.4375C6.875 3.35462 6.84208 3.27513 6.78347 3.21653C6.72487 3.15792 6.64538 3.125 6.5625 3.125C6.47962 3.125 6.40013 3.15792 6.34153 3.21653C6.28292 3.27513 6.25 3.35462 6.25 3.4375V3.60391C5.96956 3.35247 5.6199 3.19133 5.24657 3.14146C4.87323 3.0916 4.49354 3.15532 4.15694 3.32434C3.82034 3.49336 3.54245 3.75983 3.35947 4.08905C3.17649 4.41826 3.0969 4.79495 3.13106 5.17005C3.16523 5.54514 3.31158 5.90125 3.55103 6.19199C3.79048 6.48272 4.11195 6.6946 4.47354 6.80002C4.83514 6.90544 5.2201 6.89951 5.57828 6.78301C5.93646 6.66651 6.25125 6.44484 6.48164 6.14688C6.71602 6.61563 7.12031 6.875 7.65625 6.875C8.53672 6.875 9.0625 6.17422 9.0625 5C9.06136 3.92291 8.63299 2.89026 7.87136 2.12863C7.10974 1.36701 6.07709 0.938637 5 0.9375ZM5 6.25C4.75277 6.25 4.5111 6.17669 4.30554 6.03934C4.09998 5.90199 3.93976 5.70676 3.84515 5.47835C3.75054 5.24995 3.72579 4.99861 3.77402 4.75614C3.82225 4.51366 3.9413 4.29093 4.11612 4.11612C4.29093 3.9413 4.51366 3.82225 4.75614 3.77402C4.99861 3.72579 5.24995 3.75054 5.47835 3.84515C5.70676 3.93976 5.90199 4.09998 6.03934 4.30554C6.17669 4.5111 6.25 4.75277 6.25 5C6.25 5.33152 6.1183 5.64946 5.88388 5.88388C5.64946 6.1183 5.33152 6.25 5 6.25Z" fill="black"/>
</g>
<defs>
<clipPath id="clip0_18_193">
<rect width="10" height="10" fill="white"/>
</clipPath>
</defs>
</svg>
