<svg width="10" height="10" viewBox="0 0 10 10" fill="none" xmlns="http://www.w3.org/2000/svg">
<g opacity="1" clip-path="url(#clip0_18_195)">
<path d="M8.4375 0.9375H1.5625C1.39674 0.9375 1.23777 1.00335 1.12056 1.12056C1.00335 1.23777 0.9375 1.39674 0.9375 1.5625V8.4375C0.9375 8.60326 1.00335 8.76223 1.12056 8.87944C1.23777 8.99665 1.39674 9.0625 1.5625 9.0625H8.4375C8.60326 9.0625 8.76223 8.99665 8.87944 8.87944C8.99665 8.76223 9.0625 8.60326 9.0625 8.4375V1.5625C9.0625 1.39674 8.99665 1.23777 8.87944 1.12056C8.76223 1.00335 8.60326 0.9375 8.4375 0.9375ZM8.4375 8.4375H1.5625V1.5625H8.4375V8.4375ZM3.75 4.375V6.875C3.75 6.95788 3.71708 7.03737 3.65847 7.09597C3.59987 7.15458 3.52038 7.1875 3.4375 7.1875C3.35462 7.1875 3.27513 7.15458 3.21653 7.09597C3.15792 7.03737 3.125 6.95788 3.125 6.875V4.375C3.125 4.29212 3.15792 4.21263 3.21653 4.15403C3.27513 4.09542 3.35462 4.0625 3.4375 4.0625C3.52038 4.0625 3.59987 4.09542 3.65847 4.15403C3.71708 4.21263 3.75 4.29212 3.75 4.375ZM7.1875 5.46875V6.875C7.1875 6.95788 7.15458 7.03737 7.09597 7.09597C7.03737 7.15458 6.95788 7.1875 6.875 7.1875C6.79212 7.1875 6.71263 7.15458 6.65403 7.09597C6.59542 7.03737 6.5625 6.95788 6.5625 6.875V5.46875C6.5625 5.26155 6.48019 5.06284 6.33368 4.91632C6.18716 4.76981 5.98845 4.6875 5.78125 4.6875C5.57405 4.6875 5.37534 4.76981 5.22882 4.91632C5.08231 5.06284 5 5.26155 5 5.46875V6.875C5 6.95788 4.96708 7.03737 4.90847 7.09597C4.84987 7.15458 4.77038 7.1875 4.6875 7.1875C4.60462 7.1875 4.52513 7.15458 4.46653 7.09597C4.40792 7.03737 4.375 6.95788 4.375 6.875V4.375C4.37539 4.29846 4.40386 4.22471 4.45501 4.16777C4.50615 4.11082 4.57643 4.07462 4.65249 4.06605C4.72855 4.05748 4.80512 4.07712 4.86766 4.12125C4.93021 4.16538 4.97438 4.23093 4.9918 4.30547C5.2032 4.16206 5.44967 4.07894 5.70474 4.06505C5.95982 4.05115 6.21386 4.10699 6.43959 4.22659C6.66532 4.34618 6.85421 4.525 6.98598 4.74384C7.11775 4.96269 7.18742 5.2133 7.1875 5.46875ZM3.90625 3.28125C3.90625 3.37396 3.87876 3.46459 3.82725 3.54167C3.77574 3.61876 3.70254 3.67884 3.61688 3.71432C3.53123 3.7498 3.43698 3.75908 3.34605 3.74099C3.25512 3.72291 3.1716 3.67826 3.10604 3.61271C3.04049 3.54715 2.99584 3.46363 2.97776 3.3727C2.95967 3.28177 2.96895 3.18752 3.00443 3.10187C3.03991 3.01621 3.09999 2.94301 3.17708 2.8915C3.25416 2.83999 3.34479 2.8125 3.4375 2.8125C3.56182 2.8125 3.68105 2.86189 3.76896 2.94979C3.85686 3.0377 3.90625 3.15693 3.90625 3.28125Z" fill="currentColor"/>
</g>
<defs>
<clipPath id="clip0_18_195">
<rect width="10" height="10" fill="white"/>
</clipPath>
</defs>
</svg>
