<svg width="10" height="10" viewBox="0 0 10 10" fill="none" xmlns="http://www.w3.org/2000/svg">
<g opacity="0.2" clip-path="url(#clip0_18_199)">
<path d="M5 0.9375C4.19652 0.9375 3.41107 1.17576 2.743 1.62215C2.07492 2.06855 1.55422 2.70302 1.24674 3.44535C0.93926 4.18767 0.858809 5.00451 1.01556 5.79255C1.17231 6.5806 1.55923 7.30447 2.12738 7.87262C2.69553 8.44077 3.4194 8.82769 4.20745 8.98444C4.9955 9.14119 5.81233 9.06074 6.55465 8.75326C7.29698 8.44578 7.93145 7.92508 8.37785 7.257C8.82424 6.58893 9.0625 5.80349 9.0625 5C9.06126 3.92294 8.63285 2.89035 7.87125 2.12875C7.10966 1.36715 6.07706 0.938741 5 0.9375ZM8.4375 5C8.43777 5.31702 8.394 5.63253 8.30742 5.9375H6.80313C6.89896 5.31617 6.89896 4.68383 6.80313 4.0625H8.30742C8.394 4.36747 8.43777 4.68298 8.4375 5ZM3.98438 6.5625H6.01563C5.81551 7.2182 5.46812 7.81946 5 8.32031C4.53206 7.81933 4.18469 7.21811 3.98438 6.5625ZM3.83203 5.9375C3.72474 5.3171 3.72474 4.6829 3.83203 4.0625H6.1711C6.27838 4.6829 6.27838 5.3171 6.1711 5.9375H3.83203ZM1.5625 5C1.56223 4.68298 1.60601 4.36747 1.69258 4.0625H3.19688C3.10104 4.68383 3.10104 5.31617 3.19688 5.9375H1.69258C1.60601 5.63253 1.56223 5.31702 1.5625 5ZM6.01563 3.4375H3.98438C4.18449 2.7818 4.53188 2.18054 5 1.67969C5.46794 2.18067 5.81531 2.78189 6.01563 3.4375ZM8.05977 3.4375H6.66836C6.49299 2.7941 6.19742 2.18972 5.79727 1.65625C6.28075 1.77239 6.7334 1.99171 7.12419 2.29916C7.51497 2.60662 7.83466 2.99493 8.06133 3.4375H8.05977ZM4.20274 1.65625C3.80258 2.18972 3.50701 2.7941 3.33164 3.4375H1.93867C2.16534 2.99493 2.48503 2.60662 2.87582 2.29916C3.26661 1.99171 3.71926 1.77239 4.20274 1.65625ZM1.93867 6.5625H3.33164C3.50701 7.2059 3.80258 7.81028 4.20274 8.34375C3.71926 8.22761 3.26661 8.00829 2.87582 7.70084C2.48503 7.39339 2.16534 7.00507 1.93867 6.5625ZM5.79727 8.34375C6.19742 7.81028 6.49299 7.2059 6.66836 6.5625H8.06133C7.83466 7.00507 7.51497 7.39339 7.12419 7.70084C6.7334 8.00829 6.28075 8.22761 5.79727 8.34375Z" fill="black"/>
</g>
<defs>
<clipPath id="clip0_18_199">
<rect width="10" height="10" fill="white"/>
</clipPath>
</defs>
</svg>
